%TF.GenerationSoftware,KiCad,Pcbnew,10.0.4*%
%TF.CreationDate,2026-07-31T12:07:47+05:30*%
%TF.ProjectId,kicaddddd,6b696361-6464-4646-9464-2e6b69636164,rev?*%
%TF.SameCoordinates,Original*%
%TF.FileFunction,Copper,L1,Top*%
%TF.FilePolarity,Positive*%
%FSLAX46Y46*%
G04 Gerber Fmt 4.6, Leading zero omitted, Abs format (unit mm)*
G04 Created by KiCad (PCBNEW 10.0.4) date 2026-07-31 12:07:47*
%MOMM*%
%LPD*%
G01*
G04 APERTURE LIST*
G04 Aperture macros list*
%AMRoundRect*
0 Rectangle with rounded corners*
0 $1 Rounding radius*
0 $2 $3 $4 $5 $6 $7 $8 $9 X,Y pos of 4 corners*
0 Add a 4 corners polygon primitive as box body*
4,1,4,$2,$3,$4,$5,$6,$7,$8,$9,$2,$3,0*
0 Add four circle primitives for the rounded corners*
1,1,$1+$1,$2,$3*
1,1,$1+$1,$4,$5*
1,1,$1+$1,$6,$7*
1,1,$1+$1,$8,$9*
0 Add four rect primitives between the rounded corners*
20,1,$1+$1,$2,$3,$4,$5,0*
20,1,$1+$1,$4,$5,$6,$7,0*
20,1,$1+$1,$6,$7,$8,$9,0*
20,1,$1+$1,$8,$9,$2,$3,0*%
G04 Aperture macros list end*
%TA.AperFunction,ComponentPad*%
%ADD10O,1.900000X1.524000*%
%TD*%
%TA.AperFunction,ComponentPad*%
%ADD11RoundRect,0.250000X1.050000X-1.050000X1.050000X1.050000X-1.050000X1.050000X-1.050000X-1.050000X0*%
%TD*%
%TA.AperFunction,ComponentPad*%
%ADD12C,2.600000*%
%TD*%
%TA.AperFunction,SMDPad,CuDef*%
%ADD13RoundRect,0.200000X-0.200000X-0.275000X0.200000X-0.275000X0.200000X0.275000X-0.200000X0.275000X0*%
%TD*%
%TA.AperFunction,ComponentPad*%
%ADD14RoundRect,0.250000X-1.050000X1.050000X-1.050000X-1.050000X1.050000X-1.050000X1.050000X1.050000X0*%
%TD*%
%TA.AperFunction,ComponentPad*%
%ADD15RoundRect,0.250000X-0.550000X-0.550000X0.550000X-0.550000X0.550000X0.550000X-0.550000X0.550000X0*%
%TD*%
%TA.AperFunction,ComponentPad*%
%ADD16C,1.600000*%
%TD*%
%TA.AperFunction,SMDPad,CuDef*%
%ADD17RoundRect,0.225000X0.225000X0.250000X-0.225000X0.250000X-0.225000X-0.250000X0.225000X-0.250000X0*%
%TD*%
%TA.AperFunction,ComponentPad*%
%ADD18R,1.700000X1.700000*%
%TD*%
%TA.AperFunction,ComponentPad*%
%ADD19C,1.700000*%
%TD*%
%TA.AperFunction,SMDPad,CuDef*%
%ADD20RoundRect,0.225000X-0.225000X-0.250000X0.225000X-0.250000X0.225000X0.250000X-0.225000X0.250000X0*%
%TD*%
%TA.AperFunction,SMDPad,CuDef*%
%ADD21RoundRect,0.150000X0.150000X-0.587500X0.150000X0.587500X-0.150000X0.587500X-0.150000X-0.587500X0*%
%TD*%
%TA.AperFunction,ViaPad*%
%ADD22C,0.600000*%
%TD*%
%TA.AperFunction,Conductor*%
%ADD23C,0.200000*%
%TD*%
G04 APERTURE END LIST*
D10*
%TO.P,U1,1,VIN_1*%
%TO.N,+5V*%
X126002460Y-121019813D03*
%TO.P,U1,2,GND_2*%
%TO.N,GND*%
X126002460Y-118479813D03*
%TO.P,U1,3,GPIO13_3*%
%TO.N,unconnected-(U1-GPIO13-Pad3)*%
X126002460Y-115939813D03*
%TO.P,U1,4,GPIO12_4*%
%TO.N,unconnected-(U1-GPIO12-Pad4)*%
X126002460Y-113399813D03*
%TO.P,U1,5,GPIO14_5*%
%TO.N,unconnected-(U1-GPIO14-Pad5)*%
X126002460Y-110859813D03*
%TO.P,U1,6,GPIO27_6*%
%TO.N,unconnected-(U1-GPIO27-Pad6)*%
X126002460Y-108319813D03*
%TO.P,U1,7,GPIO26_7*%
%TO.N,unconnected-(U1-GPIO26-Pad7)*%
X126002460Y-105779813D03*
%TO.P,U1,8,GPIO25_8*%
%TO.N,unconnected-(U1-GPIO25-Pad8)*%
X126002460Y-103239813D03*
%TO.P,U1,9,GPIO33_9*%
%TO.N,unconnected-(U1-GPIO33-Pad9)*%
X126002460Y-100699813D03*
%TO.P,U1,10,GPIO32_10*%
%TO.N,unconnected-(U1-GPIO32-Pad10)*%
X126002460Y-98159813D03*
%TO.P,U1,11,GPIO35_11*%
%TO.N,unconnected-(U1-GPIO35-Pad11)*%
X126002460Y-95619813D03*
%TO.P,U1,12,GPIO34_12*%
%TO.N,unconnected-(U1-GPIO34-Pad12)*%
X126002460Y-93079813D03*
%TO.P,U1,13,GPIO39_13*%
%TO.N,unconnected-(U1-GPIO39-Pad13)*%
X126002460Y-90539813D03*
%TO.P,U1,14,GPIO36_14*%
%TO.N,unconnected-(U1-GPIO36-Pad14)*%
X126002460Y-87999813D03*
%TO.P,U1,15,EN_15*%
%TO.N,unconnected-(U1-EN-Pad15)*%
X126002460Y-85459813D03*
%TO.P,U1,16,3.3v_16*%
%TO.N,+3V3*%
X151402460Y-121019813D03*
%TO.P,U1,17,GND_17*%
%TO.N,GND*%
X151402460Y-118479813D03*
%TO.P,U1,18,GPIO15_18*%
%TO.N,unconnected-(U1-GPIO15-Pad18)*%
X151402460Y-115939813D03*
%TO.P,U1,19,GPIO2_19*%
%TO.N,unconnected-(U1-GPIO2-Pad19)*%
X151402460Y-113399813D03*
%TO.P,U1,20,GPIO4_20*%
%TO.N,unconnected-(U1-GPIO4-Pad20)*%
X151402460Y-110859813D03*
%TO.P,U1,21,GPIO16_21*%
%TO.N,unconnected-(U1-GPIO16-Pad21)*%
X151402460Y-108319813D03*
%TO.P,U1,22,GPIO17_22*%
%TO.N,unconnected-(U1-GPIO17-Pad22)*%
X151402460Y-105779813D03*
%TO.P,U1,23,GPIO5_23*%
%TO.N,unconnected-(U1-GPIO5-Pad23)*%
X151402460Y-103239813D03*
%TO.P,U1,24,GPIO18_24*%
%TO.N,unconnected-(U1-GPIO18-Pad24)*%
X151402460Y-100699813D03*
%TO.P,U1,25,GPIO19_25*%
%TO.N,unconnected-(U1-GPIO19-Pad25)*%
X151402460Y-98159813D03*
%TO.P,U1,26,GPIO21_26*%
%TO.N,/SDA*%
X151402460Y-95619813D03*
%TO.P,U1,27,GPIO3_27*%
%TO.N,unconnected-(U1-GPIO3-Pad27)*%
X151402460Y-93079813D03*
%TO.P,U1,28,GPIO1_28*%
%TO.N,unconnected-(U1-GPIO1-Pad28)*%
X151402460Y-90539813D03*
%TO.P,U1,29,GPIO22_29*%
%TO.N,/SCL*%
X151402460Y-87999813D03*
%TO.P,U1,30,GPIO23_30*%
%TO.N,unconnected-(U1-GPIO23-Pad30)*%
X151402460Y-85459813D03*
%TD*%
D11*
%TO.P,J3,1,Pin_1_1*%
%TO.N,GND*%
X160239702Y-94815399D03*
D12*
%TO.P,J3,2,Pin_2_2*%
%TO.N,/V-*%
X160239702Y-89735399D03*
%TD*%
D13*
%TO.P,R1,1*%
%TO.N,Net-(J1-Pin_7)*%
X116675000Y-98500000D03*
%TO.P,R1,2*%
%TO.N,/RE*%
X118325000Y-98500000D03*
%TD*%
D14*
%TO.P,J2,1,Pin_1_1*%
%TO.N,+5V*%
X117500000Y-115915000D03*
D12*
%TO.P,J2,2,Pin_2_2*%
%TO.N,GND*%
X117500000Y-120995000D03*
%TO.P,J2,3,Pin_3_3*%
%TO.N,-5V*%
X117500000Y-126075000D03*
%TD*%
D15*
%TO.P,U3,1*%
%TO.N,/RE*%
X156190000Y-103190000D03*
D16*
%TO.P,U3,2,-_2*%
X156190000Y-105730000D03*
%TO.P,U3,3,+_3*%
%TO.N,/V-*%
X156190000Y-108270000D03*
%TO.P,U3,4,V-_4*%
%TO.N,-5V*%
X156190000Y-110810000D03*
%TO.P,U3,5,+_5*%
%TO.N,GND*%
X163810000Y-110810000D03*
%TO.P,U3,6,-_6*%
%TO.N,Net-(U3B--)*%
X163810000Y-108270000D03*
%TO.P,U3,7*%
X163810000Y-105730000D03*
%TO.P,U3,8,V+_8*%
%TO.N,+5V*%
X163810000Y-103190000D03*
%TD*%
D13*
%TO.P,R2,1*%
%TO.N,Net-(J1-Pin_8)*%
X116675000Y-89500000D03*
%TO.P,R2,2*%
%TO.N,/VREF*%
X118325000Y-89500000D03*
%TD*%
D17*
%TO.P,C2,1*%
%TO.N,Net-(J1-Pin_8)*%
X118275000Y-92500000D03*
%TO.P,C2,2*%
%TO.N,GND*%
X116725000Y-92500000D03*
%TD*%
D18*
%TO.P,J1,1,Pin_1_1*%
%TO.N,+3V3*%
X121000000Y-110500000D03*
D19*
%TO.P,J1,2,Pin_2_2*%
%TO.N,GND*%
X121000000Y-107960000D03*
%TO.P,J1,3,Pin_3_3*%
%TO.N,/SCL*%
X121000000Y-105420000D03*
%TO.P,J1,4,Pin_4_4*%
%TO.N,/SDA*%
X121000000Y-102880000D03*
%TO.P,J1,5,Pin_5_5*%
%TO.N,GND*%
X121000000Y-100340000D03*
%TO.P,J1,6,Pin_6_6*%
%TO.N,unconnected-(J1-Pin_6-Pad6)*%
X121000000Y-97800000D03*
%TO.P,J1,7,Pin_7_7*%
%TO.N,Net-(J1-Pin_7)*%
X121000000Y-95260000D03*
%TO.P,J1,8,Pin_8_8*%
%TO.N,Net-(J1-Pin_8)*%
X121000000Y-92720000D03*
%TO.P,J1,9,Pin_9_9*%
%TO.N,unconnected-(J1-Pin_9-Pad9)*%
X121000000Y-90180000D03*
%TO.P,J1,10,Pin_10_10*%
%TO.N,unconnected-(J1-Pin_10-Pad10)*%
X121000000Y-87640000D03*
%TD*%
D20*
%TO.P,C1,1*%
%TO.N,GND*%
X116725000Y-95500000D03*
%TO.P,C1,2*%
%TO.N,Net-(J1-Pin_7)*%
X118275000Y-95500000D03*
%TD*%
D21*
%TO.P,U2,1,IN_1*%
%TO.N,+3V3*%
X116050000Y-87437500D03*
%TO.P,U2,2,OUT_2*%
%TO.N,/VREF*%
X117950000Y-87437500D03*
%TO.P,U2,3,GND_3*%
%TO.N,GND*%
X117000000Y-85562500D03*
%TD*%
D22*
%TO.N,*%
X135500000Y-92500000D03*
X138500000Y-94500000D03*
%TO.N,GND*%
X130500000Y-118500000D03*
X154500000Y-118500000D03*
%TO.N,/SCL*%
X129500000Y-101381744D03*
X128000000Y-104000000D03*
%TO.N,-5V*%
X130000000Y-122000000D03*
X128500000Y-123350000D03*
%TD*%
%TO.N,GND*%
D23*
X151402460Y-118479813D02*
X154479813Y-118479813D01*
X154479813Y-118479813D02*
X154500000Y-118500000D01*
X130479813Y-118479813D02*
X130500000Y-118500000D01*
X126002460Y-118479813D02*
X130479813Y-118479813D01*
%TO.N,+3V3*%
X115000000Y-106000000D02*
X115000000Y-88487500D01*
X121000000Y-110500000D02*
X119500000Y-110500000D01*
X115000000Y-88487500D02*
X116050000Y-87437500D01*
X123500000Y-110500000D02*
X121000000Y-110500000D01*
X140663863Y-112163863D02*
X125163863Y-112163863D01*
X151402460Y-121019813D02*
X149519813Y-121019813D01*
X119500000Y-110500000D02*
X115000000Y-106000000D01*
X149519813Y-121019813D02*
X140663863Y-112163863D01*
X125163863Y-112163863D02*
X123500000Y-110500000D01*
%TO.N,/SCL*%
X129500000Y-101381744D02*
X129500000Y-102500000D01*
X129500000Y-102500000D02*
X128000000Y-104000000D01*
%TO.N,/V-*%
X160239702Y-89735399D02*
X158764601Y-89735399D01*
X158000000Y-90500000D02*
X158000000Y-107500000D01*
X157230000Y-108270000D02*
X156190000Y-108270000D01*
X158764601Y-89735399D02*
X158000000Y-90500000D01*
X158000000Y-107500000D02*
X157230000Y-108270000D01*
%TO.N,Net-(J1-Pin_7)*%
X118515000Y-95260000D02*
X118275000Y-95500000D01*
X118275000Y-95500000D02*
X118275000Y-96475000D01*
X116675000Y-98075000D02*
X116675000Y-98500000D01*
X118275000Y-96475000D02*
X116675000Y-98075000D01*
X121000000Y-95260000D02*
X118515000Y-95260000D01*
%TO.N,/RE*%
X156190000Y-103190000D02*
X156190000Y-102190000D01*
X156190000Y-102190000D02*
X153430467Y-99430467D01*
X153430467Y-99430467D02*
X123930467Y-99430467D01*
X156190000Y-103190000D02*
X156190000Y-105730000D01*
X123930467Y-99430467D02*
X123450000Y-98950000D01*
X123450000Y-98950000D02*
X118775000Y-98950000D01*
X118775000Y-98950000D02*
X118325000Y-98500000D01*
%TO.N,-5V*%
X128650000Y-123350000D02*
X128500000Y-123350000D01*
X130000000Y-122000000D02*
X128650000Y-123350000D01*
%TO.N,Net-(U3B--)*%
X163810000Y-105730000D02*
X163810000Y-108270000D01*
%TO.N,Net-(J1-Pin_8)*%
X118500000Y-92500000D02*
X118720000Y-92720000D01*
X118275000Y-92500000D02*
X118500000Y-92500000D01*
X118720000Y-92720000D02*
X121000000Y-92720000D01*
X116675000Y-89500000D02*
X116675000Y-90175000D01*
X118275000Y-91775000D02*
X118275000Y-92500000D01*
X116675000Y-90175000D02*
X118275000Y-91775000D01*
%TO.N,/VREF*%
X117950000Y-87437500D02*
X118325000Y-87812500D01*
X118325000Y-87812500D02*
X118325000Y-89500000D01*
%TD*%
%TA.AperFunction,Conductor*%
%TO.N,GND*%
G36*
X116225396Y-84519685D02*
G01*
X116271151Y-84572489D01*
X116281095Y-84641647D01*
X116265089Y-84687122D01*
X116248715Y-84714806D01*
X116202900Y-84872504D01*
X116202899Y-84872510D01*
X116200000Y-84909350D01*
X116200000Y-85312500D01*
X117800000Y-85312500D01*
X117800000Y-84909365D01*
X117799999Y-84909350D01*
X117797100Y-84872510D01*
X117797099Y-84872504D01*
X117751284Y-84714806D01*
X117734911Y-84687122D01*
X117717728Y-84619398D01*
X117739888Y-84553135D01*
X117794353Y-84509372D01*
X117841643Y-84500000D01*
X124707905Y-84500000D01*
X124774944Y-84519685D01*
X124820699Y-84572489D01*
X124830643Y-84641647D01*
X124808223Y-84696885D01*
X124734675Y-84798115D01*
X124644454Y-84975180D01*
X124644453Y-84975183D01*
X124583047Y-85164175D01*
X124551960Y-85360452D01*
X124551960Y-85559173D01*
X124583047Y-85755450D01*
X124644453Y-85944442D01*
X124644454Y-85944445D01*
X124711231Y-86075500D01*
X124734673Y-86121507D01*
X124851479Y-86282277D01*
X124991996Y-86422794D01*
X125152766Y-86539600D01*
X125250900Y-86589602D01*
X125309240Y-86619328D01*
X125360036Y-86667303D01*
X125376831Y-86735124D01*
X125354293Y-86801259D01*
X125309240Y-86840298D01*
X125152765Y-86920026D01*
X124991993Y-87036834D01*
X124851481Y-87177346D01*
X124734673Y-87338118D01*
X124644454Y-87515180D01*
X124644455Y-87515181D01*
X124583047Y-87704175D01*
X124551960Y-87900452D01*
X124551960Y-88099173D01*
X124583047Y-88295450D01*
X124644453Y-88484442D01*
X124644454Y-88484445D01*
X124693918Y-88581522D01*
X124734673Y-88661507D01*
X124851479Y-88822277D01*
X124991996Y-88962794D01*
X125152766Y-89079600D01*
X125271292Y-89139992D01*
X125309240Y-89159328D01*
X125360036Y-89207303D01*
X125376831Y-89275124D01*
X125354293Y-89341259D01*
X125309240Y-89380298D01*
X125152765Y-89460026D01*
X124991993Y-89576834D01*
X124851481Y-89717346D01*
X124734673Y-89878118D01*
X124644454Y-90055180D01*
X124644453Y-90055183D01*
X124583047Y-90244175D01*
X124555440Y-90418478D01*
X124551960Y-90440452D01*
X124551960Y-90639174D01*
X124555668Y-90662585D01*
X124583047Y-90835450D01*
X124644453Y-91024442D01*
X124644454Y-91024445D01*
X124734673Y-91201507D01*
X124851479Y-91362277D01*
X124991996Y-91502794D01*
X125152766Y-91619600D01*
X125266257Y-91677427D01*
X125309240Y-91699328D01*
X125360036Y-91747303D01*
X125376831Y-91815124D01*
X125354293Y-91881259D01*
X125309240Y-91920298D01*
X125152765Y-92000026D01*
X124991993Y-92116834D01*
X124851481Y-92257346D01*
X124734673Y-92418118D01*
X124644454Y-92595180D01*
X124644453Y-92595183D01*
X124583047Y-92784175D01*
X124576377Y-92826287D01*
X124551960Y-92980452D01*
X124551960Y-93179174D01*
X124566304Y-93269737D01*
X124583047Y-93375450D01*
X124644453Y-93564442D01*
X124644454Y-93564445D01*
X124728943Y-93730261D01*
X124734673Y-93741507D01*
X124851479Y-93902277D01*
X124991996Y-94042794D01*
X125152766Y-94159600D01*
X125213171Y-94190378D01*
X125309240Y-94239328D01*
X125360036Y-94287303D01*
X125376831Y-94355124D01*
X125354293Y-94421259D01*
X125309240Y-94460298D01*
X125152765Y-94540026D01*
X124991993Y-94656834D01*
X124851481Y-94797346D01*
X124734673Y-94958118D01*
X124644454Y-95135180D01*
X124644453Y-95135183D01*
X124583047Y-95324175D01*
X124551960Y-95520452D01*
X124551960Y-95719173D01*
X124583047Y-95915450D01*
X124644453Y-96104442D01*
X124644454Y-96104445D01*
X124734673Y-96281507D01*
X124851479Y-96442277D01*
X124991996Y-96582794D01*
X125152766Y-96699600D01*
X125271292Y-96759992D01*
X125309240Y-96779328D01*
X125360036Y-96827303D01*
X125376831Y-96895124D01*
X125354293Y-96961259D01*
X125309240Y-97000298D01*
X125152765Y-97080026D01*
X124991993Y-97196834D01*
X124851481Y-97337346D01*
X124734673Y-97498118D01*
X124644454Y-97675180D01*
X124644453Y-97675183D01*
X124583047Y-97864175D01*
X124576377Y-97906287D01*
X124551960Y-98060452D01*
X124551960Y-98259174D01*
X124565979Y-98347684D01*
X124583047Y-98455450D01*
X124644453Y-98644442D01*
X124644457Y-98644451D01*
X124647118Y-98649673D01*
X124660014Y-98718343D01*
X124633737Y-98783083D01*
X124576630Y-98823339D01*
X124536633Y-98829967D01*
X124230564Y-98829967D01*
X124163525Y-98810282D01*
X124142883Y-98793648D01*
X123937590Y-98588355D01*
X123937588Y-98588352D01*
X123818717Y-98469481D01*
X123818716Y-98469480D01*
X123731904Y-98419360D01*
X123731904Y-98419359D01*
X123731900Y-98419358D01*
X123681785Y-98390423D01*
X123529057Y-98349499D01*
X123370943Y-98349499D01*
X123363347Y-98349499D01*
X123363331Y-98349500D01*
X122412127Y-98349500D01*
X122345088Y-98329815D01*
X122299333Y-98277011D01*
X122289389Y-98207853D01*
X122294196Y-98187182D01*
X122317246Y-98116243D01*
X122350500Y-97906287D01*
X122350500Y-97693713D01*
X122317246Y-97483757D01*
X122251557Y-97281588D01*
X122155051Y-97092184D01*
X122155049Y-97092181D01*
X122155048Y-97092179D01*
X122030109Y-96920213D01*
X121879786Y-96769890D01*
X121707820Y-96644951D01*
X121707115Y-96644591D01*
X121699054Y-96640485D01*
X121648259Y-96592512D01*
X121631463Y-96524692D01*
X121653999Y-96458556D01*
X121699054Y-96419515D01*
X121707816Y-96415051D01*
X121765744Y-96372964D01*
X121879786Y-96290109D01*
X121879788Y-96290106D01*
X121879792Y-96290104D01*
X122030104Y-96139792D01*
X122030106Y-96139788D01*
X122030109Y-96139786D01*
X122155048Y-95967820D01*
X122155047Y-95967820D01*
X122155051Y-95967816D01*
X122251557Y-95778412D01*
X122317246Y-95576243D01*
X122350500Y-95366287D01*
X122350500Y-95153713D01*
X122317246Y-94943757D01*
X122251557Y-94741588D01*
X122155051Y-94552184D01*
X122155049Y-94552181D01*
X122155048Y-94552179D01*
X122030109Y-94380213D01*
X121879786Y-94229890D01*
X121707820Y-94104951D01*
X121707115Y-94104591D01*
X121699054Y-94100485D01*
X121648259Y-94052512D01*
X121631463Y-93984692D01*
X121653999Y-93918556D01*
X121699054Y-93879515D01*
X121707816Y-93875051D01*
X121729789Y-93859086D01*
X121879786Y-93750109D01*
X121879788Y-93750106D01*
X121879792Y-93750104D01*
X122030104Y-93599792D01*
X122030106Y-93599788D01*
X122030109Y-93599786D01*
X122155048Y-93427820D01*
X122155047Y-93427820D01*
X122155051Y-93427816D01*
X122251557Y-93238412D01*
X122317246Y-93036243D01*
X122350500Y-92826287D01*
X122350500Y-92613713D01*
X122317246Y-92403757D01*
X122251557Y-92201588D01*
X122155051Y-92012184D01*
X122155049Y-92012181D01*
X122155048Y-92012179D01*
X122030109Y-91840213D01*
X121879786Y-91689890D01*
X121707820Y-91564951D01*
X121707115Y-91564591D01*
X121699054Y-91560485D01*
X121648259Y-91512512D01*
X121631463Y-91444692D01*
X121653999Y-91378556D01*
X121699054Y-91339515D01*
X121707816Y-91335051D01*
X121729789Y-91319086D01*
X121879786Y-91210109D01*
X121879788Y-91210106D01*
X121879792Y-91210104D01*
X122030104Y-91059792D01*
X122030106Y-91059788D01*
X122030109Y-91059786D01*
X122155048Y-90887820D01*
X122155047Y-90887820D01*
X122155051Y-90887816D01*
X122251557Y-90698412D01*
X122317246Y-90496243D01*
X122350500Y-90286287D01*
X122350500Y-90073713D01*
X122317246Y-89863757D01*
X122251557Y-89661588D01*
X122155051Y-89472184D01*
X122155049Y-89472181D01*
X122155048Y-89472179D01*
X122030109Y-89300213D01*
X121879786Y-89149890D01*
X121707820Y-89024951D01*
X121707115Y-89024591D01*
X121699054Y-89020485D01*
X121648259Y-88972512D01*
X121631463Y-88904692D01*
X121653999Y-88838556D01*
X121699054Y-88799515D01*
X121707816Y-88795051D01*
X121793300Y-88732944D01*
X121879786Y-88670109D01*
X121879788Y-88670106D01*
X121879792Y-88670104D01*
X122030104Y-88519792D01*
X122030106Y-88519788D01*
X122030109Y-88519786D01*
X122155048Y-88347820D01*
X122155047Y-88347820D01*
X122155051Y-88347816D01*
X122251557Y-88158412D01*
X122317246Y-87956243D01*
X122350500Y-87746287D01*
X122350500Y-87533713D01*
X122317246Y-87323757D01*
X122251557Y-87121588D01*
X122155051Y-86932184D01*
X122155049Y-86932181D01*
X122155048Y-86932179D01*
X122030109Y-86760213D01*
X121879786Y-86609890D01*
X121707820Y-86484951D01*
X121518414Y-86388444D01*
X121518413Y-86388443D01*
X121518412Y-86388443D01*
X121316243Y-86322754D01*
X121316241Y-86322753D01*
X121316240Y-86322753D01*
X121154957Y-86297208D01*
X121106287Y-86289500D01*
X120893713Y-86289500D01*
X120845042Y-86297208D01*
X120683760Y-86322753D01*
X120481585Y-86388444D01*
X120292179Y-86484951D01*
X120120213Y-86609890D01*
X119969890Y-86760213D01*
X119844951Y-86932179D01*
X119748444Y-87121585D01*
X119682753Y-87323760D01*
X119649500Y-87533713D01*
X119649500Y-87746286D01*
X119679373Y-87934900D01*
X119682754Y-87956243D01*
X119738421Y-88127569D01*
X119748444Y-88158414D01*
X119844951Y-88347820D01*
X119969890Y-88519786D01*
X120120213Y-88670109D01*
X120292182Y-88795050D01*
X120300946Y-88799516D01*
X120351742Y-88847491D01*
X120368536Y-88915312D01*
X120345998Y-88981447D01*
X120300946Y-89020484D01*
X120292182Y-89024949D01*
X120120213Y-89149890D01*
X119969890Y-89300213D01*
X119844951Y-89472179D01*
X119748444Y-89661585D01*
X119682753Y-89863760D01*
X119649500Y-90073713D01*
X119649500Y-90286286D01*
X119679518Y-90475816D01*
X119682754Y-90496243D01*
X119734506Y-90655520D01*
X119748444Y-90698414D01*
X119844951Y-90887820D01*
X119969890Y-91059786D01*
X120120213Y-91210109D01*
X120292182Y-91335050D01*
X120300946Y-91339516D01*
X120351742Y-91387491D01*
X120368536Y-91455312D01*
X120345998Y-91521447D01*
X120300946Y-91560484D01*
X120292182Y-91564949D01*
X120120213Y-91689890D01*
X119969890Y-91840213D01*
X119844948Y-92012184D01*
X119844947Y-92012185D01*
X119824765Y-92051795D01*
X119776791Y-92102591D01*
X119714281Y-92119500D01*
X119310592Y-92119500D01*
X119243553Y-92099815D01*
X119197798Y-92047011D01*
X119192886Y-92034504D01*
X119162003Y-91941303D01*
X119161999Y-91941297D01*
X119161998Y-91941294D01*
X119072970Y-91796959D01*
X119072967Y-91796955D01*
X118953044Y-91677032D01*
X118953040Y-91677029D01*
X118896003Y-91641848D01*
X118849278Y-91589900D01*
X118841327Y-91568407D01*
X118834577Y-91543216D01*
X118783826Y-91455312D01*
X118755524Y-91406290D01*
X118755518Y-91406282D01*
X118409022Y-91059786D01*
X118036415Y-90687180D01*
X118002931Y-90625858D01*
X118007915Y-90556167D01*
X118049787Y-90500233D01*
X118115251Y-90475816D01*
X118124097Y-90475500D01*
X118581613Y-90475500D01*
X118581616Y-90475500D01*
X118652196Y-90469086D01*
X118814606Y-90418478D01*
X118960185Y-90330472D01*
X119080472Y-90210185D01*
X119168478Y-90064606D01*
X119219086Y-89902196D01*
X119225500Y-89831616D01*
X119225500Y-89168384D01*
X119219086Y-89097804D01*
X119168478Y-88935394D01*
X119080472Y-88789815D01*
X119080470Y-88789813D01*
X119080469Y-88789811D01*
X118961819Y-88671161D01*
X118928334Y-88609838D01*
X118925500Y-88583480D01*
X118925500Y-87733445D01*
X118925500Y-87733443D01*
X118884577Y-87580716D01*
X118884577Y-87580715D01*
X118846741Y-87515181D01*
X118805520Y-87443784D01*
X118776502Y-87414766D01*
X118768865Y-87402343D01*
X118763368Y-87382135D01*
X118753334Y-87363760D01*
X118750500Y-87337402D01*
X118750500Y-86784313D01*
X118750499Y-86784298D01*
X118748603Y-86760208D01*
X118747598Y-86747431D01*
X118744658Y-86737313D01*
X118701745Y-86589606D01*
X118701744Y-86589603D01*
X118701744Y-86589602D01*
X118618081Y-86448135D01*
X118618079Y-86448133D01*
X118618076Y-86448129D01*
X118501870Y-86331923D01*
X118501862Y-86331917D01*
X118360396Y-86248255D01*
X118360393Y-86248254D01*
X118202573Y-86202402D01*
X118202567Y-86202401D01*
X118165701Y-86199500D01*
X118165694Y-86199500D01*
X117924000Y-86199500D01*
X117856961Y-86179815D01*
X117811206Y-86127011D01*
X117800000Y-86075500D01*
X117800000Y-85812500D01*
X117250000Y-85812500D01*
X117250000Y-86468184D01*
X117232733Y-86531304D01*
X117198254Y-86589605D01*
X117198254Y-86589606D01*
X117152402Y-86747426D01*
X117152401Y-86747432D01*
X117149500Y-86784298D01*
X117149500Y-88090701D01*
X117152401Y-88127567D01*
X117152402Y-88127573D01*
X117198254Y-88285393D01*
X117198255Y-88285396D01*
X117256509Y-88383899D01*
X117273692Y-88451623D01*
X117251532Y-88517886D01*
X117197066Y-88561649D01*
X117127586Y-88569018D01*
X117112888Y-88565406D01*
X117073907Y-88553259D01*
X117002196Y-88530914D01*
X116931616Y-88524500D01*
X116931613Y-88524500D01*
X116877735Y-88524500D01*
X116810696Y-88504815D01*
X116764941Y-88452011D01*
X116754997Y-88382853D01*
X116771002Y-88337380D01*
X116801744Y-88285398D01*
X116847598Y-88127569D01*
X116850500Y-88090694D01*
X116850500Y-86784306D01*
X116847598Y-86747431D01*
X116844658Y-86737313D01*
X116801745Y-86589606D01*
X116801745Y-86589605D01*
X116801744Y-86589603D01*
X116801744Y-86589602D01*
X116767267Y-86531304D01*
X116750000Y-86468184D01*
X116750000Y-85812500D01*
X116200000Y-85812500D01*
X116200000Y-86075500D01*
X116180315Y-86142539D01*
X116127511Y-86188294D01*
X116076000Y-86199500D01*
X115834298Y-86199500D01*
X115797432Y-86202401D01*
X115797426Y-86202402D01*
X115639606Y-86248254D01*
X115639603Y-86248255D01*
X115498137Y-86331917D01*
X115498129Y-86331923D01*
X115381923Y-86448129D01*
X115381917Y-86448137D01*
X115298255Y-86589603D01*
X115298254Y-86589606D01*
X115252402Y-86747426D01*
X115252401Y-86747432D01*
X115249500Y-86784298D01*
X115249500Y-87337402D01*
X115229815Y-87404441D01*
X115213181Y-87425083D01*
X114519481Y-88118782D01*
X114519479Y-88118785D01*
X114501457Y-88150000D01*
X114483435Y-88181216D01*
X114440423Y-88255715D01*
X114399499Y-88408443D01*
X114399499Y-88408445D01*
X114399499Y-88576546D01*
X114399500Y-88576559D01*
X114399500Y-105913330D01*
X114399499Y-105913348D01*
X114399499Y-106079054D01*
X114399498Y-106079054D01*
X114440423Y-106231785D01*
X114456754Y-106260071D01*
X114469358Y-106281900D01*
X114469359Y-106281904D01*
X114469360Y-106281904D01*
X114519479Y-106368714D01*
X114519481Y-106368717D01*
X114638349Y-106487585D01*
X114638355Y-106487590D01*
X119015139Y-110864374D01*
X119015149Y-110864385D01*
X119019479Y-110868715D01*
X119019480Y-110868716D01*
X119131284Y-110980520D01*
X119218095Y-111030639D01*
X119218097Y-111030641D01*
X119256151Y-111052611D01*
X119268215Y-111059577D01*
X119420943Y-111100501D01*
X119420946Y-111100501D01*
X119525501Y-111100501D01*
X119592540Y-111120186D01*
X119638295Y-111172990D01*
X119649501Y-111224501D01*
X119649501Y-111397876D01*
X119655908Y-111457483D01*
X119706202Y-111592328D01*
X119706206Y-111592335D01*
X119792452Y-111707544D01*
X119792455Y-111707547D01*
X119907664Y-111793793D01*
X119907671Y-111793797D01*
X120042517Y-111844091D01*
X120042516Y-111844091D01*
X120049444Y-111844835D01*
X120102127Y-111850500D01*
X121897872Y-111850499D01*
X121957483Y-111844091D01*
X122092331Y-111793796D01*
X122207546Y-111707546D01*
X122293796Y-111592331D01*
X122344091Y-111457483D01*
X122350500Y-111397873D01*
X122350500Y-111224500D01*
X122370185Y-111157461D01*
X122422989Y-111111706D01*
X122474500Y-111100500D01*
X123199903Y-111100500D01*
X123266942Y-111120185D01*
X123287584Y-111136819D01*
X124724679Y-112573915D01*
X124758164Y-112635238D01*
X124753180Y-112704930D01*
X124737317Y-112734480D01*
X124734673Y-112738118D01*
X124734672Y-112738120D01*
X124644454Y-112915180D01*
X124644453Y-112915183D01*
X124583047Y-113104175D01*
X124551960Y-113300452D01*
X124551960Y-113499173D01*
X124583047Y-113695450D01*
X124644453Y-113884442D01*
X124644454Y-113884445D01*
X124734673Y-114061507D01*
X124851479Y-114222277D01*
X124991996Y-114362794D01*
X125152766Y-114479600D01*
X125271292Y-114539992D01*
X125309240Y-114559328D01*
X125360036Y-114607303D01*
X125376831Y-114675124D01*
X125354293Y-114741259D01*
X125309240Y-114780298D01*
X125152765Y-114860026D01*
X124991993Y-114976834D01*
X124851481Y-115117346D01*
X124734673Y-115278118D01*
X124644454Y-115455180D01*
X124644453Y-115455183D01*
X124583047Y-115644175D01*
X124551960Y-115840452D01*
X124551960Y-116039173D01*
X124583047Y-116235450D01*
X124644453Y-116424442D01*
X124644454Y-116424445D01*
X124734673Y-116601507D01*
X124851479Y-116762277D01*
X124991996Y-116902794D01*
X125152766Y-117019600D01*
X125309792Y-117099609D01*
X125360587Y-117147582D01*
X125377382Y-117215403D01*
X125354845Y-117281538D01*
X125309792Y-117320577D01*
X125153029Y-117400452D01*
X124992320Y-117517216D01*
X124992319Y-117517216D01*
X124851863Y-117657672D01*
X124851863Y-117657673D01*
X124735101Y-117818380D01*
X124644916Y-117995377D01*
X124583534Y-118184295D01*
X124576325Y-118229812D01*
X124576325Y-118229813D01*
X125686774Y-118229813D01*
X125682380Y-118234207D01*
X125629719Y-118325419D01*
X125602460Y-118427152D01*
X125602460Y-118532474D01*
X125629719Y-118634207D01*
X125682380Y-118725419D01*
X125686774Y-118729813D01*
X124576325Y-118729813D01*
X124583534Y-118775330D01*
X124644916Y-118964248D01*
X124735101Y-119141245D01*
X124851863Y-119301952D01*
X124851863Y-119301953D01*
X124992319Y-119442409D01*
X125153027Y-119559171D01*
X125309791Y-119639047D01*
X125360587Y-119687022D01*
X125377382Y-119754843D01*
X125354844Y-119820978D01*
X125309791Y-119860017D01*
X125152765Y-119940026D01*
X124991993Y-120056834D01*
X124851481Y-120197346D01*
X124734673Y-120358118D01*
X124644454Y-120535180D01*
X124644453Y-120535183D01*
X124583047Y-120724175D01*
X124551960Y-120920452D01*
X124551960Y-121119173D01*
X124583047Y-121315450D01*
X124644453Y-121504442D01*
X124644454Y-121504445D01*
X124732664Y-121677565D01*
X124734673Y-121681507D01*
X124851479Y-121842277D01*
X124991996Y-121982794D01*
X125152766Y-122099600D01*
X125239609Y-122143848D01*
X125329827Y-122189818D01*
X125329830Y-122189819D01*
X125424326Y-122220522D01*
X125518824Y-122251226D01*
X125715099Y-122282313D01*
X125715100Y-122282313D01*
X126289820Y-122282313D01*
X126289821Y-122282313D01*
X126486096Y-122251226D01*
X126675092Y-122189818D01*
X126852154Y-122099600D01*
X127012924Y-121982794D01*
X127153441Y-121842277D01*
X127270247Y-121681507D01*
X127360465Y-121504445D01*
X127421873Y-121315449D01*
X127452960Y-121119174D01*
X127452960Y-120920452D01*
X127421873Y-120724177D01*
X127391169Y-120629679D01*
X127360466Y-120535183D01*
X127360465Y-120535180D01*
X127291397Y-120399628D01*
X127270247Y-120358119D01*
X127153441Y-120197349D01*
X127012924Y-120056832D01*
X126852154Y-119940026D01*
X126695127Y-119860016D01*
X126644332Y-119812042D01*
X126627537Y-119744221D01*
X126650074Y-119678086D01*
X126695128Y-119639047D01*
X126851892Y-119559171D01*
X127012599Y-119442409D01*
X127012600Y-119442409D01*
X127153056Y-119301953D01*
X127153056Y-119301952D01*
X127269818Y-119141245D01*
X127360003Y-118964248D01*
X127421385Y-118775330D01*
X127428594Y-118729813D01*
X126318146Y-118729813D01*
X126322540Y-118725419D01*
X126375201Y-118634207D01*
X126402460Y-118532474D01*
X126402460Y-118427152D01*
X126375201Y-118325419D01*
X126322540Y-118234207D01*
X126318146Y-118229813D01*
X127428595Y-118229813D01*
X127428594Y-118229812D01*
X127421385Y-118184295D01*
X127360003Y-117995377D01*
X127269818Y-117818380D01*
X127153056Y-117657673D01*
X127153056Y-117657672D01*
X127012600Y-117517216D01*
X126851892Y-117400454D01*
X126695128Y-117320578D01*
X126644332Y-117272603D01*
X126627537Y-117204782D01*
X126650075Y-117138647D01*
X126695127Y-117099609D01*
X126852154Y-117019600D01*
X127012924Y-116902794D01*
X127153441Y-116762277D01*
X127270247Y-116601507D01*
X127360465Y-116424445D01*
X127421873Y-116235449D01*
X127452960Y-116039174D01*
X127452960Y-115840452D01*
X127421873Y-115644177D01*
X127360465Y-115455181D01*
X127360465Y-115455180D01*
X127270246Y-115278118D01*
X127153441Y-115117349D01*
X127012924Y-114976832D01*
X126852154Y-114860026D01*
X126695678Y-114780297D01*
X126644883Y-114732323D01*
X126628088Y-114664502D01*
X126650625Y-114598367D01*
X126695678Y-114559328D01*
X126852154Y-114479600D01*
X127012924Y-114362794D01*
X127153441Y-114222277D01*
X127270247Y-114061507D01*
X127360465Y-113884445D01*
X127421873Y-113695449D01*
X127452960Y-113499174D01*
X127452960Y-113300452D01*
X127421873Y-113104177D01*
X127364202Y-112926681D01*
X127362207Y-112856840D01*
X127398288Y-112797007D01*
X127460989Y-112766179D01*
X127482133Y-112764363D01*
X140363766Y-112764363D01*
X140430805Y-112784048D01*
X140451446Y-112800681D01*
X149151097Y-121500333D01*
X149151099Y-121500334D01*
X149151103Y-121500337D01*
X149273535Y-121571022D01*
X149288029Y-121579390D01*
X149440756Y-121620314D01*
X149440758Y-121620314D01*
X149606467Y-121620314D01*
X149606483Y-121620313D01*
X150027730Y-121620313D01*
X150094769Y-121639998D01*
X150131651Y-121677679D01*
X150131809Y-121677565D01*
X150132587Y-121678636D01*
X150133460Y-121679528D01*
X150134670Y-121681503D01*
X150134673Y-121681507D01*
X150251479Y-121842277D01*
X150391996Y-121982794D01*
X150552766Y-122099600D01*
X150639609Y-122143848D01*
X150729827Y-122189818D01*
X150729830Y-122189819D01*
X150824326Y-122220522D01*
X150918824Y-122251226D01*
X151115099Y-122282313D01*
X151115100Y-122282313D01*
X151689820Y-122282313D01*
X151689821Y-122282313D01*
X151886096Y-122251226D01*
X152075092Y-122189818D01*
X152252154Y-122099600D01*
X152412924Y-121982794D01*
X152553441Y-121842277D01*
X152670247Y-121681507D01*
X152760465Y-121504445D01*
X152821873Y-121315449D01*
X152852960Y-121119174D01*
X152852960Y-120920452D01*
X152821873Y-120724177D01*
X152791169Y-120629679D01*
X152760466Y-120535183D01*
X152760465Y-120535180D01*
X152691397Y-120399628D01*
X152670247Y-120358119D01*
X152553441Y-120197349D01*
X152412924Y-120056832D01*
X152252154Y-119940026D01*
X152095127Y-119860016D01*
X152044332Y-119812042D01*
X152027537Y-119744221D01*
X152050074Y-119678086D01*
X152095128Y-119639047D01*
X152251892Y-119559171D01*
X152412599Y-119442409D01*
X152412600Y-119442409D01*
X152553056Y-119301953D01*
X152553056Y-119301952D01*
X152669818Y-119141245D01*
X152760003Y-118964248D01*
X152821385Y-118775330D01*
X152828594Y-118729813D01*
X151718146Y-118729813D01*
X151722540Y-118725419D01*
X151775201Y-118634207D01*
X151802460Y-118532474D01*
X151802460Y-118427152D01*
X151775201Y-118325419D01*
X151722540Y-118234207D01*
X151718146Y-118229813D01*
X152828595Y-118229813D01*
X152828594Y-118229812D01*
X152821385Y-118184295D01*
X152760003Y-117995377D01*
X152669818Y-117818380D01*
X152553056Y-117657673D01*
X152553056Y-117657672D01*
X152412600Y-117517216D01*
X152251892Y-117400454D01*
X152095128Y-117320578D01*
X152044332Y-117272603D01*
X152027537Y-117204782D01*
X152050075Y-117138647D01*
X152095127Y-117099609D01*
X152252154Y-117019600D01*
X152412924Y-116902794D01*
X152553441Y-116762277D01*
X152670247Y-116601507D01*
X152760465Y-116424445D01*
X152821873Y-116235449D01*
X152852960Y-116039174D01*
X152852960Y-115840452D01*
X152821873Y-115644177D01*
X152760465Y-115455181D01*
X152760465Y-115455180D01*
X152670246Y-115278118D01*
X152553441Y-115117349D01*
X152412924Y-114976832D01*
X152252154Y-114860026D01*
X152095678Y-114780297D01*
X152044883Y-114732323D01*
X152028088Y-114664502D01*
X152050625Y-114598367D01*
X152095678Y-114559328D01*
X152252154Y-114479600D01*
X152412924Y-114362794D01*
X152553441Y-114222277D01*
X152670247Y-114061507D01*
X152760465Y-113884445D01*
X152821873Y-113695449D01*
X152852960Y-113499174D01*
X152852960Y-113300452D01*
X152821873Y-113104177D01*
X152760465Y-112915181D01*
X152760465Y-112915180D01*
X152714495Y-112824962D01*
X152670247Y-112738119D01*
X152553441Y-112577349D01*
X152412924Y-112436832D01*
X152252154Y-112320026D01*
X152095678Y-112240297D01*
X152044883Y-112192323D01*
X152028088Y-112124502D01*
X152050625Y-112058367D01*
X152095678Y-112019328D01*
X152252154Y-111939600D01*
X152412924Y-111822794D01*
X152553441Y-111682277D01*
X152670247Y-111521507D01*
X152760465Y-111344445D01*
X152821873Y-111155449D01*
X152852960Y-110959174D01*
X152852960Y-110760452D01*
X152821873Y-110564177D01*
X152780635Y-110437259D01*
X152760466Y-110375183D01*
X152760465Y-110375180D01*
X152670246Y-110198118D01*
X152626826Y-110138355D01*
X152553441Y-110037349D01*
X152412924Y-109896832D01*
X152252154Y-109780026D01*
X152095678Y-109700297D01*
X152044883Y-109652323D01*
X152028088Y-109584502D01*
X152050625Y-109518367D01*
X152095678Y-109479328D01*
X152252154Y-109399600D01*
X152412924Y-109282794D01*
X152553441Y-109142277D01*
X152670247Y-108981507D01*
X152760465Y-108804445D01*
X152821873Y-108615449D01*
X152852960Y-108419174D01*
X152852960Y-108220452D01*
X152821873Y-108024177D01*
X152779633Y-107894174D01*
X152760466Y-107835183D01*
X152760465Y-107835180D01*
X152670246Y-107658118D01*
X152553441Y-107497349D01*
X152412924Y-107356832D01*
X152252154Y-107240026D01*
X152095678Y-107160297D01*
X152044883Y-107112323D01*
X152028088Y-107044502D01*
X152050625Y-106978367D01*
X152095678Y-106939328D01*
X152252154Y-106859600D01*
X152412924Y-106742794D01*
X152553441Y-106602277D01*
X152670247Y-106441507D01*
X152760465Y-106264445D01*
X152821873Y-106075449D01*
X152852960Y-105879174D01*
X152852960Y-105680452D01*
X152821873Y-105484177D01*
X152791169Y-105389679D01*
X152760466Y-105295183D01*
X152760465Y-105295180D01*
X152670246Y-105118118D01*
X152553441Y-104957349D01*
X152412924Y-104816832D01*
X152252154Y-104700026D01*
X152095678Y-104620297D01*
X152044883Y-104572323D01*
X152028088Y-104504502D01*
X152050625Y-104438367D01*
X152095678Y-104399328D01*
X152252154Y-104319600D01*
X152412924Y-104202794D01*
X152553441Y-104062277D01*
X152670247Y-103901507D01*
X152760465Y-103724445D01*
X152821873Y-103535449D01*
X152852960Y-103339174D01*
X152852960Y-103140452D01*
X152821873Y-102944177D01*
X152791169Y-102849679D01*
X152760466Y-102755183D01*
X152760465Y-102755180D01*
X152676292Y-102589983D01*
X152670247Y-102578119D01*
X152553441Y-102417349D01*
X152412924Y-102276832D01*
X152252154Y-102160026D01*
X152095678Y-102080297D01*
X152044883Y-102032323D01*
X152028088Y-101964502D01*
X152050625Y-101898367D01*
X152095678Y-101859328D01*
X152252154Y-101779600D01*
X152412924Y-101662794D01*
X152553441Y-101522277D01*
X152670247Y-101361507D01*
X152760465Y-101184445D01*
X152821873Y-100995449D01*
X152852960Y-100799174D01*
X152852960Y-100600452D01*
X152821873Y-100404177D01*
X152772072Y-100250903D01*
X152760466Y-100215183D01*
X152760463Y-100215177D01*
X152758470Y-100211265D01*
X152745572Y-100142596D01*
X152771846Y-100077855D01*
X152828951Y-100037596D01*
X152868953Y-100030967D01*
X153130370Y-100030967D01*
X153197409Y-100050652D01*
X153218051Y-100067286D01*
X155097017Y-101946252D01*
X155130502Y-102007575D01*
X155125518Y-102077267D01*
X155097018Y-102121613D01*
X155047289Y-102171342D01*
X154955187Y-102320663D01*
X154955185Y-102320668D01*
X154950547Y-102334666D01*
X154900001Y-102487203D01*
X154900001Y-102487204D01*
X154900000Y-102487204D01*
X154889500Y-102589983D01*
X154889500Y-103790001D01*
X154889501Y-103790018D01*
X154900000Y-103892796D01*
X154900001Y-103892799D01*
X154955185Y-104059331D01*
X154955187Y-104059336D01*
X154990069Y-104115888D01*
X155047288Y-104208656D01*
X155171344Y-104332712D01*
X155320666Y-104424814D01*
X155402570Y-104451954D01*
X155460015Y-104491727D01*
X155486838Y-104556243D01*
X155474523Y-104625018D01*
X155436451Y-104669978D01*
X155342787Y-104738028D01*
X155342782Y-104738032D01*
X155198028Y-104882786D01*
X155077715Y-105048386D01*
X154984781Y-105230776D01*
X154921522Y-105425465D01*
X154889500Y-105627648D01*
X154889500Y-105832351D01*
X154921522Y-106034534D01*
X154984781Y-106229223D01*
X155077715Y-106411613D01*
X155198028Y-106577213D01*
X155342786Y-106721971D01*
X155457591Y-106805380D01*
X155508390Y-106842287D01*
X155588427Y-106883068D01*
X155601080Y-106889515D01*
X155651876Y-106937490D01*
X155668671Y-107005311D01*
X155646134Y-107071446D01*
X155601080Y-107110485D01*
X155508386Y-107157715D01*
X155342786Y-107278028D01*
X155198028Y-107422786D01*
X155077715Y-107588386D01*
X154984781Y-107770776D01*
X154921522Y-107965465D01*
X154889500Y-108167648D01*
X154889500Y-108372351D01*
X154921522Y-108574534D01*
X154984781Y-108769223D01*
X155077715Y-108951613D01*
X155198028Y-109117213D01*
X155342786Y-109261971D01*
X155497749Y-109374556D01*
X155508390Y-109382287D01*
X155599840Y-109428883D01*
X155601080Y-109429515D01*
X155651876Y-109477490D01*
X155668671Y-109545311D01*
X155646134Y-109611446D01*
X155601080Y-109650485D01*
X155508386Y-109697715D01*
X155342786Y-109818028D01*
X155198028Y-109962786D01*
X155077715Y-110128386D01*
X154984781Y-110310776D01*
X154921522Y-110505465D01*
X154889500Y-110707648D01*
X154889500Y-110912351D01*
X154921522Y-111114534D01*
X154984781Y-111309223D01*
X155042100Y-111421716D01*
X155077585Y-111491359D01*
X155077715Y-111491613D01*
X155198028Y-111657213D01*
X155342786Y-111801971D01*
X155463226Y-111889474D01*
X155508390Y-111922287D01*
X155624607Y-111981503D01*
X155690776Y-112015218D01*
X155690778Y-112015218D01*
X155690781Y-112015220D01*
X155795137Y-112049127D01*
X155885465Y-112078477D01*
X155965959Y-112091226D01*
X156087648Y-112110500D01*
X156087649Y-112110500D01*
X156292351Y-112110500D01*
X156292352Y-112110500D01*
X156494534Y-112078477D01*
X156689219Y-112015220D01*
X156871610Y-111922287D01*
X156970420Y-111850498D01*
X157037213Y-111801971D01*
X157037215Y-111801968D01*
X157037219Y-111801966D01*
X157181966Y-111657219D01*
X157181968Y-111657215D01*
X157181971Y-111657213D01*
X157250156Y-111563363D01*
X157302287Y-111491610D01*
X157395220Y-111309219D01*
X157458477Y-111114534D01*
X157490500Y-110912352D01*
X157490500Y-110707648D01*
X157469130Y-110572723D01*
X157458477Y-110505465D01*
X157416145Y-110375181D01*
X157395220Y-110310781D01*
X157395218Y-110310778D01*
X157395218Y-110310776D01*
X157361503Y-110244607D01*
X157302287Y-110128390D01*
X157264748Y-110076721D01*
X157181971Y-109962786D01*
X157037213Y-109818028D01*
X156871614Y-109697715D01*
X156865006Y-109694348D01*
X156778917Y-109650483D01*
X156728123Y-109602511D01*
X156711328Y-109534690D01*
X156733865Y-109468555D01*
X156778917Y-109429516D01*
X156871610Y-109382287D01*
X156892770Y-109366913D01*
X157037213Y-109261971D01*
X157037215Y-109261968D01*
X157037219Y-109261966D01*
X157181966Y-109117219D01*
X157181968Y-109117215D01*
X157181971Y-109117213D01*
X157238020Y-109040066D01*
X157302287Y-108951610D01*
X157324015Y-108908965D01*
X157341993Y-108889929D01*
X157356993Y-108868469D01*
X157367084Y-108863362D01*
X157371986Y-108858172D01*
X157387402Y-108850554D01*
X157394735Y-108847542D01*
X157461785Y-108829577D01*
X157511904Y-108800639D01*
X157598716Y-108750520D01*
X157710520Y-108638716D01*
X157710520Y-108638714D01*
X157720728Y-108628507D01*
X157720730Y-108628504D01*
X158358506Y-107990728D01*
X158358511Y-107990724D01*
X158368714Y-107980520D01*
X158368716Y-107980520D01*
X158480520Y-107868716D01*
X158559577Y-107731784D01*
X158600500Y-107579057D01*
X158600500Y-96605344D01*
X158620185Y-96538305D01*
X158672989Y-96492550D01*
X158742147Y-96482606D01*
X158789597Y-96499806D01*
X158870571Y-96549752D01*
X158870582Y-96549757D01*
X159037004Y-96604904D01*
X159037011Y-96604905D01*
X159139721Y-96615398D01*
X159989701Y-96615398D01*
X159989702Y-96615397D01*
X159989702Y-95415400D01*
X160050104Y-95440420D01*
X160175683Y-95465399D01*
X160303721Y-95465399D01*
X160429300Y-95440420D01*
X160489702Y-95415400D01*
X160489702Y-96615398D01*
X161339674Y-96615398D01*
X161339688Y-96615397D01*
X161442399Y-96604904D01*
X161608821Y-96549757D01*
X161608826Y-96549755D01*
X161758047Y-96457714D01*
X161882017Y-96333744D01*
X161974058Y-96184523D01*
X161974060Y-96184518D01*
X162029207Y-96018096D01*
X162029208Y-96018089D01*
X162039701Y-95915385D01*
X162039702Y-95915372D01*
X162039702Y-95065399D01*
X160839703Y-95065399D01*
X160864723Y-95004997D01*
X160889702Y-94879418D01*
X160889702Y-94751380D01*
X160864723Y-94625801D01*
X160839703Y-94565399D01*
X162039701Y-94565399D01*
X162039701Y-93715427D01*
X162039700Y-93715412D01*
X162029207Y-93612701D01*
X161974060Y-93446279D01*
X161974058Y-93446274D01*
X161882017Y-93297053D01*
X161758047Y-93173083D01*
X161608826Y-93081042D01*
X161608821Y-93081040D01*
X161442399Y-93025893D01*
X161442392Y-93025892D01*
X161339688Y-93015399D01*
X160489702Y-93015399D01*
X160489702Y-94215397D01*
X160429300Y-94190378D01*
X160303721Y-94165399D01*
X160175683Y-94165399D01*
X160050104Y-94190378D01*
X159989702Y-94215397D01*
X159989702Y-93015399D01*
X159139730Y-93015399D01*
X159139714Y-93015400D01*
X159037004Y-93025893D01*
X158870582Y-93081040D01*
X158870577Y-93081042D01*
X158789597Y-93130992D01*
X158722204Y-93149432D01*
X158655541Y-93128509D01*
X158610771Y-93074867D01*
X158600500Y-93025453D01*
X158600500Y-90922085D01*
X158620185Y-90855046D01*
X158672989Y-90809291D01*
X158742147Y-90799347D01*
X158805703Y-90828372D01*
X158822874Y-90846597D01*
X158847083Y-90878147D01*
X158883108Y-90925096D01*
X158883114Y-90925103D01*
X159049997Y-91091986D01*
X159050003Y-91091991D01*
X159237252Y-91235672D01*
X159368620Y-91311517D01*
X159441645Y-91353679D01*
X159441650Y-91353681D01*
X159441653Y-91353683D01*
X159659709Y-91444005D01*
X159887688Y-91505092D01*
X160121691Y-91535899D01*
X160121698Y-91535899D01*
X160357706Y-91535899D01*
X160357713Y-91535899D01*
X160591716Y-91505092D01*
X160819695Y-91444005D01*
X161037751Y-91353683D01*
X161242152Y-91235672D01*
X161429401Y-91091991D01*
X161596294Y-90925098D01*
X161739975Y-90737849D01*
X161857986Y-90533448D01*
X161948308Y-90315392D01*
X162009395Y-90087413D01*
X162040202Y-89853410D01*
X162040202Y-89617388D01*
X162009395Y-89383385D01*
X161948308Y-89155406D01*
X161857986Y-88937350D01*
X161857984Y-88937347D01*
X161857982Y-88937342D01*
X161800947Y-88838556D01*
X161739975Y-88732949D01*
X161614187Y-88569018D01*
X161596295Y-88545701D01*
X161596289Y-88545694D01*
X161429406Y-88378811D01*
X161429399Y-88378805D01*
X161242156Y-88235129D01*
X161242155Y-88235128D01*
X161242152Y-88235126D01*
X161148777Y-88181216D01*
X161037758Y-88117118D01*
X161037747Y-88117113D01*
X160819695Y-88026793D01*
X160591712Y-87965705D01*
X160357722Y-87934900D01*
X160357719Y-87934899D01*
X160357713Y-87934899D01*
X160121691Y-87934899D01*
X160121685Y-87934899D01*
X160121681Y-87934900D01*
X159887691Y-87965705D01*
X159659708Y-88026793D01*
X159441656Y-88117113D01*
X159441645Y-88117118D01*
X159237247Y-88235129D01*
X159050004Y-88378805D01*
X159049997Y-88378811D01*
X158883114Y-88545694D01*
X158883108Y-88545701D01*
X158739432Y-88732944D01*
X158621421Y-88937342D01*
X158621416Y-88937353D01*
X158535549Y-89144655D01*
X158491708Y-89199058D01*
X158482989Y-89204589D01*
X158395885Y-89254879D01*
X158395882Y-89254881D01*
X157519481Y-90131282D01*
X157519477Y-90131287D01*
X157473927Y-90210184D01*
X157440424Y-90268211D01*
X157440423Y-90268212D01*
X157423742Y-90330469D01*
X157399499Y-90420943D01*
X157399499Y-90420945D01*
X157399499Y-90589046D01*
X157399500Y-90589059D01*
X157399500Y-101942827D01*
X157379815Y-102009866D01*
X157327011Y-102055621D01*
X157257853Y-102065565D01*
X157210404Y-102048366D01*
X157059340Y-101955189D01*
X157059335Y-101955187D01*
X157059334Y-101955186D01*
X156892797Y-101900001D01*
X156892795Y-101900000D01*
X156790016Y-101889500D01*
X156790009Y-101889500D01*
X156781496Y-101889500D01*
X156714457Y-101869815D01*
X156691232Y-101850520D01*
X156681329Y-101840006D01*
X156670520Y-101821284D01*
X156558716Y-101709480D01*
X156558713Y-101709478D01*
X153918057Y-99068822D01*
X153918055Y-99068819D01*
X153799184Y-98949948D01*
X153799183Y-98949947D01*
X153712371Y-98899827D01*
X153712371Y-98899826D01*
X153712367Y-98899825D01*
X153662252Y-98870890D01*
X153509524Y-98829966D01*
X153351410Y-98829966D01*
X153343814Y-98829966D01*
X153343798Y-98829967D01*
X152868287Y-98829967D01*
X152801248Y-98810282D01*
X152755493Y-98757478D01*
X152745549Y-98688320D01*
X152757802Y-98649673D01*
X152760462Y-98644451D01*
X152760466Y-98644442D01*
X152762679Y-98637628D01*
X152821873Y-98455449D01*
X152852960Y-98259174D01*
X152852960Y-98060452D01*
X152821873Y-97864177D01*
X152791169Y-97769679D01*
X152760466Y-97675183D01*
X152760465Y-97675180D01*
X152686956Y-97530913D01*
X152670247Y-97498119D01*
X152553441Y-97337349D01*
X152412924Y-97196832D01*
X152252154Y-97080026D01*
X152095678Y-97000297D01*
X152044883Y-96952323D01*
X152028088Y-96884502D01*
X152050625Y-96818367D01*
X152095678Y-96779328D01*
X152252154Y-96699600D01*
X152412924Y-96582794D01*
X152553441Y-96442277D01*
X152670247Y-96281507D01*
X152760465Y-96104445D01*
X152821873Y-95915449D01*
X152852960Y-95719174D01*
X152852960Y-95520452D01*
X152821873Y-95324177D01*
X152782064Y-95201655D01*
X152760466Y-95135183D01*
X152760465Y-95135180D01*
X152714495Y-95044962D01*
X152670247Y-94958119D01*
X152553441Y-94797349D01*
X152412924Y-94656832D01*
X152252154Y-94540026D01*
X152095678Y-94460297D01*
X152044883Y-94412323D01*
X152028088Y-94344502D01*
X152050625Y-94278367D01*
X152095678Y-94239328D01*
X152252154Y-94159600D01*
X152412924Y-94042794D01*
X152553441Y-93902277D01*
X152670247Y-93741507D01*
X152760465Y-93564445D01*
X152821873Y-93375449D01*
X152852960Y-93179174D01*
X152852960Y-92980452D01*
X152821873Y-92784177D01*
X152791169Y-92689679D01*
X152760466Y-92595183D01*
X152760465Y-92595180D01*
X152671795Y-92421158D01*
X152670247Y-92418119D01*
X152553441Y-92257349D01*
X152412924Y-92116832D01*
X152252154Y-92000026D01*
X152095678Y-91920297D01*
X152044883Y-91872323D01*
X152028088Y-91804502D01*
X152050625Y-91738367D01*
X152095678Y-91699328D01*
X152252154Y-91619600D01*
X152412924Y-91502794D01*
X152553441Y-91362277D01*
X152670247Y-91201507D01*
X152760465Y-91024445D01*
X152821873Y-90835449D01*
X152852960Y-90639174D01*
X152852960Y-90440452D01*
X152821873Y-90244177D01*
X152770938Y-90087413D01*
X152760466Y-90055183D01*
X152760465Y-90055180D01*
X152670246Y-89878118D01*
X152553441Y-89717349D01*
X152412924Y-89576832D01*
X152252154Y-89460026D01*
X152095678Y-89380297D01*
X152044883Y-89332323D01*
X152028088Y-89264502D01*
X152050625Y-89198367D01*
X152095678Y-89159328D01*
X152252154Y-89079600D01*
X152412924Y-88962794D01*
X152553441Y-88822277D01*
X152670247Y-88661507D01*
X152760465Y-88484445D01*
X152821873Y-88295449D01*
X152852960Y-88099174D01*
X152852960Y-87900452D01*
X152821873Y-87704177D01*
X152760465Y-87515181D01*
X152760465Y-87515180D01*
X152702971Y-87402343D01*
X152670247Y-87338119D01*
X152553441Y-87177349D01*
X152412924Y-87036832D01*
X152252154Y-86920026D01*
X152095678Y-86840297D01*
X152044883Y-86792323D01*
X152028088Y-86724502D01*
X152050625Y-86658367D01*
X152095678Y-86619328D01*
X152252154Y-86539600D01*
X152412924Y-86422794D01*
X152553441Y-86282277D01*
X152670247Y-86121507D01*
X152760465Y-85944445D01*
X152821873Y-85755449D01*
X152852960Y-85559174D01*
X152852960Y-85360452D01*
X152821873Y-85164177D01*
X152760465Y-84975181D01*
X152760465Y-84975180D01*
X152708148Y-84872504D01*
X152670247Y-84798119D01*
X152609717Y-84714806D01*
X152596697Y-84696885D01*
X152573217Y-84631079D01*
X152589043Y-84563025D01*
X152639148Y-84514330D01*
X152697015Y-84500000D01*
X164875500Y-84500000D01*
X164942539Y-84519685D01*
X164988294Y-84572489D01*
X164999500Y-84624000D01*
X164999500Y-102240953D01*
X164979815Y-102307992D01*
X164927011Y-102353747D01*
X164857853Y-102363691D01*
X164794297Y-102334666D01*
X164787819Y-102328634D01*
X164657213Y-102198028D01*
X164491613Y-102077715D01*
X164491612Y-102077714D01*
X164491610Y-102077713D01*
X164411899Y-102037098D01*
X164309223Y-101984781D01*
X164114534Y-101921522D01*
X163928344Y-101892033D01*
X163912352Y-101889500D01*
X163707648Y-101889500D01*
X163691656Y-101892033D01*
X163505465Y-101921522D01*
X163310776Y-101984781D01*
X163128386Y-102077715D01*
X162962786Y-102198028D01*
X162818028Y-102342786D01*
X162697715Y-102508386D01*
X162604781Y-102690776D01*
X162541522Y-102885465D01*
X162509500Y-103087648D01*
X162509500Y-103292351D01*
X162541522Y-103494534D01*
X162604781Y-103689223D01*
X162697715Y-103871613D01*
X162818028Y-104037213D01*
X162962786Y-104181971D01*
X163117749Y-104294556D01*
X163128390Y-104302287D01*
X163190856Y-104334115D01*
X163221080Y-104349515D01*
X163271876Y-104397490D01*
X163288671Y-104465311D01*
X163266134Y-104531446D01*
X163221080Y-104570485D01*
X163128386Y-104617715D01*
X162962786Y-104738028D01*
X162818028Y-104882786D01*
X162697715Y-105048386D01*
X162604781Y-105230776D01*
X162541522Y-105425465D01*
X162509500Y-105627648D01*
X162509500Y-105832351D01*
X162541522Y-106034534D01*
X162604781Y-106229223D01*
X162697715Y-106411613D01*
X162818028Y-106577213D01*
X162818034Y-106577219D01*
X162962781Y-106721966D01*
X163128390Y-106842287D01*
X163141793Y-106849116D01*
X163152856Y-106859564D01*
X163166703Y-106865888D01*
X163177744Y-106883068D01*
X163192589Y-106897088D01*
X163196830Y-106912768D01*
X163204477Y-106924666D01*
X163209500Y-106959601D01*
X163209500Y-107040397D01*
X163189815Y-107107436D01*
X163141800Y-107150879D01*
X163128389Y-107157712D01*
X162962786Y-107278028D01*
X162818028Y-107422786D01*
X162697715Y-107588386D01*
X162604781Y-107770776D01*
X162541522Y-107965465D01*
X162509500Y-108167648D01*
X162509500Y-108372351D01*
X162541522Y-108574534D01*
X162604781Y-108769223D01*
X162697715Y-108951613D01*
X162818028Y-109117213D01*
X162962786Y-109261971D01*
X163128385Y-109382284D01*
X163128387Y-109382285D01*
X163128390Y-109382287D01*
X163178209Y-109407671D01*
X163221630Y-109429795D01*
X163272426Y-109477770D01*
X163289221Y-109545591D01*
X163266684Y-109611725D01*
X163221630Y-109650765D01*
X163128644Y-109698143D01*
X163084077Y-109730523D01*
X163084077Y-109730524D01*
X163763554Y-110410000D01*
X163757339Y-110410000D01*
X163655606Y-110437259D01*
X163564394Y-110489920D01*
X163489920Y-110564394D01*
X163437259Y-110655606D01*
X163410000Y-110757339D01*
X163410000Y-110763553D01*
X162730524Y-110084077D01*
X162730523Y-110084077D01*
X162698143Y-110128644D01*
X162605244Y-110310968D01*
X162542009Y-110505582D01*
X162510000Y-110707682D01*
X162510000Y-110912317D01*
X162542009Y-111114417D01*
X162605244Y-111309031D01*
X162698141Y-111491350D01*
X162698147Y-111491359D01*
X162730523Y-111535921D01*
X162730524Y-111535922D01*
X163410000Y-110856446D01*
X163410000Y-110862661D01*
X163437259Y-110964394D01*
X163489920Y-111055606D01*
X163564394Y-111130080D01*
X163655606Y-111182741D01*
X163757339Y-111210000D01*
X163763553Y-111210000D01*
X163084076Y-111889474D01*
X163128650Y-111921859D01*
X163310968Y-112014755D01*
X163505582Y-112077990D01*
X163707683Y-112110000D01*
X163912317Y-112110000D01*
X164114417Y-112077990D01*
X164309031Y-112014755D01*
X164491349Y-111921859D01*
X164535921Y-111889474D01*
X163856447Y-111210000D01*
X163862661Y-111210000D01*
X163964394Y-111182741D01*
X164055606Y-111130080D01*
X164130080Y-111055606D01*
X164182741Y-110964394D01*
X164210000Y-110862661D01*
X164210000Y-110856447D01*
X164898138Y-111544586D01*
X164934147Y-111552151D01*
X164983904Y-111601201D01*
X164999500Y-111661405D01*
X164999500Y-127996249D01*
X164999274Y-128003736D01*
X164981728Y-128293794D01*
X164979923Y-128308659D01*
X164928219Y-128590797D01*
X164924635Y-128605335D01*
X164839304Y-128879174D01*
X164833994Y-128893176D01*
X164716277Y-129154730D01*
X164709319Y-129167987D01*
X164560928Y-129413458D01*
X164552422Y-129425782D01*
X164375525Y-129651573D01*
X164365595Y-129662781D01*
X164162781Y-129865595D01*
X164151573Y-129875525D01*
X163925782Y-130052422D01*
X163913458Y-130060928D01*
X163667987Y-130209319D01*
X163654730Y-130216277D01*
X163393176Y-130333994D01*
X163379174Y-130339304D01*
X163105335Y-130424635D01*
X163090797Y-130428219D01*
X162808659Y-130479923D01*
X162793794Y-130481728D01*
X162503736Y-130499274D01*
X162496249Y-130499500D01*
X114503751Y-130499500D01*
X114496264Y-130499274D01*
X114206205Y-130481728D01*
X114191340Y-130479923D01*
X113909202Y-130428219D01*
X113894664Y-130424635D01*
X113620825Y-130339304D01*
X113606827Y-130333995D01*
X113454096Y-130265256D01*
X113345269Y-130216277D01*
X113332012Y-130209319D01*
X113086541Y-130060928D01*
X113074217Y-130052422D01*
X112848426Y-129875525D01*
X112837218Y-129865595D01*
X112634404Y-129662781D01*
X112624474Y-129651573D01*
X112447573Y-129425776D01*
X112439071Y-129413458D01*
X112290680Y-129167987D01*
X112283722Y-129154730D01*
X112166000Y-128893163D01*
X112160698Y-128879182D01*
X112075363Y-128605334D01*
X112071780Y-128590797D01*
X112020076Y-128308659D01*
X112018271Y-128293794D01*
X112000726Y-128003736D01*
X112000500Y-127996249D01*
X112000500Y-125956995D01*
X115699500Y-125956995D01*
X115699500Y-126193004D01*
X115699501Y-126193020D01*
X115730306Y-126427010D01*
X115791394Y-126654993D01*
X115881714Y-126873045D01*
X115881719Y-126873056D01*
X115952677Y-126995957D01*
X115999727Y-127077450D01*
X115999729Y-127077453D01*
X115999730Y-127077454D01*
X116143406Y-127264697D01*
X116143412Y-127264704D01*
X116310295Y-127431587D01*
X116310301Y-127431592D01*
X116497550Y-127575273D01*
X116628918Y-127651118D01*
X116701943Y-127693280D01*
X116701948Y-127693282D01*
X116701951Y-127693284D01*
X116920007Y-127783606D01*
X117147986Y-127844693D01*
X117381989Y-127875500D01*
X117381996Y-127875500D01*
X117618004Y-127875500D01*
X117618011Y-127875500D01*
X117852014Y-127844693D01*
X118079993Y-127783606D01*
X118298049Y-127693284D01*
X118502450Y-127575273D01*
X118689699Y-127431592D01*
X118856592Y-127264699D01*
X119000273Y-127077450D01*
X119117713Y-126874038D01*
X159899500Y-126874038D01*
X159899500Y-127125961D01*
X159938910Y-127374785D01*
X160016760Y-127614383D01*
X160131132Y-127838848D01*
X160279201Y-128042649D01*
X160279205Y-128042654D01*
X160457345Y-128220794D01*
X160457350Y-128220798D01*
X160568126Y-128301281D01*
X160661155Y-128368870D01*
X160804184Y-128441747D01*
X160885616Y-128483239D01*
X160885618Y-128483239D01*
X160885621Y-128483241D01*
X161125215Y-128561090D01*
X161374038Y-128600500D01*
X161374039Y-128600500D01*
X161625961Y-128600500D01*
X161625962Y-128600500D01*
X161874785Y-128561090D01*
X162114379Y-128483241D01*
X162338845Y-128368870D01*
X162542656Y-128220793D01*
X162720793Y-128042656D01*
X162868870Y-127838845D01*
X162983241Y-127614379D01*
X163061090Y-127374785D01*
X163100500Y-127125962D01*
X163100500Y-126874038D01*
X163061090Y-126625215D01*
X162983241Y-126385621D01*
X162983239Y-126385618D01*
X162983239Y-126385616D01*
X162941747Y-126304184D01*
X162868870Y-126161155D01*
X162849952Y-126135117D01*
X162720798Y-125957350D01*
X162720794Y-125957345D01*
X162542654Y-125779205D01*
X162542649Y-125779201D01*
X162338848Y-125631132D01*
X162338847Y-125631131D01*
X162338845Y-125631130D01*
X162268747Y-125595413D01*
X162114383Y-125516760D01*
X161874785Y-125438910D01*
X161625962Y-125399500D01*
X161374038Y-125399500D01*
X161249626Y-125419205D01*
X161125214Y-125438910D01*
X160885616Y-125516760D01*
X160661151Y-125631132D01*
X160457350Y-125779201D01*
X160457345Y-125779205D01*
X160279205Y-125957345D01*
X160279201Y-125957350D01*
X160131132Y-126161151D01*
X160016760Y-126385616D01*
X159938910Y-126625214D01*
X159899500Y-126874038D01*
X119117713Y-126874038D01*
X119118284Y-126873049D01*
X119208606Y-126654993D01*
X119269693Y-126427014D01*
X119300500Y-126193011D01*
X119300500Y-125956989D01*
X119269693Y-125722986D01*
X119208606Y-125495007D01*
X119118284Y-125276951D01*
X119118282Y-125276948D01*
X119118280Y-125276943D01*
X119076118Y-125203918D01*
X119000273Y-125072550D01*
X118856592Y-124885301D01*
X118856587Y-124885295D01*
X118689704Y-124718412D01*
X118689697Y-124718406D01*
X118502454Y-124574730D01*
X118502453Y-124574729D01*
X118502450Y-124574727D01*
X118420957Y-124527677D01*
X118298056Y-124456719D01*
X118298045Y-124456714D01*
X118079993Y-124366394D01*
X117852010Y-124305306D01*
X117618020Y-124274501D01*
X117618017Y-124274500D01*
X117618011Y-124274500D01*
X117381989Y-124274500D01*
X117381983Y-124274500D01*
X117381979Y-124274501D01*
X117147989Y-124305306D01*
X116920006Y-124366394D01*
X116701954Y-124456714D01*
X116701943Y-124456719D01*
X116497545Y-124574730D01*
X116310302Y-124718406D01*
X116310295Y-124718412D01*
X116143412Y-124885295D01*
X116143406Y-124885302D01*
X115999730Y-125072545D01*
X115881719Y-125276943D01*
X115881714Y-125276954D01*
X115791394Y-125495006D01*
X115730306Y-125722989D01*
X115699501Y-125956979D01*
X115699500Y-125956995D01*
X112000500Y-125956995D01*
X112000500Y-123271153D01*
X127699500Y-123271153D01*
X127699500Y-123428846D01*
X127730261Y-123583489D01*
X127730264Y-123583501D01*
X127790602Y-123729172D01*
X127790609Y-123729185D01*
X127878210Y-123860288D01*
X127878213Y-123860292D01*
X127989707Y-123971786D01*
X127989711Y-123971789D01*
X128120814Y-124059390D01*
X128120827Y-124059397D01*
X128266498Y-124119735D01*
X128266503Y-124119737D01*
X128421153Y-124150499D01*
X128421156Y-124150500D01*
X128421158Y-124150500D01*
X128578844Y-124150500D01*
X128578845Y-124150499D01*
X128733497Y-124119737D01*
X128879179Y-124059394D01*
X129010289Y-123971789D01*
X129121789Y-123860289D01*
X129209394Y-123729179D01*
X129263127Y-123599454D01*
X129290004Y-123559229D01*
X130014662Y-122834572D01*
X130075983Y-122801089D01*
X130078150Y-122800638D01*
X130136085Y-122789113D01*
X130233497Y-122769737D01*
X130379179Y-122709394D01*
X130510289Y-122621789D01*
X130621789Y-122510289D01*
X130709394Y-122379179D01*
X130769737Y-122233497D01*
X130800500Y-122078842D01*
X130800500Y-121921158D01*
X130800500Y-121921155D01*
X130800499Y-121921153D01*
X130774973Y-121792828D01*
X130769737Y-121766503D01*
X130733342Y-121678636D01*
X130709397Y-121620827D01*
X130709390Y-121620814D01*
X130621789Y-121489711D01*
X130621786Y-121489707D01*
X130510292Y-121378213D01*
X130510288Y-121378210D01*
X130379185Y-121290609D01*
X130379172Y-121290602D01*
X130233501Y-121230264D01*
X130233489Y-121230261D01*
X130078845Y-121199500D01*
X130078842Y-121199500D01*
X129921158Y-121199500D01*
X129921155Y-121199500D01*
X129766510Y-121230261D01*
X129766498Y-121230264D01*
X129620827Y-121290602D01*
X129620814Y-121290609D01*
X129489711Y-121378210D01*
X129489707Y-121378213D01*
X129378213Y-121489707D01*
X129378210Y-121489711D01*
X129290609Y-121620814D01*
X129290602Y-121620827D01*
X129230264Y-121766498D01*
X129230261Y-121766508D01*
X129199361Y-121921850D01*
X129166976Y-121983761D01*
X129165425Y-121985339D01*
X128637583Y-122513181D01*
X128576260Y-122546666D01*
X128549902Y-122549500D01*
X128421155Y-122549500D01*
X128266510Y-122580261D01*
X128266498Y-122580264D01*
X128120827Y-122640602D01*
X128120814Y-122640609D01*
X127989711Y-122728210D01*
X127989707Y-122728213D01*
X127878213Y-122839707D01*
X127878210Y-122839711D01*
X127790609Y-122970814D01*
X127790602Y-122970827D01*
X127730264Y-123116498D01*
X127730261Y-123116510D01*
X127699500Y-123271153D01*
X112000500Y-123271153D01*
X112000500Y-120877014D01*
X115700000Y-120877014D01*
X115700000Y-121112985D01*
X115730799Y-121346914D01*
X115791870Y-121574837D01*
X115882160Y-121792819D01*
X115882165Y-121792828D01*
X116000144Y-121997171D01*
X116000145Y-121997172D01*
X116062721Y-122078723D01*
X116898958Y-121242487D01*
X116923978Y-121302890D01*
X116995112Y-121409351D01*
X117085649Y-121499888D01*
X117192110Y-121571022D01*
X117252511Y-121596041D01*
X116416275Y-122432277D01*
X116497827Y-122494854D01*
X116497828Y-122494855D01*
X116702171Y-122612834D01*
X116702180Y-122612839D01*
X116920163Y-122703129D01*
X116920161Y-122703129D01*
X117148085Y-122764200D01*
X117382014Y-122794999D01*
X117382029Y-122795000D01*
X117617971Y-122795000D01*
X117617985Y-122794999D01*
X117851914Y-122764200D01*
X118079837Y-122703129D01*
X118297819Y-122612839D01*
X118297828Y-122612834D01*
X118502181Y-122494850D01*
X118583723Y-122432279D01*
X118583723Y-122432276D01*
X117747487Y-121596041D01*
X117807890Y-121571022D01*
X117914351Y-121499888D01*
X118004888Y-121409351D01*
X118076022Y-121302890D01*
X118101041Y-121242487D01*
X118937276Y-122078723D01*
X118937279Y-122078723D01*
X118999850Y-121997181D01*
X119117834Y-121792828D01*
X119117839Y-121792819D01*
X119208129Y-121574837D01*
X119269200Y-121346914D01*
X119299999Y-121112985D01*
X119300000Y-121112971D01*
X119300000Y-120877028D01*
X119299999Y-120877014D01*
X119269200Y-120643085D01*
X119208129Y-120415162D01*
X119117839Y-120197180D01*
X119117834Y-120197171D01*
X118999855Y-119992828D01*
X118999854Y-119992827D01*
X118937277Y-119911275D01*
X118101041Y-120747511D01*
X118076022Y-120687110D01*
X118004888Y-120580649D01*
X117914351Y-120490112D01*
X117807890Y-120418978D01*
X117747488Y-120393958D01*
X118583723Y-119557721D01*
X118502172Y-119495145D01*
X118502171Y-119495144D01*
X118297828Y-119377165D01*
X118297819Y-119377160D01*
X118079836Y-119286870D01*
X118079838Y-119286870D01*
X117851914Y-119225799D01*
X117617985Y-119195000D01*
X117382014Y-119195000D01*
X117148085Y-119225799D01*
X116920162Y-119286870D01*
X116702180Y-119377160D01*
X116702171Y-119377165D01*
X116497828Y-119495144D01*
X116497818Y-119495150D01*
X116416275Y-119557720D01*
X116416275Y-119557721D01*
X117252512Y-120393958D01*
X117192110Y-120418978D01*
X117085649Y-120490112D01*
X116995112Y-120580649D01*
X116923978Y-120687110D01*
X116898958Y-120747511D01*
X116062721Y-119911275D01*
X116062720Y-119911275D01*
X116000150Y-119992818D01*
X116000144Y-119992828D01*
X115882165Y-120197171D01*
X115882160Y-120197180D01*
X115791870Y-120415162D01*
X115730799Y-120643085D01*
X115700000Y-120877014D01*
X112000500Y-120877014D01*
X112000500Y-114814983D01*
X115699500Y-114814983D01*
X115699500Y-117015001D01*
X115699501Y-117015018D01*
X115710000Y-117117796D01*
X115710001Y-117117799D01*
X115738007Y-117202313D01*
X115765186Y-117284334D01*
X115857288Y-117433656D01*
X115981344Y-117557712D01*
X116130666Y-117649814D01*
X116297203Y-117704999D01*
X116399991Y-117715500D01*
X118600008Y-117715499D01*
X118702797Y-117704999D01*
X118869334Y-117649814D01*
X119018656Y-117557712D01*
X119142712Y-117433656D01*
X119234814Y-117284334D01*
X119289999Y-117117797D01*
X119300500Y-117015009D01*
X119300499Y-114814992D01*
X119289999Y-114712203D01*
X119234814Y-114545666D01*
X119142712Y-114396344D01*
X119018656Y-114272288D01*
X118869334Y-114180186D01*
X118702797Y-114125001D01*
X118702795Y-114125000D01*
X118600010Y-114114500D01*
X116399998Y-114114500D01*
X116399981Y-114114501D01*
X116297203Y-114125000D01*
X116297200Y-114125001D01*
X116130668Y-114180185D01*
X116130663Y-114180187D01*
X115981342Y-114272289D01*
X115857289Y-114396342D01*
X115765187Y-114545663D01*
X115765185Y-114545668D01*
X115744761Y-114607303D01*
X115710001Y-114712203D01*
X115710001Y-114712204D01*
X115710000Y-114712204D01*
X115699500Y-114814983D01*
X112000500Y-114814983D01*
X112000500Y-84624000D01*
X112020185Y-84556961D01*
X112072989Y-84511206D01*
X112124500Y-84500000D01*
X116158357Y-84500000D01*
X116225396Y-84519685D01*
G37*
%TD.AperFunction*%
%TA.AperFunction,Conductor*%
G36*
X150003006Y-100050652D02*
G01*
X150048761Y-100103456D01*
X150058705Y-100172614D01*
X150046450Y-100211265D01*
X150044456Y-100215177D01*
X150044453Y-100215183D01*
X149983047Y-100404175D01*
X149951960Y-100600452D01*
X149951960Y-100799173D01*
X149983047Y-100995450D01*
X150044453Y-101184442D01*
X150044454Y-101184445D01*
X150104812Y-101302902D01*
X150134673Y-101361507D01*
X150251479Y-101522277D01*
X150391996Y-101662794D01*
X150552766Y-101779600D01*
X150634575Y-101821284D01*
X150709240Y-101859328D01*
X150760036Y-101907303D01*
X150776831Y-101975124D01*
X150754293Y-102041259D01*
X150709240Y-102080298D01*
X150552765Y-102160026D01*
X150391993Y-102276834D01*
X150251481Y-102417346D01*
X150134673Y-102578118D01*
X150044454Y-102755180D01*
X150044453Y-102755183D01*
X149983047Y-102944175D01*
X149951960Y-103140452D01*
X149951960Y-103339173D01*
X149983047Y-103535450D01*
X150044453Y-103724442D01*
X150044454Y-103724445D01*
X150130235Y-103892797D01*
X150134673Y-103901507D01*
X150251479Y-104062277D01*
X150391996Y-104202794D01*
X150552766Y-104319600D01*
X150669682Y-104379172D01*
X150709240Y-104399328D01*
X150760036Y-104447303D01*
X150776831Y-104515124D01*
X150754293Y-104581259D01*
X150709240Y-104620298D01*
X150552765Y-104700026D01*
X150391993Y-104816834D01*
X150251481Y-104957346D01*
X150134673Y-105118118D01*
X150044454Y-105295180D01*
X150044453Y-105295183D01*
X149983047Y-105484175D01*
X149951960Y-105680452D01*
X149951960Y-105879173D01*
X149983047Y-106075450D01*
X150044453Y-106264442D01*
X150044454Y-106264445D01*
X150119441Y-106411613D01*
X150134673Y-106441507D01*
X150251479Y-106602277D01*
X150391996Y-106742794D01*
X150552766Y-106859600D01*
X150626340Y-106897088D01*
X150709240Y-106939328D01*
X150760036Y-106987303D01*
X150776831Y-107055124D01*
X150754293Y-107121259D01*
X150709240Y-107160298D01*
X150552765Y-107240026D01*
X150391993Y-107356834D01*
X150251481Y-107497346D01*
X150134673Y-107658118D01*
X150044454Y-107835180D01*
X150044453Y-107835183D01*
X149983047Y-108024175D01*
X149951960Y-108220452D01*
X149951960Y-108419173D01*
X149983047Y-108615450D01*
X150044453Y-108804442D01*
X150044454Y-108804445D01*
X150119441Y-108951613D01*
X150134673Y-108981507D01*
X150251479Y-109142277D01*
X150391996Y-109282794D01*
X150552766Y-109399600D01*
X150612027Y-109429795D01*
X150709240Y-109479328D01*
X150760036Y-109527303D01*
X150776831Y-109595124D01*
X150754293Y-109661259D01*
X150709240Y-109700298D01*
X150552765Y-109780026D01*
X150391993Y-109896834D01*
X150251481Y-110037346D01*
X150134673Y-110198118D01*
X150044454Y-110375180D01*
X150044453Y-110375183D01*
X149983047Y-110564175D01*
X149951960Y-110760452D01*
X149951960Y-110959173D01*
X149983047Y-111155450D01*
X150044453Y-111344442D01*
X150044454Y-111344445D01*
X150119441Y-111491613D01*
X150134673Y-111521507D01*
X150251479Y-111682277D01*
X150391996Y-111822794D01*
X150552766Y-111939600D01*
X150671292Y-111999992D01*
X150709240Y-112019328D01*
X150760036Y-112067303D01*
X150776831Y-112135124D01*
X150754293Y-112201259D01*
X150709240Y-112240298D01*
X150552765Y-112320026D01*
X150391993Y-112436834D01*
X150251481Y-112577346D01*
X150134673Y-112738118D01*
X150044454Y-112915180D01*
X150044453Y-112915183D01*
X149983047Y-113104175D01*
X149951960Y-113300452D01*
X149951960Y-113499173D01*
X149983047Y-113695450D01*
X150044453Y-113884442D01*
X150044454Y-113884445D01*
X150134673Y-114061507D01*
X150251479Y-114222277D01*
X150391996Y-114362794D01*
X150552766Y-114479600D01*
X150671292Y-114539992D01*
X150709240Y-114559328D01*
X150760036Y-114607303D01*
X150776831Y-114675124D01*
X150754293Y-114741259D01*
X150709240Y-114780298D01*
X150552765Y-114860026D01*
X150391993Y-114976834D01*
X150251481Y-115117346D01*
X150134673Y-115278118D01*
X150044454Y-115455180D01*
X150044453Y-115455183D01*
X149983047Y-115644175D01*
X149951960Y-115840452D01*
X149951960Y-116039173D01*
X149983047Y-116235450D01*
X150044453Y-116424442D01*
X150044454Y-116424445D01*
X150134673Y-116601507D01*
X150251479Y-116762277D01*
X150391996Y-116902794D01*
X150552766Y-117019600D01*
X150709792Y-117099609D01*
X150760587Y-117147582D01*
X150777382Y-117215403D01*
X150754845Y-117281538D01*
X150709792Y-117320577D01*
X150553029Y-117400452D01*
X150392320Y-117517216D01*
X150392319Y-117517216D01*
X150251863Y-117657672D01*
X150251863Y-117657673D01*
X150135101Y-117818380D01*
X150044916Y-117995377D01*
X149983534Y-118184295D01*
X149976325Y-118229812D01*
X149976325Y-118229813D01*
X151086774Y-118229813D01*
X151082380Y-118234207D01*
X151029719Y-118325419D01*
X151002460Y-118427152D01*
X151002460Y-118532474D01*
X151029719Y-118634207D01*
X151082380Y-118725419D01*
X151086774Y-118729813D01*
X149976325Y-118729813D01*
X149983534Y-118775330D01*
X150044916Y-118964248D01*
X150135101Y-119141245D01*
X150251863Y-119301952D01*
X150251863Y-119301953D01*
X150392319Y-119442409D01*
X150553027Y-119559171D01*
X150709791Y-119639047D01*
X150760587Y-119687022D01*
X150777382Y-119754843D01*
X150754844Y-119820978D01*
X150709791Y-119860017D01*
X150552765Y-119940026D01*
X150391993Y-120056834D01*
X150251481Y-120197346D01*
X150134670Y-120358122D01*
X150133460Y-120360098D01*
X150132803Y-120360691D01*
X150131809Y-120362061D01*
X150131521Y-120361852D01*
X150125758Y-120367066D01*
X150121443Y-120376516D01*
X150100291Y-120390109D01*
X150081650Y-120406976D01*
X150069841Y-120409677D01*
X150062665Y-120414290D01*
X150027730Y-120419313D01*
X149819911Y-120419313D01*
X149752872Y-120399628D01*
X149732230Y-120382994D01*
X141151453Y-111802218D01*
X141151451Y-111802215D01*
X141032580Y-111683344D01*
X141032579Y-111683343D01*
X140945767Y-111633223D01*
X140945767Y-111633222D01*
X140945763Y-111633221D01*
X140895648Y-111604286D01*
X140742920Y-111563362D01*
X140584806Y-111563362D01*
X140577210Y-111563362D01*
X140577194Y-111563363D01*
X127451271Y-111563363D01*
X127384232Y-111543678D01*
X127338477Y-111490874D01*
X127328533Y-111421716D01*
X127340786Y-111383069D01*
X127360462Y-111344450D01*
X127360465Y-111344445D01*
X127421873Y-111155449D01*
X127452960Y-110959174D01*
X127452960Y-110760452D01*
X127421873Y-110564177D01*
X127380635Y-110437259D01*
X127360466Y-110375183D01*
X127360465Y-110375180D01*
X127270246Y-110198118D01*
X127226826Y-110138355D01*
X127153441Y-110037349D01*
X127012924Y-109896832D01*
X126852154Y-109780026D01*
X126695678Y-109700297D01*
X126644883Y-109652323D01*
X126628088Y-109584502D01*
X126650625Y-109518367D01*
X126695678Y-109479328D01*
X126852154Y-109399600D01*
X127012924Y-109282794D01*
X127153441Y-109142277D01*
X127270247Y-108981507D01*
X127360465Y-108804445D01*
X127421873Y-108615449D01*
X127452960Y-108419174D01*
X127452960Y-108220452D01*
X127421873Y-108024177D01*
X127379633Y-107894174D01*
X127360466Y-107835183D01*
X127360465Y-107835180D01*
X127270246Y-107658118D01*
X127153441Y-107497349D01*
X127012924Y-107356832D01*
X126852154Y-107240026D01*
X126695678Y-107160297D01*
X126644883Y-107112323D01*
X126628088Y-107044502D01*
X126650625Y-106978367D01*
X126695678Y-106939328D01*
X126852154Y-106859600D01*
X127012924Y-106742794D01*
X127153441Y-106602277D01*
X127270247Y-106441507D01*
X127360465Y-106264445D01*
X127421873Y-106075449D01*
X127452960Y-105879174D01*
X127452960Y-105680452D01*
X127421873Y-105484177D01*
X127391169Y-105389679D01*
X127360466Y-105295183D01*
X127360465Y-105295180D01*
X127270246Y-105118118D01*
X127153441Y-104957349D01*
X127012924Y-104816832D01*
X126852154Y-104700026D01*
X126695678Y-104620297D01*
X126644883Y-104572323D01*
X126628088Y-104504502D01*
X126650625Y-104438367D01*
X126695678Y-104399328D01*
X126852154Y-104319600D01*
X127012924Y-104202794D01*
X127026390Y-104189327D01*
X127087708Y-104155844D01*
X127157400Y-104160826D01*
X127213335Y-104202696D01*
X127228631Y-104229557D01*
X127290602Y-104379172D01*
X127290609Y-104379185D01*
X127378210Y-104510288D01*
X127378213Y-104510292D01*
X127489707Y-104621786D01*
X127489711Y-104621789D01*
X127620814Y-104709390D01*
X127620827Y-104709397D01*
X127766498Y-104769735D01*
X127766503Y-104769737D01*
X127921153Y-104800499D01*
X127921156Y-104800500D01*
X127921158Y-104800500D01*
X128078844Y-104800500D01*
X128078845Y-104800499D01*
X128233497Y-104769737D01*
X128372443Y-104712184D01*
X128379172Y-104709397D01*
X128379172Y-104709396D01*
X128379179Y-104709394D01*
X128510289Y-104621789D01*
X128621789Y-104510289D01*
X128709394Y-104379179D01*
X128769737Y-104233497D01*
X128800500Y-104078842D01*
X128800638Y-104078150D01*
X128833023Y-104016239D01*
X128834520Y-104014714D01*
X129858506Y-102990727D01*
X129858511Y-102990724D01*
X129868714Y-102980520D01*
X129868716Y-102980520D01*
X129980520Y-102868716D01*
X130059577Y-102731784D01*
X130100500Y-102579057D01*
X130100500Y-101961509D01*
X130120185Y-101894470D01*
X130121398Y-101892618D01*
X130209390Y-101760929D01*
X130209390Y-101760928D01*
X130209394Y-101760923D01*
X130269737Y-101615241D01*
X130300500Y-101460586D01*
X130300500Y-101302902D01*
X130300500Y-101302899D01*
X130300499Y-101302897D01*
X130276937Y-101184445D01*
X130269737Y-101148247D01*
X130250464Y-101101717D01*
X130209397Y-101002571D01*
X130209390Y-101002558D01*
X130121789Y-100871455D01*
X130121786Y-100871451D01*
X130010292Y-100759957D01*
X130010288Y-100759954D01*
X129879185Y-100672353D01*
X129879172Y-100672346D01*
X129733501Y-100612008D01*
X129733489Y-100612005D01*
X129578845Y-100581244D01*
X129578842Y-100581244D01*
X129421158Y-100581244D01*
X129421155Y-100581244D01*
X129266510Y-100612005D01*
X129266498Y-100612008D01*
X129120827Y-100672346D01*
X129120814Y-100672353D01*
X128989711Y-100759954D01*
X128989707Y-100759957D01*
X128878213Y-100871451D01*
X128878210Y-100871455D01*
X128790609Y-101002558D01*
X128790602Y-101002571D01*
X128730264Y-101148242D01*
X128730261Y-101148254D01*
X128699500Y-101302897D01*
X128699500Y-101460590D01*
X128730261Y-101615233D01*
X128730264Y-101615245D01*
X128790602Y-101760916D01*
X128790609Y-101760929D01*
X128878602Y-101892618D01*
X128884252Y-101910664D01*
X128894477Y-101926574D01*
X128898928Y-101957533D01*
X128899480Y-101959295D01*
X128899500Y-101961509D01*
X128899500Y-102199903D01*
X128879815Y-102266942D01*
X128863181Y-102287584D01*
X127985339Y-103165425D01*
X127924016Y-103198910D01*
X127921850Y-103199361D01*
X127766508Y-103230261D01*
X127766498Y-103230264D01*
X127624412Y-103289118D01*
X127554943Y-103296587D01*
X127492464Y-103265312D01*
X127456812Y-103205222D01*
X127452960Y-103174557D01*
X127452960Y-103140452D01*
X127421873Y-102944177D01*
X127391169Y-102849679D01*
X127360466Y-102755183D01*
X127360465Y-102755180D01*
X127276292Y-102589983D01*
X127270247Y-102578119D01*
X127153441Y-102417349D01*
X127012924Y-102276832D01*
X126852154Y-102160026D01*
X126695678Y-102080297D01*
X126644883Y-102032323D01*
X126628088Y-101964502D01*
X126650625Y-101898367D01*
X126695678Y-101859328D01*
X126852154Y-101779600D01*
X127012924Y-101662794D01*
X127153441Y-101522277D01*
X127270247Y-101361507D01*
X127360465Y-101184445D01*
X127421873Y-100995449D01*
X127452960Y-100799174D01*
X127452960Y-100600452D01*
X127421873Y-100404177D01*
X127372072Y-100250903D01*
X127360466Y-100215183D01*
X127360463Y-100215177D01*
X127358470Y-100211265D01*
X127345572Y-100142596D01*
X127371846Y-100077855D01*
X127428951Y-100037596D01*
X127468953Y-100030967D01*
X149935967Y-100030967D01*
X150003006Y-100050652D01*
G37*
%TD.AperFunction*%
%TA.AperFunction,Conductor*%
G36*
X164918834Y-109102865D02*
G01*
X164974767Y-109144737D01*
X164999184Y-109210201D01*
X164999500Y-109219047D01*
X164999500Y-109958593D01*
X164979815Y-110025632D01*
X164927011Y-110071387D01*
X164896829Y-110076721D01*
X164210000Y-110763551D01*
X164210000Y-110757339D01*
X164182741Y-110655606D01*
X164130080Y-110564394D01*
X164055606Y-110489920D01*
X163964394Y-110437259D01*
X163862661Y-110410000D01*
X163856446Y-110410000D01*
X164535922Y-109730524D01*
X164535921Y-109730523D01*
X164491359Y-109698147D01*
X164491350Y-109698141D01*
X164398369Y-109650765D01*
X164347573Y-109602790D01*
X164330778Y-109534969D01*
X164353315Y-109468835D01*
X164398370Y-109429795D01*
X164398920Y-109429515D01*
X164491610Y-109382287D01*
X164541144Y-109346298D01*
X164657213Y-109261971D01*
X164657215Y-109261968D01*
X164657219Y-109261966D01*
X164787819Y-109131366D01*
X164849142Y-109097881D01*
X164918834Y-109102865D01*
G37*
%TD.AperFunction*%
%TA.AperFunction,Conductor*%
G36*
X123216942Y-99570185D02*
G01*
X123237584Y-99586819D01*
X123445606Y-99794841D01*
X123445616Y-99794852D01*
X123449946Y-99799182D01*
X123449947Y-99799183D01*
X123561751Y-99910987D01*
X123611833Y-99939901D01*
X123648562Y-99961106D01*
X123648564Y-99961108D01*
X123686618Y-99983078D01*
X123698682Y-99990044D01*
X123851410Y-100030968D01*
X123851413Y-100030968D01*
X124017120Y-100030968D01*
X124017136Y-100030967D01*
X124535967Y-100030967D01*
X124603006Y-100050652D01*
X124648761Y-100103456D01*
X124658705Y-100172614D01*
X124646450Y-100211265D01*
X124644456Y-100215177D01*
X124644453Y-100215183D01*
X124583047Y-100404175D01*
X124551960Y-100600452D01*
X124551960Y-100799173D01*
X124583047Y-100995450D01*
X124644453Y-101184442D01*
X124644454Y-101184445D01*
X124704812Y-101302902D01*
X124734673Y-101361507D01*
X124851479Y-101522277D01*
X124991996Y-101662794D01*
X125152766Y-101779600D01*
X125234575Y-101821284D01*
X125309240Y-101859328D01*
X125360036Y-101907303D01*
X125376831Y-101975124D01*
X125354293Y-102041259D01*
X125309240Y-102080298D01*
X125152765Y-102160026D01*
X124991993Y-102276834D01*
X124851481Y-102417346D01*
X124734673Y-102578118D01*
X124644454Y-102755180D01*
X124644453Y-102755183D01*
X124583047Y-102944175D01*
X124551960Y-103140452D01*
X124551960Y-103339173D01*
X124583047Y-103535450D01*
X124644453Y-103724442D01*
X124644454Y-103724445D01*
X124730235Y-103892797D01*
X124734673Y-103901507D01*
X124851479Y-104062277D01*
X124991996Y-104202794D01*
X125152766Y-104319600D01*
X125269682Y-104379172D01*
X125309240Y-104399328D01*
X125360036Y-104447303D01*
X125376831Y-104515124D01*
X125354293Y-104581259D01*
X125309240Y-104620298D01*
X125152765Y-104700026D01*
X124991993Y-104816834D01*
X124851481Y-104957346D01*
X124734673Y-105118118D01*
X124644454Y-105295180D01*
X124644453Y-105295183D01*
X124583047Y-105484175D01*
X124551960Y-105680452D01*
X124551960Y-105879173D01*
X124583047Y-106075450D01*
X124644453Y-106264442D01*
X124644454Y-106264445D01*
X124719441Y-106411613D01*
X124734673Y-106441507D01*
X124851479Y-106602277D01*
X124991996Y-106742794D01*
X125152766Y-106859600D01*
X125226340Y-106897088D01*
X125309240Y-106939328D01*
X125360036Y-106987303D01*
X125376831Y-107055124D01*
X125354293Y-107121259D01*
X125309240Y-107160298D01*
X125152765Y-107240026D01*
X124991993Y-107356834D01*
X124851481Y-107497346D01*
X124734673Y-107658118D01*
X124644454Y-107835180D01*
X124644453Y-107835183D01*
X124583047Y-108024175D01*
X124551960Y-108220452D01*
X124551960Y-108419173D01*
X124583047Y-108615450D01*
X124644453Y-108804442D01*
X124644454Y-108804445D01*
X124719441Y-108951613D01*
X124734673Y-108981507D01*
X124851479Y-109142277D01*
X124991996Y-109282794D01*
X125152766Y-109399600D01*
X125212027Y-109429795D01*
X125309240Y-109479328D01*
X125360036Y-109527303D01*
X125376831Y-109595124D01*
X125354293Y-109661259D01*
X125309240Y-109700298D01*
X125152765Y-109780026D01*
X124991993Y-109896834D01*
X124851481Y-110037346D01*
X124734673Y-110198118D01*
X124644454Y-110375180D01*
X124644453Y-110375183D01*
X124603975Y-110499764D01*
X124564537Y-110557440D01*
X124500179Y-110584638D01*
X124431332Y-110572723D01*
X124398363Y-110549127D01*
X123987590Y-110138355D01*
X123987588Y-110138352D01*
X123868717Y-110019481D01*
X123868709Y-110019475D01*
X123764504Y-109959313D01*
X123764503Y-109959312D01*
X123764503Y-109959313D01*
X123731785Y-109940423D01*
X123579057Y-109899499D01*
X123420943Y-109899499D01*
X123413347Y-109899499D01*
X123413331Y-109899500D01*
X122474499Y-109899500D01*
X122407460Y-109879815D01*
X122361705Y-109827011D01*
X122350499Y-109775500D01*
X122350499Y-109602129D01*
X122350498Y-109602123D01*
X122344091Y-109542516D01*
X122293797Y-109407671D01*
X122293793Y-109407664D01*
X122207547Y-109292455D01*
X122207544Y-109292452D01*
X122092335Y-109206206D01*
X122092328Y-109206202D01*
X121957482Y-109155908D01*
X121957483Y-109155908D01*
X121897883Y-109149501D01*
X121897881Y-109149500D01*
X121897873Y-109149500D01*
X121897865Y-109149500D01*
X121887309Y-109149500D01*
X121820270Y-109129815D01*
X121799628Y-109113181D01*
X121129408Y-108442962D01*
X121192993Y-108425925D01*
X121307007Y-108360099D01*
X121400099Y-108267007D01*
X121465925Y-108152993D01*
X121482962Y-108089408D01*
X122115270Y-108721717D01*
X122115270Y-108721716D01*
X122154622Y-108667554D01*
X122251095Y-108478217D01*
X122316757Y-108276130D01*
X122316757Y-108276127D01*
X122350000Y-108066246D01*
X122350000Y-107853753D01*
X122316757Y-107643872D01*
X122316757Y-107643869D01*
X122251095Y-107441782D01*
X122154624Y-107252449D01*
X122115270Y-107198282D01*
X122115269Y-107198282D01*
X121482962Y-107830590D01*
X121465925Y-107767007D01*
X121400099Y-107652993D01*
X121307007Y-107559901D01*
X121192993Y-107494075D01*
X121129409Y-107477037D01*
X121761716Y-106844728D01*
X121707547Y-106805373D01*
X121707547Y-106805372D01*
X121698500Y-106800763D01*
X121647706Y-106752788D01*
X121630912Y-106684966D01*
X121653451Y-106618832D01*
X121698508Y-106579793D01*
X121707816Y-106575051D01*
X121828197Y-106487590D01*
X121879786Y-106450109D01*
X121879788Y-106450106D01*
X121879792Y-106450104D01*
X122030104Y-106299792D01*
X122030106Y-106299788D01*
X122030109Y-106299786D01*
X122155048Y-106127820D01*
X122155047Y-106127820D01*
X122155051Y-106127816D01*
X122251557Y-105938412D01*
X122317246Y-105736243D01*
X122350500Y-105526287D01*
X122350500Y-105313713D01*
X122317246Y-105103757D01*
X122251557Y-104901588D01*
X122155051Y-104712184D01*
X122155049Y-104712181D01*
X122155048Y-104712179D01*
X122030109Y-104540213D01*
X121879786Y-104389890D01*
X121707820Y-104264951D01*
X121707115Y-104264591D01*
X121699054Y-104260485D01*
X121648259Y-104212512D01*
X121631463Y-104144692D01*
X121653999Y-104078556D01*
X121699054Y-104039515D01*
X121707816Y-104035051D01*
X121757599Y-103998882D01*
X121879786Y-103910109D01*
X121879788Y-103910106D01*
X121879792Y-103910104D01*
X122030104Y-103759792D01*
X122030106Y-103759788D01*
X122030109Y-103759786D01*
X122155048Y-103587820D01*
X122155047Y-103587820D01*
X122155051Y-103587816D01*
X122251557Y-103398412D01*
X122317246Y-103196243D01*
X122350500Y-102986287D01*
X122350500Y-102773713D01*
X122317246Y-102563757D01*
X122251557Y-102361588D01*
X122155051Y-102172184D01*
X122155049Y-102172181D01*
X122155048Y-102172179D01*
X122030109Y-102000213D01*
X121879786Y-101849890D01*
X121707817Y-101724949D01*
X121698504Y-101720204D01*
X121647707Y-101672230D01*
X121630912Y-101604409D01*
X121653449Y-101538274D01*
X121698507Y-101499232D01*
X121707555Y-101494622D01*
X121761716Y-101455270D01*
X121761717Y-101455270D01*
X121129408Y-100822962D01*
X121192993Y-100805925D01*
X121307007Y-100740099D01*
X121400099Y-100647007D01*
X121465925Y-100532993D01*
X121482962Y-100469409D01*
X122115270Y-101101717D01*
X122115270Y-101101716D01*
X122154622Y-101047554D01*
X122251095Y-100858217D01*
X122316757Y-100656130D01*
X122316757Y-100656127D01*
X122350000Y-100446246D01*
X122350000Y-100233753D01*
X122316757Y-100023872D01*
X122316757Y-100023869D01*
X122251095Y-99821782D01*
X122204735Y-99730795D01*
X122191839Y-99662126D01*
X122218115Y-99597385D01*
X122275222Y-99557128D01*
X122315220Y-99550500D01*
X123149903Y-99550500D01*
X123216942Y-99570185D01*
G37*
%TD.AperFunction*%
%TA.AperFunction,Conductor*%
G36*
X115805703Y-99033545D02*
G01*
X115830617Y-99063108D01*
X115831521Y-99064604D01*
X115831522Y-99064606D01*
X115834069Y-99068819D01*
X115919530Y-99210188D01*
X116039811Y-99330469D01*
X116039813Y-99330470D01*
X116039815Y-99330472D01*
X116185394Y-99418478D01*
X116347804Y-99469086D01*
X116418384Y-99475500D01*
X116418387Y-99475500D01*
X116931613Y-99475500D01*
X116931616Y-99475500D01*
X117002196Y-99469086D01*
X117164606Y-99418478D01*
X117310185Y-99330472D01*
X117310189Y-99330468D01*
X117412319Y-99228339D01*
X117473642Y-99194854D01*
X117543334Y-99199838D01*
X117587681Y-99228339D01*
X117689811Y-99330469D01*
X117689813Y-99330470D01*
X117689815Y-99330472D01*
X117835394Y-99418478D01*
X117997804Y-99469086D01*
X118068384Y-99475500D01*
X118450968Y-99475500D01*
X118512968Y-99492113D01*
X118543215Y-99509577D01*
X118695943Y-99550500D01*
X118854057Y-99550500D01*
X119684780Y-99550500D01*
X119751819Y-99570185D01*
X119797574Y-99622989D01*
X119807518Y-99692147D01*
X119795265Y-99730795D01*
X119748904Y-99821782D01*
X119683242Y-100023869D01*
X119683242Y-100023872D01*
X119650000Y-100233753D01*
X119650000Y-100446246D01*
X119683242Y-100656127D01*
X119683242Y-100656130D01*
X119748904Y-100858217D01*
X119845375Y-101047550D01*
X119884728Y-101101716D01*
X120517036Y-100469407D01*
X120534075Y-100532993D01*
X120599901Y-100647007D01*
X120692993Y-100740099D01*
X120807007Y-100805925D01*
X120870590Y-100822962D01*
X120238282Y-101455269D01*
X120238282Y-101455270D01*
X120292452Y-101494626D01*
X120292451Y-101494626D01*
X120301495Y-101499234D01*
X120352292Y-101547208D01*
X120369087Y-101615029D01*
X120346550Y-101681164D01*
X120301499Y-101720202D01*
X120292182Y-101724949D01*
X120120213Y-101849890D01*
X119969890Y-102000213D01*
X119844951Y-102172179D01*
X119748444Y-102361585D01*
X119682753Y-102563760D01*
X119649500Y-102773713D01*
X119649500Y-102986286D01*
X119673917Y-103140452D01*
X119682754Y-103196243D01*
X119741879Y-103378211D01*
X119748444Y-103398414D01*
X119844951Y-103587820D01*
X119969890Y-103759786D01*
X120120213Y-103910109D01*
X120292182Y-104035050D01*
X120300946Y-104039516D01*
X120351742Y-104087491D01*
X120368536Y-104155312D01*
X120345998Y-104221447D01*
X120300946Y-104260484D01*
X120292182Y-104264949D01*
X120120213Y-104389890D01*
X119969890Y-104540213D01*
X119844951Y-104712179D01*
X119748444Y-104901585D01*
X119682753Y-105103760D01*
X119649500Y-105313713D01*
X119649500Y-105526286D01*
X119673917Y-105680452D01*
X119682754Y-105736243D01*
X119740299Y-105913348D01*
X119748444Y-105938414D01*
X119844951Y-106127820D01*
X119969890Y-106299786D01*
X120120213Y-106450109D01*
X120292179Y-106575048D01*
X120292181Y-106575049D01*
X120292184Y-106575051D01*
X120301493Y-106579794D01*
X120352290Y-106627766D01*
X120369087Y-106695587D01*
X120346552Y-106761722D01*
X120301505Y-106800760D01*
X120292446Y-106805376D01*
X120292440Y-106805380D01*
X120238282Y-106844727D01*
X120238282Y-106844728D01*
X120870591Y-107477037D01*
X120807007Y-107494075D01*
X120692993Y-107559901D01*
X120599901Y-107652993D01*
X120534075Y-107767007D01*
X120517037Y-107830591D01*
X119884728Y-107198282D01*
X119884727Y-107198282D01*
X119845380Y-107252439D01*
X119748904Y-107441782D01*
X119683242Y-107643869D01*
X119683242Y-107643872D01*
X119650000Y-107853753D01*
X119650000Y-108066246D01*
X119683242Y-108276127D01*
X119683242Y-108276130D01*
X119748904Y-108478217D01*
X119845375Y-108667550D01*
X119884728Y-108721716D01*
X120517037Y-108089408D01*
X120534075Y-108152993D01*
X120599901Y-108267007D01*
X120692993Y-108360099D01*
X120807007Y-108425925D01*
X120870590Y-108442962D01*
X120200370Y-109113181D01*
X120139047Y-109146666D01*
X120112698Y-109149500D01*
X120102134Y-109149500D01*
X120102123Y-109149501D01*
X120042516Y-109155908D01*
X119907671Y-109206202D01*
X119907664Y-109206206D01*
X119792455Y-109292452D01*
X119792452Y-109292455D01*
X119706206Y-109407664D01*
X119706202Y-109407671D01*
X119653198Y-109549785D01*
X119651273Y-109549067D01*
X119621967Y-109600520D01*
X119560052Y-109632898D01*
X119490461Y-109626663D01*
X119448194Y-109598959D01*
X115636819Y-105787584D01*
X115603334Y-105726261D01*
X115600500Y-105699903D01*
X115600500Y-99127258D01*
X115620185Y-99060219D01*
X115672989Y-99014464D01*
X115742147Y-99004520D01*
X115805703Y-99033545D01*
G37*
%TD.AperFunction*%
%TA.AperFunction,Conductor*%
G36*
X115743754Y-90005254D02*
G01*
X115745510Y-90005051D01*
X115775400Y-90019706D01*
X115805703Y-90033545D01*
X115807165Y-90035280D01*
X115808245Y-90035810D01*
X115830617Y-90063108D01*
X115831521Y-90064604D01*
X115831522Y-90064606D01*
X115919528Y-90210185D01*
X116039815Y-90330472D01*
X116039817Y-90330473D01*
X116039818Y-90330474D01*
X116063674Y-90344895D01*
X116074923Y-90356674D01*
X116087391Y-90363516D01*
X116101109Y-90384093D01*
X116108483Y-90391814D01*
X116114261Y-90402448D01*
X116115423Y-90406785D01*
X116134861Y-90440452D01*
X116135670Y-90441854D01*
X116135671Y-90441855D01*
X116194479Y-90543714D01*
X116194481Y-90543717D01*
X116313349Y-90662585D01*
X116313354Y-90662589D01*
X116987701Y-91336937D01*
X117021186Y-91398259D01*
X117016202Y-91467951D01*
X116987702Y-91512297D01*
X116975000Y-91524999D01*
X116975000Y-93474999D01*
X116998308Y-93474999D01*
X116998322Y-93474998D01*
X117097607Y-93464855D01*
X117258481Y-93411547D01*
X117258492Y-93411542D01*
X117402731Y-93322573D01*
X117411959Y-93313345D01*
X117473279Y-93279856D01*
X117542971Y-93284835D01*
X117587327Y-93313339D01*
X117596955Y-93322967D01*
X117596959Y-93322970D01*
X117741294Y-93411998D01*
X117741297Y-93411999D01*
X117741303Y-93412003D01*
X117902292Y-93465349D01*
X118001655Y-93475500D01*
X118548344Y-93475499D01*
X118548352Y-93475498D01*
X118548355Y-93475498D01*
X118602760Y-93469940D01*
X118647708Y-93465349D01*
X118808697Y-93412003D01*
X118819182Y-93405535D01*
X118927115Y-93338962D01*
X118992212Y-93320500D01*
X119714281Y-93320500D01*
X119781320Y-93340185D01*
X119824765Y-93388205D01*
X119844947Y-93427814D01*
X119844948Y-93427815D01*
X119969890Y-93599786D01*
X120120213Y-93750109D01*
X120292182Y-93875050D01*
X120300946Y-93879516D01*
X120351742Y-93927491D01*
X120368536Y-93995312D01*
X120345998Y-94061447D01*
X120300946Y-94100484D01*
X120292182Y-94104949D01*
X120120213Y-94229890D01*
X119969890Y-94380213D01*
X119844948Y-94552184D01*
X119844947Y-94552185D01*
X119824765Y-94591795D01*
X119776791Y-94642591D01*
X119714281Y-94659500D01*
X118959787Y-94659500D01*
X118894689Y-94641038D01*
X118808700Y-94587998D01*
X118647709Y-94534651D01*
X118548346Y-94524500D01*
X118001662Y-94524500D01*
X118001644Y-94524501D01*
X117902292Y-94534650D01*
X117902289Y-94534651D01*
X117741305Y-94587996D01*
X117741294Y-94588001D01*
X117596959Y-94677029D01*
X117596953Y-94677033D01*
X117587324Y-94686663D01*
X117526000Y-94720146D01*
X117456308Y-94715159D01*
X117411965Y-94686660D01*
X117402732Y-94677427D01*
X117402728Y-94677424D01*
X117258492Y-94588457D01*
X117258481Y-94588452D01*
X117097606Y-94535144D01*
X116998322Y-94525000D01*
X116975000Y-94525000D01*
X116975000Y-96474999D01*
X116998308Y-96474999D01*
X116998322Y-96474998D01*
X117097605Y-96464856D01*
X117106917Y-96461770D01*
X117176745Y-96459365D01*
X117236789Y-96495093D01*
X117267985Y-96557612D01*
X117260428Y-96627072D01*
X117233608Y-96667155D01*
X116401440Y-97499323D01*
X116350649Y-97530028D01*
X116347806Y-97530913D01*
X116347804Y-97530914D01*
X116247293Y-97562233D01*
X116185393Y-97581522D01*
X116039811Y-97669530D01*
X115919530Y-97789811D01*
X115830617Y-97936891D01*
X115779089Y-97984079D01*
X115710229Y-97995917D01*
X115645901Y-97968648D01*
X115606527Y-97910929D01*
X115600500Y-97872741D01*
X115600500Y-96107519D01*
X115620185Y-96040480D01*
X115672989Y-95994725D01*
X115742147Y-95984781D01*
X115805703Y-96013806D01*
X115836884Y-96055118D01*
X115838456Y-96058489D01*
X115927424Y-96202728D01*
X115927427Y-96202732D01*
X116047267Y-96322572D01*
X116047271Y-96322575D01*
X116191507Y-96411542D01*
X116191518Y-96411547D01*
X116352393Y-96464855D01*
X116451683Y-96474999D01*
X116475000Y-96474998D01*
X116475000Y-94524999D01*
X116451693Y-94525000D01*
X116451674Y-94525001D01*
X116352392Y-94535144D01*
X116191518Y-94588452D01*
X116191507Y-94588457D01*
X116047271Y-94677424D01*
X116047267Y-94677427D01*
X115927427Y-94797267D01*
X115927424Y-94797271D01*
X115838454Y-94941512D01*
X115836882Y-94944885D01*
X115835187Y-94946809D01*
X115834661Y-94947663D01*
X115834515Y-94947573D01*
X115790710Y-94997324D01*
X115723516Y-95016476D01*
X115656635Y-94996260D01*
X115611300Y-94943095D01*
X115600500Y-94892480D01*
X115600500Y-93107519D01*
X115620185Y-93040480D01*
X115672989Y-92994725D01*
X115742147Y-92984781D01*
X115805703Y-93013806D01*
X115836884Y-93055118D01*
X115838456Y-93058489D01*
X115927424Y-93202728D01*
X115927427Y-93202732D01*
X116047267Y-93322572D01*
X116047271Y-93322575D01*
X116191507Y-93411542D01*
X116191518Y-93411547D01*
X116352393Y-93464855D01*
X116451683Y-93474999D01*
X116475000Y-93474998D01*
X116475000Y-91524999D01*
X116451693Y-91525000D01*
X116451674Y-91525001D01*
X116352392Y-91535144D01*
X116191518Y-91588452D01*
X116191507Y-91588457D01*
X116047271Y-91677424D01*
X116047267Y-91677427D01*
X115927427Y-91797267D01*
X115927424Y-91797271D01*
X115838454Y-91941512D01*
X115836882Y-91944885D01*
X115835187Y-91946809D01*
X115834661Y-91947663D01*
X115834515Y-91947573D01*
X115790710Y-91997324D01*
X115723516Y-92016476D01*
X115656635Y-91996260D01*
X115611300Y-91943095D01*
X115600500Y-91892480D01*
X115600500Y-90127258D01*
X115600998Y-90125561D01*
X115600547Y-90123853D01*
X115610802Y-90092171D01*
X115620185Y-90060219D01*
X115621520Y-90059061D01*
X115622065Y-90057380D01*
X115647828Y-90036266D01*
X115672989Y-90014464D01*
X115674737Y-90014212D01*
X115676105Y-90013092D01*
X115709185Y-90009259D01*
X115742147Y-90004520D01*
X115743754Y-90005254D01*
G37*
%TD.AperFunction*%
%TD*%
M02*
