%TF.GenerationSoftware,KiCad,Pcbnew,10.0.4*%
%TF.CreationDate,2026-07-31T12:07:47+05:30*%
%TF.ProjectId,kicaddddd,6b696361-6464-4646-9464-2e6b69636164,rev?*%
%TF.SameCoordinates,Original*%
%TF.FileFunction,Copper,L2,Bot*%
%TF.FilePolarity,Positive*%
%FSLAX46Y46*%
G04 Gerber Fmt 4.6, Leading zero omitted, Abs format (unit mm)*
G04 Created by KiCad (PCBNEW 10.0.4) date 2026-07-31 12:07:47*
%MOMM*%
%LPD*%
G01*
G04 APERTURE LIST*
G04 Aperture macros list*
%AMRoundRect*
0 Rectangle with rounded corners*
0 $1 Rounding radius*
0 $2 $3 $4 $5 $6 $7 $8 $9 X,Y pos of 4 corners*
0 Add a 4 corners polygon primitive as box body*
4,1,4,$2,$3,$4,$5,$6,$7,$8,$9,$2,$3,0*
0 Add four circle primitives for the rounded corners*
1,1,$1+$1,$2,$3*
1,1,$1+$1,$4,$5*
1,1,$1+$1,$6,$7*
1,1,$1+$1,$8,$9*
0 Add four rect primitives between the rounded corners*
20,1,$1+$1,$2,$3,$4,$5,0*
20,1,$1+$1,$4,$5,$6,$7,0*
20,1,$1+$1,$6,$7,$8,$9,0*
20,1,$1+$1,$8,$9,$2,$3,0*%
G04 Aperture macros list end*
%TA.AperFunction,ComponentPad*%
%ADD10O,1.900000X1.524000*%
%TD*%
%TA.AperFunction,ComponentPad*%
%ADD11RoundRect,0.250000X1.050000X-1.050000X1.050000X1.050000X-1.050000X1.050000X-1.050000X-1.050000X0*%
%TD*%
%TA.AperFunction,ComponentPad*%
%ADD12C,2.600000*%
%TD*%
%TA.AperFunction,ComponentPad*%
%ADD13RoundRect,0.250000X-1.050000X1.050000X-1.050000X-1.050000X1.050000X-1.050000X1.050000X1.050000X0*%
%TD*%
%TA.AperFunction,ComponentPad*%
%ADD14RoundRect,0.250000X-0.550000X-0.550000X0.550000X-0.550000X0.550000X0.550000X-0.550000X0.550000X0*%
%TD*%
%TA.AperFunction,ComponentPad*%
%ADD15C,1.600000*%
%TD*%
%TA.AperFunction,ComponentPad*%
%ADD16R,1.700000X1.700000*%
%TD*%
%TA.AperFunction,ComponentPad*%
%ADD17C,1.700000*%
%TD*%
%TA.AperFunction,ViaPad*%
%ADD18C,0.600000*%
%TD*%
%TA.AperFunction,Conductor*%
%ADD19C,0.200000*%
%TD*%
G04 APERTURE END LIST*
D10*
%TO.P,U1,1,VIN_1*%
%TO.N,+5V*%
X126002460Y-121019813D03*
%TO.P,U1,2,GND_2*%
%TO.N,GND*%
X126002460Y-118479813D03*
%TO.P,U1,3,GPIO13_3*%
%TO.N,unconnected-(U1-GPIO13-Pad3)*%
X126002460Y-115939813D03*
%TO.P,U1,4,GPIO12_4*%
%TO.N,unconnected-(U1-GPIO12-Pad4)*%
X126002460Y-113399813D03*
%TO.P,U1,5,GPIO14_5*%
%TO.N,unconnected-(U1-GPIO14-Pad5)*%
X126002460Y-110859813D03*
%TO.P,U1,6,GPIO27_6*%
%TO.N,unconnected-(U1-GPIO27-Pad6)*%
X126002460Y-108319813D03*
%TO.P,U1,7,GPIO26_7*%
%TO.N,unconnected-(U1-GPIO26-Pad7)*%
X126002460Y-105779813D03*
%TO.P,U1,8,GPIO25_8*%
%TO.N,unconnected-(U1-GPIO25-Pad8)*%
X126002460Y-103239813D03*
%TO.P,U1,9,GPIO33_9*%
%TO.N,unconnected-(U1-GPIO33-Pad9)*%
X126002460Y-100699813D03*
%TO.P,U1,10,GPIO32_10*%
%TO.N,unconnected-(U1-GPIO32-Pad10)*%
X126002460Y-98159813D03*
%TO.P,U1,11,GPIO35_11*%
%TO.N,unconnected-(U1-GPIO35-Pad11)*%
X126002460Y-95619813D03*
%TO.P,U1,12,GPIO34_12*%
%TO.N,unconnected-(U1-GPIO34-Pad12)*%
X126002460Y-93079813D03*
%TO.P,U1,13,GPIO39_13*%
%TO.N,unconnected-(U1-GPIO39-Pad13)*%
X126002460Y-90539813D03*
%TO.P,U1,14,GPIO36_14*%
%TO.N,unconnected-(U1-GPIO36-Pad14)*%
X126002460Y-87999813D03*
%TO.P,U1,15,EN_15*%
%TO.N,unconnected-(U1-EN-Pad15)*%
X126002460Y-85459813D03*
%TO.P,U1,16,3.3v_16*%
%TO.N,+3V3*%
X151402460Y-121019813D03*
%TO.P,U1,17,GND_17*%
%TO.N,GND*%
X151402460Y-118479813D03*
%TO.P,U1,18,GPIO15_18*%
%TO.N,unconnected-(U1-GPIO15-Pad18)*%
X151402460Y-115939813D03*
%TO.P,U1,19,GPIO2_19*%
%TO.N,unconnected-(U1-GPIO2-Pad19)*%
X151402460Y-113399813D03*
%TO.P,U1,20,GPIO4_20*%
%TO.N,unconnected-(U1-GPIO4-Pad20)*%
X151402460Y-110859813D03*
%TO.P,U1,21,GPIO16_21*%
%TO.N,unconnected-(U1-GPIO16-Pad21)*%
X151402460Y-108319813D03*
%TO.P,U1,22,GPIO17_22*%
%TO.N,unconnected-(U1-GPIO17-Pad22)*%
X151402460Y-105779813D03*
%TO.P,U1,23,GPIO5_23*%
%TO.N,unconnected-(U1-GPIO5-Pad23)*%
X151402460Y-103239813D03*
%TO.P,U1,24,GPIO18_24*%
%TO.N,unconnected-(U1-GPIO18-Pad24)*%
X151402460Y-100699813D03*
%TO.P,U1,25,GPIO19_25*%
%TO.N,unconnected-(U1-GPIO19-Pad25)*%
X151402460Y-98159813D03*
%TO.P,U1,26,GPIO21_26*%
%TO.N,/SDA*%
X151402460Y-95619813D03*
%TO.P,U1,27,GPIO3_27*%
%TO.N,unconnected-(U1-GPIO3-Pad27)*%
X151402460Y-93079813D03*
%TO.P,U1,28,GPIO1_28*%
%TO.N,unconnected-(U1-GPIO1-Pad28)*%
X151402460Y-90539813D03*
%TO.P,U1,29,GPIO22_29*%
%TO.N,/SCL*%
X151402460Y-87999813D03*
%TO.P,U1,30,GPIO23_30*%
%TO.N,unconnected-(U1-GPIO23-Pad30)*%
X151402460Y-85459813D03*
%TD*%
D11*
%TO.P,J3,1,Pin_1_1*%
%TO.N,GND*%
X160239702Y-94815399D03*
D12*
%TO.P,J3,2,Pin_2_2*%
%TO.N,/V-*%
X160239702Y-89735399D03*
%TD*%
D13*
%TO.P,J2,1,Pin_1_1*%
%TO.N,+5V*%
X117500000Y-115915000D03*
D12*
%TO.P,J2,2,Pin_2_2*%
%TO.N,GND*%
X117500000Y-120995000D03*
%TO.P,J2,3,Pin_3_3*%
%TO.N,-5V*%
X117500000Y-126075000D03*
%TD*%
D14*
%TO.P,U3,1*%
%TO.N,/RE*%
X156190000Y-103190000D03*
D15*
%TO.P,U3,2,-_2*%
X156190000Y-105730000D03*
%TO.P,U3,3,+_3*%
%TO.N,/V-*%
X156190000Y-108270000D03*
%TO.P,U3,4,V-_4*%
%TO.N,-5V*%
X156190000Y-110810000D03*
%TO.P,U3,5,+_5*%
%TO.N,GND*%
X163810000Y-110810000D03*
%TO.P,U3,6,-_6*%
%TO.N,Net-(U3B--)*%
X163810000Y-108270000D03*
%TO.P,U3,7*%
X163810000Y-105730000D03*
%TO.P,U3,8,V+_8*%
%TO.N,+5V*%
X163810000Y-103190000D03*
%TD*%
D16*
%TO.P,J1,1,Pin_1_1*%
%TO.N,+3V3*%
X121000000Y-110500000D03*
D17*
%TO.P,J1,2,Pin_2_2*%
%TO.N,GND*%
X121000000Y-107960000D03*
%TO.P,J1,3,Pin_3_3*%
%TO.N,/SCL*%
X121000000Y-105420000D03*
%TO.P,J1,4,Pin_4_4*%
%TO.N,/SDA*%
X121000000Y-102880000D03*
%TO.P,J1,5,Pin_5_5*%
%TO.N,GND*%
X121000000Y-100340000D03*
%TO.P,J1,6,Pin_6_6*%
%TO.N,unconnected-(J1-Pin_6-Pad6)*%
X121000000Y-97800000D03*
%TO.P,J1,7,Pin_7_7*%
%TO.N,Net-(J1-Pin_7)*%
X121000000Y-95260000D03*
%TO.P,J1,8,Pin_8_8*%
%TO.N,Net-(J1-Pin_8)*%
X121000000Y-92720000D03*
%TO.P,J1,9,Pin_9_9*%
%TO.N,unconnected-(J1-Pin_9-Pad9)*%
X121000000Y-90180000D03*
%TO.P,J1,10,Pin_10_10*%
%TO.N,unconnected-(J1-Pin_10-Pad10)*%
X121000000Y-87640000D03*
%TD*%
D18*
%TO.N,*%
X135500000Y-92500000D03*
X138500000Y-94500000D03*
%TO.N,GND*%
X130500000Y-118500000D03*
X154500000Y-118500000D03*
%TO.N,/SCL*%
X129500000Y-101381744D03*
X128000000Y-104000000D03*
%TO.N,-5V*%
X130000000Y-122000000D03*
X128500000Y-123350000D03*
%TD*%
%TO.N,+5V*%
D19*
X124519813Y-121019813D02*
X119415000Y-115915000D01*
X119415000Y-115915000D02*
X117500000Y-115915000D01*
X127519813Y-121019813D02*
X126002460Y-121019813D01*
X162810000Y-103190000D02*
X161000000Y-105000000D01*
X163810000Y-103190000D02*
X162810000Y-103190000D01*
X131500000Y-125000000D02*
X127519813Y-121019813D01*
X161000000Y-105000000D02*
X161000000Y-117000000D01*
X161000000Y-117000000D02*
X153000000Y-125000000D01*
X153000000Y-125000000D02*
X131500000Y-125000000D01*
X126002460Y-121019813D02*
X124519813Y-121019813D01*
%TO.N,/SDA*%
X143018256Y-101981744D02*
X123518256Y-101981744D01*
X149380187Y-95619813D02*
X143018256Y-101981744D01*
X151402460Y-95619813D02*
X149380187Y-95619813D01*
X122500000Y-103000000D02*
X121120000Y-103000000D01*
X121120000Y-103000000D02*
X121000000Y-102880000D01*
X123518256Y-101981744D02*
X122500000Y-103000000D01*
%TO.N,/SCL*%
X123500000Y-104500000D02*
X122500000Y-105500000D01*
X128000000Y-104000000D02*
X127500000Y-104500000D01*
X151402460Y-87999813D02*
X142881931Y-87999813D01*
X127500000Y-104500000D02*
X123500000Y-104500000D01*
X142881931Y-87999813D02*
X129500000Y-101381744D01*
X122500000Y-105500000D02*
X121080000Y-105500000D01*
X121080000Y-105500000D02*
X121000000Y-105420000D01*
%TO.N,-5V*%
X137317965Y-114682035D02*
X130000000Y-122000000D01*
X123150000Y-123350000D02*
X120425000Y-126075000D01*
X128500000Y-123350000D02*
X123150000Y-123350000D01*
X153817965Y-114682035D02*
X137317965Y-114682035D01*
X156190000Y-112310000D02*
X153817965Y-114682035D01*
X120425000Y-126075000D02*
X117500000Y-126075000D01*
X156190000Y-110810000D02*
X156190000Y-112310000D01*
%TD*%
%TA.AperFunction,Conductor*%
%TO.N,GND*%
G36*
X124774944Y-84519685D02*
G01*
X124820699Y-84572489D01*
X124830643Y-84641647D01*
X124808223Y-84696885D01*
X124734675Y-84798115D01*
X124644454Y-84975180D01*
X124644453Y-84975183D01*
X124583047Y-85164175D01*
X124551960Y-85360452D01*
X124551960Y-85559173D01*
X124583047Y-85755450D01*
X124644453Y-85944442D01*
X124644454Y-85944445D01*
X124734673Y-86121507D01*
X124851479Y-86282277D01*
X124991996Y-86422794D01*
X125152766Y-86539600D01*
X125271292Y-86599992D01*
X125309240Y-86619328D01*
X125360036Y-86667303D01*
X125376831Y-86735124D01*
X125354293Y-86801259D01*
X125309240Y-86840298D01*
X125152765Y-86920026D01*
X124991993Y-87036834D01*
X124851481Y-87177346D01*
X124734673Y-87338118D01*
X124644454Y-87515180D01*
X124644453Y-87515183D01*
X124583047Y-87704175D01*
X124551960Y-87900452D01*
X124551960Y-88099173D01*
X124583047Y-88295450D01*
X124644453Y-88484442D01*
X124644454Y-88484445D01*
X124703493Y-88600313D01*
X124734673Y-88661507D01*
X124851479Y-88822277D01*
X124991996Y-88962794D01*
X125152766Y-89079600D01*
X125271292Y-89139992D01*
X125309240Y-89159328D01*
X125360036Y-89207303D01*
X125376831Y-89275124D01*
X125354293Y-89341259D01*
X125309240Y-89380298D01*
X125152765Y-89460026D01*
X124991993Y-89576834D01*
X124851481Y-89717346D01*
X124734673Y-89878118D01*
X124644454Y-90055180D01*
X124644453Y-90055183D01*
X124583047Y-90244175D01*
X124551960Y-90440452D01*
X124551960Y-90639173D01*
X124583047Y-90835450D01*
X124644453Y-91024442D01*
X124644454Y-91024445D01*
X124734673Y-91201507D01*
X124851479Y-91362277D01*
X124991996Y-91502794D01*
X125152766Y-91619600D01*
X125271292Y-91679992D01*
X125309240Y-91699328D01*
X125360036Y-91747303D01*
X125376831Y-91815124D01*
X125354293Y-91881259D01*
X125309240Y-91920298D01*
X125152765Y-92000026D01*
X124991993Y-92116834D01*
X124851481Y-92257346D01*
X124734673Y-92418118D01*
X124644454Y-92595180D01*
X124644453Y-92595183D01*
X124583047Y-92784175D01*
X124576377Y-92826287D01*
X124551960Y-92980452D01*
X124551960Y-93179174D01*
X124566304Y-93269737D01*
X124583047Y-93375450D01*
X124644453Y-93564442D01*
X124644454Y-93564445D01*
X124721936Y-93716510D01*
X124734673Y-93741507D01*
X124851479Y-93902277D01*
X124991996Y-94042794D01*
X125152766Y-94159600D01*
X125271292Y-94219992D01*
X125309240Y-94239328D01*
X125360036Y-94287303D01*
X125376831Y-94355124D01*
X125354293Y-94421259D01*
X125309240Y-94460298D01*
X125152765Y-94540026D01*
X124991993Y-94656834D01*
X124851481Y-94797346D01*
X124734673Y-94958118D01*
X124644454Y-95135180D01*
X124644453Y-95135183D01*
X124583047Y-95324175D01*
X124551960Y-95520452D01*
X124551960Y-95719173D01*
X124583047Y-95915450D01*
X124644453Y-96104442D01*
X124644454Y-96104445D01*
X124703493Y-96220313D01*
X124734673Y-96281507D01*
X124851479Y-96442277D01*
X124991996Y-96582794D01*
X125152766Y-96699600D01*
X125271292Y-96759992D01*
X125309240Y-96779328D01*
X125360036Y-96827303D01*
X125376831Y-96895124D01*
X125354293Y-96961259D01*
X125309240Y-97000298D01*
X125152765Y-97080026D01*
X124991993Y-97196834D01*
X124851481Y-97337346D01*
X124734673Y-97498118D01*
X124644454Y-97675180D01*
X124644453Y-97675183D01*
X124583047Y-97864175D01*
X124551960Y-98060452D01*
X124551960Y-98259173D01*
X124583047Y-98455450D01*
X124644453Y-98644442D01*
X124644454Y-98644445D01*
X124734673Y-98821507D01*
X124851479Y-98982277D01*
X124991996Y-99122794D01*
X125152766Y-99239600D01*
X125271292Y-99299992D01*
X125309240Y-99319328D01*
X125360036Y-99367303D01*
X125376831Y-99435124D01*
X125354293Y-99501259D01*
X125309240Y-99540298D01*
X125152765Y-99620026D01*
X124991993Y-99736834D01*
X124851481Y-99877346D01*
X124734673Y-100038118D01*
X124644454Y-100215180D01*
X124644453Y-100215183D01*
X124583047Y-100404175D01*
X124551960Y-100600452D01*
X124551960Y-100799173D01*
X124583047Y-100995450D01*
X124644453Y-101184442D01*
X124644455Y-101184445D01*
X124652864Y-101200949D01*
X124665760Y-101269619D01*
X124639483Y-101334359D01*
X124582377Y-101374616D01*
X124542379Y-101381244D01*
X123439196Y-101381244D01*
X123398275Y-101392208D01*
X123398275Y-101392209D01*
X123361007Y-101402195D01*
X123286470Y-101422167D01*
X123286465Y-101422170D01*
X123149546Y-101501219D01*
X123149538Y-101501225D01*
X123037734Y-101613030D01*
X122384937Y-102265826D01*
X122323614Y-102299311D01*
X122253922Y-102294327D01*
X122197989Y-102252455D01*
X122186771Y-102234439D01*
X122155050Y-102172182D01*
X122030109Y-102000213D01*
X121879786Y-101849890D01*
X121707817Y-101724949D01*
X121698504Y-101720204D01*
X121647707Y-101672230D01*
X121630912Y-101604409D01*
X121653449Y-101538274D01*
X121698507Y-101499232D01*
X121707555Y-101494622D01*
X121761716Y-101455270D01*
X121761717Y-101455270D01*
X121129408Y-100822962D01*
X121192993Y-100805925D01*
X121307007Y-100740099D01*
X121400099Y-100647007D01*
X121465925Y-100532993D01*
X121482962Y-100469408D01*
X122115270Y-101101717D01*
X122115270Y-101101716D01*
X122154622Y-101047554D01*
X122251095Y-100858217D01*
X122316757Y-100656130D01*
X122316757Y-100656127D01*
X122350000Y-100446246D01*
X122350000Y-100233753D01*
X122316757Y-100023872D01*
X122316757Y-100023869D01*
X122251095Y-99821782D01*
X122154624Y-99632449D01*
X122115270Y-99578282D01*
X122115269Y-99578282D01*
X121482962Y-100210590D01*
X121465925Y-100147007D01*
X121400099Y-100032993D01*
X121307007Y-99939901D01*
X121192993Y-99874075D01*
X121129409Y-99857037D01*
X121761716Y-99224728D01*
X121707547Y-99185373D01*
X121707547Y-99185372D01*
X121698500Y-99180763D01*
X121647706Y-99132788D01*
X121630912Y-99064966D01*
X121653451Y-98998832D01*
X121698508Y-98959793D01*
X121707816Y-98955051D01*
X121787007Y-98897515D01*
X121879786Y-98830109D01*
X121879788Y-98830106D01*
X121879792Y-98830104D01*
X122030104Y-98679792D01*
X122030106Y-98679788D01*
X122030109Y-98679786D01*
X122155048Y-98507820D01*
X122155047Y-98507820D01*
X122155051Y-98507816D01*
X122251557Y-98318412D01*
X122317246Y-98116243D01*
X122350500Y-97906287D01*
X122350500Y-97693713D01*
X122317246Y-97483757D01*
X122251557Y-97281588D01*
X122155051Y-97092184D01*
X122155049Y-97092181D01*
X122155048Y-97092179D01*
X122030109Y-96920213D01*
X121879786Y-96769890D01*
X121707820Y-96644951D01*
X121707115Y-96644591D01*
X121699054Y-96640485D01*
X121648259Y-96592512D01*
X121631463Y-96524692D01*
X121653999Y-96458556D01*
X121699054Y-96419515D01*
X121707816Y-96415051D01*
X121729789Y-96399086D01*
X121879786Y-96290109D01*
X121879788Y-96290106D01*
X121879792Y-96290104D01*
X122030104Y-96139792D01*
X122030106Y-96139788D01*
X122030109Y-96139786D01*
X122155048Y-95967820D01*
X122155047Y-95967820D01*
X122155051Y-95967816D01*
X122251557Y-95778412D01*
X122317246Y-95576243D01*
X122350500Y-95366287D01*
X122350500Y-95153713D01*
X122317246Y-94943757D01*
X122251557Y-94741588D01*
X122155051Y-94552184D01*
X122155049Y-94552181D01*
X122155048Y-94552179D01*
X122030109Y-94380213D01*
X121879786Y-94229890D01*
X121707820Y-94104951D01*
X121707115Y-94104591D01*
X121699054Y-94100485D01*
X121648259Y-94052512D01*
X121631463Y-93984692D01*
X121653999Y-93918556D01*
X121699054Y-93879515D01*
X121707816Y-93875051D01*
X121729789Y-93859086D01*
X121879786Y-93750109D01*
X121879788Y-93750106D01*
X121879792Y-93750104D01*
X122030104Y-93599792D01*
X122030106Y-93599788D01*
X122030109Y-93599786D01*
X122155048Y-93427820D01*
X122155047Y-93427820D01*
X122155051Y-93427816D01*
X122251557Y-93238412D01*
X122317246Y-93036243D01*
X122350500Y-92826287D01*
X122350500Y-92613713D01*
X122317246Y-92403757D01*
X122251557Y-92201588D01*
X122155051Y-92012184D01*
X122155049Y-92012181D01*
X122155048Y-92012179D01*
X122030109Y-91840213D01*
X121879786Y-91689890D01*
X121707820Y-91564951D01*
X121707115Y-91564591D01*
X121699054Y-91560485D01*
X121648259Y-91512512D01*
X121631463Y-91444692D01*
X121653999Y-91378556D01*
X121699054Y-91339515D01*
X121707816Y-91335051D01*
X121729789Y-91319086D01*
X121879786Y-91210109D01*
X121879788Y-91210106D01*
X121879792Y-91210104D01*
X122030104Y-91059792D01*
X122030106Y-91059788D01*
X122030109Y-91059786D01*
X122155048Y-90887820D01*
X122155047Y-90887820D01*
X122155051Y-90887816D01*
X122251557Y-90698412D01*
X122317246Y-90496243D01*
X122350500Y-90286287D01*
X122350500Y-90073713D01*
X122317246Y-89863757D01*
X122251557Y-89661588D01*
X122155051Y-89472184D01*
X122155049Y-89472181D01*
X122155048Y-89472179D01*
X122030109Y-89300213D01*
X121879786Y-89149890D01*
X121707820Y-89024951D01*
X121707115Y-89024591D01*
X121699054Y-89020485D01*
X121648259Y-88972512D01*
X121631463Y-88904692D01*
X121653999Y-88838556D01*
X121699054Y-88799515D01*
X121707816Y-88795051D01*
X121793300Y-88732944D01*
X121879786Y-88670109D01*
X121879788Y-88670106D01*
X121879792Y-88670104D01*
X122030104Y-88519792D01*
X122030106Y-88519788D01*
X122030109Y-88519786D01*
X122155048Y-88347820D01*
X122155047Y-88347820D01*
X122155051Y-88347816D01*
X122251557Y-88158412D01*
X122317246Y-87956243D01*
X122350500Y-87746287D01*
X122350500Y-87533713D01*
X122317246Y-87323757D01*
X122251557Y-87121588D01*
X122155051Y-86932184D01*
X122155049Y-86932181D01*
X122155048Y-86932179D01*
X122030109Y-86760213D01*
X121879786Y-86609890D01*
X121707820Y-86484951D01*
X121518414Y-86388444D01*
X121518413Y-86388443D01*
X121518412Y-86388443D01*
X121316243Y-86322754D01*
X121316241Y-86322753D01*
X121316240Y-86322753D01*
X121154957Y-86297208D01*
X121106287Y-86289500D01*
X120893713Y-86289500D01*
X120845042Y-86297208D01*
X120683760Y-86322753D01*
X120481585Y-86388444D01*
X120292179Y-86484951D01*
X120120213Y-86609890D01*
X119969890Y-86760213D01*
X119844951Y-86932179D01*
X119748444Y-87121585D01*
X119682753Y-87323760D01*
X119649500Y-87533713D01*
X119649500Y-87746286D01*
X119679373Y-87934900D01*
X119682754Y-87956243D01*
X119729195Y-88099174D01*
X119748444Y-88158414D01*
X119844951Y-88347820D01*
X119969890Y-88519786D01*
X120120213Y-88670109D01*
X120292182Y-88795050D01*
X120300946Y-88799516D01*
X120351742Y-88847491D01*
X120368536Y-88915312D01*
X120345998Y-88981447D01*
X120300946Y-89020484D01*
X120292182Y-89024949D01*
X120120213Y-89149890D01*
X119969890Y-89300213D01*
X119844951Y-89472179D01*
X119748444Y-89661585D01*
X119682753Y-89863760D01*
X119649500Y-90073713D01*
X119649500Y-90286286D01*
X119673917Y-90440452D01*
X119682754Y-90496243D01*
X119729195Y-90639174D01*
X119748444Y-90698414D01*
X119844951Y-90887820D01*
X119969890Y-91059786D01*
X120120213Y-91210109D01*
X120292182Y-91335050D01*
X120300946Y-91339516D01*
X120351742Y-91387491D01*
X120368536Y-91455312D01*
X120345998Y-91521447D01*
X120300946Y-91560484D01*
X120292182Y-91564949D01*
X120120213Y-91689890D01*
X119969890Y-91840213D01*
X119844951Y-92012179D01*
X119748444Y-92201585D01*
X119682753Y-92403760D01*
X119649500Y-92613713D01*
X119649500Y-92826286D01*
X119681114Y-93025893D01*
X119682754Y-93036243D01*
X119739015Y-93209397D01*
X119748444Y-93238414D01*
X119844951Y-93427820D01*
X119969890Y-93599786D01*
X120120213Y-93750109D01*
X120292182Y-93875050D01*
X120300946Y-93879516D01*
X120351742Y-93927491D01*
X120368536Y-93995312D01*
X120345998Y-94061447D01*
X120300946Y-94100484D01*
X120292182Y-94104949D01*
X120120213Y-94229890D01*
X119969890Y-94380213D01*
X119844951Y-94552179D01*
X119748444Y-94741585D01*
X119682753Y-94943760D01*
X119649500Y-95153713D01*
X119649500Y-95366286D01*
X119673917Y-95520452D01*
X119682754Y-95576243D01*
X119729195Y-95719174D01*
X119748444Y-95778414D01*
X119844951Y-95967820D01*
X119969890Y-96139786D01*
X120120213Y-96290109D01*
X120292182Y-96415050D01*
X120300946Y-96419516D01*
X120351742Y-96467491D01*
X120368536Y-96535312D01*
X120345998Y-96601447D01*
X120300946Y-96640484D01*
X120292182Y-96644949D01*
X120120213Y-96769890D01*
X119969890Y-96920213D01*
X119844951Y-97092179D01*
X119748444Y-97281585D01*
X119682753Y-97483760D01*
X119649500Y-97693713D01*
X119649500Y-97906286D01*
X119673917Y-98060452D01*
X119682754Y-98116243D01*
X119729195Y-98259174D01*
X119748444Y-98318414D01*
X119844951Y-98507820D01*
X119969890Y-98679786D01*
X120120213Y-98830109D01*
X120292179Y-98955048D01*
X120292181Y-98955049D01*
X120292184Y-98955051D01*
X120301493Y-98959794D01*
X120352290Y-99007766D01*
X120369087Y-99075587D01*
X120346552Y-99141722D01*
X120301505Y-99180760D01*
X120292446Y-99185376D01*
X120292440Y-99185380D01*
X120238282Y-99224727D01*
X120238282Y-99224728D01*
X120870591Y-99857037D01*
X120807007Y-99874075D01*
X120692993Y-99939901D01*
X120599901Y-100032993D01*
X120534075Y-100147007D01*
X120517037Y-100210591D01*
X119884728Y-99578282D01*
X119884727Y-99578282D01*
X119845380Y-99632439D01*
X119748904Y-99821782D01*
X119683242Y-100023869D01*
X119683242Y-100023872D01*
X119650000Y-100233753D01*
X119650000Y-100446246D01*
X119683242Y-100656127D01*
X119683242Y-100656130D01*
X119748904Y-100858217D01*
X119845375Y-101047550D01*
X119884728Y-101101716D01*
X120517037Y-100469408D01*
X120534075Y-100532993D01*
X120599901Y-100647007D01*
X120692993Y-100740099D01*
X120807007Y-100805925D01*
X120870590Y-100822962D01*
X120238282Y-101455269D01*
X120238282Y-101455270D01*
X120292452Y-101494626D01*
X120292451Y-101494626D01*
X120301495Y-101499234D01*
X120352292Y-101547208D01*
X120369087Y-101615029D01*
X120346550Y-101681164D01*
X120301499Y-101720202D01*
X120292182Y-101724949D01*
X120120213Y-101849890D01*
X119969890Y-102000213D01*
X119844951Y-102172179D01*
X119748444Y-102361585D01*
X119682753Y-102563760D01*
X119649500Y-102773713D01*
X119649500Y-102986286D01*
X119673917Y-103140452D01*
X119682754Y-103196243D01*
X119741879Y-103378211D01*
X119748444Y-103398414D01*
X119844951Y-103587820D01*
X119969890Y-103759786D01*
X120120213Y-103910109D01*
X120292182Y-104035050D01*
X120300946Y-104039516D01*
X120351742Y-104087491D01*
X120368536Y-104155312D01*
X120345998Y-104221447D01*
X120300946Y-104260484D01*
X120292182Y-104264949D01*
X120120213Y-104389890D01*
X119969890Y-104540213D01*
X119844951Y-104712179D01*
X119748444Y-104901585D01*
X119748443Y-104901587D01*
X119748443Y-104901588D01*
X119730326Y-104957346D01*
X119682753Y-105103760D01*
X119649500Y-105313713D01*
X119649500Y-105526286D01*
X119673917Y-105680452D01*
X119682754Y-105736243D01*
X119729195Y-105879174D01*
X119748444Y-105938414D01*
X119844951Y-106127820D01*
X119969890Y-106299786D01*
X120120213Y-106450109D01*
X120292179Y-106575048D01*
X120292181Y-106575049D01*
X120292184Y-106575051D01*
X120301493Y-106579794D01*
X120352290Y-106627766D01*
X120369087Y-106695587D01*
X120346552Y-106761722D01*
X120301505Y-106800760D01*
X120292446Y-106805376D01*
X120292440Y-106805380D01*
X120238282Y-106844727D01*
X120238282Y-106844728D01*
X120870591Y-107477037D01*
X120807007Y-107494075D01*
X120692993Y-107559901D01*
X120599901Y-107652993D01*
X120534075Y-107767007D01*
X120517037Y-107830591D01*
X119884728Y-107198282D01*
X119884727Y-107198282D01*
X119845380Y-107252439D01*
X119748904Y-107441782D01*
X119683242Y-107643869D01*
X119683242Y-107643872D01*
X119650000Y-107853753D01*
X119650000Y-108066246D01*
X119683242Y-108276127D01*
X119683242Y-108276130D01*
X119748904Y-108478217D01*
X119845375Y-108667550D01*
X119884728Y-108721716D01*
X120517037Y-108089408D01*
X120534075Y-108152993D01*
X120599901Y-108267007D01*
X120692993Y-108360099D01*
X120807007Y-108425925D01*
X120870590Y-108442962D01*
X120200370Y-109113181D01*
X120139047Y-109146666D01*
X120112698Y-109149500D01*
X120102134Y-109149500D01*
X120102123Y-109149501D01*
X120042516Y-109155908D01*
X119907671Y-109206202D01*
X119907664Y-109206206D01*
X119792455Y-109292452D01*
X119792452Y-109292455D01*
X119706206Y-109407664D01*
X119706202Y-109407671D01*
X119655908Y-109542517D01*
X119649501Y-109602116D01*
X119649501Y-109602123D01*
X119649500Y-109602135D01*
X119649500Y-111397870D01*
X119649501Y-111397876D01*
X119655908Y-111457483D01*
X119706202Y-111592328D01*
X119706206Y-111592335D01*
X119792452Y-111707544D01*
X119792455Y-111707547D01*
X119907664Y-111793793D01*
X119907671Y-111793797D01*
X120042517Y-111844091D01*
X120042516Y-111844091D01*
X120049444Y-111844835D01*
X120102127Y-111850500D01*
X121897872Y-111850499D01*
X121957483Y-111844091D01*
X122092331Y-111793796D01*
X122207546Y-111707546D01*
X122293796Y-111592331D01*
X122344091Y-111457483D01*
X122350500Y-111397873D01*
X122350499Y-109602128D01*
X122345027Y-109551226D01*
X122344091Y-109542516D01*
X122293797Y-109407671D01*
X122293793Y-109407664D01*
X122207547Y-109292455D01*
X122207544Y-109292452D01*
X122092335Y-109206206D01*
X122092328Y-109206202D01*
X121957482Y-109155908D01*
X121957483Y-109155908D01*
X121897883Y-109149501D01*
X121897881Y-109149500D01*
X121897873Y-109149500D01*
X121897865Y-109149500D01*
X121887309Y-109149500D01*
X121820270Y-109129815D01*
X121799628Y-109113181D01*
X121129408Y-108442962D01*
X121192993Y-108425925D01*
X121307007Y-108360099D01*
X121400099Y-108267007D01*
X121465925Y-108152993D01*
X121482962Y-108089408D01*
X122115270Y-108721717D01*
X122115270Y-108721716D01*
X122154622Y-108667554D01*
X122251095Y-108478217D01*
X122316757Y-108276130D01*
X122316757Y-108276127D01*
X122350000Y-108066246D01*
X122350000Y-107853753D01*
X122316757Y-107643872D01*
X122316757Y-107643869D01*
X122251095Y-107441782D01*
X122154624Y-107252449D01*
X122115270Y-107198282D01*
X122115269Y-107198282D01*
X121482962Y-107830590D01*
X121465925Y-107767007D01*
X121400099Y-107652993D01*
X121307007Y-107559901D01*
X121192993Y-107494075D01*
X121129409Y-107477037D01*
X121761716Y-106844728D01*
X121707547Y-106805373D01*
X121707547Y-106805372D01*
X121698500Y-106800763D01*
X121647706Y-106752788D01*
X121630912Y-106684966D01*
X121653451Y-106618832D01*
X121698508Y-106579793D01*
X121707816Y-106575051D01*
X121787007Y-106517515D01*
X121879786Y-106450109D01*
X121879788Y-106450106D01*
X121879792Y-106450104D01*
X122030104Y-106299792D01*
X122137761Y-106151613D01*
X122142092Y-106148273D01*
X122144365Y-106143297D01*
X122169461Y-106127168D01*
X122193089Y-106108949D01*
X122199762Y-106107695D01*
X122203143Y-106105523D01*
X122238078Y-106100500D01*
X122413331Y-106100500D01*
X122413347Y-106100501D01*
X122420943Y-106100501D01*
X122579054Y-106100501D01*
X122579057Y-106100501D01*
X122731785Y-106059577D01*
X122781904Y-106030639D01*
X122868716Y-105980520D01*
X122980520Y-105868716D01*
X122980520Y-105868714D01*
X122990728Y-105858507D01*
X122990729Y-105858504D01*
X123712417Y-105136819D01*
X123773740Y-105103334D01*
X123800098Y-105100500D01*
X124541300Y-105100500D01*
X124608339Y-105120185D01*
X124654094Y-105172989D01*
X124664038Y-105242147D01*
X124651785Y-105280795D01*
X124644454Y-105295180D01*
X124644453Y-105295183D01*
X124583047Y-105484175D01*
X124551960Y-105680452D01*
X124551960Y-105879173D01*
X124583047Y-106075450D01*
X124644453Y-106264442D01*
X124644454Y-106264445D01*
X124719441Y-106411613D01*
X124734673Y-106441507D01*
X124851479Y-106602277D01*
X124991996Y-106742794D01*
X125152766Y-106859600D01*
X125271292Y-106919992D01*
X125309240Y-106939328D01*
X125360036Y-106987303D01*
X125376831Y-107055124D01*
X125354293Y-107121259D01*
X125309240Y-107160298D01*
X125152765Y-107240026D01*
X124991993Y-107356834D01*
X124851481Y-107497346D01*
X124734673Y-107658118D01*
X124644454Y-107835180D01*
X124644453Y-107835183D01*
X124583047Y-108024175D01*
X124551960Y-108220452D01*
X124551960Y-108419173D01*
X124583047Y-108615450D01*
X124644453Y-108804442D01*
X124644454Y-108804445D01*
X124719441Y-108951613D01*
X124734673Y-108981507D01*
X124851479Y-109142277D01*
X124991996Y-109282794D01*
X125152766Y-109399600D01*
X125212027Y-109429795D01*
X125309240Y-109479328D01*
X125360036Y-109527303D01*
X125376831Y-109595124D01*
X125354293Y-109661259D01*
X125309240Y-109700298D01*
X125152765Y-109780026D01*
X124991993Y-109896834D01*
X124851481Y-110037346D01*
X124734673Y-110198118D01*
X124644454Y-110375180D01*
X124644453Y-110375183D01*
X124583047Y-110564175D01*
X124551960Y-110760452D01*
X124551960Y-110959173D01*
X124583047Y-111155450D01*
X124644453Y-111344442D01*
X124644454Y-111344445D01*
X124719441Y-111491613D01*
X124734673Y-111521507D01*
X124851479Y-111682277D01*
X124991996Y-111822794D01*
X125152766Y-111939600D01*
X125271292Y-111999992D01*
X125309240Y-112019328D01*
X125360036Y-112067303D01*
X125376831Y-112135124D01*
X125354293Y-112201259D01*
X125309240Y-112240298D01*
X125152765Y-112320026D01*
X124991993Y-112436834D01*
X124851481Y-112577346D01*
X124734673Y-112738118D01*
X124644454Y-112915180D01*
X124644453Y-112915183D01*
X124583047Y-113104175D01*
X124551960Y-113300452D01*
X124551960Y-113499173D01*
X124583047Y-113695450D01*
X124644453Y-113884442D01*
X124644454Y-113884445D01*
X124720989Y-114034651D01*
X124734673Y-114061507D01*
X124851479Y-114222277D01*
X124991996Y-114362794D01*
X125152766Y-114479600D01*
X125271292Y-114539992D01*
X125309240Y-114559328D01*
X125360036Y-114607303D01*
X125376831Y-114675124D01*
X125354293Y-114741259D01*
X125309240Y-114780298D01*
X125152765Y-114860026D01*
X124991993Y-114976834D01*
X124851481Y-115117346D01*
X124734673Y-115278118D01*
X124644454Y-115455180D01*
X124644453Y-115455183D01*
X124583047Y-115644175D01*
X124551960Y-115840452D01*
X124551960Y-116039173D01*
X124583047Y-116235450D01*
X124644453Y-116424442D01*
X124644454Y-116424445D01*
X124734673Y-116601507D01*
X124851479Y-116762277D01*
X124991996Y-116902794D01*
X125152766Y-117019600D01*
X125309792Y-117099609D01*
X125360587Y-117147582D01*
X125377382Y-117215403D01*
X125354845Y-117281538D01*
X125309792Y-117320577D01*
X125153029Y-117400452D01*
X124992320Y-117517216D01*
X124992319Y-117517216D01*
X124851863Y-117657672D01*
X124851863Y-117657673D01*
X124735101Y-117818380D01*
X124644916Y-117995377D01*
X124583534Y-118184295D01*
X124576325Y-118229812D01*
X124576325Y-118229813D01*
X125686774Y-118229813D01*
X125682380Y-118234207D01*
X125629719Y-118325419D01*
X125602460Y-118427152D01*
X125602460Y-118532474D01*
X125629719Y-118634207D01*
X125682380Y-118725419D01*
X125686774Y-118729813D01*
X124576325Y-118729813D01*
X124583534Y-118775330D01*
X124644916Y-118964248D01*
X124735101Y-119141245D01*
X124851863Y-119301952D01*
X124851863Y-119301953D01*
X124992319Y-119442409D01*
X125153027Y-119559171D01*
X125309791Y-119639047D01*
X125360587Y-119687022D01*
X125377382Y-119754843D01*
X125354844Y-119820978D01*
X125309791Y-119860017D01*
X125152765Y-119940026D01*
X124991993Y-120056834D01*
X124851478Y-120197349D01*
X124808513Y-120256485D01*
X124753182Y-120299150D01*
X124683569Y-120305128D01*
X124621774Y-120272521D01*
X124620515Y-120271279D01*
X119902590Y-115553355D01*
X119902588Y-115553352D01*
X119783717Y-115434481D01*
X119783712Y-115434477D01*
X119664723Y-115365780D01*
X119664720Y-115365778D01*
X119646785Y-115355423D01*
X119646782Y-115355422D01*
X119616826Y-115347395D01*
X119494057Y-115314499D01*
X119424499Y-115314499D01*
X119357460Y-115294814D01*
X119311705Y-115242010D01*
X119300499Y-115190499D01*
X119300499Y-114814998D01*
X119300498Y-114814981D01*
X119289999Y-114712203D01*
X119289998Y-114712200D01*
X119288739Y-114708400D01*
X119234814Y-114545666D01*
X119142712Y-114396344D01*
X119018656Y-114272288D01*
X118869334Y-114180186D01*
X118702797Y-114125001D01*
X118702795Y-114125000D01*
X118600010Y-114114500D01*
X116399998Y-114114500D01*
X116399981Y-114114501D01*
X116297203Y-114125000D01*
X116297200Y-114125001D01*
X116130668Y-114180185D01*
X116130663Y-114180187D01*
X115981342Y-114272289D01*
X115857289Y-114396342D01*
X115765187Y-114545663D01*
X115765185Y-114545668D01*
X115744761Y-114607303D01*
X115710001Y-114712203D01*
X115710001Y-114712204D01*
X115710000Y-114712204D01*
X115699500Y-114814983D01*
X115699500Y-117015001D01*
X115699501Y-117015018D01*
X115710000Y-117117796D01*
X115710001Y-117117799D01*
X115761299Y-117272603D01*
X115765186Y-117284334D01*
X115857288Y-117433656D01*
X115981344Y-117557712D01*
X116130666Y-117649814D01*
X116297203Y-117704999D01*
X116399991Y-117715500D01*
X118600008Y-117715499D01*
X118702797Y-117704999D01*
X118869334Y-117649814D01*
X119018656Y-117557712D01*
X119142712Y-117433656D01*
X119234814Y-117284334D01*
X119289999Y-117117797D01*
X119300500Y-117015009D01*
X119300499Y-116949095D01*
X119320183Y-116882058D01*
X119372986Y-116836302D01*
X119442144Y-116826358D01*
X119505700Y-116855382D01*
X119512179Y-116861414D01*
X124151097Y-121500333D01*
X124151099Y-121500334D01*
X124151103Y-121500337D01*
X124273535Y-121571022D01*
X124288029Y-121579390D01*
X124440756Y-121620314D01*
X124440758Y-121620314D01*
X124606467Y-121620314D01*
X124606483Y-121620313D01*
X124627730Y-121620313D01*
X124694769Y-121639998D01*
X124731651Y-121677679D01*
X124731809Y-121677565D01*
X124732587Y-121678636D01*
X124733460Y-121679528D01*
X124734670Y-121681503D01*
X124734673Y-121681507D01*
X124851479Y-121842277D01*
X124991996Y-121982794D01*
X125152766Y-122099600D01*
X125239609Y-122143848D01*
X125329827Y-122189818D01*
X125329830Y-122189819D01*
X125424326Y-122220522D01*
X125518824Y-122251226D01*
X125715099Y-122282313D01*
X125715100Y-122282313D01*
X126289820Y-122282313D01*
X126289821Y-122282313D01*
X126486096Y-122251226D01*
X126675092Y-122189818D01*
X126852154Y-122099600D01*
X127012924Y-121982794D01*
X127153441Y-121842277D01*
X127211012Y-121763036D01*
X127266337Y-121720374D01*
X127335950Y-121714393D01*
X127397746Y-121746998D01*
X127399008Y-121748243D01*
X128116218Y-122465453D01*
X128126313Y-122483941D01*
X128140394Y-122499617D01*
X128142723Y-122513994D01*
X128149703Y-122526776D01*
X128148200Y-122547790D01*
X128151570Y-122568587D01*
X128145757Y-122581939D01*
X128144719Y-122596468D01*
X128132093Y-122613333D01*
X128123685Y-122632651D01*
X128105206Y-122649248D01*
X128102847Y-122652401D01*
X128097428Y-122656236D01*
X127989125Y-122728602D01*
X127922447Y-122749480D01*
X127920234Y-122749500D01*
X123236669Y-122749500D01*
X123236653Y-122749499D01*
X123229057Y-122749499D01*
X123070943Y-122749499D01*
X122963587Y-122778265D01*
X122918210Y-122790424D01*
X122918209Y-122790425D01*
X122868096Y-122819359D01*
X122868095Y-122819360D01*
X122824689Y-122844420D01*
X122781285Y-122869479D01*
X122781282Y-122869481D01*
X122669478Y-122981286D01*
X120212584Y-125438181D01*
X120151261Y-125471666D01*
X120124903Y-125474500D01*
X119282966Y-125474500D01*
X119215927Y-125454815D01*
X119170172Y-125402011D01*
X119168405Y-125397953D01*
X119166617Y-125393637D01*
X119118284Y-125276951D01*
X119118282Y-125276948D01*
X119118280Y-125276943D01*
X119076118Y-125203918D01*
X119000273Y-125072550D01*
X118856592Y-124885301D01*
X118856587Y-124885295D01*
X118689704Y-124718412D01*
X118689697Y-124718406D01*
X118502454Y-124574730D01*
X118502453Y-124574729D01*
X118502450Y-124574727D01*
X118420957Y-124527677D01*
X118298056Y-124456719D01*
X118298045Y-124456714D01*
X118079993Y-124366394D01*
X117852010Y-124305306D01*
X117618020Y-124274501D01*
X117618017Y-124274500D01*
X117618011Y-124274500D01*
X117381989Y-124274500D01*
X117381983Y-124274500D01*
X117381979Y-124274501D01*
X117147989Y-124305306D01*
X116920006Y-124366394D01*
X116701954Y-124456714D01*
X116701943Y-124456719D01*
X116497545Y-124574730D01*
X116310302Y-124718406D01*
X116310295Y-124718412D01*
X116143412Y-124885295D01*
X116143406Y-124885302D01*
X115999730Y-125072545D01*
X115881719Y-125276943D01*
X115881714Y-125276954D01*
X115791394Y-125495006D01*
X115730306Y-125722989D01*
X115699501Y-125956979D01*
X115699500Y-125956995D01*
X115699500Y-126193004D01*
X115699501Y-126193020D01*
X115724857Y-126385621D01*
X115730307Y-126427014D01*
X115734782Y-126443716D01*
X115791394Y-126654993D01*
X115881714Y-126873045D01*
X115881719Y-126873056D01*
X115952677Y-126995957D01*
X115999727Y-127077450D01*
X115999729Y-127077453D01*
X115999730Y-127077454D01*
X116143406Y-127264697D01*
X116143412Y-127264704D01*
X116310295Y-127431587D01*
X116310301Y-127431592D01*
X116497550Y-127575273D01*
X116628918Y-127651118D01*
X116701943Y-127693280D01*
X116701948Y-127693282D01*
X116701951Y-127693284D01*
X116920007Y-127783606D01*
X117147986Y-127844693D01*
X117381989Y-127875500D01*
X117381996Y-127875500D01*
X117618004Y-127875500D01*
X117618011Y-127875500D01*
X117852014Y-127844693D01*
X118079993Y-127783606D01*
X118298049Y-127693284D01*
X118502450Y-127575273D01*
X118689699Y-127431592D01*
X118856592Y-127264699D01*
X119000273Y-127077450D01*
X119117713Y-126874038D01*
X159899500Y-126874038D01*
X159899500Y-127125961D01*
X159938910Y-127374785D01*
X160016760Y-127614383D01*
X160131132Y-127838848D01*
X160279201Y-128042649D01*
X160279205Y-128042654D01*
X160457345Y-128220794D01*
X160457350Y-128220798D01*
X160568126Y-128301281D01*
X160661155Y-128368870D01*
X160804184Y-128441747D01*
X160885616Y-128483239D01*
X160885618Y-128483239D01*
X160885621Y-128483241D01*
X161125215Y-128561090D01*
X161374038Y-128600500D01*
X161374039Y-128600500D01*
X161625961Y-128600500D01*
X161625962Y-128600500D01*
X161874785Y-128561090D01*
X162114379Y-128483241D01*
X162338845Y-128368870D01*
X162542656Y-128220793D01*
X162720793Y-128042656D01*
X162868870Y-127838845D01*
X162983241Y-127614379D01*
X163061090Y-127374785D01*
X163100500Y-127125962D01*
X163100500Y-126874038D01*
X163061090Y-126625215D01*
X162983241Y-126385621D01*
X162983239Y-126385618D01*
X162983239Y-126385616D01*
X162941747Y-126304184D01*
X162868870Y-126161155D01*
X162849952Y-126135117D01*
X162720798Y-125957350D01*
X162720794Y-125957345D01*
X162542654Y-125779205D01*
X162542649Y-125779201D01*
X162338848Y-125631132D01*
X162338847Y-125631131D01*
X162338845Y-125631130D01*
X162257198Y-125589529D01*
X162114383Y-125516760D01*
X161874785Y-125438910D01*
X161870182Y-125438181D01*
X161625962Y-125399500D01*
X161374038Y-125399500D01*
X161249626Y-125419205D01*
X161125214Y-125438910D01*
X160885616Y-125516760D01*
X160661151Y-125631132D01*
X160457350Y-125779201D01*
X160457345Y-125779205D01*
X160279205Y-125957345D01*
X160279201Y-125957350D01*
X160131132Y-126161151D01*
X160016760Y-126385616D01*
X159938910Y-126625214D01*
X159899500Y-126874038D01*
X119117713Y-126874038D01*
X119118284Y-126873049D01*
X119168405Y-126752047D01*
X119212246Y-126697643D01*
X119278541Y-126675579D01*
X119282966Y-126675500D01*
X120338331Y-126675500D01*
X120338347Y-126675501D01*
X120345943Y-126675501D01*
X120504054Y-126675501D01*
X120504057Y-126675501D01*
X120656785Y-126634577D01*
X120706904Y-126605639D01*
X120793716Y-126555520D01*
X120905520Y-126443716D01*
X120905520Y-126443714D01*
X120915728Y-126433507D01*
X120915729Y-126433504D01*
X123362416Y-123986819D01*
X123423739Y-123953334D01*
X123450097Y-123950500D01*
X127920234Y-123950500D01*
X127987273Y-123970185D01*
X127989125Y-123971398D01*
X128120814Y-124059390D01*
X128120827Y-124059397D01*
X128266498Y-124119735D01*
X128266503Y-124119737D01*
X128421153Y-124150499D01*
X128421156Y-124150500D01*
X128421158Y-124150500D01*
X128578844Y-124150500D01*
X128578845Y-124150499D01*
X128733497Y-124119737D01*
X128879179Y-124059394D01*
X129010289Y-123971789D01*
X129121789Y-123860289D01*
X129193764Y-123752569D01*
X129247374Y-123707767D01*
X129316699Y-123699059D01*
X129379727Y-123729213D01*
X129384546Y-123733781D01*
X131015139Y-125364374D01*
X131015149Y-125364385D01*
X131019479Y-125368715D01*
X131019480Y-125368716D01*
X131131284Y-125480520D01*
X131131286Y-125480521D01*
X131131290Y-125480524D01*
X131268209Y-125559573D01*
X131268216Y-125559577D01*
X131380019Y-125589534D01*
X131420942Y-125600500D01*
X131420943Y-125600500D01*
X152913331Y-125600500D01*
X152913347Y-125600501D01*
X152920943Y-125600501D01*
X153079054Y-125600501D01*
X153079057Y-125600501D01*
X153231785Y-125559577D01*
X153281904Y-125530639D01*
X153368716Y-125480520D01*
X153480520Y-125368716D01*
X153480520Y-125368714D01*
X153490728Y-125358507D01*
X153490730Y-125358504D01*
X161358506Y-117490728D01*
X161358511Y-117490724D01*
X161368714Y-117480520D01*
X161368716Y-117480520D01*
X161480520Y-117368716D01*
X161559577Y-117231784D01*
X161600500Y-117079057D01*
X161600500Y-105300096D01*
X161620185Y-105233057D01*
X161636814Y-105212419D01*
X162727345Y-104121888D01*
X162788666Y-104088405D01*
X162858358Y-104093389D01*
X162902705Y-104121890D01*
X162962786Y-104181971D01*
X163117749Y-104294556D01*
X163128390Y-104302287D01*
X163219840Y-104348883D01*
X163221080Y-104349515D01*
X163271876Y-104397490D01*
X163288671Y-104465311D01*
X163266134Y-104531446D01*
X163221080Y-104570485D01*
X163128386Y-104617715D01*
X162962786Y-104738028D01*
X162818028Y-104882786D01*
X162697715Y-105048386D01*
X162604781Y-105230776D01*
X162541522Y-105425465D01*
X162509500Y-105627648D01*
X162509500Y-105832351D01*
X162541522Y-106034534D01*
X162604781Y-106229223D01*
X162697715Y-106411613D01*
X162818028Y-106577213D01*
X162962786Y-106721971D01*
X163077591Y-106805380D01*
X163128390Y-106842287D01*
X163219840Y-106888883D01*
X163221080Y-106889515D01*
X163271876Y-106937490D01*
X163288671Y-107005311D01*
X163266134Y-107071446D01*
X163221080Y-107110485D01*
X163128386Y-107157715D01*
X162962786Y-107278028D01*
X162818028Y-107422786D01*
X162697715Y-107588386D01*
X162604781Y-107770776D01*
X162541522Y-107965465D01*
X162509500Y-108167648D01*
X162509500Y-108372351D01*
X162541522Y-108574534D01*
X162604781Y-108769223D01*
X162697715Y-108951613D01*
X162818028Y-109117213D01*
X162962786Y-109261971D01*
X163128385Y-109382284D01*
X163128387Y-109382285D01*
X163128390Y-109382287D01*
X163178209Y-109407671D01*
X163221630Y-109429795D01*
X163272426Y-109477770D01*
X163289221Y-109545591D01*
X163266684Y-109611725D01*
X163221630Y-109650765D01*
X163128644Y-109698143D01*
X163084077Y-109730523D01*
X163084077Y-109730524D01*
X163763554Y-110410000D01*
X163757339Y-110410000D01*
X163655606Y-110437259D01*
X163564394Y-110489920D01*
X163489920Y-110564394D01*
X163437259Y-110655606D01*
X163410000Y-110757339D01*
X163410000Y-110763553D01*
X162730524Y-110084077D01*
X162730523Y-110084077D01*
X162698143Y-110128644D01*
X162605244Y-110310968D01*
X162542009Y-110505582D01*
X162510000Y-110707682D01*
X162510000Y-110912317D01*
X162542009Y-111114417D01*
X162605244Y-111309031D01*
X162698141Y-111491350D01*
X162698147Y-111491359D01*
X162730523Y-111535921D01*
X162730524Y-111535922D01*
X163410000Y-110856446D01*
X163410000Y-110862661D01*
X163437259Y-110964394D01*
X163489920Y-111055606D01*
X163564394Y-111130080D01*
X163655606Y-111182741D01*
X163757339Y-111210000D01*
X163763553Y-111210000D01*
X163084076Y-111889474D01*
X163128650Y-111921859D01*
X163310968Y-112014755D01*
X163505582Y-112077990D01*
X163707683Y-112110000D01*
X163912317Y-112110000D01*
X164114417Y-112077990D01*
X164309031Y-112014755D01*
X164491349Y-111921859D01*
X164535921Y-111889474D01*
X163856447Y-111210000D01*
X163862661Y-111210000D01*
X163964394Y-111182741D01*
X164055606Y-111130080D01*
X164130080Y-111055606D01*
X164182741Y-110964394D01*
X164210000Y-110862661D01*
X164210000Y-110856447D01*
X164898138Y-111544586D01*
X164934147Y-111552151D01*
X164983904Y-111601201D01*
X164999500Y-111661405D01*
X164999500Y-127996249D01*
X164999274Y-128003736D01*
X164981728Y-128293794D01*
X164979923Y-128308659D01*
X164928219Y-128590797D01*
X164924635Y-128605335D01*
X164839304Y-128879174D01*
X164833994Y-128893176D01*
X164716277Y-129154730D01*
X164709319Y-129167987D01*
X164560928Y-129413458D01*
X164552422Y-129425782D01*
X164375525Y-129651573D01*
X164365595Y-129662781D01*
X164162781Y-129865595D01*
X164151573Y-129875525D01*
X163925782Y-130052422D01*
X163913458Y-130060928D01*
X163667987Y-130209319D01*
X163654730Y-130216277D01*
X163393176Y-130333994D01*
X163379174Y-130339304D01*
X163105335Y-130424635D01*
X163090797Y-130428219D01*
X162808659Y-130479923D01*
X162793794Y-130481728D01*
X162503736Y-130499274D01*
X162496249Y-130499500D01*
X114503751Y-130499500D01*
X114496264Y-130499274D01*
X114206205Y-130481728D01*
X114191340Y-130479923D01*
X113909202Y-130428219D01*
X113894664Y-130424635D01*
X113620825Y-130339304D01*
X113606827Y-130333995D01*
X113454096Y-130265256D01*
X113345269Y-130216277D01*
X113332012Y-130209319D01*
X113086541Y-130060928D01*
X113074217Y-130052422D01*
X112848426Y-129875525D01*
X112837218Y-129865595D01*
X112634404Y-129662781D01*
X112624474Y-129651573D01*
X112447573Y-129425776D01*
X112439071Y-129413458D01*
X112290680Y-129167987D01*
X112283722Y-129154730D01*
X112166000Y-128893163D01*
X112160698Y-128879182D01*
X112075363Y-128605334D01*
X112071780Y-128590797D01*
X112020076Y-128308659D01*
X112018271Y-128293794D01*
X112000726Y-128003736D01*
X112000500Y-127996249D01*
X112000500Y-120877014D01*
X115700000Y-120877014D01*
X115700000Y-121112985D01*
X115730799Y-121346914D01*
X115791870Y-121574837D01*
X115882160Y-121792819D01*
X115882165Y-121792828D01*
X116000144Y-121997171D01*
X116000145Y-121997172D01*
X116062721Y-122078723D01*
X116898958Y-121242487D01*
X116923978Y-121302890D01*
X116995112Y-121409351D01*
X117085649Y-121499888D01*
X117192110Y-121571022D01*
X117252511Y-121596041D01*
X116416275Y-122432277D01*
X116497827Y-122494854D01*
X116497828Y-122494855D01*
X116702171Y-122612834D01*
X116702180Y-122612839D01*
X116920163Y-122703129D01*
X116920161Y-122703129D01*
X117148085Y-122764200D01*
X117382014Y-122794999D01*
X117382029Y-122795000D01*
X117617971Y-122795000D01*
X117617985Y-122794999D01*
X117851914Y-122764200D01*
X118079837Y-122703129D01*
X118297819Y-122612839D01*
X118297828Y-122612834D01*
X118502181Y-122494850D01*
X118583723Y-122432279D01*
X118583723Y-122432276D01*
X117747487Y-121596041D01*
X117807890Y-121571022D01*
X117914351Y-121499888D01*
X118004888Y-121409351D01*
X118076022Y-121302890D01*
X118101041Y-121242487D01*
X118937276Y-122078723D01*
X118937279Y-122078723D01*
X118999850Y-121997181D01*
X119117834Y-121792828D01*
X119117839Y-121792819D01*
X119208129Y-121574837D01*
X119269200Y-121346914D01*
X119299999Y-121112985D01*
X119300000Y-121112971D01*
X119300000Y-120877028D01*
X119299999Y-120877014D01*
X119269200Y-120643085D01*
X119208129Y-120415162D01*
X119117839Y-120197180D01*
X119117834Y-120197171D01*
X118999855Y-119992828D01*
X118999854Y-119992827D01*
X118937277Y-119911275D01*
X118101041Y-120747511D01*
X118076022Y-120687110D01*
X118004888Y-120580649D01*
X117914351Y-120490112D01*
X117807890Y-120418978D01*
X117747488Y-120393958D01*
X118583723Y-119557721D01*
X118502172Y-119495145D01*
X118502171Y-119495144D01*
X118297828Y-119377165D01*
X118297819Y-119377160D01*
X118079836Y-119286870D01*
X118079838Y-119286870D01*
X117851914Y-119225799D01*
X117617985Y-119195000D01*
X117382014Y-119195000D01*
X117148085Y-119225799D01*
X116920162Y-119286870D01*
X116702180Y-119377160D01*
X116702171Y-119377165D01*
X116497828Y-119495144D01*
X116497818Y-119495150D01*
X116416275Y-119557720D01*
X116416275Y-119557721D01*
X117252512Y-120393958D01*
X117192110Y-120418978D01*
X117085649Y-120490112D01*
X116995112Y-120580649D01*
X116923978Y-120687110D01*
X116898958Y-120747511D01*
X116062721Y-119911275D01*
X116062720Y-119911275D01*
X116000150Y-119992818D01*
X116000144Y-119992828D01*
X115882165Y-120197171D01*
X115882160Y-120197180D01*
X115791870Y-120415162D01*
X115730799Y-120643085D01*
X115700000Y-120877014D01*
X112000500Y-120877014D01*
X112000500Y-84624000D01*
X112020185Y-84556961D01*
X112072989Y-84511206D01*
X112124500Y-84500000D01*
X124707905Y-84500000D01*
X124774944Y-84519685D01*
G37*
%TD.AperFunction*%
%TA.AperFunction,Conductor*%
G36*
X164942539Y-84519685D02*
G01*
X164988294Y-84572489D01*
X164999500Y-84624000D01*
X164999500Y-102240953D01*
X164979815Y-102307992D01*
X164927011Y-102353747D01*
X164857853Y-102363691D01*
X164794297Y-102334666D01*
X164787819Y-102328634D01*
X164657213Y-102198028D01*
X164491613Y-102077715D01*
X164491612Y-102077714D01*
X164491610Y-102077713D01*
X164420065Y-102041259D01*
X164309223Y-101984781D01*
X164114534Y-101921522D01*
X163939995Y-101893878D01*
X163912352Y-101889500D01*
X163707648Y-101889500D01*
X163683329Y-101893351D01*
X163505465Y-101921522D01*
X163310776Y-101984781D01*
X163128386Y-102077715D01*
X162962786Y-102198028D01*
X162818028Y-102342786D01*
X162697714Y-102508386D01*
X162669658Y-102563447D01*
X162621682Y-102614242D01*
X162591277Y-102626922D01*
X162578218Y-102630421D01*
X162578212Y-102630424D01*
X162441287Y-102709477D01*
X162441282Y-102709481D01*
X160519481Y-104631282D01*
X160519480Y-104631284D01*
X160479792Y-104700026D01*
X160440423Y-104768215D01*
X160399499Y-104920943D01*
X160399499Y-104920945D01*
X160399499Y-105089046D01*
X160399500Y-105089059D01*
X160399500Y-116699903D01*
X160379815Y-116766942D01*
X160363181Y-116787584D01*
X152787584Y-124363181D01*
X152726261Y-124396666D01*
X152699903Y-124399500D01*
X131800097Y-124399500D01*
X131733058Y-124379815D01*
X131712416Y-124363181D01*
X130283740Y-122934505D01*
X130250255Y-122873182D01*
X130255239Y-122803490D01*
X130297111Y-122747557D01*
X130323969Y-122732263D01*
X130379172Y-122709397D01*
X130379172Y-122709396D01*
X130379179Y-122709394D01*
X130510289Y-122621789D01*
X130621789Y-122510289D01*
X130709394Y-122379179D01*
X130769737Y-122233497D01*
X130800500Y-122078842D01*
X130800638Y-122078150D01*
X130833023Y-122016239D01*
X130834518Y-122014716D01*
X137530381Y-115318854D01*
X137591704Y-115285369D01*
X137618062Y-115282535D01*
X149930388Y-115282535D01*
X149997427Y-115302220D01*
X150043182Y-115355024D01*
X150053126Y-115424182D01*
X150045898Y-115450528D01*
X150045960Y-115450548D01*
X150045529Y-115451872D01*
X150044949Y-115453989D01*
X150044452Y-115455187D01*
X149983047Y-115644175D01*
X149951960Y-115840452D01*
X149951960Y-116039173D01*
X149983047Y-116235450D01*
X150044453Y-116424442D01*
X150044454Y-116424445D01*
X150134673Y-116601507D01*
X150251479Y-116762277D01*
X150391996Y-116902794D01*
X150552766Y-117019600D01*
X150709792Y-117099609D01*
X150760587Y-117147582D01*
X150777382Y-117215403D01*
X150754845Y-117281538D01*
X150709792Y-117320577D01*
X150553029Y-117400452D01*
X150392320Y-117517216D01*
X150392319Y-117517216D01*
X150251863Y-117657672D01*
X150251863Y-117657673D01*
X150135101Y-117818380D01*
X150044916Y-117995377D01*
X149983534Y-118184295D01*
X149976325Y-118229812D01*
X149976325Y-118229813D01*
X151086774Y-118229813D01*
X151082380Y-118234207D01*
X151029719Y-118325419D01*
X151002460Y-118427152D01*
X151002460Y-118532474D01*
X151029719Y-118634207D01*
X151082380Y-118725419D01*
X151086774Y-118729813D01*
X149976325Y-118729813D01*
X149983534Y-118775330D01*
X150044916Y-118964248D01*
X150135101Y-119141245D01*
X150251863Y-119301952D01*
X150251863Y-119301953D01*
X150392319Y-119442409D01*
X150553027Y-119559171D01*
X150709791Y-119639047D01*
X150760587Y-119687022D01*
X150777382Y-119754843D01*
X150754844Y-119820978D01*
X150709791Y-119860017D01*
X150552765Y-119940026D01*
X150391993Y-120056834D01*
X150251481Y-120197346D01*
X150134673Y-120358118D01*
X150044454Y-120535180D01*
X150044453Y-120535183D01*
X149983047Y-120724175D01*
X149983047Y-120724177D01*
X149951960Y-120920452D01*
X149951960Y-121119174D01*
X149962322Y-121184598D01*
X149983047Y-121315450D01*
X150044453Y-121504442D01*
X150044454Y-121504445D01*
X150131883Y-121676032D01*
X150134673Y-121681507D01*
X150251479Y-121842277D01*
X150391996Y-121982794D01*
X150552766Y-122099600D01*
X150639609Y-122143848D01*
X150729827Y-122189818D01*
X150729830Y-122189819D01*
X150824326Y-122220522D01*
X150918824Y-122251226D01*
X151115099Y-122282313D01*
X151115100Y-122282313D01*
X151689820Y-122282313D01*
X151689821Y-122282313D01*
X151886096Y-122251226D01*
X152075092Y-122189818D01*
X152252154Y-122099600D01*
X152412924Y-121982794D01*
X152553441Y-121842277D01*
X152670247Y-121681507D01*
X152760465Y-121504445D01*
X152821873Y-121315449D01*
X152852960Y-121119174D01*
X152852960Y-120920452D01*
X152821873Y-120724177D01*
X152791169Y-120629679D01*
X152760466Y-120535183D01*
X152760465Y-120535180D01*
X152701427Y-120419313D01*
X152670247Y-120358119D01*
X152553441Y-120197349D01*
X152412924Y-120056832D01*
X152252154Y-119940026D01*
X152095127Y-119860016D01*
X152044332Y-119812042D01*
X152027537Y-119744221D01*
X152050074Y-119678086D01*
X152095128Y-119639047D01*
X152251892Y-119559171D01*
X152412599Y-119442409D01*
X152412600Y-119442409D01*
X152553056Y-119301953D01*
X152553056Y-119301952D01*
X152669818Y-119141245D01*
X152760003Y-118964248D01*
X152821385Y-118775330D01*
X152828594Y-118729813D01*
X151718146Y-118729813D01*
X151722540Y-118725419D01*
X151775201Y-118634207D01*
X151802460Y-118532474D01*
X151802460Y-118427152D01*
X151775201Y-118325419D01*
X151722540Y-118234207D01*
X151718146Y-118229813D01*
X152828595Y-118229813D01*
X152828594Y-118229812D01*
X152821385Y-118184295D01*
X152760003Y-117995377D01*
X152669818Y-117818380D01*
X152553056Y-117657673D01*
X152553056Y-117657672D01*
X152412600Y-117517216D01*
X152251892Y-117400454D01*
X152095128Y-117320578D01*
X152044332Y-117272603D01*
X152027537Y-117204782D01*
X152050075Y-117138647D01*
X152095127Y-117099609D01*
X152252154Y-117019600D01*
X152412924Y-116902794D01*
X152553441Y-116762277D01*
X152670247Y-116601507D01*
X152760465Y-116424445D01*
X152821873Y-116235449D01*
X152852960Y-116039174D01*
X152852960Y-115840452D01*
X152821873Y-115644177D01*
X152760465Y-115455181D01*
X152760462Y-115455175D01*
X152759971Y-115453989D01*
X152759918Y-115453496D01*
X152758960Y-115450548D01*
X152759579Y-115450346D01*
X152752502Y-115384519D01*
X152783776Y-115322040D01*
X152843865Y-115286387D01*
X152874532Y-115282535D01*
X153731296Y-115282535D01*
X153731312Y-115282536D01*
X153738908Y-115282536D01*
X153897019Y-115282536D01*
X153897022Y-115282536D01*
X154049750Y-115241612D01*
X154099869Y-115212674D01*
X154186681Y-115162555D01*
X154298485Y-115050751D01*
X154298485Y-115050749D01*
X154308693Y-115040542D01*
X154308695Y-115040539D01*
X156548506Y-112800728D01*
X156548511Y-112800724D01*
X156558714Y-112790520D01*
X156558716Y-112790520D01*
X156670520Y-112678716D01*
X156729044Y-112577349D01*
X156749577Y-112541785D01*
X156790500Y-112389057D01*
X156790500Y-112230943D01*
X156790500Y-112039601D01*
X156810185Y-111972562D01*
X156858206Y-111929116D01*
X156871610Y-111922287D01*
X157037219Y-111801966D01*
X157181966Y-111657219D01*
X157181968Y-111657215D01*
X157181971Y-111657213D01*
X157234732Y-111584590D01*
X157302287Y-111491610D01*
X157395220Y-111309219D01*
X157458477Y-111114534D01*
X157490500Y-110912352D01*
X157490500Y-110707648D01*
X157482257Y-110655606D01*
X157458477Y-110505465D01*
X157416145Y-110375181D01*
X157395220Y-110310781D01*
X157395218Y-110310778D01*
X157395218Y-110310776D01*
X157361503Y-110244607D01*
X157302287Y-110128390D01*
X157264748Y-110076721D01*
X157181971Y-109962786D01*
X157037213Y-109818028D01*
X156871614Y-109697715D01*
X156865006Y-109694348D01*
X156778917Y-109650483D01*
X156728123Y-109602511D01*
X156711328Y-109534690D01*
X156733865Y-109468555D01*
X156778917Y-109429516D01*
X156871610Y-109382287D01*
X156892770Y-109366913D01*
X157037213Y-109261971D01*
X157037215Y-109261968D01*
X157037219Y-109261966D01*
X157181966Y-109117219D01*
X157181968Y-109117215D01*
X157181971Y-109117213D01*
X157234732Y-109044590D01*
X157302287Y-108951610D01*
X157395220Y-108769219D01*
X157458477Y-108574534D01*
X157490500Y-108372352D01*
X157490500Y-108167648D01*
X157458477Y-107965466D01*
X157395220Y-107770781D01*
X157395218Y-107770778D01*
X157395218Y-107770776D01*
X157361503Y-107704607D01*
X157302287Y-107588390D01*
X157281589Y-107559901D01*
X157181971Y-107422786D01*
X157037213Y-107278028D01*
X156871614Y-107157715D01*
X156865006Y-107154348D01*
X156778917Y-107110483D01*
X156728123Y-107062511D01*
X156711328Y-106994690D01*
X156733865Y-106928555D01*
X156778917Y-106889516D01*
X156871610Y-106842287D01*
X156922420Y-106805372D01*
X157037213Y-106721971D01*
X157037215Y-106721968D01*
X157037219Y-106721966D01*
X157181966Y-106577219D01*
X157181968Y-106577215D01*
X157181971Y-106577213D01*
X157274316Y-106450109D01*
X157302287Y-106411610D01*
X157395220Y-106229219D01*
X157458477Y-106034534D01*
X157490500Y-105832352D01*
X157490500Y-105627648D01*
X157458477Y-105425466D01*
X157395220Y-105230781D01*
X157395218Y-105230778D01*
X157395218Y-105230776D01*
X157361503Y-105164607D01*
X157302287Y-105048390D01*
X157252976Y-104980518D01*
X157181971Y-104882786D01*
X157037219Y-104738034D01*
X156997799Y-104709394D01*
X156943547Y-104669978D01*
X156900882Y-104614649D01*
X156894903Y-104545036D01*
X156927508Y-104483240D01*
X156977426Y-104451955D01*
X157059334Y-104424814D01*
X157208656Y-104332712D01*
X157332712Y-104208656D01*
X157424814Y-104059334D01*
X157479999Y-103892797D01*
X157490500Y-103790009D01*
X157490499Y-102589992D01*
X157479999Y-102487203D01*
X157424814Y-102320666D01*
X157332712Y-102171344D01*
X157208656Y-102047288D01*
X157059334Y-101955186D01*
X156892797Y-101900001D01*
X156892795Y-101900000D01*
X156790010Y-101889500D01*
X155589998Y-101889500D01*
X155589981Y-101889501D01*
X155487203Y-101900000D01*
X155487200Y-101900001D01*
X155320668Y-101955185D01*
X155320663Y-101955187D01*
X155171342Y-102047289D01*
X155047289Y-102171342D01*
X154955187Y-102320663D01*
X154955185Y-102320668D01*
X154950547Y-102334666D01*
X154900001Y-102487203D01*
X154900001Y-102487204D01*
X154900000Y-102487204D01*
X154889500Y-102589983D01*
X154889500Y-103790001D01*
X154889501Y-103790018D01*
X154900000Y-103892796D01*
X154900001Y-103892799D01*
X154955185Y-104059331D01*
X154955187Y-104059336D01*
X154967220Y-104078844D01*
X155047288Y-104208656D01*
X155171344Y-104332712D01*
X155320666Y-104424814D01*
X155402570Y-104451954D01*
X155460015Y-104491727D01*
X155486838Y-104556243D01*
X155474523Y-104625018D01*
X155436451Y-104669978D01*
X155342787Y-104738028D01*
X155342782Y-104738032D01*
X155198028Y-104882786D01*
X155077715Y-105048386D01*
X154984781Y-105230776D01*
X154921522Y-105425465D01*
X154889500Y-105627648D01*
X154889500Y-105832351D01*
X154921522Y-106034534D01*
X154984781Y-106229223D01*
X155077715Y-106411613D01*
X155198028Y-106577213D01*
X155342786Y-106721971D01*
X155457591Y-106805380D01*
X155508390Y-106842287D01*
X155599840Y-106888883D01*
X155601080Y-106889515D01*
X155651876Y-106937490D01*
X155668671Y-107005311D01*
X155646134Y-107071446D01*
X155601080Y-107110485D01*
X155508386Y-107157715D01*
X155342786Y-107278028D01*
X155198028Y-107422786D01*
X155077715Y-107588386D01*
X154984781Y-107770776D01*
X154921522Y-107965465D01*
X154889500Y-108167648D01*
X154889500Y-108372351D01*
X154921522Y-108574534D01*
X154984781Y-108769223D01*
X155077715Y-108951613D01*
X155198028Y-109117213D01*
X155342786Y-109261971D01*
X155497749Y-109374556D01*
X155508390Y-109382287D01*
X155599840Y-109428883D01*
X155601080Y-109429515D01*
X155651876Y-109477490D01*
X155668671Y-109545311D01*
X155646134Y-109611446D01*
X155601080Y-109650485D01*
X155508386Y-109697715D01*
X155342786Y-109818028D01*
X155198028Y-109962786D01*
X155077715Y-110128386D01*
X154984781Y-110310776D01*
X154921522Y-110505465D01*
X154889500Y-110707648D01*
X154889500Y-110912351D01*
X154921522Y-111114534D01*
X154984781Y-111309223D01*
X155048691Y-111434653D01*
X155077585Y-111491359D01*
X155077715Y-111491613D01*
X155198028Y-111657213D01*
X155198034Y-111657219D01*
X155342781Y-111801966D01*
X155508390Y-111922287D01*
X155508401Y-111922292D01*
X155510734Y-111923722D01*
X155511439Y-111924501D01*
X155512332Y-111925150D01*
X155512195Y-111925337D01*
X155557612Y-111975532D01*
X155569037Y-112044461D01*
X155541383Y-112108625D01*
X155533630Y-112117134D01*
X153605549Y-114045216D01*
X153544226Y-114078701D01*
X153517868Y-114081535D01*
X152862393Y-114081535D01*
X152795354Y-114061850D01*
X152749599Y-114009046D01*
X152739655Y-113939888D01*
X152751907Y-113901242D01*
X152760464Y-113884446D01*
X152760465Y-113884445D01*
X152821873Y-113695449D01*
X152852960Y-113499174D01*
X152852960Y-113300452D01*
X152821873Y-113104177D01*
X152760465Y-112915181D01*
X152760465Y-112915180D01*
X152670246Y-112738118D01*
X152627085Y-112678712D01*
X152553441Y-112577349D01*
X152412924Y-112436832D01*
X152252154Y-112320026D01*
X152095678Y-112240297D01*
X152044883Y-112192323D01*
X152028088Y-112124502D01*
X152050625Y-112058367D01*
X152095678Y-112019328D01*
X152252154Y-111939600D01*
X152412924Y-111822794D01*
X152553441Y-111682277D01*
X152670247Y-111521507D01*
X152760465Y-111344445D01*
X152821873Y-111155449D01*
X152852960Y-110959174D01*
X152852960Y-110760452D01*
X152821873Y-110564177D01*
X152780635Y-110437259D01*
X152760466Y-110375183D01*
X152760465Y-110375180D01*
X152670246Y-110198118D01*
X152553441Y-110037349D01*
X152412924Y-109896832D01*
X152252154Y-109780026D01*
X152095678Y-109700297D01*
X152044883Y-109652323D01*
X152028088Y-109584502D01*
X152050625Y-109518367D01*
X152095678Y-109479328D01*
X152252154Y-109399600D01*
X152412924Y-109282794D01*
X152553441Y-109142277D01*
X152670247Y-108981507D01*
X152760465Y-108804445D01*
X152821873Y-108615449D01*
X152852960Y-108419174D01*
X152852960Y-108220452D01*
X152821873Y-108024177D01*
X152779633Y-107894174D01*
X152760466Y-107835183D01*
X152760465Y-107835180D01*
X152670246Y-107658118D01*
X152553441Y-107497349D01*
X152412924Y-107356832D01*
X152252154Y-107240026D01*
X152095678Y-107160297D01*
X152044883Y-107112323D01*
X152028088Y-107044502D01*
X152050625Y-106978367D01*
X152095678Y-106939328D01*
X152252154Y-106859600D01*
X152412924Y-106742794D01*
X152553441Y-106602277D01*
X152670247Y-106441507D01*
X152760465Y-106264445D01*
X152821873Y-106075449D01*
X152852960Y-105879174D01*
X152852960Y-105680452D01*
X152821873Y-105484177D01*
X152791169Y-105389679D01*
X152760466Y-105295183D01*
X152760465Y-105295180D01*
X152679775Y-105136819D01*
X152670247Y-105118119D01*
X152553441Y-104957349D01*
X152412924Y-104816832D01*
X152252154Y-104700026D01*
X152095678Y-104620297D01*
X152044883Y-104572323D01*
X152028088Y-104504502D01*
X152050625Y-104438367D01*
X152095678Y-104399328D01*
X152252154Y-104319600D01*
X152412924Y-104202794D01*
X152553441Y-104062277D01*
X152670247Y-103901507D01*
X152760465Y-103724445D01*
X152821873Y-103535449D01*
X152852960Y-103339174D01*
X152852960Y-103140452D01*
X152821873Y-102944177D01*
X152791169Y-102849679D01*
X152760466Y-102755183D01*
X152760465Y-102755180D01*
X152690854Y-102618563D01*
X152670247Y-102578119D01*
X152553441Y-102417349D01*
X152412924Y-102276832D01*
X152252154Y-102160026D01*
X152095678Y-102080297D01*
X152044883Y-102032323D01*
X152028088Y-101964502D01*
X152050625Y-101898367D01*
X152095678Y-101859328D01*
X152252154Y-101779600D01*
X152412924Y-101662794D01*
X152553441Y-101522277D01*
X152670247Y-101361507D01*
X152760465Y-101184445D01*
X152821873Y-100995449D01*
X152852960Y-100799174D01*
X152852960Y-100600452D01*
X152821873Y-100404177D01*
X152779633Y-100274174D01*
X152760466Y-100215183D01*
X152760465Y-100215180D01*
X152670246Y-100038118D01*
X152553441Y-99877349D01*
X152412924Y-99736832D01*
X152252154Y-99620026D01*
X152095678Y-99540297D01*
X152044883Y-99492323D01*
X152028088Y-99424502D01*
X152050625Y-99358367D01*
X152095678Y-99319328D01*
X152252154Y-99239600D01*
X152412924Y-99122794D01*
X152553441Y-98982277D01*
X152670247Y-98821507D01*
X152760465Y-98644445D01*
X152821873Y-98455449D01*
X152852960Y-98259174D01*
X152852960Y-98060452D01*
X152821873Y-97864177D01*
X152791169Y-97769679D01*
X152760466Y-97675183D01*
X152760465Y-97675180D01*
X152670246Y-97498118D01*
X152553441Y-97337349D01*
X152412924Y-97196832D01*
X152252154Y-97080026D01*
X152095678Y-97000297D01*
X152044883Y-96952323D01*
X152028088Y-96884502D01*
X152050625Y-96818367D01*
X152095678Y-96779328D01*
X152252154Y-96699600D01*
X152412924Y-96582794D01*
X152553441Y-96442277D01*
X152670247Y-96281507D01*
X152760465Y-96104445D01*
X152821873Y-95915449D01*
X152852960Y-95719174D01*
X152852960Y-95520452D01*
X152821873Y-95324177D01*
X152784577Y-95209390D01*
X152760466Y-95135183D01*
X152760464Y-95135180D01*
X152754405Y-95123289D01*
X152722278Y-95060236D01*
X152701427Y-95019313D01*
X152670247Y-94958119D01*
X152553441Y-94797349D01*
X152412924Y-94656832D01*
X152252154Y-94540026D01*
X152095678Y-94460297D01*
X152044883Y-94412323D01*
X152028088Y-94344502D01*
X152050625Y-94278367D01*
X152095678Y-94239328D01*
X152252154Y-94159600D01*
X152412924Y-94042794D01*
X152553441Y-93902277D01*
X152670247Y-93741507D01*
X152683543Y-93715412D01*
X158439702Y-93715412D01*
X158439702Y-94565399D01*
X159639701Y-94565399D01*
X159614681Y-94625801D01*
X159589702Y-94751380D01*
X159589702Y-94879418D01*
X159614681Y-95004997D01*
X159639701Y-95065399D01*
X158439703Y-95065399D01*
X158439703Y-95915385D01*
X158450196Y-96018096D01*
X158505343Y-96184518D01*
X158505345Y-96184523D01*
X158597386Y-96333744D01*
X158721356Y-96457714D01*
X158870577Y-96549755D01*
X158870582Y-96549757D01*
X159037004Y-96604904D01*
X159037011Y-96604905D01*
X159139721Y-96615398D01*
X159989701Y-96615398D01*
X159989702Y-96615397D01*
X159989702Y-95415400D01*
X160050104Y-95440420D01*
X160175683Y-95465399D01*
X160303721Y-95465399D01*
X160429300Y-95440420D01*
X160489702Y-95415400D01*
X160489702Y-96615398D01*
X161339674Y-96615398D01*
X161339688Y-96615397D01*
X161442399Y-96604904D01*
X161608821Y-96549757D01*
X161608826Y-96549755D01*
X161758047Y-96457714D01*
X161882017Y-96333744D01*
X161974058Y-96184523D01*
X161974060Y-96184518D01*
X162029207Y-96018096D01*
X162029208Y-96018089D01*
X162039701Y-95915385D01*
X162039702Y-95915372D01*
X162039702Y-95065399D01*
X160839703Y-95065399D01*
X160864723Y-95004997D01*
X160889702Y-94879418D01*
X160889702Y-94751380D01*
X160864723Y-94625801D01*
X160839703Y-94565399D01*
X162039701Y-94565399D01*
X162039701Y-93715427D01*
X162039700Y-93715412D01*
X162029207Y-93612701D01*
X161974060Y-93446279D01*
X161974058Y-93446274D01*
X161882017Y-93297053D01*
X161758047Y-93173083D01*
X161608826Y-93081042D01*
X161608821Y-93081040D01*
X161442399Y-93025893D01*
X161442392Y-93025892D01*
X161339688Y-93015399D01*
X160489702Y-93015399D01*
X160489702Y-94215397D01*
X160429300Y-94190378D01*
X160303721Y-94165399D01*
X160175683Y-94165399D01*
X160050104Y-94190378D01*
X159989702Y-94215397D01*
X159989702Y-93015399D01*
X159139730Y-93015399D01*
X159139714Y-93015400D01*
X159037004Y-93025893D01*
X158870582Y-93081040D01*
X158870577Y-93081042D01*
X158721356Y-93173083D01*
X158597386Y-93297053D01*
X158505345Y-93446274D01*
X158505343Y-93446279D01*
X158450196Y-93612701D01*
X158450195Y-93612708D01*
X158439702Y-93715412D01*
X152683543Y-93715412D01*
X152742458Y-93599786D01*
X152760463Y-93564450D01*
X152760466Y-93564442D01*
X152798859Y-93446279D01*
X152821873Y-93375449D01*
X152852960Y-93179174D01*
X152852960Y-92980452D01*
X152821873Y-92784177D01*
X152791169Y-92689679D01*
X152760466Y-92595183D01*
X152760465Y-92595180D01*
X152671795Y-92421158D01*
X152670247Y-92418119D01*
X152553441Y-92257349D01*
X152412924Y-92116832D01*
X152252154Y-92000026D01*
X152095678Y-91920297D01*
X152044883Y-91872323D01*
X152028088Y-91804502D01*
X152050625Y-91738367D01*
X152095678Y-91699328D01*
X152252154Y-91619600D01*
X152412924Y-91502794D01*
X152553441Y-91362277D01*
X152670247Y-91201507D01*
X152760465Y-91024445D01*
X152821873Y-90835449D01*
X152852960Y-90639174D01*
X152852960Y-90440452D01*
X152821873Y-90244177D01*
X152770938Y-90087413D01*
X152760466Y-90055183D01*
X152760465Y-90055180D01*
X152670246Y-89878118D01*
X152553441Y-89717349D01*
X152453486Y-89617394D01*
X158439202Y-89617394D01*
X158439202Y-89853403D01*
X158439203Y-89853419D01*
X158470008Y-90087409D01*
X158531096Y-90315392D01*
X158621416Y-90533444D01*
X158621421Y-90533455D01*
X158682458Y-90639173D01*
X158739429Y-90737849D01*
X158739431Y-90737852D01*
X158739432Y-90737853D01*
X158883108Y-90925096D01*
X158883114Y-90925103D01*
X159049997Y-91091986D01*
X159050003Y-91091991D01*
X159237252Y-91235672D01*
X159368620Y-91311517D01*
X159441645Y-91353679D01*
X159441650Y-91353681D01*
X159441653Y-91353683D01*
X159659709Y-91444005D01*
X159887688Y-91505092D01*
X160121691Y-91535899D01*
X160121698Y-91535899D01*
X160357706Y-91535899D01*
X160357713Y-91535899D01*
X160591716Y-91505092D01*
X160819695Y-91444005D01*
X161037751Y-91353683D01*
X161242152Y-91235672D01*
X161429401Y-91091991D01*
X161596294Y-90925098D01*
X161739975Y-90737849D01*
X161857986Y-90533448D01*
X161948308Y-90315392D01*
X162009395Y-90087413D01*
X162040202Y-89853410D01*
X162040202Y-89617388D01*
X162009395Y-89383385D01*
X161948308Y-89155406D01*
X161857986Y-88937350D01*
X161857984Y-88937347D01*
X161857982Y-88937342D01*
X161800947Y-88838556D01*
X161739975Y-88732949D01*
X161680703Y-88655705D01*
X161596295Y-88545701D01*
X161596289Y-88545694D01*
X161429406Y-88378811D01*
X161429399Y-88378805D01*
X161242156Y-88235129D01*
X161242155Y-88235128D01*
X161242152Y-88235126D01*
X161160659Y-88188076D01*
X161037758Y-88117118D01*
X161037747Y-88117113D01*
X160819695Y-88026793D01*
X160591712Y-87965705D01*
X160357722Y-87934900D01*
X160357719Y-87934899D01*
X160357713Y-87934899D01*
X160121691Y-87934899D01*
X160121685Y-87934899D01*
X160121681Y-87934900D01*
X159887691Y-87965705D01*
X159659708Y-88026793D01*
X159441656Y-88117113D01*
X159441645Y-88117118D01*
X159237247Y-88235129D01*
X159050004Y-88378805D01*
X159049997Y-88378811D01*
X158883114Y-88545694D01*
X158883108Y-88545701D01*
X158739432Y-88732944D01*
X158621421Y-88937342D01*
X158621416Y-88937353D01*
X158531096Y-89155405D01*
X158470008Y-89383388D01*
X158439203Y-89617378D01*
X158439202Y-89617394D01*
X152453486Y-89617394D01*
X152412924Y-89576832D01*
X152252154Y-89460026D01*
X152095678Y-89380297D01*
X152044883Y-89332323D01*
X152028088Y-89264502D01*
X152050625Y-89198367D01*
X152095678Y-89159328D01*
X152252154Y-89079600D01*
X152412924Y-88962794D01*
X152553441Y-88822277D01*
X152670247Y-88661507D01*
X152760465Y-88484445D01*
X152821873Y-88295449D01*
X152852960Y-88099174D01*
X152852960Y-87900452D01*
X152821873Y-87704177D01*
X152791169Y-87609679D01*
X152760466Y-87515183D01*
X152760465Y-87515180D01*
X152695141Y-87386976D01*
X152670247Y-87338119D01*
X152553441Y-87177349D01*
X152412924Y-87036832D01*
X152252154Y-86920026D01*
X152095678Y-86840297D01*
X152044883Y-86792323D01*
X152028088Y-86724502D01*
X152050625Y-86658367D01*
X152095678Y-86619328D01*
X152252154Y-86539600D01*
X152412924Y-86422794D01*
X152553441Y-86282277D01*
X152670247Y-86121507D01*
X152760465Y-85944445D01*
X152821873Y-85755449D01*
X152852960Y-85559174D01*
X152852960Y-85360452D01*
X152821873Y-85164177D01*
X152760465Y-84975181D01*
X152760465Y-84975180D01*
X152729222Y-84913865D01*
X152670247Y-84798119D01*
X152661012Y-84785408D01*
X152596697Y-84696885D01*
X152573217Y-84631079D01*
X152589043Y-84563025D01*
X152639148Y-84514330D01*
X152697015Y-84500000D01*
X164875500Y-84500000D01*
X164942539Y-84519685D01*
G37*
%TD.AperFunction*%
%TA.AperFunction,Conductor*%
G36*
X150094769Y-96239998D02*
G01*
X150131651Y-96277679D01*
X150131809Y-96277565D01*
X150132587Y-96278636D01*
X150133460Y-96279528D01*
X150134670Y-96281503D01*
X150134673Y-96281507D01*
X150251479Y-96442277D01*
X150391996Y-96582794D01*
X150552766Y-96699600D01*
X150671292Y-96759992D01*
X150709240Y-96779328D01*
X150760036Y-96827303D01*
X150776831Y-96895124D01*
X150754293Y-96961259D01*
X150709240Y-97000298D01*
X150552765Y-97080026D01*
X150391993Y-97196834D01*
X150251481Y-97337346D01*
X150134673Y-97498118D01*
X150044454Y-97675180D01*
X150044453Y-97675183D01*
X149983047Y-97864175D01*
X149951960Y-98060452D01*
X149951960Y-98259173D01*
X149983047Y-98455450D01*
X150044453Y-98644442D01*
X150044454Y-98644445D01*
X150134673Y-98821507D01*
X150251479Y-98982277D01*
X150391996Y-99122794D01*
X150552766Y-99239600D01*
X150671292Y-99299992D01*
X150709240Y-99319328D01*
X150760036Y-99367303D01*
X150776831Y-99435124D01*
X150754293Y-99501259D01*
X150709240Y-99540298D01*
X150552765Y-99620026D01*
X150391993Y-99736834D01*
X150251481Y-99877346D01*
X150134673Y-100038118D01*
X150044454Y-100215180D01*
X150044453Y-100215183D01*
X149983047Y-100404175D01*
X149951960Y-100600452D01*
X149951960Y-100799173D01*
X149983047Y-100995450D01*
X150044453Y-101184442D01*
X150044454Y-101184445D01*
X150104812Y-101302902D01*
X150134673Y-101361507D01*
X150251479Y-101522277D01*
X150391996Y-101662794D01*
X150552766Y-101779600D01*
X150671292Y-101839992D01*
X150709240Y-101859328D01*
X150760036Y-101907303D01*
X150776831Y-101975124D01*
X150754293Y-102041259D01*
X150709240Y-102080298D01*
X150552765Y-102160026D01*
X150391993Y-102276834D01*
X150251481Y-102417346D01*
X150134673Y-102578118D01*
X150044454Y-102755180D01*
X150044453Y-102755183D01*
X149983047Y-102944175D01*
X149951960Y-103140452D01*
X149951960Y-103339173D01*
X149983047Y-103535450D01*
X150044453Y-103724442D01*
X150044454Y-103724445D01*
X150130235Y-103892797D01*
X150134673Y-103901507D01*
X150251479Y-104062277D01*
X150391996Y-104202794D01*
X150552766Y-104319600D01*
X150669682Y-104379172D01*
X150709240Y-104399328D01*
X150760036Y-104447303D01*
X150776831Y-104515124D01*
X150754293Y-104581259D01*
X150709240Y-104620298D01*
X150552765Y-104700026D01*
X150391993Y-104816834D01*
X150251481Y-104957346D01*
X150134673Y-105118118D01*
X150044454Y-105295180D01*
X150044453Y-105295183D01*
X149983047Y-105484175D01*
X149951960Y-105680452D01*
X149951960Y-105879173D01*
X149983047Y-106075450D01*
X150044453Y-106264442D01*
X150044454Y-106264445D01*
X150119441Y-106411613D01*
X150134673Y-106441507D01*
X150251479Y-106602277D01*
X150391996Y-106742794D01*
X150552766Y-106859600D01*
X150671292Y-106919992D01*
X150709240Y-106939328D01*
X150760036Y-106987303D01*
X150776831Y-107055124D01*
X150754293Y-107121259D01*
X150709240Y-107160298D01*
X150552765Y-107240026D01*
X150391993Y-107356834D01*
X150251481Y-107497346D01*
X150134673Y-107658118D01*
X150044454Y-107835180D01*
X150044453Y-107835183D01*
X149983047Y-108024175D01*
X149951960Y-108220452D01*
X149951960Y-108419173D01*
X149983047Y-108615450D01*
X150044453Y-108804442D01*
X150044454Y-108804445D01*
X150119441Y-108951613D01*
X150134673Y-108981507D01*
X150251479Y-109142277D01*
X150391996Y-109282794D01*
X150552766Y-109399600D01*
X150612027Y-109429795D01*
X150709240Y-109479328D01*
X150760036Y-109527303D01*
X150776831Y-109595124D01*
X150754293Y-109661259D01*
X150709240Y-109700298D01*
X150552765Y-109780026D01*
X150391993Y-109896834D01*
X150251481Y-110037346D01*
X150134673Y-110198118D01*
X150044454Y-110375180D01*
X150044453Y-110375183D01*
X149983047Y-110564175D01*
X149951960Y-110760452D01*
X149951960Y-110959173D01*
X149983047Y-111155450D01*
X150044453Y-111344442D01*
X150044454Y-111344445D01*
X150119441Y-111491613D01*
X150134673Y-111521507D01*
X150251479Y-111682277D01*
X150391996Y-111822794D01*
X150552766Y-111939600D01*
X150671292Y-111999992D01*
X150709240Y-112019328D01*
X150760036Y-112067303D01*
X150776831Y-112135124D01*
X150754293Y-112201259D01*
X150709240Y-112240298D01*
X150552765Y-112320026D01*
X150391993Y-112436834D01*
X150251481Y-112577346D01*
X150134673Y-112738118D01*
X150044454Y-112915180D01*
X150044453Y-112915183D01*
X149983047Y-113104175D01*
X149951960Y-113300452D01*
X149951960Y-113499173D01*
X149983047Y-113695450D01*
X150044453Y-113884442D01*
X150044455Y-113884446D01*
X150053013Y-113901242D01*
X150065908Y-113969911D01*
X150039631Y-114034651D01*
X149982524Y-114074907D01*
X149942527Y-114081535D01*
X137238905Y-114081535D01*
X137197984Y-114092499D01*
X137197984Y-114092500D01*
X137160716Y-114102486D01*
X137086179Y-114122458D01*
X137086174Y-114122461D01*
X136949255Y-114201510D01*
X136949247Y-114201516D01*
X129985339Y-121165425D01*
X129924016Y-121198910D01*
X129921850Y-121199361D01*
X129766508Y-121230261D01*
X129766498Y-121230264D01*
X129620827Y-121290602D01*
X129620814Y-121290609D01*
X129489711Y-121378210D01*
X129489707Y-121378213D01*
X129378213Y-121489707D01*
X129378210Y-121489711D01*
X129290609Y-121620814D01*
X129290601Y-121620829D01*
X129267735Y-121676032D01*
X129223893Y-121730435D01*
X129157599Y-121752499D01*
X129089900Y-121735219D01*
X129065494Y-121716259D01*
X128007403Y-120658168D01*
X128007401Y-120658165D01*
X127888530Y-120539294D01*
X127888529Y-120539293D01*
X127801717Y-120489173D01*
X127801717Y-120489172D01*
X127801713Y-120489171D01*
X127751598Y-120460236D01*
X127598870Y-120419312D01*
X127440756Y-120419312D01*
X127433160Y-120419312D01*
X127433144Y-120419313D01*
X127377190Y-120419313D01*
X127310151Y-120399628D01*
X127273268Y-120361946D01*
X127273111Y-120362061D01*
X127272332Y-120360989D01*
X127271460Y-120360098D01*
X127270249Y-120358122D01*
X127270246Y-120358118D01*
X127153441Y-120197349D01*
X127012924Y-120056832D01*
X126852154Y-119940026D01*
X126695127Y-119860016D01*
X126644332Y-119812042D01*
X126627537Y-119744221D01*
X126650074Y-119678086D01*
X126695128Y-119639047D01*
X126851892Y-119559171D01*
X127012599Y-119442409D01*
X127012600Y-119442409D01*
X127153056Y-119301953D01*
X127153056Y-119301952D01*
X127269818Y-119141245D01*
X127360003Y-118964248D01*
X127421385Y-118775330D01*
X127428594Y-118729813D01*
X126318146Y-118729813D01*
X126322540Y-118725419D01*
X126375201Y-118634207D01*
X126402460Y-118532474D01*
X126402460Y-118427152D01*
X126375201Y-118325419D01*
X126322540Y-118234207D01*
X126318146Y-118229813D01*
X127428595Y-118229813D01*
X127428594Y-118229812D01*
X127421385Y-118184295D01*
X127360003Y-117995377D01*
X127269818Y-117818380D01*
X127153056Y-117657673D01*
X127153056Y-117657672D01*
X127012600Y-117517216D01*
X126851892Y-117400454D01*
X126695128Y-117320578D01*
X126644332Y-117272603D01*
X126627537Y-117204782D01*
X126650075Y-117138647D01*
X126695127Y-117099609D01*
X126852154Y-117019600D01*
X127012924Y-116902794D01*
X127153441Y-116762277D01*
X127270247Y-116601507D01*
X127360465Y-116424445D01*
X127421873Y-116235449D01*
X127452960Y-116039174D01*
X127452960Y-115840452D01*
X127421873Y-115644177D01*
X127360465Y-115455181D01*
X127360465Y-115455180D01*
X127314495Y-115364962D01*
X127270247Y-115278119D01*
X127153441Y-115117349D01*
X127012924Y-114976832D01*
X126852154Y-114860026D01*
X126695678Y-114780297D01*
X126644883Y-114732323D01*
X126628088Y-114664502D01*
X126650625Y-114598367D01*
X126695678Y-114559328D01*
X126852154Y-114479600D01*
X127012924Y-114362794D01*
X127153441Y-114222277D01*
X127270247Y-114061507D01*
X127360465Y-113884445D01*
X127421873Y-113695449D01*
X127452960Y-113499174D01*
X127452960Y-113300452D01*
X127421873Y-113104177D01*
X127360465Y-112915181D01*
X127360465Y-112915180D01*
X127270246Y-112738118D01*
X127227085Y-112678712D01*
X127153441Y-112577349D01*
X127012924Y-112436832D01*
X126852154Y-112320026D01*
X126695678Y-112240297D01*
X126644883Y-112192323D01*
X126628088Y-112124502D01*
X126650625Y-112058367D01*
X126695678Y-112019328D01*
X126852154Y-111939600D01*
X127012924Y-111822794D01*
X127153441Y-111682277D01*
X127270247Y-111521507D01*
X127360465Y-111344445D01*
X127421873Y-111155449D01*
X127452960Y-110959174D01*
X127452960Y-110760452D01*
X127421873Y-110564177D01*
X127380635Y-110437259D01*
X127360466Y-110375183D01*
X127360465Y-110375180D01*
X127270246Y-110198118D01*
X127153441Y-110037349D01*
X127012924Y-109896832D01*
X126852154Y-109780026D01*
X126695678Y-109700297D01*
X126644883Y-109652323D01*
X126628088Y-109584502D01*
X126650625Y-109518367D01*
X126695678Y-109479328D01*
X126852154Y-109399600D01*
X127012924Y-109282794D01*
X127153441Y-109142277D01*
X127270247Y-108981507D01*
X127360465Y-108804445D01*
X127421873Y-108615449D01*
X127452960Y-108419174D01*
X127452960Y-108220452D01*
X127421873Y-108024177D01*
X127379633Y-107894174D01*
X127360466Y-107835183D01*
X127360465Y-107835180D01*
X127270246Y-107658118D01*
X127153441Y-107497349D01*
X127012924Y-107356832D01*
X126852154Y-107240026D01*
X126695678Y-107160297D01*
X126644883Y-107112323D01*
X126628088Y-107044502D01*
X126650625Y-106978367D01*
X126695678Y-106939328D01*
X126852154Y-106859600D01*
X127012924Y-106742794D01*
X127153441Y-106602277D01*
X127270247Y-106441507D01*
X127360465Y-106264445D01*
X127421873Y-106075449D01*
X127452960Y-105879174D01*
X127452960Y-105680452D01*
X127421873Y-105484177D01*
X127391169Y-105389679D01*
X127360466Y-105295183D01*
X127360464Y-105295179D01*
X127353135Y-105280794D01*
X127340240Y-105212125D01*
X127366518Y-105147385D01*
X127423625Y-105107129D01*
X127463621Y-105100501D01*
X127579054Y-105100501D01*
X127579057Y-105100501D01*
X127731785Y-105059577D01*
X127731787Y-105059575D01*
X127731789Y-105059575D01*
X127731790Y-105059574D01*
X127782084Y-105030537D01*
X127782085Y-105030536D01*
X127868716Y-104980520D01*
X127980520Y-104868716D01*
X127980521Y-104868714D01*
X128014662Y-104834572D01*
X128075983Y-104801089D01*
X128078150Y-104800638D01*
X128136085Y-104789113D01*
X128233497Y-104769737D01*
X128372448Y-104712182D01*
X128379172Y-104709397D01*
X128379172Y-104709396D01*
X128379179Y-104709394D01*
X128510289Y-104621789D01*
X128621789Y-104510289D01*
X128709394Y-104379179D01*
X128769737Y-104233497D01*
X128800500Y-104078842D01*
X128800500Y-103921158D01*
X128800500Y-103921155D01*
X128800499Y-103921153D01*
X128790644Y-103871610D01*
X128769737Y-103766503D01*
X128752315Y-103724442D01*
X128709397Y-103620827D01*
X128709390Y-103620814D01*
X128621789Y-103489711D01*
X128621786Y-103489707D01*
X128510292Y-103378213D01*
X128510288Y-103378210D01*
X128379185Y-103290609D01*
X128379172Y-103290602D01*
X128233501Y-103230264D01*
X128233489Y-103230261D01*
X128078845Y-103199500D01*
X128078842Y-103199500D01*
X127921158Y-103199500D01*
X127921155Y-103199500D01*
X127766510Y-103230261D01*
X127766498Y-103230264D01*
X127624412Y-103289118D01*
X127554943Y-103296587D01*
X127492464Y-103265312D01*
X127456812Y-103205222D01*
X127452960Y-103174557D01*
X127452960Y-103140452D01*
X127421873Y-102944177D01*
X127387443Y-102838213D01*
X127360463Y-102755174D01*
X127359848Y-102753689D01*
X127359782Y-102753079D01*
X127358960Y-102750548D01*
X127359491Y-102750375D01*
X127352384Y-102684219D01*
X127383663Y-102621742D01*
X127443754Y-102586094D01*
X127474412Y-102582244D01*
X142931587Y-102582244D01*
X142931603Y-102582245D01*
X142939199Y-102582245D01*
X143097310Y-102582245D01*
X143097313Y-102582245D01*
X143250041Y-102541321D01*
X143307079Y-102508390D01*
X143307080Y-102508390D01*
X143386965Y-102462268D01*
X143386964Y-102462268D01*
X143386972Y-102462264D01*
X143498776Y-102350460D01*
X143498776Y-102350458D01*
X143508980Y-102340255D01*
X143508983Y-102340250D01*
X149592603Y-96256632D01*
X149653926Y-96223147D01*
X149680284Y-96220313D01*
X150027730Y-96220313D01*
X150094769Y-96239998D01*
G37*
%TD.AperFunction*%
%TA.AperFunction,Conductor*%
G36*
X164918834Y-109102865D02*
G01*
X164974767Y-109144737D01*
X164999184Y-109210201D01*
X164999500Y-109219047D01*
X164999500Y-109958593D01*
X164979815Y-110025632D01*
X164927011Y-110071387D01*
X164896829Y-110076721D01*
X164210000Y-110763551D01*
X164210000Y-110757339D01*
X164182741Y-110655606D01*
X164130080Y-110564394D01*
X164055606Y-110489920D01*
X163964394Y-110437259D01*
X163862661Y-110410000D01*
X163856446Y-110410000D01*
X164535922Y-109730524D01*
X164535921Y-109730523D01*
X164491359Y-109698147D01*
X164491350Y-109698141D01*
X164398369Y-109650765D01*
X164347573Y-109602790D01*
X164330778Y-109534969D01*
X164353315Y-109468835D01*
X164398370Y-109429795D01*
X164398920Y-109429515D01*
X164491610Y-109382287D01*
X164541144Y-109346298D01*
X164657213Y-109261971D01*
X164657215Y-109261968D01*
X164657219Y-109261966D01*
X164787819Y-109131366D01*
X164849142Y-109097881D01*
X164918834Y-109102865D01*
G37*
%TD.AperFunction*%
%TD*%
M02*
