%TF.GenerationSoftware,KiCad,Pcbnew,10.0.4*%
%TF.CreationDate,2026-07-31T12:07:47+05:30*%
%TF.ProjectId,kicaddddd,6b696361-6464-4646-9464-2e6b69636164,rev?*%
%TF.SameCoordinates,Original*%
%TF.FileFunction,Legend,Bot*%
%TF.FilePolarity,Positive*%
%FSLAX46Y46*%
G04 Gerber Fmt 4.6, Leading zero omitted, Abs format (unit mm)*
G04 Created by KiCad (PCBNEW 10.0.4) date 2026-07-31 12:07:47*
%MOMM*%
%LPD*%
G01*
G04 APERTURE LIST*
%ADD10C,0.300000*%
G04 APERTURE END LIST*
D10*
X140529003Y-125445489D02*
X142029003Y-125445489D01*
X141529003Y-124731203D02*
X140529003Y-124731203D01*
X141386146Y-124731203D02*
X141457574Y-124659774D01*
X141457574Y-124659774D02*
X141529003Y-124516917D01*
X141529003Y-124516917D02*
X141529003Y-124302631D01*
X141529003Y-124302631D02*
X141457574Y-124159774D01*
X141457574Y-124159774D02*
X141314717Y-124088346D01*
X141314717Y-124088346D02*
X140529003Y-124088346D01*
X140529003Y-122731203D02*
X142029003Y-122731203D01*
X140600432Y-122731203D02*
X140529003Y-122874060D01*
X140529003Y-122874060D02*
X140529003Y-123159774D01*
X140529003Y-123159774D02*
X140600432Y-123302631D01*
X140600432Y-123302631D02*
X140671860Y-123374060D01*
X140671860Y-123374060D02*
X140814717Y-123445488D01*
X140814717Y-123445488D02*
X141243289Y-123445488D01*
X141243289Y-123445488D02*
X141386146Y-123374060D01*
X141386146Y-123374060D02*
X141457574Y-123302631D01*
X141457574Y-123302631D02*
X141529003Y-123159774D01*
X141529003Y-123159774D02*
X141529003Y-122874060D01*
X141529003Y-122874060D02*
X141457574Y-122731203D01*
X140529003Y-122016917D02*
X141529003Y-122016917D01*
X141243289Y-122016917D02*
X141386146Y-121945488D01*
X141386146Y-121945488D02*
X141457574Y-121874060D01*
X141457574Y-121874060D02*
X141529003Y-121731202D01*
X141529003Y-121731202D02*
X141529003Y-121588345D01*
X140529003Y-121088346D02*
X141529003Y-121088346D01*
X142029003Y-121088346D02*
X141957574Y-121159774D01*
X141957574Y-121159774D02*
X141886146Y-121088346D01*
X141886146Y-121088346D02*
X141957574Y-121016917D01*
X141957574Y-121016917D02*
X142029003Y-121088346D01*
X142029003Y-121088346D02*
X141886146Y-121088346D01*
X141529003Y-120516917D02*
X140529003Y-120159774D01*
X141529003Y-119802631D02*
X140529003Y-120159774D01*
X140529003Y-120159774D02*
X140171860Y-120302631D01*
X140171860Y-120302631D02*
X140100432Y-120374060D01*
X140100432Y-120374060D02*
X140029003Y-120516917D01*
X140529003Y-118588346D02*
X141314717Y-118588346D01*
X141314717Y-118588346D02*
X141457574Y-118659774D01*
X141457574Y-118659774D02*
X141529003Y-118802631D01*
X141529003Y-118802631D02*
X141529003Y-119088346D01*
X141529003Y-119088346D02*
X141457574Y-119231203D01*
X140600432Y-118588346D02*
X140529003Y-118731203D01*
X140529003Y-118731203D02*
X140529003Y-119088346D01*
X140529003Y-119088346D02*
X140600432Y-119231203D01*
X140600432Y-119231203D02*
X140743289Y-119302631D01*
X140743289Y-119302631D02*
X140886146Y-119302631D01*
X140886146Y-119302631D02*
X141029003Y-119231203D01*
X141029003Y-119231203D02*
X141100432Y-119088346D01*
X141100432Y-119088346D02*
X141100432Y-118731203D01*
X141100432Y-118731203D02*
X141171860Y-118588346D01*
X140600432Y-116802631D02*
X140529003Y-116588346D01*
X140529003Y-116588346D02*
X140529003Y-116231203D01*
X140529003Y-116231203D02*
X140600432Y-116088346D01*
X140600432Y-116088346D02*
X140671860Y-116016917D01*
X140671860Y-116016917D02*
X140814717Y-115945488D01*
X140814717Y-115945488D02*
X140957574Y-115945488D01*
X140957574Y-115945488D02*
X141100432Y-116016917D01*
X141100432Y-116016917D02*
X141171860Y-116088346D01*
X141171860Y-116088346D02*
X141243289Y-116231203D01*
X141243289Y-116231203D02*
X141314717Y-116516917D01*
X141314717Y-116516917D02*
X141386146Y-116659774D01*
X141386146Y-116659774D02*
X141457574Y-116731203D01*
X141457574Y-116731203D02*
X141600432Y-116802631D01*
X141600432Y-116802631D02*
X141743289Y-116802631D01*
X141743289Y-116802631D02*
X141886146Y-116731203D01*
X141886146Y-116731203D02*
X141957574Y-116659774D01*
X141957574Y-116659774D02*
X142029003Y-116516917D01*
X142029003Y-116516917D02*
X142029003Y-116159774D01*
X142029003Y-116159774D02*
X141957574Y-115945488D01*
X140600432Y-114731203D02*
X140529003Y-114874060D01*
X140529003Y-114874060D02*
X140529003Y-115159775D01*
X140529003Y-115159775D02*
X140600432Y-115302632D01*
X140600432Y-115302632D02*
X140743289Y-115374060D01*
X140743289Y-115374060D02*
X141314717Y-115374060D01*
X141314717Y-115374060D02*
X141457574Y-115302632D01*
X141457574Y-115302632D02*
X141529003Y-115159775D01*
X141529003Y-115159775D02*
X141529003Y-114874060D01*
X141529003Y-114874060D02*
X141457574Y-114731203D01*
X141457574Y-114731203D02*
X141314717Y-114659775D01*
X141314717Y-114659775D02*
X141171860Y-114659775D01*
X141171860Y-114659775D02*
X141029003Y-115374060D01*
X141529003Y-114016918D02*
X140529003Y-114016918D01*
X141386146Y-114016918D02*
X141457574Y-113945489D01*
X141457574Y-113945489D02*
X141529003Y-113802632D01*
X141529003Y-113802632D02*
X141529003Y-113588346D01*
X141529003Y-113588346D02*
X141457574Y-113445489D01*
X141457574Y-113445489D02*
X141314717Y-113374061D01*
X141314717Y-113374061D02*
X140529003Y-113374061D01*
X140600432Y-112731203D02*
X140529003Y-112588346D01*
X140529003Y-112588346D02*
X140529003Y-112302632D01*
X140529003Y-112302632D02*
X140600432Y-112159775D01*
X140600432Y-112159775D02*
X140743289Y-112088346D01*
X140743289Y-112088346D02*
X140814717Y-112088346D01*
X140814717Y-112088346D02*
X140957574Y-112159775D01*
X140957574Y-112159775D02*
X141029003Y-112302632D01*
X141029003Y-112302632D02*
X141029003Y-112516918D01*
X141029003Y-112516918D02*
X141100432Y-112659775D01*
X141100432Y-112659775D02*
X141243289Y-112731203D01*
X141243289Y-112731203D02*
X141314717Y-112731203D01*
X141314717Y-112731203D02*
X141457574Y-112659775D01*
X141457574Y-112659775D02*
X141529003Y-112516918D01*
X141529003Y-112516918D02*
X141529003Y-112302632D01*
X141529003Y-112302632D02*
X141457574Y-112159775D01*
X140529003Y-111231203D02*
X140600432Y-111374060D01*
X140600432Y-111374060D02*
X140671860Y-111445489D01*
X140671860Y-111445489D02*
X140814717Y-111516917D01*
X140814717Y-111516917D02*
X141243289Y-111516917D01*
X141243289Y-111516917D02*
X141386146Y-111445489D01*
X141386146Y-111445489D02*
X141457574Y-111374060D01*
X141457574Y-111374060D02*
X141529003Y-111231203D01*
X141529003Y-111231203D02*
X141529003Y-111016917D01*
X141529003Y-111016917D02*
X141457574Y-110874060D01*
X141457574Y-110874060D02*
X141386146Y-110802632D01*
X141386146Y-110802632D02*
X141243289Y-110731203D01*
X141243289Y-110731203D02*
X140814717Y-110731203D01*
X140814717Y-110731203D02*
X140671860Y-110802632D01*
X140671860Y-110802632D02*
X140600432Y-110874060D01*
X140600432Y-110874060D02*
X140529003Y-111016917D01*
X140529003Y-111016917D02*
X140529003Y-111231203D01*
X141529003Y-110302631D02*
X141529003Y-109731203D01*
X142029003Y-110088346D02*
X140743289Y-110088346D01*
X140743289Y-110088346D02*
X140600432Y-110016917D01*
X140600432Y-110016917D02*
X140529003Y-109874060D01*
X140529003Y-109874060D02*
X140529003Y-109731203D01*
X140600432Y-108659774D02*
X140529003Y-108802631D01*
X140529003Y-108802631D02*
X140529003Y-109088346D01*
X140529003Y-109088346D02*
X140600432Y-109231203D01*
X140600432Y-109231203D02*
X140743289Y-109302631D01*
X140743289Y-109302631D02*
X141314717Y-109302631D01*
X141314717Y-109302631D02*
X141457574Y-109231203D01*
X141457574Y-109231203D02*
X141529003Y-109088346D01*
X141529003Y-109088346D02*
X141529003Y-108802631D01*
X141529003Y-108802631D02*
X141457574Y-108659774D01*
X141457574Y-108659774D02*
X141314717Y-108588346D01*
X141314717Y-108588346D02*
X141171860Y-108588346D01*
X141171860Y-108588346D02*
X141029003Y-109302631D01*
X140600432Y-107302632D02*
X140529003Y-107445489D01*
X140529003Y-107445489D02*
X140529003Y-107731203D01*
X140529003Y-107731203D02*
X140600432Y-107874060D01*
X140600432Y-107874060D02*
X140671860Y-107945489D01*
X140671860Y-107945489D02*
X140814717Y-108016917D01*
X140814717Y-108016917D02*
X141243289Y-108016917D01*
X141243289Y-108016917D02*
X141386146Y-107945489D01*
X141386146Y-107945489D02*
X141457574Y-107874060D01*
X141457574Y-107874060D02*
X141529003Y-107731203D01*
X141529003Y-107731203D02*
X141529003Y-107445489D01*
X141529003Y-107445489D02*
X141457574Y-107302632D01*
X140529003Y-106659775D02*
X142029003Y-106659775D01*
X140529003Y-106016918D02*
X141314717Y-106016918D01*
X141314717Y-106016918D02*
X141457574Y-106088346D01*
X141457574Y-106088346D02*
X141529003Y-106231203D01*
X141529003Y-106231203D02*
X141529003Y-106445489D01*
X141529003Y-106445489D02*
X141457574Y-106588346D01*
X141457574Y-106588346D02*
X141386146Y-106659775D01*
X140529003Y-104159775D02*
X142029003Y-104159775D01*
X142029003Y-104159775D02*
X142029003Y-103588346D01*
X142029003Y-103588346D02*
X141957574Y-103445489D01*
X141957574Y-103445489D02*
X141886146Y-103374060D01*
X141886146Y-103374060D02*
X141743289Y-103302632D01*
X141743289Y-103302632D02*
X141529003Y-103302632D01*
X141529003Y-103302632D02*
X141386146Y-103374060D01*
X141386146Y-103374060D02*
X141314717Y-103445489D01*
X141314717Y-103445489D02*
X141243289Y-103588346D01*
X141243289Y-103588346D02*
X141243289Y-104159775D01*
X140529003Y-102659775D02*
X141529003Y-102659775D01*
X141243289Y-102659775D02*
X141386146Y-102588346D01*
X141386146Y-102588346D02*
X141457574Y-102516918D01*
X141457574Y-102516918D02*
X141529003Y-102374060D01*
X141529003Y-102374060D02*
X141529003Y-102231203D01*
X140529003Y-101731204D02*
X141529003Y-101731204D01*
X142029003Y-101731204D02*
X141957574Y-101802632D01*
X141957574Y-101802632D02*
X141886146Y-101731204D01*
X141886146Y-101731204D02*
X141957574Y-101659775D01*
X141957574Y-101659775D02*
X142029003Y-101731204D01*
X142029003Y-101731204D02*
X141886146Y-101731204D01*
X141529003Y-101159775D02*
X140529003Y-100802632D01*
X140529003Y-100802632D02*
X141529003Y-100445489D01*
X140529003Y-99231204D02*
X141314717Y-99231204D01*
X141314717Y-99231204D02*
X141457574Y-99302632D01*
X141457574Y-99302632D02*
X141529003Y-99445489D01*
X141529003Y-99445489D02*
X141529003Y-99731204D01*
X141529003Y-99731204D02*
X141457574Y-99874061D01*
X140600432Y-99231204D02*
X140529003Y-99374061D01*
X140529003Y-99374061D02*
X140529003Y-99731204D01*
X140529003Y-99731204D02*
X140600432Y-99874061D01*
X140600432Y-99874061D02*
X140743289Y-99945489D01*
X140743289Y-99945489D02*
X140886146Y-99945489D01*
X140886146Y-99945489D02*
X141029003Y-99874061D01*
X141029003Y-99874061D02*
X141100432Y-99731204D01*
X141100432Y-99731204D02*
X141100432Y-99374061D01*
X141100432Y-99374061D02*
X141171860Y-99231204D01*
X141529003Y-98731203D02*
X141529003Y-98159775D01*
X142029003Y-98516918D02*
X140743289Y-98516918D01*
X140743289Y-98516918D02*
X140600432Y-98445489D01*
X140600432Y-98445489D02*
X140529003Y-98302632D01*
X140529003Y-98302632D02*
X140529003Y-98159775D01*
X140600432Y-97088346D02*
X140529003Y-97231203D01*
X140529003Y-97231203D02*
X140529003Y-97516918D01*
X140529003Y-97516918D02*
X140600432Y-97659775D01*
X140600432Y-97659775D02*
X140743289Y-97731203D01*
X140743289Y-97731203D02*
X141314717Y-97731203D01*
X141314717Y-97731203D02*
X141457574Y-97659775D01*
X141457574Y-97659775D02*
X141529003Y-97516918D01*
X141529003Y-97516918D02*
X141529003Y-97231203D01*
X141529003Y-97231203D02*
X141457574Y-97088346D01*
X141457574Y-97088346D02*
X141314717Y-97016918D01*
X141314717Y-97016918D02*
X141171860Y-97016918D01*
X141171860Y-97016918D02*
X141029003Y-97731203D01*
X140529003Y-94516918D02*
X140529003Y-95231204D01*
X140529003Y-95231204D02*
X142029003Y-95231204D01*
X140529003Y-94016918D02*
X141529003Y-94016918D01*
X142029003Y-94016918D02*
X141957574Y-94088346D01*
X141957574Y-94088346D02*
X141886146Y-94016918D01*
X141886146Y-94016918D02*
X141957574Y-93945489D01*
X141957574Y-93945489D02*
X142029003Y-94016918D01*
X142029003Y-94016918D02*
X141886146Y-94016918D01*
X140529003Y-93302632D02*
X141529003Y-93302632D01*
X141386146Y-93302632D02*
X141457574Y-93231203D01*
X141457574Y-93231203D02*
X141529003Y-93088346D01*
X141529003Y-93088346D02*
X141529003Y-92874060D01*
X141529003Y-92874060D02*
X141457574Y-92731203D01*
X141457574Y-92731203D02*
X141314717Y-92659775D01*
X141314717Y-92659775D02*
X140529003Y-92659775D01*
X141314717Y-92659775D02*
X141457574Y-92588346D01*
X141457574Y-92588346D02*
X141529003Y-92445489D01*
X141529003Y-92445489D02*
X141529003Y-92231203D01*
X141529003Y-92231203D02*
X141457574Y-92088346D01*
X141457574Y-92088346D02*
X141314717Y-92016917D01*
X141314717Y-92016917D02*
X140529003Y-92016917D01*
X140529003Y-91302632D02*
X141529003Y-91302632D01*
X142029003Y-91302632D02*
X141957574Y-91374060D01*
X141957574Y-91374060D02*
X141886146Y-91302632D01*
X141886146Y-91302632D02*
X141957574Y-91231203D01*
X141957574Y-91231203D02*
X142029003Y-91302632D01*
X142029003Y-91302632D02*
X141886146Y-91302632D01*
X141529003Y-90802631D02*
X141529003Y-90231203D01*
X142029003Y-90588346D02*
X140743289Y-90588346D01*
X140743289Y-90588346D02*
X140600432Y-90516917D01*
X140600432Y-90516917D02*
X140529003Y-90374060D01*
X140529003Y-90374060D02*
X140529003Y-90231203D01*
X140600432Y-89159774D02*
X140529003Y-89302631D01*
X140529003Y-89302631D02*
X140529003Y-89588346D01*
X140529003Y-89588346D02*
X140600432Y-89731203D01*
X140600432Y-89731203D02*
X140743289Y-89802631D01*
X140743289Y-89802631D02*
X141314717Y-89802631D01*
X141314717Y-89802631D02*
X141457574Y-89731203D01*
X141457574Y-89731203D02*
X141529003Y-89588346D01*
X141529003Y-89588346D02*
X141529003Y-89302631D01*
X141529003Y-89302631D02*
X141457574Y-89159774D01*
X141457574Y-89159774D02*
X141314717Y-89088346D01*
X141314717Y-89088346D02*
X141171860Y-89088346D01*
X141171860Y-89088346D02*
X141029003Y-89802631D01*
X140529003Y-87802632D02*
X142029003Y-87802632D01*
X140600432Y-87802632D02*
X140529003Y-87945489D01*
X140529003Y-87945489D02*
X140529003Y-88231203D01*
X140529003Y-88231203D02*
X140600432Y-88374060D01*
X140600432Y-88374060D02*
X140671860Y-88445489D01*
X140671860Y-88445489D02*
X140814717Y-88516917D01*
X140814717Y-88516917D02*
X141243289Y-88516917D01*
X141243289Y-88516917D02*
X141386146Y-88445489D01*
X141386146Y-88445489D02*
X141457574Y-88374060D01*
X141457574Y-88374060D02*
X141529003Y-88231203D01*
X141529003Y-88231203D02*
X141529003Y-87945489D01*
X141529003Y-87945489D02*
X141457574Y-87802632D01*
X139614087Y-125159774D02*
X139614087Y-124874060D01*
X139614087Y-124874060D02*
X139542658Y-124731203D01*
X139542658Y-124731203D02*
X139399801Y-124588346D01*
X139399801Y-124588346D02*
X139114087Y-124516917D01*
X139114087Y-124516917D02*
X138614087Y-124516917D01*
X138614087Y-124516917D02*
X138328373Y-124588346D01*
X138328373Y-124588346D02*
X138185516Y-124731203D01*
X138185516Y-124731203D02*
X138114087Y-124874060D01*
X138114087Y-124874060D02*
X138114087Y-125159774D01*
X138114087Y-125159774D02*
X138185516Y-125302632D01*
X138185516Y-125302632D02*
X138328373Y-125445489D01*
X138328373Y-125445489D02*
X138614087Y-125516917D01*
X138614087Y-125516917D02*
X139114087Y-125516917D01*
X139114087Y-125516917D02*
X139399801Y-125445489D01*
X139399801Y-125445489D02*
X139542658Y-125302632D01*
X139542658Y-125302632D02*
X139614087Y-125159774D01*
X138256944Y-123016917D02*
X138185516Y-123088345D01*
X138185516Y-123088345D02*
X138114087Y-123302631D01*
X138114087Y-123302631D02*
X138114087Y-123445488D01*
X138114087Y-123445488D02*
X138185516Y-123659774D01*
X138185516Y-123659774D02*
X138328373Y-123802631D01*
X138328373Y-123802631D02*
X138471230Y-123874060D01*
X138471230Y-123874060D02*
X138756944Y-123945488D01*
X138756944Y-123945488D02*
X138971230Y-123945488D01*
X138971230Y-123945488D02*
X139256944Y-123874060D01*
X139256944Y-123874060D02*
X139399801Y-123802631D01*
X139399801Y-123802631D02*
X139542658Y-123659774D01*
X139542658Y-123659774D02*
X139614087Y-123445488D01*
X139614087Y-123445488D02*
X139614087Y-123302631D01*
X139614087Y-123302631D02*
X139542658Y-123088345D01*
X139542658Y-123088345D02*
X139471230Y-123016917D01*
X138114087Y-122374060D02*
X139614087Y-122374060D01*
X139614087Y-122374060D02*
X139614087Y-121802631D01*
X139614087Y-121802631D02*
X139542658Y-121659774D01*
X139542658Y-121659774D02*
X139471230Y-121588345D01*
X139471230Y-121588345D02*
X139328373Y-121516917D01*
X139328373Y-121516917D02*
X139114087Y-121516917D01*
X139114087Y-121516917D02*
X138971230Y-121588345D01*
X138971230Y-121588345D02*
X138899801Y-121659774D01*
X138899801Y-121659774D02*
X138828373Y-121802631D01*
X138828373Y-121802631D02*
X138828373Y-122374060D01*
X138114087Y-119731203D02*
X139614087Y-119731203D01*
X139614087Y-119731203D02*
X138542658Y-119231203D01*
X138542658Y-119231203D02*
X139614087Y-118731203D01*
X139614087Y-118731203D02*
X138114087Y-118731203D01*
X138185516Y-117445488D02*
X138114087Y-117588345D01*
X138114087Y-117588345D02*
X138114087Y-117874060D01*
X138114087Y-117874060D02*
X138185516Y-118016917D01*
X138185516Y-118016917D02*
X138328373Y-118088345D01*
X138328373Y-118088345D02*
X138899801Y-118088345D01*
X138899801Y-118088345D02*
X139042658Y-118016917D01*
X139042658Y-118016917D02*
X139114087Y-117874060D01*
X139114087Y-117874060D02*
X139114087Y-117588345D01*
X139114087Y-117588345D02*
X139042658Y-117445488D01*
X139042658Y-117445488D02*
X138899801Y-117374060D01*
X138899801Y-117374060D02*
X138756944Y-117374060D01*
X138756944Y-117374060D02*
X138614087Y-118088345D01*
X139114087Y-116945488D02*
X139114087Y-116374060D01*
X139614087Y-116731203D02*
X138328373Y-116731203D01*
X138328373Y-116731203D02*
X138185516Y-116659774D01*
X138185516Y-116659774D02*
X138114087Y-116516917D01*
X138114087Y-116516917D02*
X138114087Y-116374060D01*
X138185516Y-115302631D02*
X138114087Y-115445488D01*
X138114087Y-115445488D02*
X138114087Y-115731203D01*
X138114087Y-115731203D02*
X138185516Y-115874060D01*
X138185516Y-115874060D02*
X138328373Y-115945488D01*
X138328373Y-115945488D02*
X138899801Y-115945488D01*
X138899801Y-115945488D02*
X139042658Y-115874060D01*
X139042658Y-115874060D02*
X139114087Y-115731203D01*
X139114087Y-115731203D02*
X139114087Y-115445488D01*
X139114087Y-115445488D02*
X139042658Y-115302631D01*
X139042658Y-115302631D02*
X138899801Y-115231203D01*
X138899801Y-115231203D02*
X138756944Y-115231203D01*
X138756944Y-115231203D02*
X138614087Y-115945488D01*
X138114087Y-114588346D02*
X139114087Y-114588346D01*
X138828373Y-114588346D02*
X138971230Y-114516917D01*
X138971230Y-114516917D02*
X139042658Y-114445489D01*
X139042658Y-114445489D02*
X139114087Y-114302631D01*
X139114087Y-114302631D02*
X139114087Y-114159774D01*
X139114087Y-112659775D02*
X138114087Y-112302632D01*
X138114087Y-112302632D02*
X139114087Y-111945489D01*
X138114087Y-110588346D02*
X138114087Y-111445489D01*
X138114087Y-111016918D02*
X139614087Y-111016918D01*
X139614087Y-111016918D02*
X139399801Y-111159775D01*
X139399801Y-111159775D02*
X139256944Y-111302632D01*
X139256944Y-111302632D02*
X139185516Y-111445489D01*
X138256944Y-109945490D02*
X138185516Y-109874061D01*
X138185516Y-109874061D02*
X138114087Y-109945490D01*
X138114087Y-109945490D02*
X138185516Y-110016918D01*
X138185516Y-110016918D02*
X138256944Y-109945490D01*
X138256944Y-109945490D02*
X138114087Y-109945490D01*
X139614087Y-108945489D02*
X139614087Y-108802632D01*
X139614087Y-108802632D02*
X139542658Y-108659775D01*
X139542658Y-108659775D02*
X139471230Y-108588347D01*
X139471230Y-108588347D02*
X139328373Y-108516918D01*
X139328373Y-108516918D02*
X139042658Y-108445489D01*
X139042658Y-108445489D02*
X138685516Y-108445489D01*
X138685516Y-108445489D02*
X138399801Y-108516918D01*
X138399801Y-108516918D02*
X138256944Y-108588347D01*
X138256944Y-108588347D02*
X138185516Y-108659775D01*
X138185516Y-108659775D02*
X138114087Y-108802632D01*
X138114087Y-108802632D02*
X138114087Y-108945489D01*
X138114087Y-108945489D02*
X138185516Y-109088347D01*
X138185516Y-109088347D02*
X138256944Y-109159775D01*
X138256944Y-109159775D02*
X138399801Y-109231204D01*
X138399801Y-109231204D02*
X138685516Y-109302632D01*
X138685516Y-109302632D02*
X139042658Y-109302632D01*
X139042658Y-109302632D02*
X139328373Y-109231204D01*
X139328373Y-109231204D02*
X139471230Y-109159775D01*
X139471230Y-109159775D02*
X139542658Y-109088347D01*
X139542658Y-109088347D02*
X139614087Y-108945489D01*
X135699171Y-125445489D02*
X137199171Y-125445489D01*
X135699171Y-124588346D02*
X136556314Y-125231203D01*
X137199171Y-124588346D02*
X136342028Y-125445489D01*
X135699171Y-123945489D02*
X136699171Y-123945489D01*
X137199171Y-123945489D02*
X137127742Y-124016917D01*
X137127742Y-124016917D02*
X137056314Y-123945489D01*
X137056314Y-123945489D02*
X137127742Y-123874060D01*
X137127742Y-123874060D02*
X137199171Y-123945489D01*
X137199171Y-123945489D02*
X137056314Y-123945489D01*
X135770600Y-123302631D02*
X135699171Y-123159774D01*
X135699171Y-123159774D02*
X135699171Y-122874060D01*
X135699171Y-122874060D02*
X135770600Y-122731203D01*
X135770600Y-122731203D02*
X135913457Y-122659774D01*
X135913457Y-122659774D02*
X135984885Y-122659774D01*
X135984885Y-122659774D02*
X136127742Y-122731203D01*
X136127742Y-122731203D02*
X136199171Y-122874060D01*
X136199171Y-122874060D02*
X136199171Y-123088346D01*
X136199171Y-123088346D02*
X136270600Y-123231203D01*
X136270600Y-123231203D02*
X136413457Y-123302631D01*
X136413457Y-123302631D02*
X136484885Y-123302631D01*
X136484885Y-123302631D02*
X136627742Y-123231203D01*
X136627742Y-123231203D02*
X136699171Y-123088346D01*
X136699171Y-123088346D02*
X136699171Y-122874060D01*
X136699171Y-122874060D02*
X136627742Y-122731203D01*
X135699171Y-122016917D02*
X137199171Y-122016917D01*
X135699171Y-121374060D02*
X136484885Y-121374060D01*
X136484885Y-121374060D02*
X136627742Y-121445488D01*
X136627742Y-121445488D02*
X136699171Y-121588345D01*
X136699171Y-121588345D02*
X136699171Y-121802631D01*
X136699171Y-121802631D02*
X136627742Y-121945488D01*
X136627742Y-121945488D02*
X136556314Y-122016917D01*
X135699171Y-120016917D02*
X136484885Y-120016917D01*
X136484885Y-120016917D02*
X136627742Y-120088345D01*
X136627742Y-120088345D02*
X136699171Y-120231202D01*
X136699171Y-120231202D02*
X136699171Y-120516917D01*
X136699171Y-120516917D02*
X136627742Y-120659774D01*
X135770600Y-120016917D02*
X135699171Y-120159774D01*
X135699171Y-120159774D02*
X135699171Y-120516917D01*
X135699171Y-120516917D02*
X135770600Y-120659774D01*
X135770600Y-120659774D02*
X135913457Y-120731202D01*
X135913457Y-120731202D02*
X136056314Y-120731202D01*
X136056314Y-120731202D02*
X136199171Y-120659774D01*
X136199171Y-120659774D02*
X136270600Y-120516917D01*
X136270600Y-120516917D02*
X136270600Y-120159774D01*
X136270600Y-120159774D02*
X136342028Y-120016917D01*
X136699171Y-119302631D02*
X135699171Y-119302631D01*
X136556314Y-119302631D02*
X136627742Y-119231202D01*
X136627742Y-119231202D02*
X136699171Y-119088345D01*
X136699171Y-119088345D02*
X136699171Y-118874059D01*
X136699171Y-118874059D02*
X136627742Y-118731202D01*
X136627742Y-118731202D02*
X136484885Y-118659774D01*
X136484885Y-118659774D02*
X135699171Y-118659774D01*
M02*
