M48
; DRILL file KiCad 10.0.4 date 2026-07-31T12:07:40
; FORMAT={-:-/ absolute / metric / decimal}
; #@! TF.CreationDate,2026-07-31T12:07:40+05:30
; #@! TF.GenerationSoftware,Kicad,Pcbnew,10.0.4
; #@! TF.FileFunction,Plated,1,2,PTH
FMAT,2
METRIC
; #@! TA.AperFunction,Plated,PTH,ViaDrill
T1C0.300
; #@! TA.AperFunction,Plated,PTH,ComponentDrill
T2C0.800
; #@! TA.AperFunction,Plated,PTH,ComponentDrill
T3C1.000
; #@! TA.AperFunction,Plated,PTH,ComponentDrill
T4C1.300
%
G90
G05
T1
X128.0Y-104.0
X128.5Y-123.35
X129.5Y-101.382
X130.0Y-122.0
X130.5Y-118.5
X135.5Y-92.5
X138.5Y-94.5
X154.5Y-118.5
T2
X126.002Y-85.46
X126.002Y-88.0
X126.002Y-90.54
X126.002Y-93.08
X126.002Y-95.62
X126.002Y-98.16
X126.002Y-100.7
X126.002Y-103.24
X126.002Y-105.78
X126.002Y-108.32
X126.002Y-110.86
X126.002Y-113.4
X126.002Y-115.94
X126.002Y-118.48
X126.002Y-121.02
X151.402Y-85.46
X151.402Y-88.0
X151.402Y-90.54
X151.402Y-93.08
X151.402Y-95.62
X151.402Y-98.16
X151.402Y-100.7
X151.402Y-103.24
X151.402Y-105.78
X151.402Y-108.32
X151.402Y-110.86
X151.402Y-113.4
X151.402Y-115.94
X151.402Y-118.48
X151.402Y-121.02
X156.19Y-103.19
X156.19Y-105.73
X156.19Y-108.27
X156.19Y-110.81
X163.81Y-103.19
X163.81Y-105.73
X163.81Y-108.27
X163.81Y-110.81
T3
X121.0Y-87.64
X121.0Y-90.18
X121.0Y-92.72
X121.0Y-95.26
X121.0Y-97.8
X121.0Y-100.34
X121.0Y-102.88
X121.0Y-105.42
X121.0Y-107.96
X121.0Y-110.5
T4
X117.5Y-115.915
X117.5Y-120.995
X117.5Y-126.075
X160.24Y-89.735
X160.24Y-94.815
M30
