%TF.GenerationSoftware,KiCad,Pcbnew,10.0.4*%
%TF.CreationDate,2026-07-31T12:07:47+05:30*%
%TF.ProjectId,kicaddddd,6b696361-6464-4646-9464-2e6b69636164,rev?*%
%TF.SameCoordinates,Original*%
%TF.FileFunction,Soldermask,Bot*%
%TF.FilePolarity,Negative*%
%FSLAX46Y46*%
G04 Gerber Fmt 4.6, Leading zero omitted, Abs format (unit mm)*
G04 Created by KiCad (PCBNEW 10.0.4) date 2026-07-31 12:07:47*
%MOMM*%
%LPD*%
G01*
G04 APERTURE LIST*
G04 Aperture macros list*
%AMRoundRect*
0 Rectangle with rounded corners*
0 $1 Rounding radius*
0 $2 $3 $4 $5 $6 $7 $8 $9 X,Y pos of 4 corners*
0 Add a 4 corners polygon primitive as box body*
4,1,4,$2,$3,$4,$5,$6,$7,$8,$9,$2,$3,0*
0 Add four circle primitives for the rounded corners*
1,1,$1+$1,$2,$3*
1,1,$1+$1,$4,$5*
1,1,$1+$1,$6,$7*
1,1,$1+$1,$8,$9*
0 Add four rect primitives between the rounded corners*
20,1,$1+$1,$2,$3,$4,$5,0*
20,1,$1+$1,$4,$5,$6,$7,0*
20,1,$1+$1,$6,$7,$8,$9,0*
20,1,$1+$1,$8,$9,$2,$3,0*%
G04 Aperture macros list end*
%ADD10O,1.900000X1.524000*%
%ADD11RoundRect,0.250000X1.050000X-1.050000X1.050000X1.050000X-1.050000X1.050000X-1.050000X-1.050000X0*%
%ADD12C,2.600000*%
%ADD13RoundRect,0.250000X-1.050000X1.050000X-1.050000X-1.050000X1.050000X-1.050000X1.050000X1.050000X0*%
%ADD14RoundRect,0.250000X-0.550000X-0.550000X0.550000X-0.550000X0.550000X0.550000X-0.550000X0.550000X0*%
%ADD15C,1.600000*%
%ADD16C,2.700000*%
%ADD17R,1.700000X1.700000*%
%ADD18C,1.700000*%
G04 APERTURE END LIST*
D10*
%TO.C,U1*%
X126002460Y-121019813D03*
X126002460Y-118479813D03*
X126002460Y-115939813D03*
X126002460Y-113399813D03*
X126002460Y-110859813D03*
X126002460Y-108319813D03*
X126002460Y-105779813D03*
X126002460Y-103239813D03*
X126002460Y-100699813D03*
X126002460Y-98159813D03*
X126002460Y-95619813D03*
X126002460Y-93079813D03*
X126002460Y-90539813D03*
X126002460Y-87999813D03*
X126002460Y-85459813D03*
X151402460Y-121019813D03*
X151402460Y-118479813D03*
X151402460Y-115939813D03*
X151402460Y-113399813D03*
X151402460Y-110859813D03*
X151402460Y-108319813D03*
X151402460Y-105779813D03*
X151402460Y-103239813D03*
X151402460Y-100699813D03*
X151402460Y-98159813D03*
X151402460Y-95619813D03*
X151402460Y-93079813D03*
X151402460Y-90539813D03*
X151402460Y-87999813D03*
X151402460Y-85459813D03*
%TD*%
D11*
%TO.C,J3*%
X160239702Y-94815399D03*
D12*
X160239702Y-89735399D03*
%TD*%
D13*
%TO.C,J2*%
X117500000Y-115915000D03*
D12*
X117500000Y-120995000D03*
X117500000Y-126075000D03*
%TD*%
D14*
%TO.C,U3*%
X156190000Y-103190000D03*
D15*
X156190000Y-105730000D03*
X156190000Y-108270000D03*
X156190000Y-110810000D03*
X163810000Y-110810000D03*
X163810000Y-108270000D03*
X163810000Y-105730000D03*
X163810000Y-103190000D03*
%TD*%
D16*
%TO.C,H1*%
X116000000Y-81000000D03*
%TD*%
%TO.C,H2*%
X161500000Y-81000000D03*
%TD*%
D17*
%TO.C,J1*%
X121000000Y-110500000D03*
D18*
X121000000Y-107960000D03*
X121000000Y-105420000D03*
X121000000Y-102880000D03*
X121000000Y-100340000D03*
X121000000Y-97800000D03*
X121000000Y-95260000D03*
X121000000Y-92720000D03*
X121000000Y-90180000D03*
X121000000Y-87640000D03*
%TD*%
D16*
%TO.C,H3*%
X161500000Y-127000000D03*
%TD*%
M02*
