%TF.GenerationSoftware,KiCad,Pcbnew,10.0.4*%
%TF.CreationDate,2026-07-31T12:07:47+05:30*%
%TF.ProjectId,kicaddddd,6b696361-6464-4646-9464-2e6b69636164,rev?*%
%TF.SameCoordinates,Original*%
%TF.FileFunction,Legend,Top*%
%TF.FilePolarity,Positive*%
%FSLAX46Y46*%
G04 Gerber Fmt 4.6, Leading zero omitted, Abs format (unit mm)*
G04 Created by KiCad (PCBNEW 10.0.4) date 2026-07-31 12:07:47*
%MOMM*%
%LPD*%
G01*
G04 APERTURE LIST*
%ADD10C,0.100000*%
%ADD11C,0.150000*%
%ADD12C,0.200000*%
%ADD13C,0.120000*%
G04 APERTURE END LIST*
D10*
X116303884Y-112486466D02*
X117065789Y-112486466D01*
X116684836Y-112867419D02*
X116684836Y-112105514D01*
X118018169Y-111867419D02*
X117541979Y-111867419D01*
X117541979Y-111867419D02*
X117494360Y-112343609D01*
X117494360Y-112343609D02*
X117541979Y-112295990D01*
X117541979Y-112295990D02*
X117637217Y-112248371D01*
X117637217Y-112248371D02*
X117875312Y-112248371D01*
X117875312Y-112248371D02*
X117970550Y-112295990D01*
X117970550Y-112295990D02*
X118018169Y-112343609D01*
X118018169Y-112343609D02*
X118065788Y-112438847D01*
X118065788Y-112438847D02*
X118065788Y-112676942D01*
X118065788Y-112676942D02*
X118018169Y-112772180D01*
X118018169Y-112772180D02*
X117970550Y-112819800D01*
X117970550Y-112819800D02*
X117875312Y-112867419D01*
X117875312Y-112867419D02*
X117637217Y-112867419D01*
X117637217Y-112867419D02*
X117541979Y-112819800D01*
X117541979Y-112819800D02*
X117494360Y-112772180D01*
X118351503Y-111867419D02*
X118684836Y-112867419D01*
X118684836Y-112867419D02*
X119018169Y-111867419D01*
X116303884Y-129986466D02*
X117065789Y-129986466D01*
X118018169Y-129367419D02*
X117541979Y-129367419D01*
X117541979Y-129367419D02*
X117494360Y-129843609D01*
X117494360Y-129843609D02*
X117541979Y-129795990D01*
X117541979Y-129795990D02*
X117637217Y-129748371D01*
X117637217Y-129748371D02*
X117875312Y-129748371D01*
X117875312Y-129748371D02*
X117970550Y-129795990D01*
X117970550Y-129795990D02*
X118018169Y-129843609D01*
X118018169Y-129843609D02*
X118065788Y-129938847D01*
X118065788Y-129938847D02*
X118065788Y-130176942D01*
X118065788Y-130176942D02*
X118018169Y-130272180D01*
X118018169Y-130272180D02*
X117970550Y-130319800D01*
X117970550Y-130319800D02*
X117875312Y-130367419D01*
X117875312Y-130367419D02*
X117637217Y-130367419D01*
X117637217Y-130367419D02*
X117541979Y-130319800D01*
X117541979Y-130319800D02*
X117494360Y-130272180D01*
X118351503Y-129367419D02*
X118684836Y-130367419D01*
X118684836Y-130367419D02*
X119018169Y-129367419D01*
X160115014Y-86310192D02*
X159781681Y-85834001D01*
X159543586Y-86310192D02*
X159543586Y-85310192D01*
X159543586Y-85310192D02*
X159924538Y-85310192D01*
X159924538Y-85310192D02*
X160019776Y-85357811D01*
X160019776Y-85357811D02*
X160067395Y-85405430D01*
X160067395Y-85405430D02*
X160115014Y-85500668D01*
X160115014Y-85500668D02*
X160115014Y-85643525D01*
X160115014Y-85643525D02*
X160067395Y-85738763D01*
X160067395Y-85738763D02*
X160019776Y-85786382D01*
X160019776Y-85786382D02*
X159924538Y-85834001D01*
X159924538Y-85834001D02*
X159543586Y-85834001D01*
X160543586Y-85786382D02*
X160876919Y-85786382D01*
X161019776Y-86310192D02*
X160543586Y-86310192D01*
X160543586Y-86310192D02*
X160543586Y-85310192D01*
X160543586Y-85310192D02*
X161019776Y-85310192D01*
X159448348Y-98127398D02*
X159686443Y-99127398D01*
X159686443Y-99127398D02*
X159876919Y-98413112D01*
X159876919Y-98413112D02*
X160067395Y-99127398D01*
X160067395Y-99127398D02*
X160305491Y-98127398D01*
X160686443Y-98603588D02*
X161019776Y-98603588D01*
X161162633Y-99127398D02*
X160686443Y-99127398D01*
X160686443Y-99127398D02*
X160686443Y-98127398D01*
X160686443Y-98127398D02*
X161162633Y-98127398D01*
X118372419Y-111338972D02*
X119372419Y-111005639D01*
X119372419Y-111005639D02*
X118372419Y-110672306D01*
X119372419Y-110338972D02*
X118372419Y-110338972D01*
X118372419Y-110338972D02*
X118372419Y-110100877D01*
X118372419Y-110100877D02*
X118420038Y-109958020D01*
X118420038Y-109958020D02*
X118515276Y-109862782D01*
X118515276Y-109862782D02*
X118610514Y-109815163D01*
X118610514Y-109815163D02*
X118800990Y-109767544D01*
X118800990Y-109767544D02*
X118943847Y-109767544D01*
X118943847Y-109767544D02*
X119134323Y-109815163D01*
X119134323Y-109815163D02*
X119229561Y-109862782D01*
X119229561Y-109862782D02*
X119324800Y-109958020D01*
X119324800Y-109958020D02*
X119372419Y-110100877D01*
X119372419Y-110100877D02*
X119372419Y-110338972D01*
X119372419Y-109338972D02*
X118372419Y-109338972D01*
X118372419Y-109338972D02*
X118372419Y-109100877D01*
X118372419Y-109100877D02*
X118420038Y-108958020D01*
X118420038Y-108958020D02*
X118515276Y-108862782D01*
X118515276Y-108862782D02*
X118610514Y-108815163D01*
X118610514Y-108815163D02*
X118800990Y-108767544D01*
X118800990Y-108767544D02*
X118943847Y-108767544D01*
X118943847Y-108767544D02*
X119134323Y-108815163D01*
X119134323Y-108815163D02*
X119229561Y-108862782D01*
X119229561Y-108862782D02*
X119324800Y-108958020D01*
X119324800Y-108958020D02*
X119372419Y-109100877D01*
X119372419Y-109100877D02*
X119372419Y-109338972D01*
D11*
X139747640Y-101842908D02*
X138938117Y-101842908D01*
X138938117Y-101842908D02*
X138842879Y-101890527D01*
X138842879Y-101890527D02*
X138795260Y-101938146D01*
X138795260Y-101938146D02*
X138747640Y-102033384D01*
X138747640Y-102033384D02*
X138747640Y-102223860D01*
X138747640Y-102223860D02*
X138795260Y-102319098D01*
X138795260Y-102319098D02*
X138842879Y-102366717D01*
X138842879Y-102366717D02*
X138938117Y-102414336D01*
X138938117Y-102414336D02*
X139747640Y-102414336D01*
X138747640Y-103414336D02*
X138747640Y-102842908D01*
X138747640Y-103128622D02*
X139747640Y-103128622D01*
X139747640Y-103128622D02*
X139604783Y-103033384D01*
X139604783Y-103033384D02*
X139509545Y-102938146D01*
X139509545Y-102938146D02*
X139461926Y-102842908D01*
D10*
X127257693Y-85848609D02*
X127624360Y-85848609D01*
X127781503Y-86372419D02*
X127257693Y-86372419D01*
X127257693Y-86372419D02*
X127257693Y-85372419D01*
X127257693Y-85372419D02*
X127781503Y-85372419D01*
X128252931Y-86372419D02*
X128252931Y-85372419D01*
X128252931Y-85372419D02*
X128881503Y-86372419D01*
X128881503Y-86372419D02*
X128881503Y-85372419D01*
X127833884Y-87920038D02*
X127729122Y-87872419D01*
X127729122Y-87872419D02*
X127571979Y-87872419D01*
X127571979Y-87872419D02*
X127414836Y-87920038D01*
X127414836Y-87920038D02*
X127310074Y-88015276D01*
X127310074Y-88015276D02*
X127257693Y-88110514D01*
X127257693Y-88110514D02*
X127205312Y-88300990D01*
X127205312Y-88300990D02*
X127205312Y-88443847D01*
X127205312Y-88443847D02*
X127257693Y-88634323D01*
X127257693Y-88634323D02*
X127310074Y-88729561D01*
X127310074Y-88729561D02*
X127414836Y-88824800D01*
X127414836Y-88824800D02*
X127571979Y-88872419D01*
X127571979Y-88872419D02*
X127676741Y-88872419D01*
X127676741Y-88872419D02*
X127833884Y-88824800D01*
X127833884Y-88824800D02*
X127886265Y-88777180D01*
X127886265Y-88777180D02*
X127886265Y-88443847D01*
X127886265Y-88443847D02*
X127676741Y-88443847D01*
X128357693Y-88872419D02*
X128357693Y-87872419D01*
X128357693Y-87872419D02*
X128776741Y-87872419D01*
X128776741Y-87872419D02*
X128881503Y-87920038D01*
X128881503Y-87920038D02*
X128933884Y-87967657D01*
X128933884Y-87967657D02*
X128986265Y-88062895D01*
X128986265Y-88062895D02*
X128986265Y-88205752D01*
X128986265Y-88205752D02*
X128933884Y-88300990D01*
X128933884Y-88300990D02*
X128881503Y-88348609D01*
X128881503Y-88348609D02*
X128776741Y-88396228D01*
X128776741Y-88396228D02*
X128357693Y-88396228D01*
X129457693Y-88872419D02*
X129457693Y-87872419D01*
X130191027Y-87872419D02*
X130400551Y-87872419D01*
X130400551Y-87872419D02*
X130505313Y-87920038D01*
X130505313Y-87920038D02*
X130610075Y-88015276D01*
X130610075Y-88015276D02*
X130662456Y-88205752D01*
X130662456Y-88205752D02*
X130662456Y-88539085D01*
X130662456Y-88539085D02*
X130610075Y-88729561D01*
X130610075Y-88729561D02*
X130505313Y-88824800D01*
X130505313Y-88824800D02*
X130400551Y-88872419D01*
X130400551Y-88872419D02*
X130191027Y-88872419D01*
X130191027Y-88872419D02*
X130086265Y-88824800D01*
X130086265Y-88824800D02*
X129981503Y-88729561D01*
X129981503Y-88729561D02*
X129929122Y-88539085D01*
X129929122Y-88539085D02*
X129929122Y-88205752D01*
X129929122Y-88205752D02*
X129981503Y-88015276D01*
X129981503Y-88015276D02*
X130086265Y-87920038D01*
X130086265Y-87920038D02*
X130191027Y-87872419D01*
X131029122Y-87872419D02*
X131710075Y-87872419D01*
X131710075Y-87872419D02*
X131343408Y-88253371D01*
X131343408Y-88253371D02*
X131500551Y-88253371D01*
X131500551Y-88253371D02*
X131605313Y-88300990D01*
X131605313Y-88300990D02*
X131657694Y-88348609D01*
X131657694Y-88348609D02*
X131710075Y-88443847D01*
X131710075Y-88443847D02*
X131710075Y-88681942D01*
X131710075Y-88681942D02*
X131657694Y-88777180D01*
X131657694Y-88777180D02*
X131605313Y-88824800D01*
X131605313Y-88824800D02*
X131500551Y-88872419D01*
X131500551Y-88872419D02*
X131186265Y-88872419D01*
X131186265Y-88872419D02*
X131081503Y-88824800D01*
X131081503Y-88824800D02*
X131029122Y-88777180D01*
X132652932Y-87872419D02*
X132443408Y-87872419D01*
X132443408Y-87872419D02*
X132338646Y-87920038D01*
X132338646Y-87920038D02*
X132286265Y-87967657D01*
X132286265Y-87967657D02*
X132181503Y-88110514D01*
X132181503Y-88110514D02*
X132129122Y-88300990D01*
X132129122Y-88300990D02*
X132129122Y-88681942D01*
X132129122Y-88681942D02*
X132181503Y-88777180D01*
X132181503Y-88777180D02*
X132233884Y-88824800D01*
X132233884Y-88824800D02*
X132338646Y-88872419D01*
X132338646Y-88872419D02*
X132548170Y-88872419D01*
X132548170Y-88872419D02*
X132652932Y-88824800D01*
X132652932Y-88824800D02*
X132705313Y-88777180D01*
X132705313Y-88777180D02*
X132757694Y-88681942D01*
X132757694Y-88681942D02*
X132757694Y-88443847D01*
X132757694Y-88443847D02*
X132705313Y-88348609D01*
X132705313Y-88348609D02*
X132652932Y-88300990D01*
X132652932Y-88300990D02*
X132548170Y-88253371D01*
X132548170Y-88253371D02*
X132338646Y-88253371D01*
X132338646Y-88253371D02*
X132233884Y-88300990D01*
X132233884Y-88300990D02*
X132181503Y-88348609D01*
X132181503Y-88348609D02*
X132129122Y-88443847D01*
X127833884Y-90420038D02*
X127729122Y-90372419D01*
X127729122Y-90372419D02*
X127571979Y-90372419D01*
X127571979Y-90372419D02*
X127414836Y-90420038D01*
X127414836Y-90420038D02*
X127310074Y-90515276D01*
X127310074Y-90515276D02*
X127257693Y-90610514D01*
X127257693Y-90610514D02*
X127205312Y-90800990D01*
X127205312Y-90800990D02*
X127205312Y-90943847D01*
X127205312Y-90943847D02*
X127257693Y-91134323D01*
X127257693Y-91134323D02*
X127310074Y-91229561D01*
X127310074Y-91229561D02*
X127414836Y-91324800D01*
X127414836Y-91324800D02*
X127571979Y-91372419D01*
X127571979Y-91372419D02*
X127676741Y-91372419D01*
X127676741Y-91372419D02*
X127833884Y-91324800D01*
X127833884Y-91324800D02*
X127886265Y-91277180D01*
X127886265Y-91277180D02*
X127886265Y-90943847D01*
X127886265Y-90943847D02*
X127676741Y-90943847D01*
X128357693Y-91372419D02*
X128357693Y-90372419D01*
X128357693Y-90372419D02*
X128776741Y-90372419D01*
X128776741Y-90372419D02*
X128881503Y-90420038D01*
X128881503Y-90420038D02*
X128933884Y-90467657D01*
X128933884Y-90467657D02*
X128986265Y-90562895D01*
X128986265Y-90562895D02*
X128986265Y-90705752D01*
X128986265Y-90705752D02*
X128933884Y-90800990D01*
X128933884Y-90800990D02*
X128881503Y-90848609D01*
X128881503Y-90848609D02*
X128776741Y-90896228D01*
X128776741Y-90896228D02*
X128357693Y-90896228D01*
X129457693Y-91372419D02*
X129457693Y-90372419D01*
X130191027Y-90372419D02*
X130400551Y-90372419D01*
X130400551Y-90372419D02*
X130505313Y-90420038D01*
X130505313Y-90420038D02*
X130610075Y-90515276D01*
X130610075Y-90515276D02*
X130662456Y-90705752D01*
X130662456Y-90705752D02*
X130662456Y-91039085D01*
X130662456Y-91039085D02*
X130610075Y-91229561D01*
X130610075Y-91229561D02*
X130505313Y-91324800D01*
X130505313Y-91324800D02*
X130400551Y-91372419D01*
X130400551Y-91372419D02*
X130191027Y-91372419D01*
X130191027Y-91372419D02*
X130086265Y-91324800D01*
X130086265Y-91324800D02*
X129981503Y-91229561D01*
X129981503Y-91229561D02*
X129929122Y-91039085D01*
X129929122Y-91039085D02*
X129929122Y-90705752D01*
X129929122Y-90705752D02*
X129981503Y-90515276D01*
X129981503Y-90515276D02*
X130086265Y-90420038D01*
X130086265Y-90420038D02*
X130191027Y-90372419D01*
X131029122Y-90372419D02*
X131710075Y-90372419D01*
X131710075Y-90372419D02*
X131343408Y-90753371D01*
X131343408Y-90753371D02*
X131500551Y-90753371D01*
X131500551Y-90753371D02*
X131605313Y-90800990D01*
X131605313Y-90800990D02*
X131657694Y-90848609D01*
X131657694Y-90848609D02*
X131710075Y-90943847D01*
X131710075Y-90943847D02*
X131710075Y-91181942D01*
X131710075Y-91181942D02*
X131657694Y-91277180D01*
X131657694Y-91277180D02*
X131605313Y-91324800D01*
X131605313Y-91324800D02*
X131500551Y-91372419D01*
X131500551Y-91372419D02*
X131186265Y-91372419D01*
X131186265Y-91372419D02*
X131081503Y-91324800D01*
X131081503Y-91324800D02*
X131029122Y-91277180D01*
X132233884Y-91372419D02*
X132443408Y-91372419D01*
X132443408Y-91372419D02*
X132548170Y-91324800D01*
X132548170Y-91324800D02*
X132600551Y-91277180D01*
X132600551Y-91277180D02*
X132705313Y-91134323D01*
X132705313Y-91134323D02*
X132757694Y-90943847D01*
X132757694Y-90943847D02*
X132757694Y-90562895D01*
X132757694Y-90562895D02*
X132705313Y-90467657D01*
X132705313Y-90467657D02*
X132652932Y-90420038D01*
X132652932Y-90420038D02*
X132548170Y-90372419D01*
X132548170Y-90372419D02*
X132338646Y-90372419D01*
X132338646Y-90372419D02*
X132233884Y-90420038D01*
X132233884Y-90420038D02*
X132181503Y-90467657D01*
X132181503Y-90467657D02*
X132129122Y-90562895D01*
X132129122Y-90562895D02*
X132129122Y-90800990D01*
X132129122Y-90800990D02*
X132181503Y-90896228D01*
X132181503Y-90896228D02*
X132233884Y-90943847D01*
X132233884Y-90943847D02*
X132338646Y-90991466D01*
X132338646Y-90991466D02*
X132548170Y-90991466D01*
X132548170Y-90991466D02*
X132652932Y-90943847D01*
X132652932Y-90943847D02*
X132705313Y-90896228D01*
X132705313Y-90896228D02*
X132757694Y-90800990D01*
X127833884Y-92920038D02*
X127729122Y-92872419D01*
X127729122Y-92872419D02*
X127571979Y-92872419D01*
X127571979Y-92872419D02*
X127414836Y-92920038D01*
X127414836Y-92920038D02*
X127310074Y-93015276D01*
X127310074Y-93015276D02*
X127257693Y-93110514D01*
X127257693Y-93110514D02*
X127205312Y-93300990D01*
X127205312Y-93300990D02*
X127205312Y-93443847D01*
X127205312Y-93443847D02*
X127257693Y-93634323D01*
X127257693Y-93634323D02*
X127310074Y-93729561D01*
X127310074Y-93729561D02*
X127414836Y-93824800D01*
X127414836Y-93824800D02*
X127571979Y-93872419D01*
X127571979Y-93872419D02*
X127676741Y-93872419D01*
X127676741Y-93872419D02*
X127833884Y-93824800D01*
X127833884Y-93824800D02*
X127886265Y-93777180D01*
X127886265Y-93777180D02*
X127886265Y-93443847D01*
X127886265Y-93443847D02*
X127676741Y-93443847D01*
X128357693Y-93872419D02*
X128357693Y-92872419D01*
X128357693Y-92872419D02*
X128776741Y-92872419D01*
X128776741Y-92872419D02*
X128881503Y-92920038D01*
X128881503Y-92920038D02*
X128933884Y-92967657D01*
X128933884Y-92967657D02*
X128986265Y-93062895D01*
X128986265Y-93062895D02*
X128986265Y-93205752D01*
X128986265Y-93205752D02*
X128933884Y-93300990D01*
X128933884Y-93300990D02*
X128881503Y-93348609D01*
X128881503Y-93348609D02*
X128776741Y-93396228D01*
X128776741Y-93396228D02*
X128357693Y-93396228D01*
X129457693Y-93872419D02*
X129457693Y-92872419D01*
X130191027Y-92872419D02*
X130400551Y-92872419D01*
X130400551Y-92872419D02*
X130505313Y-92920038D01*
X130505313Y-92920038D02*
X130610075Y-93015276D01*
X130610075Y-93015276D02*
X130662456Y-93205752D01*
X130662456Y-93205752D02*
X130662456Y-93539085D01*
X130662456Y-93539085D02*
X130610075Y-93729561D01*
X130610075Y-93729561D02*
X130505313Y-93824800D01*
X130505313Y-93824800D02*
X130400551Y-93872419D01*
X130400551Y-93872419D02*
X130191027Y-93872419D01*
X130191027Y-93872419D02*
X130086265Y-93824800D01*
X130086265Y-93824800D02*
X129981503Y-93729561D01*
X129981503Y-93729561D02*
X129929122Y-93539085D01*
X129929122Y-93539085D02*
X129929122Y-93205752D01*
X129929122Y-93205752D02*
X129981503Y-93015276D01*
X129981503Y-93015276D02*
X130086265Y-92920038D01*
X130086265Y-92920038D02*
X130191027Y-92872419D01*
X131029122Y-92872419D02*
X131710075Y-92872419D01*
X131710075Y-92872419D02*
X131343408Y-93253371D01*
X131343408Y-93253371D02*
X131500551Y-93253371D01*
X131500551Y-93253371D02*
X131605313Y-93300990D01*
X131605313Y-93300990D02*
X131657694Y-93348609D01*
X131657694Y-93348609D02*
X131710075Y-93443847D01*
X131710075Y-93443847D02*
X131710075Y-93681942D01*
X131710075Y-93681942D02*
X131657694Y-93777180D01*
X131657694Y-93777180D02*
X131605313Y-93824800D01*
X131605313Y-93824800D02*
X131500551Y-93872419D01*
X131500551Y-93872419D02*
X131186265Y-93872419D01*
X131186265Y-93872419D02*
X131081503Y-93824800D01*
X131081503Y-93824800D02*
X131029122Y-93777180D01*
X132652932Y-93205752D02*
X132652932Y-93872419D01*
X132391027Y-92824800D02*
X132129122Y-93539085D01*
X132129122Y-93539085D02*
X132810075Y-93539085D01*
X127833884Y-95420038D02*
X127729122Y-95372419D01*
X127729122Y-95372419D02*
X127571979Y-95372419D01*
X127571979Y-95372419D02*
X127414836Y-95420038D01*
X127414836Y-95420038D02*
X127310074Y-95515276D01*
X127310074Y-95515276D02*
X127257693Y-95610514D01*
X127257693Y-95610514D02*
X127205312Y-95800990D01*
X127205312Y-95800990D02*
X127205312Y-95943847D01*
X127205312Y-95943847D02*
X127257693Y-96134323D01*
X127257693Y-96134323D02*
X127310074Y-96229561D01*
X127310074Y-96229561D02*
X127414836Y-96324800D01*
X127414836Y-96324800D02*
X127571979Y-96372419D01*
X127571979Y-96372419D02*
X127676741Y-96372419D01*
X127676741Y-96372419D02*
X127833884Y-96324800D01*
X127833884Y-96324800D02*
X127886265Y-96277180D01*
X127886265Y-96277180D02*
X127886265Y-95943847D01*
X127886265Y-95943847D02*
X127676741Y-95943847D01*
X128357693Y-96372419D02*
X128357693Y-95372419D01*
X128357693Y-95372419D02*
X128776741Y-95372419D01*
X128776741Y-95372419D02*
X128881503Y-95420038D01*
X128881503Y-95420038D02*
X128933884Y-95467657D01*
X128933884Y-95467657D02*
X128986265Y-95562895D01*
X128986265Y-95562895D02*
X128986265Y-95705752D01*
X128986265Y-95705752D02*
X128933884Y-95800990D01*
X128933884Y-95800990D02*
X128881503Y-95848609D01*
X128881503Y-95848609D02*
X128776741Y-95896228D01*
X128776741Y-95896228D02*
X128357693Y-95896228D01*
X129457693Y-96372419D02*
X129457693Y-95372419D01*
X130191027Y-95372419D02*
X130400551Y-95372419D01*
X130400551Y-95372419D02*
X130505313Y-95420038D01*
X130505313Y-95420038D02*
X130610075Y-95515276D01*
X130610075Y-95515276D02*
X130662456Y-95705752D01*
X130662456Y-95705752D02*
X130662456Y-96039085D01*
X130662456Y-96039085D02*
X130610075Y-96229561D01*
X130610075Y-96229561D02*
X130505313Y-96324800D01*
X130505313Y-96324800D02*
X130400551Y-96372419D01*
X130400551Y-96372419D02*
X130191027Y-96372419D01*
X130191027Y-96372419D02*
X130086265Y-96324800D01*
X130086265Y-96324800D02*
X129981503Y-96229561D01*
X129981503Y-96229561D02*
X129929122Y-96039085D01*
X129929122Y-96039085D02*
X129929122Y-95705752D01*
X129929122Y-95705752D02*
X129981503Y-95515276D01*
X129981503Y-95515276D02*
X130086265Y-95420038D01*
X130086265Y-95420038D02*
X130191027Y-95372419D01*
X131029122Y-95372419D02*
X131710075Y-95372419D01*
X131710075Y-95372419D02*
X131343408Y-95753371D01*
X131343408Y-95753371D02*
X131500551Y-95753371D01*
X131500551Y-95753371D02*
X131605313Y-95800990D01*
X131605313Y-95800990D02*
X131657694Y-95848609D01*
X131657694Y-95848609D02*
X131710075Y-95943847D01*
X131710075Y-95943847D02*
X131710075Y-96181942D01*
X131710075Y-96181942D02*
X131657694Y-96277180D01*
X131657694Y-96277180D02*
X131605313Y-96324800D01*
X131605313Y-96324800D02*
X131500551Y-96372419D01*
X131500551Y-96372419D02*
X131186265Y-96372419D01*
X131186265Y-96372419D02*
X131081503Y-96324800D01*
X131081503Y-96324800D02*
X131029122Y-96277180D01*
X132705313Y-95372419D02*
X132181503Y-95372419D01*
X132181503Y-95372419D02*
X132129122Y-95848609D01*
X132129122Y-95848609D02*
X132181503Y-95800990D01*
X132181503Y-95800990D02*
X132286265Y-95753371D01*
X132286265Y-95753371D02*
X132548170Y-95753371D01*
X132548170Y-95753371D02*
X132652932Y-95800990D01*
X132652932Y-95800990D02*
X132705313Y-95848609D01*
X132705313Y-95848609D02*
X132757694Y-95943847D01*
X132757694Y-95943847D02*
X132757694Y-96181942D01*
X132757694Y-96181942D02*
X132705313Y-96277180D01*
X132705313Y-96277180D02*
X132652932Y-96324800D01*
X132652932Y-96324800D02*
X132548170Y-96372419D01*
X132548170Y-96372419D02*
X132286265Y-96372419D01*
X132286265Y-96372419D02*
X132181503Y-96324800D01*
X132181503Y-96324800D02*
X132129122Y-96277180D01*
X127833884Y-97920038D02*
X127729122Y-97872419D01*
X127729122Y-97872419D02*
X127571979Y-97872419D01*
X127571979Y-97872419D02*
X127414836Y-97920038D01*
X127414836Y-97920038D02*
X127310074Y-98015276D01*
X127310074Y-98015276D02*
X127257693Y-98110514D01*
X127257693Y-98110514D02*
X127205312Y-98300990D01*
X127205312Y-98300990D02*
X127205312Y-98443847D01*
X127205312Y-98443847D02*
X127257693Y-98634323D01*
X127257693Y-98634323D02*
X127310074Y-98729561D01*
X127310074Y-98729561D02*
X127414836Y-98824800D01*
X127414836Y-98824800D02*
X127571979Y-98872419D01*
X127571979Y-98872419D02*
X127676741Y-98872419D01*
X127676741Y-98872419D02*
X127833884Y-98824800D01*
X127833884Y-98824800D02*
X127886265Y-98777180D01*
X127886265Y-98777180D02*
X127886265Y-98443847D01*
X127886265Y-98443847D02*
X127676741Y-98443847D01*
X128357693Y-98872419D02*
X128357693Y-97872419D01*
X128357693Y-97872419D02*
X128776741Y-97872419D01*
X128776741Y-97872419D02*
X128881503Y-97920038D01*
X128881503Y-97920038D02*
X128933884Y-97967657D01*
X128933884Y-97967657D02*
X128986265Y-98062895D01*
X128986265Y-98062895D02*
X128986265Y-98205752D01*
X128986265Y-98205752D02*
X128933884Y-98300990D01*
X128933884Y-98300990D02*
X128881503Y-98348609D01*
X128881503Y-98348609D02*
X128776741Y-98396228D01*
X128776741Y-98396228D02*
X128357693Y-98396228D01*
X129457693Y-98872419D02*
X129457693Y-97872419D01*
X130191027Y-97872419D02*
X130400551Y-97872419D01*
X130400551Y-97872419D02*
X130505313Y-97920038D01*
X130505313Y-97920038D02*
X130610075Y-98015276D01*
X130610075Y-98015276D02*
X130662456Y-98205752D01*
X130662456Y-98205752D02*
X130662456Y-98539085D01*
X130662456Y-98539085D02*
X130610075Y-98729561D01*
X130610075Y-98729561D02*
X130505313Y-98824800D01*
X130505313Y-98824800D02*
X130400551Y-98872419D01*
X130400551Y-98872419D02*
X130191027Y-98872419D01*
X130191027Y-98872419D02*
X130086265Y-98824800D01*
X130086265Y-98824800D02*
X129981503Y-98729561D01*
X129981503Y-98729561D02*
X129929122Y-98539085D01*
X129929122Y-98539085D02*
X129929122Y-98205752D01*
X129929122Y-98205752D02*
X129981503Y-98015276D01*
X129981503Y-98015276D02*
X130086265Y-97920038D01*
X130086265Y-97920038D02*
X130191027Y-97872419D01*
X131029122Y-97872419D02*
X131710075Y-97872419D01*
X131710075Y-97872419D02*
X131343408Y-98253371D01*
X131343408Y-98253371D02*
X131500551Y-98253371D01*
X131500551Y-98253371D02*
X131605313Y-98300990D01*
X131605313Y-98300990D02*
X131657694Y-98348609D01*
X131657694Y-98348609D02*
X131710075Y-98443847D01*
X131710075Y-98443847D02*
X131710075Y-98681942D01*
X131710075Y-98681942D02*
X131657694Y-98777180D01*
X131657694Y-98777180D02*
X131605313Y-98824800D01*
X131605313Y-98824800D02*
X131500551Y-98872419D01*
X131500551Y-98872419D02*
X131186265Y-98872419D01*
X131186265Y-98872419D02*
X131081503Y-98824800D01*
X131081503Y-98824800D02*
X131029122Y-98777180D01*
X132129122Y-97967657D02*
X132181503Y-97920038D01*
X132181503Y-97920038D02*
X132286265Y-97872419D01*
X132286265Y-97872419D02*
X132548170Y-97872419D01*
X132548170Y-97872419D02*
X132652932Y-97920038D01*
X132652932Y-97920038D02*
X132705313Y-97967657D01*
X132705313Y-97967657D02*
X132757694Y-98062895D01*
X132757694Y-98062895D02*
X132757694Y-98158133D01*
X132757694Y-98158133D02*
X132705313Y-98300990D01*
X132705313Y-98300990D02*
X132076741Y-98872419D01*
X132076741Y-98872419D02*
X132757694Y-98872419D01*
X127833884Y-100420038D02*
X127729122Y-100372419D01*
X127729122Y-100372419D02*
X127571979Y-100372419D01*
X127571979Y-100372419D02*
X127414836Y-100420038D01*
X127414836Y-100420038D02*
X127310074Y-100515276D01*
X127310074Y-100515276D02*
X127257693Y-100610514D01*
X127257693Y-100610514D02*
X127205312Y-100800990D01*
X127205312Y-100800990D02*
X127205312Y-100943847D01*
X127205312Y-100943847D02*
X127257693Y-101134323D01*
X127257693Y-101134323D02*
X127310074Y-101229561D01*
X127310074Y-101229561D02*
X127414836Y-101324800D01*
X127414836Y-101324800D02*
X127571979Y-101372419D01*
X127571979Y-101372419D02*
X127676741Y-101372419D01*
X127676741Y-101372419D02*
X127833884Y-101324800D01*
X127833884Y-101324800D02*
X127886265Y-101277180D01*
X127886265Y-101277180D02*
X127886265Y-100943847D01*
X127886265Y-100943847D02*
X127676741Y-100943847D01*
X128357693Y-101372419D02*
X128357693Y-100372419D01*
X128357693Y-100372419D02*
X128776741Y-100372419D01*
X128776741Y-100372419D02*
X128881503Y-100420038D01*
X128881503Y-100420038D02*
X128933884Y-100467657D01*
X128933884Y-100467657D02*
X128986265Y-100562895D01*
X128986265Y-100562895D02*
X128986265Y-100705752D01*
X128986265Y-100705752D02*
X128933884Y-100800990D01*
X128933884Y-100800990D02*
X128881503Y-100848609D01*
X128881503Y-100848609D02*
X128776741Y-100896228D01*
X128776741Y-100896228D02*
X128357693Y-100896228D01*
X129457693Y-101372419D02*
X129457693Y-100372419D01*
X130191027Y-100372419D02*
X130400551Y-100372419D01*
X130400551Y-100372419D02*
X130505313Y-100420038D01*
X130505313Y-100420038D02*
X130610075Y-100515276D01*
X130610075Y-100515276D02*
X130662456Y-100705752D01*
X130662456Y-100705752D02*
X130662456Y-101039085D01*
X130662456Y-101039085D02*
X130610075Y-101229561D01*
X130610075Y-101229561D02*
X130505313Y-101324800D01*
X130505313Y-101324800D02*
X130400551Y-101372419D01*
X130400551Y-101372419D02*
X130191027Y-101372419D01*
X130191027Y-101372419D02*
X130086265Y-101324800D01*
X130086265Y-101324800D02*
X129981503Y-101229561D01*
X129981503Y-101229561D02*
X129929122Y-101039085D01*
X129929122Y-101039085D02*
X129929122Y-100705752D01*
X129929122Y-100705752D02*
X129981503Y-100515276D01*
X129981503Y-100515276D02*
X130086265Y-100420038D01*
X130086265Y-100420038D02*
X130191027Y-100372419D01*
X131029122Y-100372419D02*
X131710075Y-100372419D01*
X131710075Y-100372419D02*
X131343408Y-100753371D01*
X131343408Y-100753371D02*
X131500551Y-100753371D01*
X131500551Y-100753371D02*
X131605313Y-100800990D01*
X131605313Y-100800990D02*
X131657694Y-100848609D01*
X131657694Y-100848609D02*
X131710075Y-100943847D01*
X131710075Y-100943847D02*
X131710075Y-101181942D01*
X131710075Y-101181942D02*
X131657694Y-101277180D01*
X131657694Y-101277180D02*
X131605313Y-101324800D01*
X131605313Y-101324800D02*
X131500551Y-101372419D01*
X131500551Y-101372419D02*
X131186265Y-101372419D01*
X131186265Y-101372419D02*
X131081503Y-101324800D01*
X131081503Y-101324800D02*
X131029122Y-101277180D01*
X132076741Y-100372419D02*
X132757694Y-100372419D01*
X132757694Y-100372419D02*
X132391027Y-100753371D01*
X132391027Y-100753371D02*
X132548170Y-100753371D01*
X132548170Y-100753371D02*
X132652932Y-100800990D01*
X132652932Y-100800990D02*
X132705313Y-100848609D01*
X132705313Y-100848609D02*
X132757694Y-100943847D01*
X132757694Y-100943847D02*
X132757694Y-101181942D01*
X132757694Y-101181942D02*
X132705313Y-101277180D01*
X132705313Y-101277180D02*
X132652932Y-101324800D01*
X132652932Y-101324800D02*
X132548170Y-101372419D01*
X132548170Y-101372419D02*
X132233884Y-101372419D01*
X132233884Y-101372419D02*
X132129122Y-101324800D01*
X132129122Y-101324800D02*
X132076741Y-101277180D01*
X127833884Y-102920038D02*
X127729122Y-102872419D01*
X127729122Y-102872419D02*
X127571979Y-102872419D01*
X127571979Y-102872419D02*
X127414836Y-102920038D01*
X127414836Y-102920038D02*
X127310074Y-103015276D01*
X127310074Y-103015276D02*
X127257693Y-103110514D01*
X127257693Y-103110514D02*
X127205312Y-103300990D01*
X127205312Y-103300990D02*
X127205312Y-103443847D01*
X127205312Y-103443847D02*
X127257693Y-103634323D01*
X127257693Y-103634323D02*
X127310074Y-103729561D01*
X127310074Y-103729561D02*
X127414836Y-103824800D01*
X127414836Y-103824800D02*
X127571979Y-103872419D01*
X127571979Y-103872419D02*
X127676741Y-103872419D01*
X127676741Y-103872419D02*
X127833884Y-103824800D01*
X127833884Y-103824800D02*
X127886265Y-103777180D01*
X127886265Y-103777180D02*
X127886265Y-103443847D01*
X127886265Y-103443847D02*
X127676741Y-103443847D01*
X128357693Y-103872419D02*
X128357693Y-102872419D01*
X128357693Y-102872419D02*
X128776741Y-102872419D01*
X128776741Y-102872419D02*
X128881503Y-102920038D01*
X128881503Y-102920038D02*
X128933884Y-102967657D01*
X128933884Y-102967657D02*
X128986265Y-103062895D01*
X128986265Y-103062895D02*
X128986265Y-103205752D01*
X128986265Y-103205752D02*
X128933884Y-103300990D01*
X128933884Y-103300990D02*
X128881503Y-103348609D01*
X128881503Y-103348609D02*
X128776741Y-103396228D01*
X128776741Y-103396228D02*
X128357693Y-103396228D01*
X129457693Y-103872419D02*
X129457693Y-102872419D01*
X130191027Y-102872419D02*
X130400551Y-102872419D01*
X130400551Y-102872419D02*
X130505313Y-102920038D01*
X130505313Y-102920038D02*
X130610075Y-103015276D01*
X130610075Y-103015276D02*
X130662456Y-103205752D01*
X130662456Y-103205752D02*
X130662456Y-103539085D01*
X130662456Y-103539085D02*
X130610075Y-103729561D01*
X130610075Y-103729561D02*
X130505313Y-103824800D01*
X130505313Y-103824800D02*
X130400551Y-103872419D01*
X130400551Y-103872419D02*
X130191027Y-103872419D01*
X130191027Y-103872419D02*
X130086265Y-103824800D01*
X130086265Y-103824800D02*
X129981503Y-103729561D01*
X129981503Y-103729561D02*
X129929122Y-103539085D01*
X129929122Y-103539085D02*
X129929122Y-103205752D01*
X129929122Y-103205752D02*
X129981503Y-103015276D01*
X129981503Y-103015276D02*
X130086265Y-102920038D01*
X130086265Y-102920038D02*
X130191027Y-102872419D01*
X131081503Y-102967657D02*
X131133884Y-102920038D01*
X131133884Y-102920038D02*
X131238646Y-102872419D01*
X131238646Y-102872419D02*
X131500551Y-102872419D01*
X131500551Y-102872419D02*
X131605313Y-102920038D01*
X131605313Y-102920038D02*
X131657694Y-102967657D01*
X131657694Y-102967657D02*
X131710075Y-103062895D01*
X131710075Y-103062895D02*
X131710075Y-103158133D01*
X131710075Y-103158133D02*
X131657694Y-103300990D01*
X131657694Y-103300990D02*
X131029122Y-103872419D01*
X131029122Y-103872419D02*
X131710075Y-103872419D01*
X132705313Y-102872419D02*
X132181503Y-102872419D01*
X132181503Y-102872419D02*
X132129122Y-103348609D01*
X132129122Y-103348609D02*
X132181503Y-103300990D01*
X132181503Y-103300990D02*
X132286265Y-103253371D01*
X132286265Y-103253371D02*
X132548170Y-103253371D01*
X132548170Y-103253371D02*
X132652932Y-103300990D01*
X132652932Y-103300990D02*
X132705313Y-103348609D01*
X132705313Y-103348609D02*
X132757694Y-103443847D01*
X132757694Y-103443847D02*
X132757694Y-103681942D01*
X132757694Y-103681942D02*
X132705313Y-103777180D01*
X132705313Y-103777180D02*
X132652932Y-103824800D01*
X132652932Y-103824800D02*
X132548170Y-103872419D01*
X132548170Y-103872419D02*
X132286265Y-103872419D01*
X132286265Y-103872419D02*
X132181503Y-103824800D01*
X132181503Y-103824800D02*
X132129122Y-103777180D01*
X127833884Y-105420038D02*
X127729122Y-105372419D01*
X127729122Y-105372419D02*
X127571979Y-105372419D01*
X127571979Y-105372419D02*
X127414836Y-105420038D01*
X127414836Y-105420038D02*
X127310074Y-105515276D01*
X127310074Y-105515276D02*
X127257693Y-105610514D01*
X127257693Y-105610514D02*
X127205312Y-105800990D01*
X127205312Y-105800990D02*
X127205312Y-105943847D01*
X127205312Y-105943847D02*
X127257693Y-106134323D01*
X127257693Y-106134323D02*
X127310074Y-106229561D01*
X127310074Y-106229561D02*
X127414836Y-106324800D01*
X127414836Y-106324800D02*
X127571979Y-106372419D01*
X127571979Y-106372419D02*
X127676741Y-106372419D01*
X127676741Y-106372419D02*
X127833884Y-106324800D01*
X127833884Y-106324800D02*
X127886265Y-106277180D01*
X127886265Y-106277180D02*
X127886265Y-105943847D01*
X127886265Y-105943847D02*
X127676741Y-105943847D01*
X128357693Y-106372419D02*
X128357693Y-105372419D01*
X128357693Y-105372419D02*
X128776741Y-105372419D01*
X128776741Y-105372419D02*
X128881503Y-105420038D01*
X128881503Y-105420038D02*
X128933884Y-105467657D01*
X128933884Y-105467657D02*
X128986265Y-105562895D01*
X128986265Y-105562895D02*
X128986265Y-105705752D01*
X128986265Y-105705752D02*
X128933884Y-105800990D01*
X128933884Y-105800990D02*
X128881503Y-105848609D01*
X128881503Y-105848609D02*
X128776741Y-105896228D01*
X128776741Y-105896228D02*
X128357693Y-105896228D01*
X129457693Y-106372419D02*
X129457693Y-105372419D01*
X130191027Y-105372419D02*
X130400551Y-105372419D01*
X130400551Y-105372419D02*
X130505313Y-105420038D01*
X130505313Y-105420038D02*
X130610075Y-105515276D01*
X130610075Y-105515276D02*
X130662456Y-105705752D01*
X130662456Y-105705752D02*
X130662456Y-106039085D01*
X130662456Y-106039085D02*
X130610075Y-106229561D01*
X130610075Y-106229561D02*
X130505313Y-106324800D01*
X130505313Y-106324800D02*
X130400551Y-106372419D01*
X130400551Y-106372419D02*
X130191027Y-106372419D01*
X130191027Y-106372419D02*
X130086265Y-106324800D01*
X130086265Y-106324800D02*
X129981503Y-106229561D01*
X129981503Y-106229561D02*
X129929122Y-106039085D01*
X129929122Y-106039085D02*
X129929122Y-105705752D01*
X129929122Y-105705752D02*
X129981503Y-105515276D01*
X129981503Y-105515276D02*
X130086265Y-105420038D01*
X130086265Y-105420038D02*
X130191027Y-105372419D01*
X131081503Y-105467657D02*
X131133884Y-105420038D01*
X131133884Y-105420038D02*
X131238646Y-105372419D01*
X131238646Y-105372419D02*
X131500551Y-105372419D01*
X131500551Y-105372419D02*
X131605313Y-105420038D01*
X131605313Y-105420038D02*
X131657694Y-105467657D01*
X131657694Y-105467657D02*
X131710075Y-105562895D01*
X131710075Y-105562895D02*
X131710075Y-105658133D01*
X131710075Y-105658133D02*
X131657694Y-105800990D01*
X131657694Y-105800990D02*
X131029122Y-106372419D01*
X131029122Y-106372419D02*
X131710075Y-106372419D01*
X132652932Y-105372419D02*
X132443408Y-105372419D01*
X132443408Y-105372419D02*
X132338646Y-105420038D01*
X132338646Y-105420038D02*
X132286265Y-105467657D01*
X132286265Y-105467657D02*
X132181503Y-105610514D01*
X132181503Y-105610514D02*
X132129122Y-105800990D01*
X132129122Y-105800990D02*
X132129122Y-106181942D01*
X132129122Y-106181942D02*
X132181503Y-106277180D01*
X132181503Y-106277180D02*
X132233884Y-106324800D01*
X132233884Y-106324800D02*
X132338646Y-106372419D01*
X132338646Y-106372419D02*
X132548170Y-106372419D01*
X132548170Y-106372419D02*
X132652932Y-106324800D01*
X132652932Y-106324800D02*
X132705313Y-106277180D01*
X132705313Y-106277180D02*
X132757694Y-106181942D01*
X132757694Y-106181942D02*
X132757694Y-105943847D01*
X132757694Y-105943847D02*
X132705313Y-105848609D01*
X132705313Y-105848609D02*
X132652932Y-105800990D01*
X132652932Y-105800990D02*
X132548170Y-105753371D01*
X132548170Y-105753371D02*
X132338646Y-105753371D01*
X132338646Y-105753371D02*
X132233884Y-105800990D01*
X132233884Y-105800990D02*
X132181503Y-105848609D01*
X132181503Y-105848609D02*
X132129122Y-105943847D01*
X127833884Y-107920038D02*
X127729122Y-107872419D01*
X127729122Y-107872419D02*
X127571979Y-107872419D01*
X127571979Y-107872419D02*
X127414836Y-107920038D01*
X127414836Y-107920038D02*
X127310074Y-108015276D01*
X127310074Y-108015276D02*
X127257693Y-108110514D01*
X127257693Y-108110514D02*
X127205312Y-108300990D01*
X127205312Y-108300990D02*
X127205312Y-108443847D01*
X127205312Y-108443847D02*
X127257693Y-108634323D01*
X127257693Y-108634323D02*
X127310074Y-108729561D01*
X127310074Y-108729561D02*
X127414836Y-108824800D01*
X127414836Y-108824800D02*
X127571979Y-108872419D01*
X127571979Y-108872419D02*
X127676741Y-108872419D01*
X127676741Y-108872419D02*
X127833884Y-108824800D01*
X127833884Y-108824800D02*
X127886265Y-108777180D01*
X127886265Y-108777180D02*
X127886265Y-108443847D01*
X127886265Y-108443847D02*
X127676741Y-108443847D01*
X128357693Y-108872419D02*
X128357693Y-107872419D01*
X128357693Y-107872419D02*
X128776741Y-107872419D01*
X128776741Y-107872419D02*
X128881503Y-107920038D01*
X128881503Y-107920038D02*
X128933884Y-107967657D01*
X128933884Y-107967657D02*
X128986265Y-108062895D01*
X128986265Y-108062895D02*
X128986265Y-108205752D01*
X128986265Y-108205752D02*
X128933884Y-108300990D01*
X128933884Y-108300990D02*
X128881503Y-108348609D01*
X128881503Y-108348609D02*
X128776741Y-108396228D01*
X128776741Y-108396228D02*
X128357693Y-108396228D01*
X129457693Y-108872419D02*
X129457693Y-107872419D01*
X130191027Y-107872419D02*
X130400551Y-107872419D01*
X130400551Y-107872419D02*
X130505313Y-107920038D01*
X130505313Y-107920038D02*
X130610075Y-108015276D01*
X130610075Y-108015276D02*
X130662456Y-108205752D01*
X130662456Y-108205752D02*
X130662456Y-108539085D01*
X130662456Y-108539085D02*
X130610075Y-108729561D01*
X130610075Y-108729561D02*
X130505313Y-108824800D01*
X130505313Y-108824800D02*
X130400551Y-108872419D01*
X130400551Y-108872419D02*
X130191027Y-108872419D01*
X130191027Y-108872419D02*
X130086265Y-108824800D01*
X130086265Y-108824800D02*
X129981503Y-108729561D01*
X129981503Y-108729561D02*
X129929122Y-108539085D01*
X129929122Y-108539085D02*
X129929122Y-108205752D01*
X129929122Y-108205752D02*
X129981503Y-108015276D01*
X129981503Y-108015276D02*
X130086265Y-107920038D01*
X130086265Y-107920038D02*
X130191027Y-107872419D01*
X131081503Y-107967657D02*
X131133884Y-107920038D01*
X131133884Y-107920038D02*
X131238646Y-107872419D01*
X131238646Y-107872419D02*
X131500551Y-107872419D01*
X131500551Y-107872419D02*
X131605313Y-107920038D01*
X131605313Y-107920038D02*
X131657694Y-107967657D01*
X131657694Y-107967657D02*
X131710075Y-108062895D01*
X131710075Y-108062895D02*
X131710075Y-108158133D01*
X131710075Y-108158133D02*
X131657694Y-108300990D01*
X131657694Y-108300990D02*
X131029122Y-108872419D01*
X131029122Y-108872419D02*
X131710075Y-108872419D01*
X132076741Y-107872419D02*
X132810075Y-107872419D01*
X132810075Y-107872419D02*
X132338646Y-108872419D01*
X127833884Y-110420038D02*
X127729122Y-110372419D01*
X127729122Y-110372419D02*
X127571979Y-110372419D01*
X127571979Y-110372419D02*
X127414836Y-110420038D01*
X127414836Y-110420038D02*
X127310074Y-110515276D01*
X127310074Y-110515276D02*
X127257693Y-110610514D01*
X127257693Y-110610514D02*
X127205312Y-110800990D01*
X127205312Y-110800990D02*
X127205312Y-110943847D01*
X127205312Y-110943847D02*
X127257693Y-111134323D01*
X127257693Y-111134323D02*
X127310074Y-111229561D01*
X127310074Y-111229561D02*
X127414836Y-111324800D01*
X127414836Y-111324800D02*
X127571979Y-111372419D01*
X127571979Y-111372419D02*
X127676741Y-111372419D01*
X127676741Y-111372419D02*
X127833884Y-111324800D01*
X127833884Y-111324800D02*
X127886265Y-111277180D01*
X127886265Y-111277180D02*
X127886265Y-110943847D01*
X127886265Y-110943847D02*
X127676741Y-110943847D01*
X128357693Y-111372419D02*
X128357693Y-110372419D01*
X128357693Y-110372419D02*
X128776741Y-110372419D01*
X128776741Y-110372419D02*
X128881503Y-110420038D01*
X128881503Y-110420038D02*
X128933884Y-110467657D01*
X128933884Y-110467657D02*
X128986265Y-110562895D01*
X128986265Y-110562895D02*
X128986265Y-110705752D01*
X128986265Y-110705752D02*
X128933884Y-110800990D01*
X128933884Y-110800990D02*
X128881503Y-110848609D01*
X128881503Y-110848609D02*
X128776741Y-110896228D01*
X128776741Y-110896228D02*
X128357693Y-110896228D01*
X129457693Y-111372419D02*
X129457693Y-110372419D01*
X130191027Y-110372419D02*
X130400551Y-110372419D01*
X130400551Y-110372419D02*
X130505313Y-110420038D01*
X130505313Y-110420038D02*
X130610075Y-110515276D01*
X130610075Y-110515276D02*
X130662456Y-110705752D01*
X130662456Y-110705752D02*
X130662456Y-111039085D01*
X130662456Y-111039085D02*
X130610075Y-111229561D01*
X130610075Y-111229561D02*
X130505313Y-111324800D01*
X130505313Y-111324800D02*
X130400551Y-111372419D01*
X130400551Y-111372419D02*
X130191027Y-111372419D01*
X130191027Y-111372419D02*
X130086265Y-111324800D01*
X130086265Y-111324800D02*
X129981503Y-111229561D01*
X129981503Y-111229561D02*
X129929122Y-111039085D01*
X129929122Y-111039085D02*
X129929122Y-110705752D01*
X129929122Y-110705752D02*
X129981503Y-110515276D01*
X129981503Y-110515276D02*
X130086265Y-110420038D01*
X130086265Y-110420038D02*
X130191027Y-110372419D01*
X131710075Y-111372419D02*
X131081503Y-111372419D01*
X131395789Y-111372419D02*
X131395789Y-110372419D01*
X131395789Y-110372419D02*
X131291027Y-110515276D01*
X131291027Y-110515276D02*
X131186265Y-110610514D01*
X131186265Y-110610514D02*
X131081503Y-110658133D01*
X132652932Y-110705752D02*
X132652932Y-111372419D01*
X132391027Y-110324800D02*
X132129122Y-111039085D01*
X132129122Y-111039085D02*
X132810075Y-111039085D01*
X127833884Y-112920038D02*
X127729122Y-112872419D01*
X127729122Y-112872419D02*
X127571979Y-112872419D01*
X127571979Y-112872419D02*
X127414836Y-112920038D01*
X127414836Y-112920038D02*
X127310074Y-113015276D01*
X127310074Y-113015276D02*
X127257693Y-113110514D01*
X127257693Y-113110514D02*
X127205312Y-113300990D01*
X127205312Y-113300990D02*
X127205312Y-113443847D01*
X127205312Y-113443847D02*
X127257693Y-113634323D01*
X127257693Y-113634323D02*
X127310074Y-113729561D01*
X127310074Y-113729561D02*
X127414836Y-113824800D01*
X127414836Y-113824800D02*
X127571979Y-113872419D01*
X127571979Y-113872419D02*
X127676741Y-113872419D01*
X127676741Y-113872419D02*
X127833884Y-113824800D01*
X127833884Y-113824800D02*
X127886265Y-113777180D01*
X127886265Y-113777180D02*
X127886265Y-113443847D01*
X127886265Y-113443847D02*
X127676741Y-113443847D01*
X128357693Y-113872419D02*
X128357693Y-112872419D01*
X128357693Y-112872419D02*
X128776741Y-112872419D01*
X128776741Y-112872419D02*
X128881503Y-112920038D01*
X128881503Y-112920038D02*
X128933884Y-112967657D01*
X128933884Y-112967657D02*
X128986265Y-113062895D01*
X128986265Y-113062895D02*
X128986265Y-113205752D01*
X128986265Y-113205752D02*
X128933884Y-113300990D01*
X128933884Y-113300990D02*
X128881503Y-113348609D01*
X128881503Y-113348609D02*
X128776741Y-113396228D01*
X128776741Y-113396228D02*
X128357693Y-113396228D01*
X129457693Y-113872419D02*
X129457693Y-112872419D01*
X130191027Y-112872419D02*
X130400551Y-112872419D01*
X130400551Y-112872419D02*
X130505313Y-112920038D01*
X130505313Y-112920038D02*
X130610075Y-113015276D01*
X130610075Y-113015276D02*
X130662456Y-113205752D01*
X130662456Y-113205752D02*
X130662456Y-113539085D01*
X130662456Y-113539085D02*
X130610075Y-113729561D01*
X130610075Y-113729561D02*
X130505313Y-113824800D01*
X130505313Y-113824800D02*
X130400551Y-113872419D01*
X130400551Y-113872419D02*
X130191027Y-113872419D01*
X130191027Y-113872419D02*
X130086265Y-113824800D01*
X130086265Y-113824800D02*
X129981503Y-113729561D01*
X129981503Y-113729561D02*
X129929122Y-113539085D01*
X129929122Y-113539085D02*
X129929122Y-113205752D01*
X129929122Y-113205752D02*
X129981503Y-113015276D01*
X129981503Y-113015276D02*
X130086265Y-112920038D01*
X130086265Y-112920038D02*
X130191027Y-112872419D01*
X131710075Y-113872419D02*
X131081503Y-113872419D01*
X131395789Y-113872419D02*
X131395789Y-112872419D01*
X131395789Y-112872419D02*
X131291027Y-113015276D01*
X131291027Y-113015276D02*
X131186265Y-113110514D01*
X131186265Y-113110514D02*
X131081503Y-113158133D01*
X132129122Y-112967657D02*
X132181503Y-112920038D01*
X132181503Y-112920038D02*
X132286265Y-112872419D01*
X132286265Y-112872419D02*
X132548170Y-112872419D01*
X132548170Y-112872419D02*
X132652932Y-112920038D01*
X132652932Y-112920038D02*
X132705313Y-112967657D01*
X132705313Y-112967657D02*
X132757694Y-113062895D01*
X132757694Y-113062895D02*
X132757694Y-113158133D01*
X132757694Y-113158133D02*
X132705313Y-113300990D01*
X132705313Y-113300990D02*
X132076741Y-113872419D01*
X132076741Y-113872419D02*
X132757694Y-113872419D01*
X127833884Y-115420038D02*
X127729122Y-115372419D01*
X127729122Y-115372419D02*
X127571979Y-115372419D01*
X127571979Y-115372419D02*
X127414836Y-115420038D01*
X127414836Y-115420038D02*
X127310074Y-115515276D01*
X127310074Y-115515276D02*
X127257693Y-115610514D01*
X127257693Y-115610514D02*
X127205312Y-115800990D01*
X127205312Y-115800990D02*
X127205312Y-115943847D01*
X127205312Y-115943847D02*
X127257693Y-116134323D01*
X127257693Y-116134323D02*
X127310074Y-116229561D01*
X127310074Y-116229561D02*
X127414836Y-116324800D01*
X127414836Y-116324800D02*
X127571979Y-116372419D01*
X127571979Y-116372419D02*
X127676741Y-116372419D01*
X127676741Y-116372419D02*
X127833884Y-116324800D01*
X127833884Y-116324800D02*
X127886265Y-116277180D01*
X127886265Y-116277180D02*
X127886265Y-115943847D01*
X127886265Y-115943847D02*
X127676741Y-115943847D01*
X128357693Y-116372419D02*
X128357693Y-115372419D01*
X128357693Y-115372419D02*
X128776741Y-115372419D01*
X128776741Y-115372419D02*
X128881503Y-115420038D01*
X128881503Y-115420038D02*
X128933884Y-115467657D01*
X128933884Y-115467657D02*
X128986265Y-115562895D01*
X128986265Y-115562895D02*
X128986265Y-115705752D01*
X128986265Y-115705752D02*
X128933884Y-115800990D01*
X128933884Y-115800990D02*
X128881503Y-115848609D01*
X128881503Y-115848609D02*
X128776741Y-115896228D01*
X128776741Y-115896228D02*
X128357693Y-115896228D01*
X129457693Y-116372419D02*
X129457693Y-115372419D01*
X130191027Y-115372419D02*
X130400551Y-115372419D01*
X130400551Y-115372419D02*
X130505313Y-115420038D01*
X130505313Y-115420038D02*
X130610075Y-115515276D01*
X130610075Y-115515276D02*
X130662456Y-115705752D01*
X130662456Y-115705752D02*
X130662456Y-116039085D01*
X130662456Y-116039085D02*
X130610075Y-116229561D01*
X130610075Y-116229561D02*
X130505313Y-116324800D01*
X130505313Y-116324800D02*
X130400551Y-116372419D01*
X130400551Y-116372419D02*
X130191027Y-116372419D01*
X130191027Y-116372419D02*
X130086265Y-116324800D01*
X130086265Y-116324800D02*
X129981503Y-116229561D01*
X129981503Y-116229561D02*
X129929122Y-116039085D01*
X129929122Y-116039085D02*
X129929122Y-115705752D01*
X129929122Y-115705752D02*
X129981503Y-115515276D01*
X129981503Y-115515276D02*
X130086265Y-115420038D01*
X130086265Y-115420038D02*
X130191027Y-115372419D01*
X131710075Y-116372419D02*
X131081503Y-116372419D01*
X131395789Y-116372419D02*
X131395789Y-115372419D01*
X131395789Y-115372419D02*
X131291027Y-115515276D01*
X131291027Y-115515276D02*
X131186265Y-115610514D01*
X131186265Y-115610514D02*
X131081503Y-115658133D01*
X132076741Y-115372419D02*
X132757694Y-115372419D01*
X132757694Y-115372419D02*
X132391027Y-115753371D01*
X132391027Y-115753371D02*
X132548170Y-115753371D01*
X132548170Y-115753371D02*
X132652932Y-115800990D01*
X132652932Y-115800990D02*
X132705313Y-115848609D01*
X132705313Y-115848609D02*
X132757694Y-115943847D01*
X132757694Y-115943847D02*
X132757694Y-116181942D01*
X132757694Y-116181942D02*
X132705313Y-116277180D01*
X132705313Y-116277180D02*
X132652932Y-116324800D01*
X132652932Y-116324800D02*
X132548170Y-116372419D01*
X132548170Y-116372419D02*
X132233884Y-116372419D01*
X132233884Y-116372419D02*
X132129122Y-116324800D01*
X132129122Y-116324800D02*
X132076741Y-116277180D01*
X127833884Y-117920038D02*
X127729122Y-117872419D01*
X127729122Y-117872419D02*
X127571979Y-117872419D01*
X127571979Y-117872419D02*
X127414836Y-117920038D01*
X127414836Y-117920038D02*
X127310074Y-118015276D01*
X127310074Y-118015276D02*
X127257693Y-118110514D01*
X127257693Y-118110514D02*
X127205312Y-118300990D01*
X127205312Y-118300990D02*
X127205312Y-118443847D01*
X127205312Y-118443847D02*
X127257693Y-118634323D01*
X127257693Y-118634323D02*
X127310074Y-118729561D01*
X127310074Y-118729561D02*
X127414836Y-118824800D01*
X127414836Y-118824800D02*
X127571979Y-118872419D01*
X127571979Y-118872419D02*
X127676741Y-118872419D01*
X127676741Y-118872419D02*
X127833884Y-118824800D01*
X127833884Y-118824800D02*
X127886265Y-118777180D01*
X127886265Y-118777180D02*
X127886265Y-118443847D01*
X127886265Y-118443847D02*
X127676741Y-118443847D01*
X128357693Y-118872419D02*
X128357693Y-117872419D01*
X128357693Y-117872419D02*
X128986265Y-118872419D01*
X128986265Y-118872419D02*
X128986265Y-117872419D01*
X129510074Y-118872419D02*
X129510074Y-117872419D01*
X129510074Y-117872419D02*
X129771979Y-117872419D01*
X129771979Y-117872419D02*
X129929122Y-117920038D01*
X129929122Y-117920038D02*
X130033884Y-118015276D01*
X130033884Y-118015276D02*
X130086265Y-118110514D01*
X130086265Y-118110514D02*
X130138646Y-118300990D01*
X130138646Y-118300990D02*
X130138646Y-118443847D01*
X130138646Y-118443847D02*
X130086265Y-118634323D01*
X130086265Y-118634323D02*
X130033884Y-118729561D01*
X130033884Y-118729561D02*
X129929122Y-118824800D01*
X129929122Y-118824800D02*
X129771979Y-118872419D01*
X129771979Y-118872419D02*
X129510074Y-118872419D01*
X127600550Y-120372419D02*
X127967217Y-121372419D01*
X127967217Y-121372419D02*
X128333884Y-120372419D01*
X128700550Y-121372419D02*
X128700550Y-120372419D01*
X129224360Y-121372419D02*
X129224360Y-120372419D01*
X129224360Y-120372419D02*
X129852932Y-121372419D01*
X129852932Y-121372419D02*
X129852932Y-120372419D01*
X137543884Y-125885330D02*
X137543884Y-126694853D01*
X137543884Y-126694853D02*
X137591503Y-126790091D01*
X137591503Y-126790091D02*
X137639122Y-126837711D01*
X137639122Y-126837711D02*
X137734360Y-126885330D01*
X137734360Y-126885330D02*
X137924836Y-126885330D01*
X137924836Y-126885330D02*
X138020074Y-126837711D01*
X138020074Y-126837711D02*
X138067693Y-126790091D01*
X138067693Y-126790091D02*
X138115312Y-126694853D01*
X138115312Y-126694853D02*
X138115312Y-125885330D01*
X138543884Y-126837711D02*
X138686741Y-126885330D01*
X138686741Y-126885330D02*
X138924836Y-126885330D01*
X138924836Y-126885330D02*
X139020074Y-126837711D01*
X139020074Y-126837711D02*
X139067693Y-126790091D01*
X139067693Y-126790091D02*
X139115312Y-126694853D01*
X139115312Y-126694853D02*
X139115312Y-126599615D01*
X139115312Y-126599615D02*
X139067693Y-126504377D01*
X139067693Y-126504377D02*
X139020074Y-126456758D01*
X139020074Y-126456758D02*
X138924836Y-126409139D01*
X138924836Y-126409139D02*
X138734360Y-126361520D01*
X138734360Y-126361520D02*
X138639122Y-126313901D01*
X138639122Y-126313901D02*
X138591503Y-126266282D01*
X138591503Y-126266282D02*
X138543884Y-126171044D01*
X138543884Y-126171044D02*
X138543884Y-126075806D01*
X138543884Y-126075806D02*
X138591503Y-125980568D01*
X138591503Y-125980568D02*
X138639122Y-125932949D01*
X138639122Y-125932949D02*
X138734360Y-125885330D01*
X138734360Y-125885330D02*
X138972455Y-125885330D01*
X138972455Y-125885330D02*
X139115312Y-125932949D01*
X139877217Y-126361520D02*
X140020074Y-126409139D01*
X140020074Y-126409139D02*
X140067693Y-126456758D01*
X140067693Y-126456758D02*
X140115312Y-126551996D01*
X140115312Y-126551996D02*
X140115312Y-126694853D01*
X140115312Y-126694853D02*
X140067693Y-126790091D01*
X140067693Y-126790091D02*
X140020074Y-126837711D01*
X140020074Y-126837711D02*
X139924836Y-126885330D01*
X139924836Y-126885330D02*
X139543884Y-126885330D01*
X139543884Y-126885330D02*
X139543884Y-125885330D01*
X139543884Y-125885330D02*
X139877217Y-125885330D01*
X139877217Y-125885330D02*
X139972455Y-125932949D01*
X139972455Y-125932949D02*
X140020074Y-125980568D01*
X140020074Y-125980568D02*
X140067693Y-126075806D01*
X140067693Y-126075806D02*
X140067693Y-126171044D01*
X140067693Y-126171044D02*
X140020074Y-126266282D01*
X140020074Y-126266282D02*
X139972455Y-126313901D01*
X139972455Y-126313901D02*
X139877217Y-126361520D01*
X139877217Y-126361520D02*
X139543884Y-126361520D01*
X145333884Y-84920038D02*
X145229122Y-84872419D01*
X145229122Y-84872419D02*
X145071979Y-84872419D01*
X145071979Y-84872419D02*
X144914836Y-84920038D01*
X144914836Y-84920038D02*
X144810074Y-85015276D01*
X144810074Y-85015276D02*
X144757693Y-85110514D01*
X144757693Y-85110514D02*
X144705312Y-85300990D01*
X144705312Y-85300990D02*
X144705312Y-85443847D01*
X144705312Y-85443847D02*
X144757693Y-85634323D01*
X144757693Y-85634323D02*
X144810074Y-85729561D01*
X144810074Y-85729561D02*
X144914836Y-85824800D01*
X144914836Y-85824800D02*
X145071979Y-85872419D01*
X145071979Y-85872419D02*
X145176741Y-85872419D01*
X145176741Y-85872419D02*
X145333884Y-85824800D01*
X145333884Y-85824800D02*
X145386265Y-85777180D01*
X145386265Y-85777180D02*
X145386265Y-85443847D01*
X145386265Y-85443847D02*
X145176741Y-85443847D01*
X145857693Y-85872419D02*
X145857693Y-84872419D01*
X145857693Y-84872419D02*
X146276741Y-84872419D01*
X146276741Y-84872419D02*
X146381503Y-84920038D01*
X146381503Y-84920038D02*
X146433884Y-84967657D01*
X146433884Y-84967657D02*
X146486265Y-85062895D01*
X146486265Y-85062895D02*
X146486265Y-85205752D01*
X146486265Y-85205752D02*
X146433884Y-85300990D01*
X146433884Y-85300990D02*
X146381503Y-85348609D01*
X146381503Y-85348609D02*
X146276741Y-85396228D01*
X146276741Y-85396228D02*
X145857693Y-85396228D01*
X146957693Y-85872419D02*
X146957693Y-84872419D01*
X147691027Y-84872419D02*
X147900551Y-84872419D01*
X147900551Y-84872419D02*
X148005313Y-84920038D01*
X148005313Y-84920038D02*
X148110075Y-85015276D01*
X148110075Y-85015276D02*
X148162456Y-85205752D01*
X148162456Y-85205752D02*
X148162456Y-85539085D01*
X148162456Y-85539085D02*
X148110075Y-85729561D01*
X148110075Y-85729561D02*
X148005313Y-85824800D01*
X148005313Y-85824800D02*
X147900551Y-85872419D01*
X147900551Y-85872419D02*
X147691027Y-85872419D01*
X147691027Y-85872419D02*
X147586265Y-85824800D01*
X147586265Y-85824800D02*
X147481503Y-85729561D01*
X147481503Y-85729561D02*
X147429122Y-85539085D01*
X147429122Y-85539085D02*
X147429122Y-85205752D01*
X147429122Y-85205752D02*
X147481503Y-85015276D01*
X147481503Y-85015276D02*
X147586265Y-84920038D01*
X147586265Y-84920038D02*
X147691027Y-84872419D01*
X148581503Y-84967657D02*
X148633884Y-84920038D01*
X148633884Y-84920038D02*
X148738646Y-84872419D01*
X148738646Y-84872419D02*
X149000551Y-84872419D01*
X149000551Y-84872419D02*
X149105313Y-84920038D01*
X149105313Y-84920038D02*
X149157694Y-84967657D01*
X149157694Y-84967657D02*
X149210075Y-85062895D01*
X149210075Y-85062895D02*
X149210075Y-85158133D01*
X149210075Y-85158133D02*
X149157694Y-85300990D01*
X149157694Y-85300990D02*
X148529122Y-85872419D01*
X148529122Y-85872419D02*
X149210075Y-85872419D01*
X149576741Y-84872419D02*
X150257694Y-84872419D01*
X150257694Y-84872419D02*
X149891027Y-85253371D01*
X149891027Y-85253371D02*
X150048170Y-85253371D01*
X150048170Y-85253371D02*
X150152932Y-85300990D01*
X150152932Y-85300990D02*
X150205313Y-85348609D01*
X150205313Y-85348609D02*
X150257694Y-85443847D01*
X150257694Y-85443847D02*
X150257694Y-85681942D01*
X150257694Y-85681942D02*
X150205313Y-85777180D01*
X150205313Y-85777180D02*
X150152932Y-85824800D01*
X150152932Y-85824800D02*
X150048170Y-85872419D01*
X150048170Y-85872419D02*
X149733884Y-85872419D01*
X149733884Y-85872419D02*
X149629122Y-85824800D01*
X149629122Y-85824800D02*
X149576741Y-85777180D01*
X145333884Y-87420038D02*
X145229122Y-87372419D01*
X145229122Y-87372419D02*
X145071979Y-87372419D01*
X145071979Y-87372419D02*
X144914836Y-87420038D01*
X144914836Y-87420038D02*
X144810074Y-87515276D01*
X144810074Y-87515276D02*
X144757693Y-87610514D01*
X144757693Y-87610514D02*
X144705312Y-87800990D01*
X144705312Y-87800990D02*
X144705312Y-87943847D01*
X144705312Y-87943847D02*
X144757693Y-88134323D01*
X144757693Y-88134323D02*
X144810074Y-88229561D01*
X144810074Y-88229561D02*
X144914836Y-88324800D01*
X144914836Y-88324800D02*
X145071979Y-88372419D01*
X145071979Y-88372419D02*
X145176741Y-88372419D01*
X145176741Y-88372419D02*
X145333884Y-88324800D01*
X145333884Y-88324800D02*
X145386265Y-88277180D01*
X145386265Y-88277180D02*
X145386265Y-87943847D01*
X145386265Y-87943847D02*
X145176741Y-87943847D01*
X145857693Y-88372419D02*
X145857693Y-87372419D01*
X145857693Y-87372419D02*
X146276741Y-87372419D01*
X146276741Y-87372419D02*
X146381503Y-87420038D01*
X146381503Y-87420038D02*
X146433884Y-87467657D01*
X146433884Y-87467657D02*
X146486265Y-87562895D01*
X146486265Y-87562895D02*
X146486265Y-87705752D01*
X146486265Y-87705752D02*
X146433884Y-87800990D01*
X146433884Y-87800990D02*
X146381503Y-87848609D01*
X146381503Y-87848609D02*
X146276741Y-87896228D01*
X146276741Y-87896228D02*
X145857693Y-87896228D01*
X146957693Y-88372419D02*
X146957693Y-87372419D01*
X147691027Y-87372419D02*
X147900551Y-87372419D01*
X147900551Y-87372419D02*
X148005313Y-87420038D01*
X148005313Y-87420038D02*
X148110075Y-87515276D01*
X148110075Y-87515276D02*
X148162456Y-87705752D01*
X148162456Y-87705752D02*
X148162456Y-88039085D01*
X148162456Y-88039085D02*
X148110075Y-88229561D01*
X148110075Y-88229561D02*
X148005313Y-88324800D01*
X148005313Y-88324800D02*
X147900551Y-88372419D01*
X147900551Y-88372419D02*
X147691027Y-88372419D01*
X147691027Y-88372419D02*
X147586265Y-88324800D01*
X147586265Y-88324800D02*
X147481503Y-88229561D01*
X147481503Y-88229561D02*
X147429122Y-88039085D01*
X147429122Y-88039085D02*
X147429122Y-87705752D01*
X147429122Y-87705752D02*
X147481503Y-87515276D01*
X147481503Y-87515276D02*
X147586265Y-87420038D01*
X147586265Y-87420038D02*
X147691027Y-87372419D01*
X148581503Y-87467657D02*
X148633884Y-87420038D01*
X148633884Y-87420038D02*
X148738646Y-87372419D01*
X148738646Y-87372419D02*
X149000551Y-87372419D01*
X149000551Y-87372419D02*
X149105313Y-87420038D01*
X149105313Y-87420038D02*
X149157694Y-87467657D01*
X149157694Y-87467657D02*
X149210075Y-87562895D01*
X149210075Y-87562895D02*
X149210075Y-87658133D01*
X149210075Y-87658133D02*
X149157694Y-87800990D01*
X149157694Y-87800990D02*
X148529122Y-88372419D01*
X148529122Y-88372419D02*
X149210075Y-88372419D01*
X149629122Y-87467657D02*
X149681503Y-87420038D01*
X149681503Y-87420038D02*
X149786265Y-87372419D01*
X149786265Y-87372419D02*
X150048170Y-87372419D01*
X150048170Y-87372419D02*
X150152932Y-87420038D01*
X150152932Y-87420038D02*
X150205313Y-87467657D01*
X150205313Y-87467657D02*
X150257694Y-87562895D01*
X150257694Y-87562895D02*
X150257694Y-87658133D01*
X150257694Y-87658133D02*
X150205313Y-87800990D01*
X150205313Y-87800990D02*
X149576741Y-88372419D01*
X149576741Y-88372419D02*
X150257694Y-88372419D01*
X145333884Y-95420038D02*
X145229122Y-95372419D01*
X145229122Y-95372419D02*
X145071979Y-95372419D01*
X145071979Y-95372419D02*
X144914836Y-95420038D01*
X144914836Y-95420038D02*
X144810074Y-95515276D01*
X144810074Y-95515276D02*
X144757693Y-95610514D01*
X144757693Y-95610514D02*
X144705312Y-95800990D01*
X144705312Y-95800990D02*
X144705312Y-95943847D01*
X144705312Y-95943847D02*
X144757693Y-96134323D01*
X144757693Y-96134323D02*
X144810074Y-96229561D01*
X144810074Y-96229561D02*
X144914836Y-96324800D01*
X144914836Y-96324800D02*
X145071979Y-96372419D01*
X145071979Y-96372419D02*
X145176741Y-96372419D01*
X145176741Y-96372419D02*
X145333884Y-96324800D01*
X145333884Y-96324800D02*
X145386265Y-96277180D01*
X145386265Y-96277180D02*
X145386265Y-95943847D01*
X145386265Y-95943847D02*
X145176741Y-95943847D01*
X145857693Y-96372419D02*
X145857693Y-95372419D01*
X145857693Y-95372419D02*
X146276741Y-95372419D01*
X146276741Y-95372419D02*
X146381503Y-95420038D01*
X146381503Y-95420038D02*
X146433884Y-95467657D01*
X146433884Y-95467657D02*
X146486265Y-95562895D01*
X146486265Y-95562895D02*
X146486265Y-95705752D01*
X146486265Y-95705752D02*
X146433884Y-95800990D01*
X146433884Y-95800990D02*
X146381503Y-95848609D01*
X146381503Y-95848609D02*
X146276741Y-95896228D01*
X146276741Y-95896228D02*
X145857693Y-95896228D01*
X146957693Y-96372419D02*
X146957693Y-95372419D01*
X147691027Y-95372419D02*
X147900551Y-95372419D01*
X147900551Y-95372419D02*
X148005313Y-95420038D01*
X148005313Y-95420038D02*
X148110075Y-95515276D01*
X148110075Y-95515276D02*
X148162456Y-95705752D01*
X148162456Y-95705752D02*
X148162456Y-96039085D01*
X148162456Y-96039085D02*
X148110075Y-96229561D01*
X148110075Y-96229561D02*
X148005313Y-96324800D01*
X148005313Y-96324800D02*
X147900551Y-96372419D01*
X147900551Y-96372419D02*
X147691027Y-96372419D01*
X147691027Y-96372419D02*
X147586265Y-96324800D01*
X147586265Y-96324800D02*
X147481503Y-96229561D01*
X147481503Y-96229561D02*
X147429122Y-96039085D01*
X147429122Y-96039085D02*
X147429122Y-95705752D01*
X147429122Y-95705752D02*
X147481503Y-95515276D01*
X147481503Y-95515276D02*
X147586265Y-95420038D01*
X147586265Y-95420038D02*
X147691027Y-95372419D01*
X148581503Y-95467657D02*
X148633884Y-95420038D01*
X148633884Y-95420038D02*
X148738646Y-95372419D01*
X148738646Y-95372419D02*
X149000551Y-95372419D01*
X149000551Y-95372419D02*
X149105313Y-95420038D01*
X149105313Y-95420038D02*
X149157694Y-95467657D01*
X149157694Y-95467657D02*
X149210075Y-95562895D01*
X149210075Y-95562895D02*
X149210075Y-95658133D01*
X149210075Y-95658133D02*
X149157694Y-95800990D01*
X149157694Y-95800990D02*
X148529122Y-96372419D01*
X148529122Y-96372419D02*
X149210075Y-96372419D01*
X150257694Y-96372419D02*
X149629122Y-96372419D01*
X149943408Y-96372419D02*
X149943408Y-95372419D01*
X149943408Y-95372419D02*
X149838646Y-95515276D01*
X149838646Y-95515276D02*
X149733884Y-95610514D01*
X149733884Y-95610514D02*
X149629122Y-95658133D01*
X145333884Y-97920038D02*
X145229122Y-97872419D01*
X145229122Y-97872419D02*
X145071979Y-97872419D01*
X145071979Y-97872419D02*
X144914836Y-97920038D01*
X144914836Y-97920038D02*
X144810074Y-98015276D01*
X144810074Y-98015276D02*
X144757693Y-98110514D01*
X144757693Y-98110514D02*
X144705312Y-98300990D01*
X144705312Y-98300990D02*
X144705312Y-98443847D01*
X144705312Y-98443847D02*
X144757693Y-98634323D01*
X144757693Y-98634323D02*
X144810074Y-98729561D01*
X144810074Y-98729561D02*
X144914836Y-98824800D01*
X144914836Y-98824800D02*
X145071979Y-98872419D01*
X145071979Y-98872419D02*
X145176741Y-98872419D01*
X145176741Y-98872419D02*
X145333884Y-98824800D01*
X145333884Y-98824800D02*
X145386265Y-98777180D01*
X145386265Y-98777180D02*
X145386265Y-98443847D01*
X145386265Y-98443847D02*
X145176741Y-98443847D01*
X145857693Y-98872419D02*
X145857693Y-97872419D01*
X145857693Y-97872419D02*
X146276741Y-97872419D01*
X146276741Y-97872419D02*
X146381503Y-97920038D01*
X146381503Y-97920038D02*
X146433884Y-97967657D01*
X146433884Y-97967657D02*
X146486265Y-98062895D01*
X146486265Y-98062895D02*
X146486265Y-98205752D01*
X146486265Y-98205752D02*
X146433884Y-98300990D01*
X146433884Y-98300990D02*
X146381503Y-98348609D01*
X146381503Y-98348609D02*
X146276741Y-98396228D01*
X146276741Y-98396228D02*
X145857693Y-98396228D01*
X146957693Y-98872419D02*
X146957693Y-97872419D01*
X147691027Y-97872419D02*
X147900551Y-97872419D01*
X147900551Y-97872419D02*
X148005313Y-97920038D01*
X148005313Y-97920038D02*
X148110075Y-98015276D01*
X148110075Y-98015276D02*
X148162456Y-98205752D01*
X148162456Y-98205752D02*
X148162456Y-98539085D01*
X148162456Y-98539085D02*
X148110075Y-98729561D01*
X148110075Y-98729561D02*
X148005313Y-98824800D01*
X148005313Y-98824800D02*
X147900551Y-98872419D01*
X147900551Y-98872419D02*
X147691027Y-98872419D01*
X147691027Y-98872419D02*
X147586265Y-98824800D01*
X147586265Y-98824800D02*
X147481503Y-98729561D01*
X147481503Y-98729561D02*
X147429122Y-98539085D01*
X147429122Y-98539085D02*
X147429122Y-98205752D01*
X147429122Y-98205752D02*
X147481503Y-98015276D01*
X147481503Y-98015276D02*
X147586265Y-97920038D01*
X147586265Y-97920038D02*
X147691027Y-97872419D01*
X149210075Y-98872419D02*
X148581503Y-98872419D01*
X148895789Y-98872419D02*
X148895789Y-97872419D01*
X148895789Y-97872419D02*
X148791027Y-98015276D01*
X148791027Y-98015276D02*
X148686265Y-98110514D01*
X148686265Y-98110514D02*
X148581503Y-98158133D01*
X149733884Y-98872419D02*
X149943408Y-98872419D01*
X149943408Y-98872419D02*
X150048170Y-98824800D01*
X150048170Y-98824800D02*
X150100551Y-98777180D01*
X150100551Y-98777180D02*
X150205313Y-98634323D01*
X150205313Y-98634323D02*
X150257694Y-98443847D01*
X150257694Y-98443847D02*
X150257694Y-98062895D01*
X150257694Y-98062895D02*
X150205313Y-97967657D01*
X150205313Y-97967657D02*
X150152932Y-97920038D01*
X150152932Y-97920038D02*
X150048170Y-97872419D01*
X150048170Y-97872419D02*
X149838646Y-97872419D01*
X149838646Y-97872419D02*
X149733884Y-97920038D01*
X149733884Y-97920038D02*
X149681503Y-97967657D01*
X149681503Y-97967657D02*
X149629122Y-98062895D01*
X149629122Y-98062895D02*
X149629122Y-98300990D01*
X149629122Y-98300990D02*
X149681503Y-98396228D01*
X149681503Y-98396228D02*
X149733884Y-98443847D01*
X149733884Y-98443847D02*
X149838646Y-98491466D01*
X149838646Y-98491466D02*
X150048170Y-98491466D01*
X150048170Y-98491466D02*
X150152932Y-98443847D01*
X150152932Y-98443847D02*
X150205313Y-98396228D01*
X150205313Y-98396228D02*
X150257694Y-98300990D01*
X145333884Y-100420038D02*
X145229122Y-100372419D01*
X145229122Y-100372419D02*
X145071979Y-100372419D01*
X145071979Y-100372419D02*
X144914836Y-100420038D01*
X144914836Y-100420038D02*
X144810074Y-100515276D01*
X144810074Y-100515276D02*
X144757693Y-100610514D01*
X144757693Y-100610514D02*
X144705312Y-100800990D01*
X144705312Y-100800990D02*
X144705312Y-100943847D01*
X144705312Y-100943847D02*
X144757693Y-101134323D01*
X144757693Y-101134323D02*
X144810074Y-101229561D01*
X144810074Y-101229561D02*
X144914836Y-101324800D01*
X144914836Y-101324800D02*
X145071979Y-101372419D01*
X145071979Y-101372419D02*
X145176741Y-101372419D01*
X145176741Y-101372419D02*
X145333884Y-101324800D01*
X145333884Y-101324800D02*
X145386265Y-101277180D01*
X145386265Y-101277180D02*
X145386265Y-100943847D01*
X145386265Y-100943847D02*
X145176741Y-100943847D01*
X145857693Y-101372419D02*
X145857693Y-100372419D01*
X145857693Y-100372419D02*
X146276741Y-100372419D01*
X146276741Y-100372419D02*
X146381503Y-100420038D01*
X146381503Y-100420038D02*
X146433884Y-100467657D01*
X146433884Y-100467657D02*
X146486265Y-100562895D01*
X146486265Y-100562895D02*
X146486265Y-100705752D01*
X146486265Y-100705752D02*
X146433884Y-100800990D01*
X146433884Y-100800990D02*
X146381503Y-100848609D01*
X146381503Y-100848609D02*
X146276741Y-100896228D01*
X146276741Y-100896228D02*
X145857693Y-100896228D01*
X146957693Y-101372419D02*
X146957693Y-100372419D01*
X147691027Y-100372419D02*
X147900551Y-100372419D01*
X147900551Y-100372419D02*
X148005313Y-100420038D01*
X148005313Y-100420038D02*
X148110075Y-100515276D01*
X148110075Y-100515276D02*
X148162456Y-100705752D01*
X148162456Y-100705752D02*
X148162456Y-101039085D01*
X148162456Y-101039085D02*
X148110075Y-101229561D01*
X148110075Y-101229561D02*
X148005313Y-101324800D01*
X148005313Y-101324800D02*
X147900551Y-101372419D01*
X147900551Y-101372419D02*
X147691027Y-101372419D01*
X147691027Y-101372419D02*
X147586265Y-101324800D01*
X147586265Y-101324800D02*
X147481503Y-101229561D01*
X147481503Y-101229561D02*
X147429122Y-101039085D01*
X147429122Y-101039085D02*
X147429122Y-100705752D01*
X147429122Y-100705752D02*
X147481503Y-100515276D01*
X147481503Y-100515276D02*
X147586265Y-100420038D01*
X147586265Y-100420038D02*
X147691027Y-100372419D01*
X149210075Y-101372419D02*
X148581503Y-101372419D01*
X148895789Y-101372419D02*
X148895789Y-100372419D01*
X148895789Y-100372419D02*
X148791027Y-100515276D01*
X148791027Y-100515276D02*
X148686265Y-100610514D01*
X148686265Y-100610514D02*
X148581503Y-100658133D01*
X149838646Y-100800990D02*
X149733884Y-100753371D01*
X149733884Y-100753371D02*
X149681503Y-100705752D01*
X149681503Y-100705752D02*
X149629122Y-100610514D01*
X149629122Y-100610514D02*
X149629122Y-100562895D01*
X149629122Y-100562895D02*
X149681503Y-100467657D01*
X149681503Y-100467657D02*
X149733884Y-100420038D01*
X149733884Y-100420038D02*
X149838646Y-100372419D01*
X149838646Y-100372419D02*
X150048170Y-100372419D01*
X150048170Y-100372419D02*
X150152932Y-100420038D01*
X150152932Y-100420038D02*
X150205313Y-100467657D01*
X150205313Y-100467657D02*
X150257694Y-100562895D01*
X150257694Y-100562895D02*
X150257694Y-100610514D01*
X150257694Y-100610514D02*
X150205313Y-100705752D01*
X150205313Y-100705752D02*
X150152932Y-100753371D01*
X150152932Y-100753371D02*
X150048170Y-100800990D01*
X150048170Y-100800990D02*
X149838646Y-100800990D01*
X149838646Y-100800990D02*
X149733884Y-100848609D01*
X149733884Y-100848609D02*
X149681503Y-100896228D01*
X149681503Y-100896228D02*
X149629122Y-100991466D01*
X149629122Y-100991466D02*
X149629122Y-101181942D01*
X149629122Y-101181942D02*
X149681503Y-101277180D01*
X149681503Y-101277180D02*
X149733884Y-101324800D01*
X149733884Y-101324800D02*
X149838646Y-101372419D01*
X149838646Y-101372419D02*
X150048170Y-101372419D01*
X150048170Y-101372419D02*
X150152932Y-101324800D01*
X150152932Y-101324800D02*
X150205313Y-101277180D01*
X150205313Y-101277180D02*
X150257694Y-101181942D01*
X150257694Y-101181942D02*
X150257694Y-100991466D01*
X150257694Y-100991466D02*
X150205313Y-100896228D01*
X150205313Y-100896228D02*
X150152932Y-100848609D01*
X150152932Y-100848609D02*
X150048170Y-100800990D01*
X145333884Y-105420038D02*
X145229122Y-105372419D01*
X145229122Y-105372419D02*
X145071979Y-105372419D01*
X145071979Y-105372419D02*
X144914836Y-105420038D01*
X144914836Y-105420038D02*
X144810074Y-105515276D01*
X144810074Y-105515276D02*
X144757693Y-105610514D01*
X144757693Y-105610514D02*
X144705312Y-105800990D01*
X144705312Y-105800990D02*
X144705312Y-105943847D01*
X144705312Y-105943847D02*
X144757693Y-106134323D01*
X144757693Y-106134323D02*
X144810074Y-106229561D01*
X144810074Y-106229561D02*
X144914836Y-106324800D01*
X144914836Y-106324800D02*
X145071979Y-106372419D01*
X145071979Y-106372419D02*
X145176741Y-106372419D01*
X145176741Y-106372419D02*
X145333884Y-106324800D01*
X145333884Y-106324800D02*
X145386265Y-106277180D01*
X145386265Y-106277180D02*
X145386265Y-105943847D01*
X145386265Y-105943847D02*
X145176741Y-105943847D01*
X145857693Y-106372419D02*
X145857693Y-105372419D01*
X145857693Y-105372419D02*
X146276741Y-105372419D01*
X146276741Y-105372419D02*
X146381503Y-105420038D01*
X146381503Y-105420038D02*
X146433884Y-105467657D01*
X146433884Y-105467657D02*
X146486265Y-105562895D01*
X146486265Y-105562895D02*
X146486265Y-105705752D01*
X146486265Y-105705752D02*
X146433884Y-105800990D01*
X146433884Y-105800990D02*
X146381503Y-105848609D01*
X146381503Y-105848609D02*
X146276741Y-105896228D01*
X146276741Y-105896228D02*
X145857693Y-105896228D01*
X146957693Y-106372419D02*
X146957693Y-105372419D01*
X147691027Y-105372419D02*
X147900551Y-105372419D01*
X147900551Y-105372419D02*
X148005313Y-105420038D01*
X148005313Y-105420038D02*
X148110075Y-105515276D01*
X148110075Y-105515276D02*
X148162456Y-105705752D01*
X148162456Y-105705752D02*
X148162456Y-106039085D01*
X148162456Y-106039085D02*
X148110075Y-106229561D01*
X148110075Y-106229561D02*
X148005313Y-106324800D01*
X148005313Y-106324800D02*
X147900551Y-106372419D01*
X147900551Y-106372419D02*
X147691027Y-106372419D01*
X147691027Y-106372419D02*
X147586265Y-106324800D01*
X147586265Y-106324800D02*
X147481503Y-106229561D01*
X147481503Y-106229561D02*
X147429122Y-106039085D01*
X147429122Y-106039085D02*
X147429122Y-105705752D01*
X147429122Y-105705752D02*
X147481503Y-105515276D01*
X147481503Y-105515276D02*
X147586265Y-105420038D01*
X147586265Y-105420038D02*
X147691027Y-105372419D01*
X149210075Y-106372419D02*
X148581503Y-106372419D01*
X148895789Y-106372419D02*
X148895789Y-105372419D01*
X148895789Y-105372419D02*
X148791027Y-105515276D01*
X148791027Y-105515276D02*
X148686265Y-105610514D01*
X148686265Y-105610514D02*
X148581503Y-105658133D01*
X149576741Y-105372419D02*
X150310075Y-105372419D01*
X150310075Y-105372419D02*
X149838646Y-106372419D01*
X145333884Y-107920038D02*
X145229122Y-107872419D01*
X145229122Y-107872419D02*
X145071979Y-107872419D01*
X145071979Y-107872419D02*
X144914836Y-107920038D01*
X144914836Y-107920038D02*
X144810074Y-108015276D01*
X144810074Y-108015276D02*
X144757693Y-108110514D01*
X144757693Y-108110514D02*
X144705312Y-108300990D01*
X144705312Y-108300990D02*
X144705312Y-108443847D01*
X144705312Y-108443847D02*
X144757693Y-108634323D01*
X144757693Y-108634323D02*
X144810074Y-108729561D01*
X144810074Y-108729561D02*
X144914836Y-108824800D01*
X144914836Y-108824800D02*
X145071979Y-108872419D01*
X145071979Y-108872419D02*
X145176741Y-108872419D01*
X145176741Y-108872419D02*
X145333884Y-108824800D01*
X145333884Y-108824800D02*
X145386265Y-108777180D01*
X145386265Y-108777180D02*
X145386265Y-108443847D01*
X145386265Y-108443847D02*
X145176741Y-108443847D01*
X145857693Y-108872419D02*
X145857693Y-107872419D01*
X145857693Y-107872419D02*
X146276741Y-107872419D01*
X146276741Y-107872419D02*
X146381503Y-107920038D01*
X146381503Y-107920038D02*
X146433884Y-107967657D01*
X146433884Y-107967657D02*
X146486265Y-108062895D01*
X146486265Y-108062895D02*
X146486265Y-108205752D01*
X146486265Y-108205752D02*
X146433884Y-108300990D01*
X146433884Y-108300990D02*
X146381503Y-108348609D01*
X146381503Y-108348609D02*
X146276741Y-108396228D01*
X146276741Y-108396228D02*
X145857693Y-108396228D01*
X146957693Y-108872419D02*
X146957693Y-107872419D01*
X147691027Y-107872419D02*
X147900551Y-107872419D01*
X147900551Y-107872419D02*
X148005313Y-107920038D01*
X148005313Y-107920038D02*
X148110075Y-108015276D01*
X148110075Y-108015276D02*
X148162456Y-108205752D01*
X148162456Y-108205752D02*
X148162456Y-108539085D01*
X148162456Y-108539085D02*
X148110075Y-108729561D01*
X148110075Y-108729561D02*
X148005313Y-108824800D01*
X148005313Y-108824800D02*
X147900551Y-108872419D01*
X147900551Y-108872419D02*
X147691027Y-108872419D01*
X147691027Y-108872419D02*
X147586265Y-108824800D01*
X147586265Y-108824800D02*
X147481503Y-108729561D01*
X147481503Y-108729561D02*
X147429122Y-108539085D01*
X147429122Y-108539085D02*
X147429122Y-108205752D01*
X147429122Y-108205752D02*
X147481503Y-108015276D01*
X147481503Y-108015276D02*
X147586265Y-107920038D01*
X147586265Y-107920038D02*
X147691027Y-107872419D01*
X149210075Y-108872419D02*
X148581503Y-108872419D01*
X148895789Y-108872419D02*
X148895789Y-107872419D01*
X148895789Y-107872419D02*
X148791027Y-108015276D01*
X148791027Y-108015276D02*
X148686265Y-108110514D01*
X148686265Y-108110514D02*
X148581503Y-108158133D01*
X150152932Y-107872419D02*
X149943408Y-107872419D01*
X149943408Y-107872419D02*
X149838646Y-107920038D01*
X149838646Y-107920038D02*
X149786265Y-107967657D01*
X149786265Y-107967657D02*
X149681503Y-108110514D01*
X149681503Y-108110514D02*
X149629122Y-108300990D01*
X149629122Y-108300990D02*
X149629122Y-108681942D01*
X149629122Y-108681942D02*
X149681503Y-108777180D01*
X149681503Y-108777180D02*
X149733884Y-108824800D01*
X149733884Y-108824800D02*
X149838646Y-108872419D01*
X149838646Y-108872419D02*
X150048170Y-108872419D01*
X150048170Y-108872419D02*
X150152932Y-108824800D01*
X150152932Y-108824800D02*
X150205313Y-108777180D01*
X150205313Y-108777180D02*
X150257694Y-108681942D01*
X150257694Y-108681942D02*
X150257694Y-108443847D01*
X150257694Y-108443847D02*
X150205313Y-108348609D01*
X150205313Y-108348609D02*
X150152932Y-108300990D01*
X150152932Y-108300990D02*
X150048170Y-108253371D01*
X150048170Y-108253371D02*
X149838646Y-108253371D01*
X149838646Y-108253371D02*
X149733884Y-108300990D01*
X149733884Y-108300990D02*
X149681503Y-108348609D01*
X149681503Y-108348609D02*
X149629122Y-108443847D01*
X145333884Y-115420038D02*
X145229122Y-115372419D01*
X145229122Y-115372419D02*
X145071979Y-115372419D01*
X145071979Y-115372419D02*
X144914836Y-115420038D01*
X144914836Y-115420038D02*
X144810074Y-115515276D01*
X144810074Y-115515276D02*
X144757693Y-115610514D01*
X144757693Y-115610514D02*
X144705312Y-115800990D01*
X144705312Y-115800990D02*
X144705312Y-115943847D01*
X144705312Y-115943847D02*
X144757693Y-116134323D01*
X144757693Y-116134323D02*
X144810074Y-116229561D01*
X144810074Y-116229561D02*
X144914836Y-116324800D01*
X144914836Y-116324800D02*
X145071979Y-116372419D01*
X145071979Y-116372419D02*
X145176741Y-116372419D01*
X145176741Y-116372419D02*
X145333884Y-116324800D01*
X145333884Y-116324800D02*
X145386265Y-116277180D01*
X145386265Y-116277180D02*
X145386265Y-115943847D01*
X145386265Y-115943847D02*
X145176741Y-115943847D01*
X145857693Y-116372419D02*
X145857693Y-115372419D01*
X145857693Y-115372419D02*
X146276741Y-115372419D01*
X146276741Y-115372419D02*
X146381503Y-115420038D01*
X146381503Y-115420038D02*
X146433884Y-115467657D01*
X146433884Y-115467657D02*
X146486265Y-115562895D01*
X146486265Y-115562895D02*
X146486265Y-115705752D01*
X146486265Y-115705752D02*
X146433884Y-115800990D01*
X146433884Y-115800990D02*
X146381503Y-115848609D01*
X146381503Y-115848609D02*
X146276741Y-115896228D01*
X146276741Y-115896228D02*
X145857693Y-115896228D01*
X146957693Y-116372419D02*
X146957693Y-115372419D01*
X147691027Y-115372419D02*
X147900551Y-115372419D01*
X147900551Y-115372419D02*
X148005313Y-115420038D01*
X148005313Y-115420038D02*
X148110075Y-115515276D01*
X148110075Y-115515276D02*
X148162456Y-115705752D01*
X148162456Y-115705752D02*
X148162456Y-116039085D01*
X148162456Y-116039085D02*
X148110075Y-116229561D01*
X148110075Y-116229561D02*
X148005313Y-116324800D01*
X148005313Y-116324800D02*
X147900551Y-116372419D01*
X147900551Y-116372419D02*
X147691027Y-116372419D01*
X147691027Y-116372419D02*
X147586265Y-116324800D01*
X147586265Y-116324800D02*
X147481503Y-116229561D01*
X147481503Y-116229561D02*
X147429122Y-116039085D01*
X147429122Y-116039085D02*
X147429122Y-115705752D01*
X147429122Y-115705752D02*
X147481503Y-115515276D01*
X147481503Y-115515276D02*
X147586265Y-115420038D01*
X147586265Y-115420038D02*
X147691027Y-115372419D01*
X149210075Y-116372419D02*
X148581503Y-116372419D01*
X148895789Y-116372419D02*
X148895789Y-115372419D01*
X148895789Y-115372419D02*
X148791027Y-115515276D01*
X148791027Y-115515276D02*
X148686265Y-115610514D01*
X148686265Y-115610514D02*
X148581503Y-115658133D01*
X150205313Y-115372419D02*
X149681503Y-115372419D01*
X149681503Y-115372419D02*
X149629122Y-115848609D01*
X149629122Y-115848609D02*
X149681503Y-115800990D01*
X149681503Y-115800990D02*
X149786265Y-115753371D01*
X149786265Y-115753371D02*
X150048170Y-115753371D01*
X150048170Y-115753371D02*
X150152932Y-115800990D01*
X150152932Y-115800990D02*
X150205313Y-115848609D01*
X150205313Y-115848609D02*
X150257694Y-115943847D01*
X150257694Y-115943847D02*
X150257694Y-116181942D01*
X150257694Y-116181942D02*
X150205313Y-116277180D01*
X150205313Y-116277180D02*
X150152932Y-116324800D01*
X150152932Y-116324800D02*
X150048170Y-116372419D01*
X150048170Y-116372419D02*
X149786265Y-116372419D01*
X149786265Y-116372419D02*
X149681503Y-116324800D01*
X149681503Y-116324800D02*
X149629122Y-116277180D01*
X146333884Y-89920038D02*
X146229122Y-89872419D01*
X146229122Y-89872419D02*
X146071979Y-89872419D01*
X146071979Y-89872419D02*
X145914836Y-89920038D01*
X145914836Y-89920038D02*
X145810074Y-90015276D01*
X145810074Y-90015276D02*
X145757693Y-90110514D01*
X145757693Y-90110514D02*
X145705312Y-90300990D01*
X145705312Y-90300990D02*
X145705312Y-90443847D01*
X145705312Y-90443847D02*
X145757693Y-90634323D01*
X145757693Y-90634323D02*
X145810074Y-90729561D01*
X145810074Y-90729561D02*
X145914836Y-90824800D01*
X145914836Y-90824800D02*
X146071979Y-90872419D01*
X146071979Y-90872419D02*
X146176741Y-90872419D01*
X146176741Y-90872419D02*
X146333884Y-90824800D01*
X146333884Y-90824800D02*
X146386265Y-90777180D01*
X146386265Y-90777180D02*
X146386265Y-90443847D01*
X146386265Y-90443847D02*
X146176741Y-90443847D01*
X146857693Y-90872419D02*
X146857693Y-89872419D01*
X146857693Y-89872419D02*
X147276741Y-89872419D01*
X147276741Y-89872419D02*
X147381503Y-89920038D01*
X147381503Y-89920038D02*
X147433884Y-89967657D01*
X147433884Y-89967657D02*
X147486265Y-90062895D01*
X147486265Y-90062895D02*
X147486265Y-90205752D01*
X147486265Y-90205752D02*
X147433884Y-90300990D01*
X147433884Y-90300990D02*
X147381503Y-90348609D01*
X147381503Y-90348609D02*
X147276741Y-90396228D01*
X147276741Y-90396228D02*
X146857693Y-90396228D01*
X147957693Y-90872419D02*
X147957693Y-89872419D01*
X148691027Y-89872419D02*
X148900551Y-89872419D01*
X148900551Y-89872419D02*
X149005313Y-89920038D01*
X149005313Y-89920038D02*
X149110075Y-90015276D01*
X149110075Y-90015276D02*
X149162456Y-90205752D01*
X149162456Y-90205752D02*
X149162456Y-90539085D01*
X149162456Y-90539085D02*
X149110075Y-90729561D01*
X149110075Y-90729561D02*
X149005313Y-90824800D01*
X149005313Y-90824800D02*
X148900551Y-90872419D01*
X148900551Y-90872419D02*
X148691027Y-90872419D01*
X148691027Y-90872419D02*
X148586265Y-90824800D01*
X148586265Y-90824800D02*
X148481503Y-90729561D01*
X148481503Y-90729561D02*
X148429122Y-90539085D01*
X148429122Y-90539085D02*
X148429122Y-90205752D01*
X148429122Y-90205752D02*
X148481503Y-90015276D01*
X148481503Y-90015276D02*
X148586265Y-89920038D01*
X148586265Y-89920038D02*
X148691027Y-89872419D01*
X150210075Y-90872419D02*
X149581503Y-90872419D01*
X149895789Y-90872419D02*
X149895789Y-89872419D01*
X149895789Y-89872419D02*
X149791027Y-90015276D01*
X149791027Y-90015276D02*
X149686265Y-90110514D01*
X149686265Y-90110514D02*
X149581503Y-90158133D01*
X146333884Y-92920038D02*
X146229122Y-92872419D01*
X146229122Y-92872419D02*
X146071979Y-92872419D01*
X146071979Y-92872419D02*
X145914836Y-92920038D01*
X145914836Y-92920038D02*
X145810074Y-93015276D01*
X145810074Y-93015276D02*
X145757693Y-93110514D01*
X145757693Y-93110514D02*
X145705312Y-93300990D01*
X145705312Y-93300990D02*
X145705312Y-93443847D01*
X145705312Y-93443847D02*
X145757693Y-93634323D01*
X145757693Y-93634323D02*
X145810074Y-93729561D01*
X145810074Y-93729561D02*
X145914836Y-93824800D01*
X145914836Y-93824800D02*
X146071979Y-93872419D01*
X146071979Y-93872419D02*
X146176741Y-93872419D01*
X146176741Y-93872419D02*
X146333884Y-93824800D01*
X146333884Y-93824800D02*
X146386265Y-93777180D01*
X146386265Y-93777180D02*
X146386265Y-93443847D01*
X146386265Y-93443847D02*
X146176741Y-93443847D01*
X146857693Y-93872419D02*
X146857693Y-92872419D01*
X146857693Y-92872419D02*
X147276741Y-92872419D01*
X147276741Y-92872419D02*
X147381503Y-92920038D01*
X147381503Y-92920038D02*
X147433884Y-92967657D01*
X147433884Y-92967657D02*
X147486265Y-93062895D01*
X147486265Y-93062895D02*
X147486265Y-93205752D01*
X147486265Y-93205752D02*
X147433884Y-93300990D01*
X147433884Y-93300990D02*
X147381503Y-93348609D01*
X147381503Y-93348609D02*
X147276741Y-93396228D01*
X147276741Y-93396228D02*
X146857693Y-93396228D01*
X147957693Y-93872419D02*
X147957693Y-92872419D01*
X148691027Y-92872419D02*
X148900551Y-92872419D01*
X148900551Y-92872419D02*
X149005313Y-92920038D01*
X149005313Y-92920038D02*
X149110075Y-93015276D01*
X149110075Y-93015276D02*
X149162456Y-93205752D01*
X149162456Y-93205752D02*
X149162456Y-93539085D01*
X149162456Y-93539085D02*
X149110075Y-93729561D01*
X149110075Y-93729561D02*
X149005313Y-93824800D01*
X149005313Y-93824800D02*
X148900551Y-93872419D01*
X148900551Y-93872419D02*
X148691027Y-93872419D01*
X148691027Y-93872419D02*
X148586265Y-93824800D01*
X148586265Y-93824800D02*
X148481503Y-93729561D01*
X148481503Y-93729561D02*
X148429122Y-93539085D01*
X148429122Y-93539085D02*
X148429122Y-93205752D01*
X148429122Y-93205752D02*
X148481503Y-93015276D01*
X148481503Y-93015276D02*
X148586265Y-92920038D01*
X148586265Y-92920038D02*
X148691027Y-92872419D01*
X149529122Y-92872419D02*
X150210075Y-92872419D01*
X150210075Y-92872419D02*
X149843408Y-93253371D01*
X149843408Y-93253371D02*
X150000551Y-93253371D01*
X150000551Y-93253371D02*
X150105313Y-93300990D01*
X150105313Y-93300990D02*
X150157694Y-93348609D01*
X150157694Y-93348609D02*
X150210075Y-93443847D01*
X150210075Y-93443847D02*
X150210075Y-93681942D01*
X150210075Y-93681942D02*
X150157694Y-93777180D01*
X150157694Y-93777180D02*
X150105313Y-93824800D01*
X150105313Y-93824800D02*
X150000551Y-93872419D01*
X150000551Y-93872419D02*
X149686265Y-93872419D01*
X149686265Y-93872419D02*
X149581503Y-93824800D01*
X149581503Y-93824800D02*
X149529122Y-93777180D01*
X146333884Y-102920038D02*
X146229122Y-102872419D01*
X146229122Y-102872419D02*
X146071979Y-102872419D01*
X146071979Y-102872419D02*
X145914836Y-102920038D01*
X145914836Y-102920038D02*
X145810074Y-103015276D01*
X145810074Y-103015276D02*
X145757693Y-103110514D01*
X145757693Y-103110514D02*
X145705312Y-103300990D01*
X145705312Y-103300990D02*
X145705312Y-103443847D01*
X145705312Y-103443847D02*
X145757693Y-103634323D01*
X145757693Y-103634323D02*
X145810074Y-103729561D01*
X145810074Y-103729561D02*
X145914836Y-103824800D01*
X145914836Y-103824800D02*
X146071979Y-103872419D01*
X146071979Y-103872419D02*
X146176741Y-103872419D01*
X146176741Y-103872419D02*
X146333884Y-103824800D01*
X146333884Y-103824800D02*
X146386265Y-103777180D01*
X146386265Y-103777180D02*
X146386265Y-103443847D01*
X146386265Y-103443847D02*
X146176741Y-103443847D01*
X146857693Y-103872419D02*
X146857693Y-102872419D01*
X146857693Y-102872419D02*
X147276741Y-102872419D01*
X147276741Y-102872419D02*
X147381503Y-102920038D01*
X147381503Y-102920038D02*
X147433884Y-102967657D01*
X147433884Y-102967657D02*
X147486265Y-103062895D01*
X147486265Y-103062895D02*
X147486265Y-103205752D01*
X147486265Y-103205752D02*
X147433884Y-103300990D01*
X147433884Y-103300990D02*
X147381503Y-103348609D01*
X147381503Y-103348609D02*
X147276741Y-103396228D01*
X147276741Y-103396228D02*
X146857693Y-103396228D01*
X147957693Y-103872419D02*
X147957693Y-102872419D01*
X148691027Y-102872419D02*
X148900551Y-102872419D01*
X148900551Y-102872419D02*
X149005313Y-102920038D01*
X149005313Y-102920038D02*
X149110075Y-103015276D01*
X149110075Y-103015276D02*
X149162456Y-103205752D01*
X149162456Y-103205752D02*
X149162456Y-103539085D01*
X149162456Y-103539085D02*
X149110075Y-103729561D01*
X149110075Y-103729561D02*
X149005313Y-103824800D01*
X149005313Y-103824800D02*
X148900551Y-103872419D01*
X148900551Y-103872419D02*
X148691027Y-103872419D01*
X148691027Y-103872419D02*
X148586265Y-103824800D01*
X148586265Y-103824800D02*
X148481503Y-103729561D01*
X148481503Y-103729561D02*
X148429122Y-103539085D01*
X148429122Y-103539085D02*
X148429122Y-103205752D01*
X148429122Y-103205752D02*
X148481503Y-103015276D01*
X148481503Y-103015276D02*
X148586265Y-102920038D01*
X148586265Y-102920038D02*
X148691027Y-102872419D01*
X150157694Y-102872419D02*
X149633884Y-102872419D01*
X149633884Y-102872419D02*
X149581503Y-103348609D01*
X149581503Y-103348609D02*
X149633884Y-103300990D01*
X149633884Y-103300990D02*
X149738646Y-103253371D01*
X149738646Y-103253371D02*
X150000551Y-103253371D01*
X150000551Y-103253371D02*
X150105313Y-103300990D01*
X150105313Y-103300990D02*
X150157694Y-103348609D01*
X150157694Y-103348609D02*
X150210075Y-103443847D01*
X150210075Y-103443847D02*
X150210075Y-103681942D01*
X150210075Y-103681942D02*
X150157694Y-103777180D01*
X150157694Y-103777180D02*
X150105313Y-103824800D01*
X150105313Y-103824800D02*
X150000551Y-103872419D01*
X150000551Y-103872419D02*
X149738646Y-103872419D01*
X149738646Y-103872419D02*
X149633884Y-103824800D01*
X149633884Y-103824800D02*
X149581503Y-103777180D01*
X146333884Y-110420038D02*
X146229122Y-110372419D01*
X146229122Y-110372419D02*
X146071979Y-110372419D01*
X146071979Y-110372419D02*
X145914836Y-110420038D01*
X145914836Y-110420038D02*
X145810074Y-110515276D01*
X145810074Y-110515276D02*
X145757693Y-110610514D01*
X145757693Y-110610514D02*
X145705312Y-110800990D01*
X145705312Y-110800990D02*
X145705312Y-110943847D01*
X145705312Y-110943847D02*
X145757693Y-111134323D01*
X145757693Y-111134323D02*
X145810074Y-111229561D01*
X145810074Y-111229561D02*
X145914836Y-111324800D01*
X145914836Y-111324800D02*
X146071979Y-111372419D01*
X146071979Y-111372419D02*
X146176741Y-111372419D01*
X146176741Y-111372419D02*
X146333884Y-111324800D01*
X146333884Y-111324800D02*
X146386265Y-111277180D01*
X146386265Y-111277180D02*
X146386265Y-110943847D01*
X146386265Y-110943847D02*
X146176741Y-110943847D01*
X146857693Y-111372419D02*
X146857693Y-110372419D01*
X146857693Y-110372419D02*
X147276741Y-110372419D01*
X147276741Y-110372419D02*
X147381503Y-110420038D01*
X147381503Y-110420038D02*
X147433884Y-110467657D01*
X147433884Y-110467657D02*
X147486265Y-110562895D01*
X147486265Y-110562895D02*
X147486265Y-110705752D01*
X147486265Y-110705752D02*
X147433884Y-110800990D01*
X147433884Y-110800990D02*
X147381503Y-110848609D01*
X147381503Y-110848609D02*
X147276741Y-110896228D01*
X147276741Y-110896228D02*
X146857693Y-110896228D01*
X147957693Y-111372419D02*
X147957693Y-110372419D01*
X148691027Y-110372419D02*
X148900551Y-110372419D01*
X148900551Y-110372419D02*
X149005313Y-110420038D01*
X149005313Y-110420038D02*
X149110075Y-110515276D01*
X149110075Y-110515276D02*
X149162456Y-110705752D01*
X149162456Y-110705752D02*
X149162456Y-111039085D01*
X149162456Y-111039085D02*
X149110075Y-111229561D01*
X149110075Y-111229561D02*
X149005313Y-111324800D01*
X149005313Y-111324800D02*
X148900551Y-111372419D01*
X148900551Y-111372419D02*
X148691027Y-111372419D01*
X148691027Y-111372419D02*
X148586265Y-111324800D01*
X148586265Y-111324800D02*
X148481503Y-111229561D01*
X148481503Y-111229561D02*
X148429122Y-111039085D01*
X148429122Y-111039085D02*
X148429122Y-110705752D01*
X148429122Y-110705752D02*
X148481503Y-110515276D01*
X148481503Y-110515276D02*
X148586265Y-110420038D01*
X148586265Y-110420038D02*
X148691027Y-110372419D01*
X150105313Y-110705752D02*
X150105313Y-111372419D01*
X149843408Y-110324800D02*
X149581503Y-111039085D01*
X149581503Y-111039085D02*
X150262456Y-111039085D01*
X146333884Y-112920038D02*
X146229122Y-112872419D01*
X146229122Y-112872419D02*
X146071979Y-112872419D01*
X146071979Y-112872419D02*
X145914836Y-112920038D01*
X145914836Y-112920038D02*
X145810074Y-113015276D01*
X145810074Y-113015276D02*
X145757693Y-113110514D01*
X145757693Y-113110514D02*
X145705312Y-113300990D01*
X145705312Y-113300990D02*
X145705312Y-113443847D01*
X145705312Y-113443847D02*
X145757693Y-113634323D01*
X145757693Y-113634323D02*
X145810074Y-113729561D01*
X145810074Y-113729561D02*
X145914836Y-113824800D01*
X145914836Y-113824800D02*
X146071979Y-113872419D01*
X146071979Y-113872419D02*
X146176741Y-113872419D01*
X146176741Y-113872419D02*
X146333884Y-113824800D01*
X146333884Y-113824800D02*
X146386265Y-113777180D01*
X146386265Y-113777180D02*
X146386265Y-113443847D01*
X146386265Y-113443847D02*
X146176741Y-113443847D01*
X146857693Y-113872419D02*
X146857693Y-112872419D01*
X146857693Y-112872419D02*
X147276741Y-112872419D01*
X147276741Y-112872419D02*
X147381503Y-112920038D01*
X147381503Y-112920038D02*
X147433884Y-112967657D01*
X147433884Y-112967657D02*
X147486265Y-113062895D01*
X147486265Y-113062895D02*
X147486265Y-113205752D01*
X147486265Y-113205752D02*
X147433884Y-113300990D01*
X147433884Y-113300990D02*
X147381503Y-113348609D01*
X147381503Y-113348609D02*
X147276741Y-113396228D01*
X147276741Y-113396228D02*
X146857693Y-113396228D01*
X147957693Y-113872419D02*
X147957693Y-112872419D01*
X148691027Y-112872419D02*
X148900551Y-112872419D01*
X148900551Y-112872419D02*
X149005313Y-112920038D01*
X149005313Y-112920038D02*
X149110075Y-113015276D01*
X149110075Y-113015276D02*
X149162456Y-113205752D01*
X149162456Y-113205752D02*
X149162456Y-113539085D01*
X149162456Y-113539085D02*
X149110075Y-113729561D01*
X149110075Y-113729561D02*
X149005313Y-113824800D01*
X149005313Y-113824800D02*
X148900551Y-113872419D01*
X148900551Y-113872419D02*
X148691027Y-113872419D01*
X148691027Y-113872419D02*
X148586265Y-113824800D01*
X148586265Y-113824800D02*
X148481503Y-113729561D01*
X148481503Y-113729561D02*
X148429122Y-113539085D01*
X148429122Y-113539085D02*
X148429122Y-113205752D01*
X148429122Y-113205752D02*
X148481503Y-113015276D01*
X148481503Y-113015276D02*
X148586265Y-112920038D01*
X148586265Y-112920038D02*
X148691027Y-112872419D01*
X149581503Y-112967657D02*
X149633884Y-112920038D01*
X149633884Y-112920038D02*
X149738646Y-112872419D01*
X149738646Y-112872419D02*
X150000551Y-112872419D01*
X150000551Y-112872419D02*
X150105313Y-112920038D01*
X150105313Y-112920038D02*
X150157694Y-112967657D01*
X150157694Y-112967657D02*
X150210075Y-113062895D01*
X150210075Y-113062895D02*
X150210075Y-113158133D01*
X150210075Y-113158133D02*
X150157694Y-113300990D01*
X150157694Y-113300990D02*
X149529122Y-113872419D01*
X149529122Y-113872419D02*
X150210075Y-113872419D01*
X147833884Y-117920038D02*
X147729122Y-117872419D01*
X147729122Y-117872419D02*
X147571979Y-117872419D01*
X147571979Y-117872419D02*
X147414836Y-117920038D01*
X147414836Y-117920038D02*
X147310074Y-118015276D01*
X147310074Y-118015276D02*
X147257693Y-118110514D01*
X147257693Y-118110514D02*
X147205312Y-118300990D01*
X147205312Y-118300990D02*
X147205312Y-118443847D01*
X147205312Y-118443847D02*
X147257693Y-118634323D01*
X147257693Y-118634323D02*
X147310074Y-118729561D01*
X147310074Y-118729561D02*
X147414836Y-118824800D01*
X147414836Y-118824800D02*
X147571979Y-118872419D01*
X147571979Y-118872419D02*
X147676741Y-118872419D01*
X147676741Y-118872419D02*
X147833884Y-118824800D01*
X147833884Y-118824800D02*
X147886265Y-118777180D01*
X147886265Y-118777180D02*
X147886265Y-118443847D01*
X147886265Y-118443847D02*
X147676741Y-118443847D01*
X148357693Y-118872419D02*
X148357693Y-117872419D01*
X148357693Y-117872419D02*
X148986265Y-118872419D01*
X148986265Y-118872419D02*
X148986265Y-117872419D01*
X149510074Y-118872419D02*
X149510074Y-117872419D01*
X149510074Y-117872419D02*
X149771979Y-117872419D01*
X149771979Y-117872419D02*
X149929122Y-117920038D01*
X149929122Y-117920038D02*
X150033884Y-118015276D01*
X150033884Y-118015276D02*
X150086265Y-118110514D01*
X150086265Y-118110514D02*
X150138646Y-118300990D01*
X150138646Y-118300990D02*
X150138646Y-118443847D01*
X150138646Y-118443847D02*
X150086265Y-118634323D01*
X150086265Y-118634323D02*
X150033884Y-118729561D01*
X150033884Y-118729561D02*
X149929122Y-118824800D01*
X149929122Y-118824800D02*
X149771979Y-118872419D01*
X149771979Y-118872419D02*
X149510074Y-118872419D01*
X147152931Y-120372419D02*
X147833884Y-120372419D01*
X147833884Y-120372419D02*
X147467217Y-120753371D01*
X147467217Y-120753371D02*
X147624360Y-120753371D01*
X147624360Y-120753371D02*
X147729122Y-120800990D01*
X147729122Y-120800990D02*
X147781503Y-120848609D01*
X147781503Y-120848609D02*
X147833884Y-120943847D01*
X147833884Y-120943847D02*
X147833884Y-121181942D01*
X147833884Y-121181942D02*
X147781503Y-121277180D01*
X147781503Y-121277180D02*
X147729122Y-121324800D01*
X147729122Y-121324800D02*
X147624360Y-121372419D01*
X147624360Y-121372419D02*
X147310074Y-121372419D01*
X147310074Y-121372419D02*
X147205312Y-121324800D01*
X147205312Y-121324800D02*
X147152931Y-121277180D01*
X148305312Y-121277180D02*
X148357693Y-121324800D01*
X148357693Y-121324800D02*
X148305312Y-121372419D01*
X148305312Y-121372419D02*
X148252931Y-121324800D01*
X148252931Y-121324800D02*
X148305312Y-121277180D01*
X148305312Y-121277180D02*
X148305312Y-121372419D01*
X148724360Y-120372419D02*
X149405313Y-120372419D01*
X149405313Y-120372419D02*
X149038646Y-120753371D01*
X149038646Y-120753371D02*
X149195789Y-120753371D01*
X149195789Y-120753371D02*
X149300551Y-120800990D01*
X149300551Y-120800990D02*
X149352932Y-120848609D01*
X149352932Y-120848609D02*
X149405313Y-120943847D01*
X149405313Y-120943847D02*
X149405313Y-121181942D01*
X149405313Y-121181942D02*
X149352932Y-121277180D01*
X149352932Y-121277180D02*
X149300551Y-121324800D01*
X149300551Y-121324800D02*
X149195789Y-121372419D01*
X149195789Y-121372419D02*
X148881503Y-121372419D01*
X148881503Y-121372419D02*
X148776741Y-121324800D01*
X148776741Y-121324800D02*
X148724360Y-121277180D01*
X149771979Y-120705752D02*
X150033884Y-121372419D01*
X150033884Y-121372419D02*
X150295789Y-120705752D01*
D11*
X153374521Y-92608732D02*
X154088806Y-92608732D01*
X154088806Y-92608732D02*
X154231663Y-92656351D01*
X154231663Y-92656351D02*
X154326902Y-92751589D01*
X154326902Y-92751589D02*
X154374521Y-92894446D01*
X154374521Y-92894446D02*
X154374521Y-92989684D01*
X153374521Y-92227779D02*
X153374521Y-91608732D01*
X153374521Y-91608732D02*
X153755473Y-91942065D01*
X153755473Y-91942065D02*
X153755473Y-91799208D01*
X153755473Y-91799208D02*
X153803092Y-91703970D01*
X153803092Y-91703970D02*
X153850711Y-91656351D01*
X153850711Y-91656351D02*
X153945949Y-91608732D01*
X153945949Y-91608732D02*
X154184044Y-91608732D01*
X154184044Y-91608732D02*
X154279282Y-91656351D01*
X154279282Y-91656351D02*
X154326902Y-91703970D01*
X154326902Y-91703970D02*
X154374521Y-91799208D01*
X154374521Y-91799208D02*
X154374521Y-92084922D01*
X154374521Y-92084922D02*
X154326902Y-92180160D01*
X154326902Y-92180160D02*
X154279282Y-92227779D01*
X117333333Y-100454819D02*
X117000000Y-99978628D01*
X116761905Y-100454819D02*
X116761905Y-99454819D01*
X116761905Y-99454819D02*
X117142857Y-99454819D01*
X117142857Y-99454819D02*
X117238095Y-99502438D01*
X117238095Y-99502438D02*
X117285714Y-99550057D01*
X117285714Y-99550057D02*
X117333333Y-99645295D01*
X117333333Y-99645295D02*
X117333333Y-99788152D01*
X117333333Y-99788152D02*
X117285714Y-99883390D01*
X117285714Y-99883390D02*
X117238095Y-99931009D01*
X117238095Y-99931009D02*
X117142857Y-99978628D01*
X117142857Y-99978628D02*
X116761905Y-99978628D01*
X118285714Y-100454819D02*
X117714286Y-100454819D01*
X118000000Y-100454819D02*
X118000000Y-99454819D01*
X118000000Y-99454819D02*
X117904762Y-99597676D01*
X117904762Y-99597676D02*
X117809524Y-99692914D01*
X117809524Y-99692914D02*
X117714286Y-99740533D01*
X123274819Y-121328333D02*
X123989104Y-121328333D01*
X123989104Y-121328333D02*
X124131961Y-121375952D01*
X124131961Y-121375952D02*
X124227200Y-121471190D01*
X124227200Y-121471190D02*
X124274819Y-121614047D01*
X124274819Y-121614047D02*
X124274819Y-121709285D01*
X123370057Y-120899761D02*
X123322438Y-120852142D01*
X123322438Y-120852142D02*
X123274819Y-120756904D01*
X123274819Y-120756904D02*
X123274819Y-120518809D01*
X123274819Y-120518809D02*
X123322438Y-120423571D01*
X123322438Y-120423571D02*
X123370057Y-120375952D01*
X123370057Y-120375952D02*
X123465295Y-120328333D01*
X123465295Y-120328333D02*
X123560533Y-120328333D01*
X123560533Y-120328333D02*
X123703390Y-120375952D01*
X123703390Y-120375952D02*
X124274819Y-120947380D01*
X124274819Y-120947380D02*
X124274819Y-120328333D01*
X159238095Y-100314819D02*
X159238095Y-101124342D01*
X159238095Y-101124342D02*
X159285714Y-101219580D01*
X159285714Y-101219580D02*
X159333333Y-101267200D01*
X159333333Y-101267200D02*
X159428571Y-101314819D01*
X159428571Y-101314819D02*
X159619047Y-101314819D01*
X159619047Y-101314819D02*
X159714285Y-101267200D01*
X159714285Y-101267200D02*
X159761904Y-101219580D01*
X159761904Y-101219580D02*
X159809523Y-101124342D01*
X159809523Y-101124342D02*
X159809523Y-100314819D01*
X160190476Y-100314819D02*
X160809523Y-100314819D01*
X160809523Y-100314819D02*
X160476190Y-100695771D01*
X160476190Y-100695771D02*
X160619047Y-100695771D01*
X160619047Y-100695771D02*
X160714285Y-100743390D01*
X160714285Y-100743390D02*
X160761904Y-100791009D01*
X160761904Y-100791009D02*
X160809523Y-100886247D01*
X160809523Y-100886247D02*
X160809523Y-101124342D01*
X160809523Y-101124342D02*
X160761904Y-101219580D01*
X160761904Y-101219580D02*
X160714285Y-101267200D01*
X160714285Y-101267200D02*
X160619047Y-101314819D01*
X160619047Y-101314819D02*
X160333333Y-101314819D01*
X160333333Y-101314819D02*
X160238095Y-101267200D01*
X160238095Y-101267200D02*
X160190476Y-101219580D01*
X120104819Y-81761904D02*
X119104819Y-81761904D01*
X119581009Y-81761904D02*
X119581009Y-81190476D01*
X120104819Y-81190476D02*
X119104819Y-81190476D01*
X120104819Y-80190476D02*
X120104819Y-80761904D01*
X120104819Y-80476190D02*
X119104819Y-80476190D01*
X119104819Y-80476190D02*
X119247676Y-80571428D01*
X119247676Y-80571428D02*
X119342914Y-80666666D01*
X119342914Y-80666666D02*
X119390533Y-80761904D01*
X117333333Y-91454819D02*
X117000000Y-90978628D01*
X116761905Y-91454819D02*
X116761905Y-90454819D01*
X116761905Y-90454819D02*
X117142857Y-90454819D01*
X117142857Y-90454819D02*
X117238095Y-90502438D01*
X117238095Y-90502438D02*
X117285714Y-90550057D01*
X117285714Y-90550057D02*
X117333333Y-90645295D01*
X117333333Y-90645295D02*
X117333333Y-90788152D01*
X117333333Y-90788152D02*
X117285714Y-90883390D01*
X117285714Y-90883390D02*
X117238095Y-90931009D01*
X117238095Y-90931009D02*
X117142857Y-90978628D01*
X117142857Y-90978628D02*
X116761905Y-90978628D01*
X117714286Y-90550057D02*
X117761905Y-90502438D01*
X117761905Y-90502438D02*
X117857143Y-90454819D01*
X117857143Y-90454819D02*
X118095238Y-90454819D01*
X118095238Y-90454819D02*
X118190476Y-90502438D01*
X118190476Y-90502438D02*
X118238095Y-90550057D01*
X118238095Y-90550057D02*
X118285714Y-90645295D01*
X118285714Y-90645295D02*
X118285714Y-90740533D01*
X118285714Y-90740533D02*
X118238095Y-90883390D01*
X118238095Y-90883390D02*
X117666667Y-91454819D01*
X117666667Y-91454819D02*
X118285714Y-91454819D01*
X117333333Y-94289580D02*
X117285714Y-94337200D01*
X117285714Y-94337200D02*
X117142857Y-94384819D01*
X117142857Y-94384819D02*
X117047619Y-94384819D01*
X117047619Y-94384819D02*
X116904762Y-94337200D01*
X116904762Y-94337200D02*
X116809524Y-94241961D01*
X116809524Y-94241961D02*
X116761905Y-94146723D01*
X116761905Y-94146723D02*
X116714286Y-93956247D01*
X116714286Y-93956247D02*
X116714286Y-93813390D01*
X116714286Y-93813390D02*
X116761905Y-93622914D01*
X116761905Y-93622914D02*
X116809524Y-93527676D01*
X116809524Y-93527676D02*
X116904762Y-93432438D01*
X116904762Y-93432438D02*
X117047619Y-93384819D01*
X117047619Y-93384819D02*
X117142857Y-93384819D01*
X117142857Y-93384819D02*
X117285714Y-93432438D01*
X117285714Y-93432438D02*
X117333333Y-93480057D01*
X117714286Y-93480057D02*
X117761905Y-93432438D01*
X117761905Y-93432438D02*
X117857143Y-93384819D01*
X117857143Y-93384819D02*
X118095238Y-93384819D01*
X118095238Y-93384819D02*
X118190476Y-93432438D01*
X118190476Y-93432438D02*
X118238095Y-93480057D01*
X118238095Y-93480057D02*
X118285714Y-93575295D01*
X118285714Y-93575295D02*
X118285714Y-93670533D01*
X118285714Y-93670533D02*
X118238095Y-93813390D01*
X118238095Y-93813390D02*
X117666667Y-94384819D01*
X117666667Y-94384819D02*
X118285714Y-94384819D01*
X158304819Y-81761904D02*
X157304819Y-81761904D01*
X157781009Y-81761904D02*
X157781009Y-81190476D01*
X158304819Y-81190476D02*
X157304819Y-81190476D01*
X157400057Y-80761904D02*
X157352438Y-80714285D01*
X157352438Y-80714285D02*
X157304819Y-80619047D01*
X157304819Y-80619047D02*
X157304819Y-80380952D01*
X157304819Y-80380952D02*
X157352438Y-80285714D01*
X157352438Y-80285714D02*
X157400057Y-80238095D01*
X157400057Y-80238095D02*
X157495295Y-80190476D01*
X157495295Y-80190476D02*
X157590533Y-80190476D01*
X157590533Y-80190476D02*
X157733390Y-80238095D01*
X157733390Y-80238095D02*
X158304819Y-80809523D01*
X158304819Y-80809523D02*
X158304819Y-80190476D01*
X123166666Y-109954819D02*
X123166666Y-110669104D01*
X123166666Y-110669104D02*
X123119047Y-110811961D01*
X123119047Y-110811961D02*
X123023809Y-110907200D01*
X123023809Y-110907200D02*
X122880952Y-110954819D01*
X122880952Y-110954819D02*
X122785714Y-110954819D01*
X124166666Y-110954819D02*
X123595238Y-110954819D01*
X123880952Y-110954819D02*
X123880952Y-109954819D01*
X123880952Y-109954819D02*
X123785714Y-110097676D01*
X123785714Y-110097676D02*
X123690476Y-110192914D01*
X123690476Y-110192914D02*
X123595238Y-110240533D01*
X117333333Y-97359580D02*
X117285714Y-97407200D01*
X117285714Y-97407200D02*
X117142857Y-97454819D01*
X117142857Y-97454819D02*
X117047619Y-97454819D01*
X117047619Y-97454819D02*
X116904762Y-97407200D01*
X116904762Y-97407200D02*
X116809524Y-97311961D01*
X116809524Y-97311961D02*
X116761905Y-97216723D01*
X116761905Y-97216723D02*
X116714286Y-97026247D01*
X116714286Y-97026247D02*
X116714286Y-96883390D01*
X116714286Y-96883390D02*
X116761905Y-96692914D01*
X116761905Y-96692914D02*
X116809524Y-96597676D01*
X116809524Y-96597676D02*
X116904762Y-96502438D01*
X116904762Y-96502438D02*
X117047619Y-96454819D01*
X117047619Y-96454819D02*
X117142857Y-96454819D01*
X117142857Y-96454819D02*
X117285714Y-96502438D01*
X117285714Y-96502438D02*
X117333333Y-96550057D01*
X118285714Y-97454819D02*
X117714286Y-97454819D01*
X118000000Y-97454819D02*
X118000000Y-96454819D01*
X118000000Y-96454819D02*
X117904762Y-96597676D01*
X117904762Y-96597676D02*
X117809524Y-96692914D01*
X117809524Y-96692914D02*
X117714286Y-96740533D01*
X158304819Y-127761904D02*
X157304819Y-127761904D01*
X157781009Y-127761904D02*
X157781009Y-127190476D01*
X158304819Y-127190476D02*
X157304819Y-127190476D01*
X157304819Y-126809523D02*
X157304819Y-126190476D01*
X157304819Y-126190476D02*
X157685771Y-126523809D01*
X157685771Y-126523809D02*
X157685771Y-126380952D01*
X157685771Y-126380952D02*
X157733390Y-126285714D01*
X157733390Y-126285714D02*
X157781009Y-126238095D01*
X157781009Y-126238095D02*
X157876247Y-126190476D01*
X157876247Y-126190476D02*
X158114342Y-126190476D01*
X158114342Y-126190476D02*
X158209580Y-126238095D01*
X158209580Y-126238095D02*
X158257200Y-126285714D01*
X158257200Y-126285714D02*
X158304819Y-126380952D01*
X158304819Y-126380952D02*
X158304819Y-126666666D01*
X158304819Y-126666666D02*
X158257200Y-126761904D01*
X158257200Y-126761904D02*
X158209580Y-126809523D01*
X114054819Y-87261904D02*
X114864342Y-87261904D01*
X114864342Y-87261904D02*
X114959580Y-87214285D01*
X114959580Y-87214285D02*
X115007200Y-87166666D01*
X115007200Y-87166666D02*
X115054819Y-87071428D01*
X115054819Y-87071428D02*
X115054819Y-86880952D01*
X115054819Y-86880952D02*
X115007200Y-86785714D01*
X115007200Y-86785714D02*
X114959580Y-86738095D01*
X114959580Y-86738095D02*
X114864342Y-86690476D01*
X114864342Y-86690476D02*
X114054819Y-86690476D01*
X114150057Y-86261904D02*
X114102438Y-86214285D01*
X114102438Y-86214285D02*
X114054819Y-86119047D01*
X114054819Y-86119047D02*
X114054819Y-85880952D01*
X114054819Y-85880952D02*
X114102438Y-85785714D01*
X114102438Y-85785714D02*
X114150057Y-85738095D01*
X114150057Y-85738095D02*
X114245295Y-85690476D01*
X114245295Y-85690476D02*
X114340533Y-85690476D01*
X114340533Y-85690476D02*
X114483390Y-85738095D01*
X114483390Y-85738095D02*
X115054819Y-86309523D01*
X115054819Y-86309523D02*
X115054819Y-85690476D01*
%TO.C,U1*%
D12*
X124600000Y-77600000D02*
X152900000Y-77600000D01*
X152900000Y-129100000D01*
X124600000Y-129100000D01*
X124600000Y-77600000D01*
D10*
X134930000Y-124372911D02*
X142550000Y-124372911D01*
X142550000Y-128627090D01*
X134930000Y-128627090D01*
X134930000Y-124372911D01*
%TO.C,J3*%
D13*
X154919702Y-87075399D02*
X164959702Y-87075399D01*
X154919702Y-97475399D02*
X154919702Y-87075399D01*
X157939702Y-97475399D02*
X157939702Y-87075399D01*
X162839702Y-97475399D02*
X162839702Y-87075399D01*
X164339702Y-97475399D02*
X164339702Y-87075399D01*
X164959702Y-87075399D02*
X164959702Y-94515399D01*
X164959702Y-95115399D02*
X164959702Y-97475399D01*
X164959702Y-97475399D02*
X154919702Y-97475399D01*
%TO.C,R1*%
X117262742Y-97977500D02*
X117737258Y-97977500D01*
X117262742Y-99022500D02*
X117737258Y-99022500D01*
%TO.C,J2*%
X112780000Y-113255000D02*
X122820000Y-113255000D01*
X112780000Y-115615000D02*
X112780000Y-113255000D01*
X112780000Y-128735000D02*
X112780000Y-116215000D01*
X113400000Y-113255000D02*
X113400000Y-128735000D01*
X114900000Y-113255000D02*
X114900000Y-128735000D01*
X119800000Y-113255000D02*
X119800000Y-128735000D01*
X122820000Y-113255000D02*
X122820000Y-128735000D01*
X122820000Y-128735000D02*
X112780000Y-128735000D01*
X112780000Y-115915000D02*
X112170000Y-116355000D01*
X112170000Y-115475000D01*
X112780000Y-115915000D01*
G36*
X112780000Y-115915000D02*
G01*
X112170000Y-116355000D01*
X112170000Y-115475000D01*
X112780000Y-115915000D01*
G37*
%TO.C,U3*%
X157350000Y-101860000D02*
X157350000Y-112140000D01*
X157350000Y-112140000D02*
X162650000Y-112140000D01*
X159000000Y-101860000D02*
X157350000Y-101860000D01*
X162650000Y-101860000D02*
X161000000Y-101860000D01*
X162650000Y-112140000D02*
X162650000Y-101860000D01*
X161000000Y-101860000D02*
G75*
G02*
X159000000Y-101860000I-1000000J0D01*
G01*
%TO.C,R2*%
X117262742Y-88977500D02*
X117737258Y-88977500D01*
X117262742Y-90022500D02*
X117737258Y-90022500D01*
%TO.C,C2*%
X117640580Y-91990000D02*
X117359420Y-91990000D01*
X117640580Y-93010000D02*
X117359420Y-93010000D01*
%TO.C,J1*%
X119620000Y-109230000D02*
X119620000Y-86260000D01*
X122380000Y-86260000D02*
X119620000Y-86260000D01*
X122380000Y-109230000D02*
X119620000Y-109230000D01*
X122380000Y-109230000D02*
X122380000Y-86260000D01*
X122380000Y-110500000D02*
X122380000Y-111880000D01*
X122380000Y-111880000D02*
X121000000Y-111880000D01*
%TO.C,C1*%
X117359420Y-94990000D02*
X117640580Y-94990000D01*
X117359420Y-96010000D02*
X117640580Y-96010000D01*
%TO.C,U2*%
X115440000Y-85740000D02*
X116440000Y-85740000D01*
X115440000Y-87260000D02*
X115440000Y-85740000D01*
X115490000Y-87260000D02*
X115440000Y-87260000D01*
X117390000Y-87260000D02*
X116610000Y-87260000D01*
X117560000Y-85740000D02*
X118560000Y-85740000D01*
X118560000Y-85740000D02*
X118560000Y-87260000D01*
X118560000Y-87260000D02*
X118510000Y-87260000D01*
X116620000Y-87800000D02*
X116950000Y-87560000D01*
X116950000Y-88040000D01*
X116620000Y-87800000D01*
G36*
X116950000Y-88040000D02*
G01*
X116620000Y-87800000D01*
X116950000Y-87560000D01*
X116950000Y-88040000D01*
G37*
%TD*%
M02*
