%TF.GenerationSoftware,KiCad,Pcbnew,10.0.5-10.0.5~ubuntu24.04.1*%
%TF.CreationDate,2026-08-19T18:09:32+05:30*%
%TF.ProjectId,ocp,6f63702e-6b69-4636-9164-5f7063625858,rev?*%
%TF.SameCoordinates,Original*%
%TF.FileFunction,Soldermask,Top*%
%TF.FilePolarity,Negative*%
%FSLAX46Y46*%
G04 Gerber Fmt 4.6, Leading zero omitted, Abs format (unit mm)*
G04 Created by KiCad (PCBNEW 10.0.5-10.0.5~ubuntu24.04.1) date 2026-08-19 18:09:32*
%MOMM*%
%LPD*%
G01*
G04 APERTURE LIST*
G04 Aperture macros list*
%AMRoundRect*
0 Rectangle with rounded corners*
0 $1 Rounding radius*
0 $2 $3 $4 $5 $6 $7 $8 $9 X,Y pos of 4 corners*
0 Add a 4 corners polygon primitive as box body*
4,1,4,$2,$3,$4,$5,$6,$7,$8,$9,$2,$3,0*
0 Add four circle primitives for the rounded corners*
1,1,$1+$1,$2,$3*
1,1,$1+$1,$4,$5*
1,1,$1+$1,$6,$7*
1,1,$1+$1,$8,$9*
0 Add four rect primitives between the rounded corners*
20,1,$1+$1,$2,$3,$4,$5,0*
20,1,$1+$1,$4,$5,$6,$7,0*
20,1,$1+$1,$6,$7,$8,$9,0*
20,1,$1+$1,$8,$9,$2,$3,0*%
G04 Aperture macros list end*
%ADD10C,2.700000*%
%ADD11RoundRect,0.250000X0.625000X-0.375000X0.625000X0.375000X-0.625000X0.375000X-0.625000X-0.375000X0*%
%ADD12RoundRect,0.135000X-0.135000X-0.185000X0.135000X-0.185000X0.135000X0.185000X-0.135000X0.185000X0*%
%ADD13O,1.900000X1.524000*%
%ADD14R,1.700000X1.700000*%
%ADD15C,1.700000*%
%ADD16RoundRect,0.140000X-0.170000X0.140000X-0.170000X-0.140000X0.170000X-0.140000X0.170000X0.140000X0*%
%ADD17RoundRect,0.150000X-0.470000X0.150000X-0.470000X-0.150000X0.470000X-0.150000X0.470000X0.150000X0*%
%ADD18RoundRect,0.075000X-0.545000X0.075000X-0.545000X-0.075000X0.545000X-0.075000X0.545000X0.075000X0*%
%ADD19O,2.100000X1.000000*%
%ADD20O,1.800000X1.000000*%
%ADD21RoundRect,0.250000X-1.050000X-1.050000X1.050000X-1.050000X1.050000X1.050000X-1.050000X1.050000X0*%
%ADD22C,2.600000*%
%ADD23RoundRect,0.200000X-0.275000X0.200000X-0.275000X-0.200000X0.275000X-0.200000X0.275000X0.200000X0*%
G04 APERTURE END LIST*
D10*
%TO.C,H3*%
X129207983Y-134746077D03*
%TD*%
%TO.C,H2*%
X174250000Y-82250000D03*
%TD*%
D11*
%TO.C,F1*%
X135250000Y-120550000D03*
X135250000Y-117750000D03*
%TD*%
D12*
%TO.C,R2*%
X133740000Y-125500000D03*
X134760000Y-125500000D03*
%TD*%
D13*
%TO.C,U3*%
X138752460Y-117739813D03*
X138752460Y-115199813D03*
X138752460Y-112659813D03*
X138752460Y-110119813D03*
X138752460Y-107579813D03*
X138752460Y-105039813D03*
X138752460Y-102499813D03*
X138752460Y-99959813D03*
X138752460Y-97419813D03*
X138752460Y-94879813D03*
X138752460Y-92339813D03*
X138752460Y-89799813D03*
X138752460Y-87259813D03*
X138752460Y-84719813D03*
X138752460Y-82179813D03*
X164152460Y-117739813D03*
X164152460Y-115199813D03*
X164152460Y-112659813D03*
X164152460Y-110119813D03*
X164152460Y-107579813D03*
X164152460Y-105039813D03*
X164152460Y-102499813D03*
X164152460Y-99959813D03*
X164152460Y-97419813D03*
X164152460Y-94879813D03*
X164152460Y-92339813D03*
X164152460Y-89799813D03*
X164152460Y-87259813D03*
X164152460Y-84719813D03*
X164152460Y-82179813D03*
%TD*%
D10*
%TO.C,H1*%
X129250000Y-82250000D03*
%TD*%
D14*
%TO.C,J5*%
X169250000Y-127000000D03*
D15*
X169250000Y-129540000D03*
X169250000Y-132080000D03*
X169250000Y-134620000D03*
%TD*%
D10*
%TO.C,H4*%
X174250000Y-134750000D03*
%TD*%
D16*
%TO.C,C3*%
X130500000Y-102790000D03*
X130500000Y-103750000D03*
%TD*%
D17*
%TO.C,J1*%
X131725000Y-120550000D03*
X131725000Y-121350000D03*
D18*
X131725000Y-122500000D03*
X131725000Y-123500000D03*
X131725000Y-124000000D03*
X131725000Y-125000000D03*
D17*
X131725000Y-126150000D03*
X131725000Y-126950000D03*
X131725000Y-126950000D03*
X131725000Y-126150000D03*
D18*
X131725000Y-125500000D03*
X131725000Y-124500000D03*
X131725000Y-123000000D03*
X131725000Y-122000000D03*
D17*
X131725000Y-121350000D03*
X131725000Y-120550000D03*
D19*
X131125000Y-119430000D03*
D20*
X126925000Y-119430000D03*
D19*
X131125000Y-128070000D03*
D20*
X126925000Y-128070000D03*
%TD*%
D14*
%TO.C,J3*%
X133000000Y-87460000D03*
D15*
X133000000Y-90000000D03*
X133000000Y-92540000D03*
X133000000Y-95080000D03*
X133000000Y-97620000D03*
X133000000Y-100160000D03*
X133000000Y-102700000D03*
X133000000Y-105240000D03*
X133000000Y-107780000D03*
X133000000Y-110320000D03*
%TD*%
D14*
%TO.C,J4*%
X169500000Y-87460000D03*
D15*
X169500000Y-90000000D03*
X169500000Y-92540000D03*
X169500000Y-95080000D03*
X169500000Y-97620000D03*
X169500000Y-100160000D03*
X169500000Y-102700000D03*
X169500000Y-105240000D03*
%TD*%
D21*
%TO.C,J2*%
X138670000Y-134500000D03*
D22*
X143750000Y-134500000D03*
X148830000Y-134500000D03*
X153910000Y-134500000D03*
X158990000Y-134500000D03*
X164070000Y-134500000D03*
%TD*%
D12*
%TO.C,R1*%
X133740000Y-122490000D03*
X134760000Y-122490000D03*
%TD*%
D23*
%TO.C,R3*%
X129000000Y-102925000D03*
X129000000Y-104575000D03*
%TD*%
M02*
