M48
; DRILL file KiCad 10.0.5-10.0.5~ubuntu24.04.1 date 2026-08-19T18:09:29
; FORMAT={-:-/ absolute / metric / decimal}
; #@! TF.CreationDate,2026-08-19T18:09:29+05:30
; #@! TF.GenerationSoftware,Kicad,Pcbnew,10.0.5-10.0.5~ubuntu24.04.1
; #@! TF.FileFunction,Plated,1,2,PTH
FMAT,2
METRIC
; #@! TA.AperFunction,Plated,PTH,ViaDrill
T1C0.300
; #@! TA.AperFunction,Plated,PTH,ComponentDrill
T2C0.600
; #@! TA.AperFunction,Plated,PTH,ComponentDrill
T3C0.800
; #@! TA.AperFunction,Plated,PTH,ComponentDrill
T4C1.000
; #@! TA.AperFunction,Plated,PTH,ComponentDrill
T5C1.300
%
G90
G05
T1
X130.5Y-104.75
X143.625Y-106.0
X143.75Y-97.0
X144.5Y-106.0
X145.99Y-96.449
X148.136Y-96.039
X150.0Y-91.5
X159.5Y-93.25
X161.549Y-88.799
X166.4Y-95.25
T3
X138.752Y-82.18
X138.752Y-84.72
X138.752Y-87.26
X138.752Y-89.8
X138.752Y-92.34
X138.752Y-94.88
X138.752Y-97.42
X138.752Y-99.96
X138.752Y-102.5
X138.752Y-105.04
X138.752Y-107.58
X138.752Y-110.12
X138.752Y-112.66
X138.752Y-115.2
X138.752Y-117.74
X164.152Y-82.18
X164.152Y-84.72
X164.152Y-87.26
X164.152Y-89.8
X164.152Y-92.34
X164.152Y-94.88
X164.152Y-97.42
X164.152Y-99.96
X164.152Y-102.5
X164.152Y-105.04
X164.152Y-107.58
X164.152Y-110.12
X164.152Y-112.66
X164.152Y-115.2
X164.152Y-117.74
T4
X133.0Y-87.46
X133.0Y-90.0
X133.0Y-92.54
X133.0Y-95.08
X133.0Y-97.62
X133.0Y-100.16
X133.0Y-102.7
X133.0Y-105.24
X133.0Y-107.78
X133.0Y-110.32
X169.25Y-127.0
X169.25Y-129.54
X169.25Y-132.08
X169.25Y-134.62
X169.5Y-87.46
X169.5Y-90.0
X169.5Y-92.54
X169.5Y-95.08
X169.5Y-97.62
X169.5Y-100.16
X169.5Y-102.7
X169.5Y-105.24
T5
X138.67Y-134.5
X143.75Y-134.5
X148.83Y-134.5
X153.91Y-134.5
X158.99Y-134.5
X164.07Y-134.5
T2
G00X127.325Y-119.43
M15
G01X126.525Y-119.43
M16
G05
G00X127.325Y-128.07
M15
G01X126.525Y-128.07
M16
G05
G00X131.675Y-119.43
M15
G01X130.575Y-119.43
M16
G05
G00X131.675Y-128.07
M15
G01X130.575Y-128.07
M16
G05
M30
