%TF.GenerationSoftware,KiCad,Pcbnew,10.0.5-10.0.5~ubuntu24.04.1*%
%TF.CreationDate,2026-08-19T18:09:31+05:30*%
%TF.ProjectId,ocp,6f63702e-6b69-4636-9164-5f7063625858,rev?*%
%TF.SameCoordinates,Original*%
%TF.FileFunction,Legend,Top*%
%TF.FilePolarity,Positive*%
%FSLAX46Y46*%
G04 Gerber Fmt 4.6, Leading zero omitted, Abs format (unit mm)*
G04 Created by KiCad (PCBNEW 10.0.5-10.0.5~ubuntu24.04.1) date 2026-08-19 18:09:31*
%MOMM*%
%LPD*%
G01*
G04 APERTURE LIST*
%ADD10C,0.100000*%
%ADD11C,0.150000*%
%ADD12C,0.300000*%
%ADD13C,0.120000*%
%ADD14C,0.200000*%
G04 APERTURE END LIST*
D10*
X128661027Y-86872419D02*
X128994360Y-87872419D01*
X128994360Y-87872419D02*
X129327693Y-86872419D01*
X129661027Y-87872419D02*
X129661027Y-86872419D01*
X129661027Y-86872419D02*
X129899122Y-86872419D01*
X129899122Y-86872419D02*
X130041979Y-86920038D01*
X130041979Y-86920038D02*
X130137217Y-87015276D01*
X130137217Y-87015276D02*
X130184836Y-87110514D01*
X130184836Y-87110514D02*
X130232455Y-87300990D01*
X130232455Y-87300990D02*
X130232455Y-87443847D01*
X130232455Y-87443847D02*
X130184836Y-87634323D01*
X130184836Y-87634323D02*
X130137217Y-87729561D01*
X130137217Y-87729561D02*
X130041979Y-87824800D01*
X130041979Y-87824800D02*
X129899122Y-87872419D01*
X129899122Y-87872419D02*
X129661027Y-87872419D01*
X130661027Y-87872419D02*
X130661027Y-86872419D01*
X130661027Y-86872419D02*
X130899122Y-86872419D01*
X130899122Y-86872419D02*
X131041979Y-86920038D01*
X131041979Y-86920038D02*
X131137217Y-87015276D01*
X131137217Y-87015276D02*
X131184836Y-87110514D01*
X131184836Y-87110514D02*
X131232455Y-87300990D01*
X131232455Y-87300990D02*
X131232455Y-87443847D01*
X131232455Y-87443847D02*
X131184836Y-87634323D01*
X131184836Y-87634323D02*
X131137217Y-87729561D01*
X131137217Y-87729561D02*
X131041979Y-87824800D01*
X131041979Y-87824800D02*
X130899122Y-87872419D01*
X130899122Y-87872419D02*
X130661027Y-87872419D01*
X171411027Y-86872419D02*
X171744360Y-87872419D01*
X171744360Y-87872419D02*
X172077693Y-86872419D01*
X172411027Y-87872419D02*
X172411027Y-86872419D01*
X172887217Y-87872419D02*
X172887217Y-86872419D01*
X172887217Y-86872419D02*
X173458645Y-87872419D01*
X173458645Y-87872419D02*
X173458645Y-86872419D01*
X135836704Y-101993734D02*
X135836704Y-101517544D01*
X136122419Y-102088972D02*
X135122419Y-101755639D01*
X135122419Y-101755639D02*
X136122419Y-101422306D01*
X136122419Y-101088972D02*
X135122419Y-101088972D01*
X135122419Y-101088972D02*
X135122419Y-100850877D01*
X135122419Y-100850877D02*
X135170038Y-100708020D01*
X135170038Y-100708020D02*
X135265276Y-100612782D01*
X135265276Y-100612782D02*
X135360514Y-100565163D01*
X135360514Y-100565163D02*
X135550990Y-100517544D01*
X135550990Y-100517544D02*
X135693847Y-100517544D01*
X135693847Y-100517544D02*
X135884323Y-100565163D01*
X135884323Y-100565163D02*
X135979561Y-100612782D01*
X135979561Y-100612782D02*
X136074800Y-100708020D01*
X136074800Y-100708020D02*
X136122419Y-100850877D01*
X136122419Y-100850877D02*
X136122419Y-101088972D01*
X136074800Y-100136591D02*
X136122419Y-99993734D01*
X136122419Y-99993734D02*
X136122419Y-99755639D01*
X136122419Y-99755639D02*
X136074800Y-99660401D01*
X136074800Y-99660401D02*
X136027180Y-99612782D01*
X136027180Y-99612782D02*
X135931942Y-99565163D01*
X135931942Y-99565163D02*
X135836704Y-99565163D01*
X135836704Y-99565163D02*
X135741466Y-99612782D01*
X135741466Y-99612782D02*
X135693847Y-99660401D01*
X135693847Y-99660401D02*
X135646228Y-99755639D01*
X135646228Y-99755639D02*
X135598609Y-99946115D01*
X135598609Y-99946115D02*
X135550990Y-100041353D01*
X135550990Y-100041353D02*
X135503371Y-100088972D01*
X135503371Y-100088972D02*
X135408133Y-100136591D01*
X135408133Y-100136591D02*
X135312895Y-100136591D01*
X135312895Y-100136591D02*
X135217657Y-100088972D01*
X135217657Y-100088972D02*
X135170038Y-100041353D01*
X135170038Y-100041353D02*
X135122419Y-99946115D01*
X135122419Y-99946115D02*
X135122419Y-99708020D01*
X135122419Y-99708020D02*
X135170038Y-99565163D01*
X136122419Y-98612782D02*
X136122419Y-99184210D01*
X136122419Y-98898496D02*
X135122419Y-98898496D01*
X135122419Y-98898496D02*
X135265276Y-98993734D01*
X135265276Y-98993734D02*
X135360514Y-99088972D01*
X135360514Y-99088972D02*
X135408133Y-99184210D01*
X136122419Y-97660401D02*
X136122419Y-98231829D01*
X136122419Y-97946115D02*
X135122419Y-97946115D01*
X135122419Y-97946115D02*
X135265276Y-98041353D01*
X135265276Y-98041353D02*
X135360514Y-98136591D01*
X135360514Y-98136591D02*
X135408133Y-98231829D01*
X136122419Y-96708020D02*
X136122419Y-97279448D01*
X136122419Y-96993734D02*
X135122419Y-96993734D01*
X135122419Y-96993734D02*
X135265276Y-97088972D01*
X135265276Y-97088972D02*
X135360514Y-97184210D01*
X135360514Y-97184210D02*
X135408133Y-97279448D01*
X135122419Y-95803258D02*
X135122419Y-96279448D01*
X135122419Y-96279448D02*
X135598609Y-96327067D01*
X135598609Y-96327067D02*
X135550990Y-96279448D01*
X135550990Y-96279448D02*
X135503371Y-96184210D01*
X135503371Y-96184210D02*
X135503371Y-95946115D01*
X135503371Y-95946115D02*
X135550990Y-95850877D01*
X135550990Y-95850877D02*
X135598609Y-95803258D01*
X135598609Y-95803258D02*
X135693847Y-95755639D01*
X135693847Y-95755639D02*
X135931942Y-95755639D01*
X135931942Y-95755639D02*
X136027180Y-95803258D01*
X136027180Y-95803258D02*
X136074800Y-95850877D01*
X136074800Y-95850877D02*
X136122419Y-95946115D01*
X136122419Y-95946115D02*
X136122419Y-96184210D01*
X136122419Y-96184210D02*
X136074800Y-96279448D01*
X136074800Y-96279448D02*
X136027180Y-96327067D01*
X172622419Y-100196115D02*
X171622419Y-100196115D01*
X171622419Y-100196115D02*
X172336704Y-99862782D01*
X172336704Y-99862782D02*
X171622419Y-99529449D01*
X171622419Y-99529449D02*
X172622419Y-99529449D01*
X172336704Y-99100877D02*
X172336704Y-98624687D01*
X172622419Y-99196115D02*
X171622419Y-98862782D01*
X171622419Y-98862782D02*
X172622419Y-98529449D01*
X171622419Y-98291353D02*
X172622419Y-97624687D01*
X171622419Y-97624687D02*
X172622419Y-98291353D01*
X171622419Y-97338972D02*
X171622419Y-96719925D01*
X171622419Y-96719925D02*
X172003371Y-97053258D01*
X172003371Y-97053258D02*
X172003371Y-96910401D01*
X172003371Y-96910401D02*
X172050990Y-96815163D01*
X172050990Y-96815163D02*
X172098609Y-96767544D01*
X172098609Y-96767544D02*
X172193847Y-96719925D01*
X172193847Y-96719925D02*
X172431942Y-96719925D01*
X172431942Y-96719925D02*
X172527180Y-96767544D01*
X172527180Y-96767544D02*
X172574800Y-96815163D01*
X172574800Y-96815163D02*
X172622419Y-96910401D01*
X172622419Y-96910401D02*
X172622419Y-97196115D01*
X172622419Y-97196115D02*
X172574800Y-97291353D01*
X172574800Y-97291353D02*
X172527180Y-97338972D01*
X172622419Y-95767544D02*
X172622419Y-96338972D01*
X172622419Y-96053258D02*
X171622419Y-96053258D01*
X171622419Y-96053258D02*
X171765276Y-96148496D01*
X171765276Y-96148496D02*
X171860514Y-96243734D01*
X171860514Y-96243734D02*
X171908133Y-96338972D01*
X172050990Y-95196115D02*
X172003371Y-95291353D01*
X172003371Y-95291353D02*
X171955752Y-95338972D01*
X171955752Y-95338972D02*
X171860514Y-95386591D01*
X171860514Y-95386591D02*
X171812895Y-95386591D01*
X171812895Y-95386591D02*
X171717657Y-95338972D01*
X171717657Y-95338972D02*
X171670038Y-95291353D01*
X171670038Y-95291353D02*
X171622419Y-95196115D01*
X171622419Y-95196115D02*
X171622419Y-95005639D01*
X171622419Y-95005639D02*
X171670038Y-94910401D01*
X171670038Y-94910401D02*
X171717657Y-94862782D01*
X171717657Y-94862782D02*
X171812895Y-94815163D01*
X171812895Y-94815163D02*
X171860514Y-94815163D01*
X171860514Y-94815163D02*
X171955752Y-94862782D01*
X171955752Y-94862782D02*
X172003371Y-94910401D01*
X172003371Y-94910401D02*
X172050990Y-95005639D01*
X172050990Y-95005639D02*
X172050990Y-95196115D01*
X172050990Y-95196115D02*
X172098609Y-95291353D01*
X172098609Y-95291353D02*
X172146228Y-95338972D01*
X172146228Y-95338972D02*
X172241466Y-95386591D01*
X172241466Y-95386591D02*
X172431942Y-95386591D01*
X172431942Y-95386591D02*
X172527180Y-95338972D01*
X172527180Y-95338972D02*
X172574800Y-95291353D01*
X172574800Y-95291353D02*
X172622419Y-95196115D01*
X172622419Y-95196115D02*
X172622419Y-95005639D01*
X172622419Y-95005639D02*
X172574800Y-94910401D01*
X172574800Y-94910401D02*
X172527180Y-94862782D01*
X172527180Y-94862782D02*
X172431942Y-94815163D01*
X172431942Y-94815163D02*
X172241466Y-94815163D01*
X172241466Y-94815163D02*
X172146228Y-94862782D01*
X172146228Y-94862782D02*
X172098609Y-94910401D01*
X172098609Y-94910401D02*
X172050990Y-95005639D01*
X171622419Y-93958020D02*
X171622419Y-94148496D01*
X171622419Y-94148496D02*
X171670038Y-94243734D01*
X171670038Y-94243734D02*
X171717657Y-94291353D01*
X171717657Y-94291353D02*
X171860514Y-94386591D01*
X171860514Y-94386591D02*
X172050990Y-94434210D01*
X172050990Y-94434210D02*
X172431942Y-94434210D01*
X172431942Y-94434210D02*
X172527180Y-94386591D01*
X172527180Y-94386591D02*
X172574800Y-94338972D01*
X172574800Y-94338972D02*
X172622419Y-94243734D01*
X172622419Y-94243734D02*
X172622419Y-94053258D01*
X172622419Y-94053258D02*
X172574800Y-93958020D01*
X172574800Y-93958020D02*
X172527180Y-93910401D01*
X172527180Y-93910401D02*
X172431942Y-93862782D01*
X172431942Y-93862782D02*
X172193847Y-93862782D01*
X172193847Y-93862782D02*
X172098609Y-93910401D01*
X172098609Y-93910401D02*
X172050990Y-93958020D01*
X172050990Y-93958020D02*
X172003371Y-94053258D01*
X172003371Y-94053258D02*
X172003371Y-94243734D01*
X172003371Y-94243734D02*
X172050990Y-94338972D01*
X172050990Y-94338972D02*
X172098609Y-94386591D01*
X172098609Y-94386591D02*
X172193847Y-94434210D01*
X171622419Y-92958020D02*
X171622419Y-93434210D01*
X171622419Y-93434210D02*
X172098609Y-93481829D01*
X172098609Y-93481829D02*
X172050990Y-93434210D01*
X172050990Y-93434210D02*
X172003371Y-93338972D01*
X172003371Y-93338972D02*
X172003371Y-93100877D01*
X172003371Y-93100877D02*
X172050990Y-93005639D01*
X172050990Y-93005639D02*
X172098609Y-92958020D01*
X172098609Y-92958020D02*
X172193847Y-92910401D01*
X172193847Y-92910401D02*
X172431942Y-92910401D01*
X172431942Y-92910401D02*
X172527180Y-92958020D01*
X172527180Y-92958020D02*
X172574800Y-93005639D01*
X172574800Y-93005639D02*
X172622419Y-93100877D01*
X172622419Y-93100877D02*
X172622419Y-93338972D01*
X172622419Y-93338972D02*
X172574800Y-93434210D01*
X172574800Y-93434210D02*
X172527180Y-93481829D01*
X171877580Y-126221027D02*
X170877580Y-126554360D01*
X170877580Y-126554360D02*
X171877580Y-126887693D01*
X171877580Y-128601980D02*
X171877580Y-129173408D01*
X170877580Y-128887694D02*
X171877580Y-128887694D01*
X171877580Y-129411504D02*
X170877580Y-130078170D01*
X171877580Y-130078170D02*
X170877580Y-129411504D01*
X170877580Y-131792456D02*
X171353771Y-131459123D01*
X170877580Y-131221028D02*
X171877580Y-131221028D01*
X171877580Y-131221028D02*
X171877580Y-131601980D01*
X171877580Y-131601980D02*
X171829961Y-131697218D01*
X171829961Y-131697218D02*
X171782342Y-131744837D01*
X171782342Y-131744837D02*
X171687104Y-131792456D01*
X171687104Y-131792456D02*
X171544247Y-131792456D01*
X171544247Y-131792456D02*
X171449009Y-131744837D01*
X171449009Y-131744837D02*
X171401390Y-131697218D01*
X171401390Y-131697218D02*
X171353771Y-131601980D01*
X171353771Y-131601980D02*
X171353771Y-131221028D01*
X171877580Y-132125790D02*
X170877580Y-132792456D01*
X171877580Y-132792456D02*
X170877580Y-132125790D01*
X171829961Y-135221028D02*
X171877580Y-135125790D01*
X171877580Y-135125790D02*
X171877580Y-134982933D01*
X171877580Y-134982933D02*
X171829961Y-134840076D01*
X171829961Y-134840076D02*
X171734723Y-134744838D01*
X171734723Y-134744838D02*
X171639485Y-134697219D01*
X171639485Y-134697219D02*
X171449009Y-134649600D01*
X171449009Y-134649600D02*
X171306152Y-134649600D01*
X171306152Y-134649600D02*
X171115676Y-134697219D01*
X171115676Y-134697219D02*
X171020438Y-134744838D01*
X171020438Y-134744838D02*
X170925200Y-134840076D01*
X170925200Y-134840076D02*
X170877580Y-134982933D01*
X170877580Y-134982933D02*
X170877580Y-135078171D01*
X170877580Y-135078171D02*
X170925200Y-135221028D01*
X170925200Y-135221028D02*
X170972819Y-135268647D01*
X170972819Y-135268647D02*
X171306152Y-135268647D01*
X171306152Y-135268647D02*
X171306152Y-135078171D01*
D11*
X138658207Y-128369819D02*
X138324874Y-127893628D01*
X138086779Y-128369819D02*
X138086779Y-127369819D01*
X138086779Y-127369819D02*
X138467731Y-127369819D01*
X138467731Y-127369819D02*
X138562969Y-127417438D01*
X138562969Y-127417438D02*
X138610588Y-127465057D01*
X138610588Y-127465057D02*
X138658207Y-127560295D01*
X138658207Y-127560295D02*
X138658207Y-127703152D01*
X138658207Y-127703152D02*
X138610588Y-127798390D01*
X138610588Y-127798390D02*
X138562969Y-127846009D01*
X138562969Y-127846009D02*
X138467731Y-127893628D01*
X138467731Y-127893628D02*
X138086779Y-127893628D01*
X139086779Y-127846009D02*
X139420112Y-127846009D01*
X139562969Y-128369819D02*
X139086779Y-128369819D01*
X139086779Y-128369819D02*
X139086779Y-127369819D01*
X139086779Y-127369819D02*
X139562969Y-127369819D01*
X142943923Y-127369819D02*
X143182018Y-128369819D01*
X143182018Y-128369819D02*
X143372494Y-127655533D01*
X143372494Y-127655533D02*
X143562970Y-128369819D01*
X143562970Y-128369819D02*
X143801066Y-127369819D01*
X144182018Y-127846009D02*
X144515351Y-127846009D01*
X144658208Y-128369819D02*
X144182018Y-128369819D01*
X144182018Y-128369819D02*
X144182018Y-127369819D01*
X144182018Y-127369819D02*
X144658208Y-127369819D01*
D12*
X173135912Y-124909774D02*
X173135912Y-124624060D01*
X173135912Y-124624060D02*
X173207341Y-124481203D01*
X173207341Y-124481203D02*
X173350198Y-124338346D01*
X173350198Y-124338346D02*
X173635912Y-124266917D01*
X173635912Y-124266917D02*
X174135912Y-124266917D01*
X174135912Y-124266917D02*
X174421626Y-124338346D01*
X174421626Y-124338346D02*
X174564484Y-124481203D01*
X174564484Y-124481203D02*
X174635912Y-124624060D01*
X174635912Y-124624060D02*
X174635912Y-124909774D01*
X174635912Y-124909774D02*
X174564484Y-125052632D01*
X174564484Y-125052632D02*
X174421626Y-125195489D01*
X174421626Y-125195489D02*
X174135912Y-125266917D01*
X174135912Y-125266917D02*
X173635912Y-125266917D01*
X173635912Y-125266917D02*
X173350198Y-125195489D01*
X173350198Y-125195489D02*
X173207341Y-125052632D01*
X173207341Y-125052632D02*
X173135912Y-124909774D01*
X174493055Y-122766917D02*
X174564484Y-122838345D01*
X174564484Y-122838345D02*
X174635912Y-123052631D01*
X174635912Y-123052631D02*
X174635912Y-123195488D01*
X174635912Y-123195488D02*
X174564484Y-123409774D01*
X174564484Y-123409774D02*
X174421626Y-123552631D01*
X174421626Y-123552631D02*
X174278769Y-123624060D01*
X174278769Y-123624060D02*
X173993055Y-123695488D01*
X173993055Y-123695488D02*
X173778769Y-123695488D01*
X173778769Y-123695488D02*
X173493055Y-123624060D01*
X173493055Y-123624060D02*
X173350198Y-123552631D01*
X173350198Y-123552631D02*
X173207341Y-123409774D01*
X173207341Y-123409774D02*
X173135912Y-123195488D01*
X173135912Y-123195488D02*
X173135912Y-123052631D01*
X173135912Y-123052631D02*
X173207341Y-122838345D01*
X173207341Y-122838345D02*
X173278769Y-122766917D01*
X174635912Y-122124060D02*
X173135912Y-122124060D01*
X173135912Y-122124060D02*
X173135912Y-121552631D01*
X173135912Y-121552631D02*
X173207341Y-121409774D01*
X173207341Y-121409774D02*
X173278769Y-121338345D01*
X173278769Y-121338345D02*
X173421626Y-121266917D01*
X173421626Y-121266917D02*
X173635912Y-121266917D01*
X173635912Y-121266917D02*
X173778769Y-121338345D01*
X173778769Y-121338345D02*
X173850198Y-121409774D01*
X173850198Y-121409774D02*
X173921626Y-121552631D01*
X173921626Y-121552631D02*
X173921626Y-122124060D01*
X174635912Y-119481203D02*
X173135912Y-119481203D01*
X173135912Y-119481203D02*
X174207341Y-118981203D01*
X174207341Y-118981203D02*
X173135912Y-118481203D01*
X173135912Y-118481203D02*
X174635912Y-118481203D01*
X174564484Y-117195488D02*
X174635912Y-117338345D01*
X174635912Y-117338345D02*
X174635912Y-117624060D01*
X174635912Y-117624060D02*
X174564484Y-117766917D01*
X174564484Y-117766917D02*
X174421626Y-117838345D01*
X174421626Y-117838345D02*
X173850198Y-117838345D01*
X173850198Y-117838345D02*
X173707341Y-117766917D01*
X173707341Y-117766917D02*
X173635912Y-117624060D01*
X173635912Y-117624060D02*
X173635912Y-117338345D01*
X173635912Y-117338345D02*
X173707341Y-117195488D01*
X173707341Y-117195488D02*
X173850198Y-117124060D01*
X173850198Y-117124060D02*
X173993055Y-117124060D01*
X173993055Y-117124060D02*
X174135912Y-117838345D01*
X173635912Y-116695488D02*
X173635912Y-116124060D01*
X173135912Y-116481203D02*
X174421626Y-116481203D01*
X174421626Y-116481203D02*
X174564484Y-116409774D01*
X174564484Y-116409774D02*
X174635912Y-116266917D01*
X174635912Y-116266917D02*
X174635912Y-116124060D01*
X174564484Y-115052631D02*
X174635912Y-115195488D01*
X174635912Y-115195488D02*
X174635912Y-115481203D01*
X174635912Y-115481203D02*
X174564484Y-115624060D01*
X174564484Y-115624060D02*
X174421626Y-115695488D01*
X174421626Y-115695488D02*
X173850198Y-115695488D01*
X173850198Y-115695488D02*
X173707341Y-115624060D01*
X173707341Y-115624060D02*
X173635912Y-115481203D01*
X173635912Y-115481203D02*
X173635912Y-115195488D01*
X173635912Y-115195488D02*
X173707341Y-115052631D01*
X173707341Y-115052631D02*
X173850198Y-114981203D01*
X173850198Y-114981203D02*
X173993055Y-114981203D01*
X173993055Y-114981203D02*
X174135912Y-115695488D01*
X174635912Y-114338346D02*
X173635912Y-114338346D01*
X173921626Y-114338346D02*
X173778769Y-114266917D01*
X173778769Y-114266917D02*
X173707341Y-114195489D01*
X173707341Y-114195489D02*
X173635912Y-114052631D01*
X173635912Y-114052631D02*
X173635912Y-113909774D01*
X173635912Y-112409775D02*
X174635912Y-112052632D01*
X174635912Y-112052632D02*
X173635912Y-111695489D01*
X173278769Y-111195489D02*
X173207341Y-111124061D01*
X173207341Y-111124061D02*
X173135912Y-110981204D01*
X173135912Y-110981204D02*
X173135912Y-110624061D01*
X173135912Y-110624061D02*
X173207341Y-110481204D01*
X173207341Y-110481204D02*
X173278769Y-110409775D01*
X173278769Y-110409775D02*
X173421626Y-110338346D01*
X173421626Y-110338346D02*
X173564484Y-110338346D01*
X173564484Y-110338346D02*
X173778769Y-110409775D01*
X173778769Y-110409775D02*
X174635912Y-111266918D01*
X174635912Y-111266918D02*
X174635912Y-110338346D01*
X174493055Y-109695490D02*
X174564484Y-109624061D01*
X174564484Y-109624061D02*
X174635912Y-109695490D01*
X174635912Y-109695490D02*
X174564484Y-109766918D01*
X174564484Y-109766918D02*
X174493055Y-109695490D01*
X174493055Y-109695490D02*
X174635912Y-109695490D01*
X173135912Y-108695489D02*
X173135912Y-108552632D01*
X173135912Y-108552632D02*
X173207341Y-108409775D01*
X173207341Y-108409775D02*
X173278769Y-108338347D01*
X173278769Y-108338347D02*
X173421626Y-108266918D01*
X173421626Y-108266918D02*
X173707341Y-108195489D01*
X173707341Y-108195489D02*
X174064484Y-108195489D01*
X174064484Y-108195489D02*
X174350198Y-108266918D01*
X174350198Y-108266918D02*
X174493055Y-108338347D01*
X174493055Y-108338347D02*
X174564484Y-108409775D01*
X174564484Y-108409775D02*
X174635912Y-108552632D01*
X174635912Y-108552632D02*
X174635912Y-108695489D01*
X174635912Y-108695489D02*
X174564484Y-108838347D01*
X174564484Y-108838347D02*
X174493055Y-108909775D01*
X174493055Y-108909775D02*
X174350198Y-108981204D01*
X174350198Y-108981204D02*
X174064484Y-109052632D01*
X174064484Y-109052632D02*
X173707341Y-109052632D01*
X173707341Y-109052632D02*
X173421626Y-108981204D01*
X173421626Y-108981204D02*
X173278769Y-108909775D01*
X173278769Y-108909775D02*
X173207341Y-108838347D01*
X173207341Y-108838347D02*
X173135912Y-108695489D01*
X177050828Y-125195489D02*
X175550828Y-125195489D01*
X177050828Y-124338346D02*
X176193685Y-124981203D01*
X175550828Y-124338346D02*
X176407971Y-125195489D01*
X177050828Y-123695489D02*
X176050828Y-123695489D01*
X175550828Y-123695489D02*
X175622257Y-123766917D01*
X175622257Y-123766917D02*
X175693685Y-123695489D01*
X175693685Y-123695489D02*
X175622257Y-123624060D01*
X175622257Y-123624060D02*
X175550828Y-123695489D01*
X175550828Y-123695489D02*
X175693685Y-123695489D01*
X176979400Y-123052631D02*
X177050828Y-122909774D01*
X177050828Y-122909774D02*
X177050828Y-122624060D01*
X177050828Y-122624060D02*
X176979400Y-122481203D01*
X176979400Y-122481203D02*
X176836542Y-122409774D01*
X176836542Y-122409774D02*
X176765114Y-122409774D01*
X176765114Y-122409774D02*
X176622257Y-122481203D01*
X176622257Y-122481203D02*
X176550828Y-122624060D01*
X176550828Y-122624060D02*
X176550828Y-122838346D01*
X176550828Y-122838346D02*
X176479400Y-122981203D01*
X176479400Y-122981203D02*
X176336542Y-123052631D01*
X176336542Y-123052631D02*
X176265114Y-123052631D01*
X176265114Y-123052631D02*
X176122257Y-122981203D01*
X176122257Y-122981203D02*
X176050828Y-122838346D01*
X176050828Y-122838346D02*
X176050828Y-122624060D01*
X176050828Y-122624060D02*
X176122257Y-122481203D01*
X177050828Y-121766917D02*
X175550828Y-121766917D01*
X177050828Y-121124060D02*
X176265114Y-121124060D01*
X176265114Y-121124060D02*
X176122257Y-121195488D01*
X176122257Y-121195488D02*
X176050828Y-121338345D01*
X176050828Y-121338345D02*
X176050828Y-121552631D01*
X176050828Y-121552631D02*
X176122257Y-121695488D01*
X176122257Y-121695488D02*
X176193685Y-121766917D01*
X177050828Y-119766917D02*
X176265114Y-119766917D01*
X176265114Y-119766917D02*
X176122257Y-119838345D01*
X176122257Y-119838345D02*
X176050828Y-119981202D01*
X176050828Y-119981202D02*
X176050828Y-120266917D01*
X176050828Y-120266917D02*
X176122257Y-120409774D01*
X176979400Y-119766917D02*
X177050828Y-119909774D01*
X177050828Y-119909774D02*
X177050828Y-120266917D01*
X177050828Y-120266917D02*
X176979400Y-120409774D01*
X176979400Y-120409774D02*
X176836542Y-120481202D01*
X176836542Y-120481202D02*
X176693685Y-120481202D01*
X176693685Y-120481202D02*
X176550828Y-120409774D01*
X176550828Y-120409774D02*
X176479400Y-120266917D01*
X176479400Y-120266917D02*
X176479400Y-119909774D01*
X176479400Y-119909774D02*
X176407971Y-119766917D01*
X176050828Y-119052631D02*
X177050828Y-119052631D01*
X176193685Y-119052631D02*
X176122257Y-118981202D01*
X176122257Y-118981202D02*
X176050828Y-118838345D01*
X176050828Y-118838345D02*
X176050828Y-118624059D01*
X176050828Y-118624059D02*
X176122257Y-118481202D01*
X176122257Y-118481202D02*
X176265114Y-118409774D01*
X176265114Y-118409774D02*
X177050828Y-118409774D01*
D11*
X128446078Y-131550896D02*
X128446078Y-130550896D01*
X128446078Y-131027086D02*
X129017506Y-131027086D01*
X129017506Y-131550896D02*
X129017506Y-130550896D01*
X129398459Y-130550896D02*
X130017506Y-130550896D01*
X130017506Y-130550896D02*
X129684173Y-130931848D01*
X129684173Y-130931848D02*
X129827030Y-130931848D01*
X129827030Y-130931848D02*
X129922268Y-130979467D01*
X129922268Y-130979467D02*
X129969887Y-131027086D01*
X129969887Y-131027086D02*
X130017506Y-131122324D01*
X130017506Y-131122324D02*
X130017506Y-131360419D01*
X130017506Y-131360419D02*
X129969887Y-131455657D01*
X129969887Y-131455657D02*
X129922268Y-131503277D01*
X129922268Y-131503277D02*
X129827030Y-131550896D01*
X129827030Y-131550896D02*
X129541316Y-131550896D01*
X129541316Y-131550896D02*
X129446078Y-131503277D01*
X129446078Y-131503277D02*
X129398459Y-131455657D01*
X173488095Y-86354819D02*
X173488095Y-85354819D01*
X173488095Y-85831009D02*
X174059523Y-85831009D01*
X174059523Y-86354819D02*
X174059523Y-85354819D01*
X174488095Y-85450057D02*
X174535714Y-85402438D01*
X174535714Y-85402438D02*
X174630952Y-85354819D01*
X174630952Y-85354819D02*
X174869047Y-85354819D01*
X174869047Y-85354819D02*
X174964285Y-85402438D01*
X174964285Y-85402438D02*
X175011904Y-85450057D01*
X175011904Y-85450057D02*
X175059523Y-85545295D01*
X175059523Y-85545295D02*
X175059523Y-85640533D01*
X175059523Y-85640533D02*
X175011904Y-85783390D01*
X175011904Y-85783390D02*
X174440476Y-86354819D01*
X174440476Y-86354819D02*
X175059523Y-86354819D01*
X133351009Y-119483333D02*
X133351009Y-119816666D01*
X133874819Y-119816666D02*
X132874819Y-119816666D01*
X132874819Y-119816666D02*
X132874819Y-119340476D01*
X133874819Y-118435714D02*
X133874819Y-119007142D01*
X133874819Y-118721428D02*
X132874819Y-118721428D01*
X132874819Y-118721428D02*
X133017676Y-118816666D01*
X133017676Y-118816666D02*
X133112914Y-118911904D01*
X133112914Y-118911904D02*
X133160533Y-119007142D01*
X136073333Y-125954819D02*
X135740000Y-125478628D01*
X135501905Y-125954819D02*
X135501905Y-124954819D01*
X135501905Y-124954819D02*
X135882857Y-124954819D01*
X135882857Y-124954819D02*
X135978095Y-125002438D01*
X135978095Y-125002438D02*
X136025714Y-125050057D01*
X136025714Y-125050057D02*
X136073333Y-125145295D01*
X136073333Y-125145295D02*
X136073333Y-125288152D01*
X136073333Y-125288152D02*
X136025714Y-125383390D01*
X136025714Y-125383390D02*
X135978095Y-125431009D01*
X135978095Y-125431009D02*
X135882857Y-125478628D01*
X135882857Y-125478628D02*
X135501905Y-125478628D01*
X136454286Y-125050057D02*
X136501905Y-125002438D01*
X136501905Y-125002438D02*
X136597143Y-124954819D01*
X136597143Y-124954819D02*
X136835238Y-124954819D01*
X136835238Y-124954819D02*
X136930476Y-125002438D01*
X136930476Y-125002438D02*
X136978095Y-125050057D01*
X136978095Y-125050057D02*
X137025714Y-125145295D01*
X137025714Y-125145295D02*
X137025714Y-125240533D01*
X137025714Y-125240533D02*
X136978095Y-125383390D01*
X136978095Y-125383390D02*
X136406667Y-125954819D01*
X136406667Y-125954819D02*
X137025714Y-125954819D01*
X152497640Y-98562908D02*
X151688117Y-98562908D01*
X151688117Y-98562908D02*
X151592879Y-98610527D01*
X151592879Y-98610527D02*
X151545260Y-98658146D01*
X151545260Y-98658146D02*
X151497640Y-98753384D01*
X151497640Y-98753384D02*
X151497640Y-98943860D01*
X151497640Y-98943860D02*
X151545260Y-99039098D01*
X151545260Y-99039098D02*
X151592879Y-99086717D01*
X151592879Y-99086717D02*
X151688117Y-99134336D01*
X151688117Y-99134336D02*
X152497640Y-99134336D01*
X152497640Y-99515289D02*
X152497640Y-100134336D01*
X152497640Y-100134336D02*
X152116688Y-99801003D01*
X152116688Y-99801003D02*
X152116688Y-99943860D01*
X152116688Y-99943860D02*
X152069069Y-100039098D01*
X152069069Y-100039098D02*
X152021450Y-100086717D01*
X152021450Y-100086717D02*
X151926212Y-100134336D01*
X151926212Y-100134336D02*
X151688117Y-100134336D01*
X151688117Y-100134336D02*
X151592879Y-100086717D01*
X151592879Y-100086717D02*
X151545260Y-100039098D01*
X151545260Y-100039098D02*
X151497640Y-99943860D01*
X151497640Y-99943860D02*
X151497640Y-99658146D01*
X151497640Y-99658146D02*
X151545260Y-99562908D01*
X151545260Y-99562908D02*
X151592879Y-99515289D01*
D10*
X140007693Y-82568609D02*
X140374360Y-82568609D01*
X140531503Y-83092419D02*
X140007693Y-83092419D01*
X140007693Y-83092419D02*
X140007693Y-82092419D01*
X140007693Y-82092419D02*
X140531503Y-82092419D01*
X141002931Y-83092419D02*
X141002931Y-82092419D01*
X141002931Y-82092419D02*
X141631503Y-83092419D01*
X141631503Y-83092419D02*
X141631503Y-82092419D01*
X140583884Y-84640038D02*
X140479122Y-84592419D01*
X140479122Y-84592419D02*
X140321979Y-84592419D01*
X140321979Y-84592419D02*
X140164836Y-84640038D01*
X140164836Y-84640038D02*
X140060074Y-84735276D01*
X140060074Y-84735276D02*
X140007693Y-84830514D01*
X140007693Y-84830514D02*
X139955312Y-85020990D01*
X139955312Y-85020990D02*
X139955312Y-85163847D01*
X139955312Y-85163847D02*
X140007693Y-85354323D01*
X140007693Y-85354323D02*
X140060074Y-85449561D01*
X140060074Y-85449561D02*
X140164836Y-85544800D01*
X140164836Y-85544800D02*
X140321979Y-85592419D01*
X140321979Y-85592419D02*
X140426741Y-85592419D01*
X140426741Y-85592419D02*
X140583884Y-85544800D01*
X140583884Y-85544800D02*
X140636265Y-85497180D01*
X140636265Y-85497180D02*
X140636265Y-85163847D01*
X140636265Y-85163847D02*
X140426741Y-85163847D01*
X141107693Y-85592419D02*
X141107693Y-84592419D01*
X141107693Y-84592419D02*
X141526741Y-84592419D01*
X141526741Y-84592419D02*
X141631503Y-84640038D01*
X141631503Y-84640038D02*
X141683884Y-84687657D01*
X141683884Y-84687657D02*
X141736265Y-84782895D01*
X141736265Y-84782895D02*
X141736265Y-84925752D01*
X141736265Y-84925752D02*
X141683884Y-85020990D01*
X141683884Y-85020990D02*
X141631503Y-85068609D01*
X141631503Y-85068609D02*
X141526741Y-85116228D01*
X141526741Y-85116228D02*
X141107693Y-85116228D01*
X142207693Y-85592419D02*
X142207693Y-84592419D01*
X142941027Y-84592419D02*
X143150551Y-84592419D01*
X143150551Y-84592419D02*
X143255313Y-84640038D01*
X143255313Y-84640038D02*
X143360075Y-84735276D01*
X143360075Y-84735276D02*
X143412456Y-84925752D01*
X143412456Y-84925752D02*
X143412456Y-85259085D01*
X143412456Y-85259085D02*
X143360075Y-85449561D01*
X143360075Y-85449561D02*
X143255313Y-85544800D01*
X143255313Y-85544800D02*
X143150551Y-85592419D01*
X143150551Y-85592419D02*
X142941027Y-85592419D01*
X142941027Y-85592419D02*
X142836265Y-85544800D01*
X142836265Y-85544800D02*
X142731503Y-85449561D01*
X142731503Y-85449561D02*
X142679122Y-85259085D01*
X142679122Y-85259085D02*
X142679122Y-84925752D01*
X142679122Y-84925752D02*
X142731503Y-84735276D01*
X142731503Y-84735276D02*
X142836265Y-84640038D01*
X142836265Y-84640038D02*
X142941027Y-84592419D01*
X143779122Y-84592419D02*
X144460075Y-84592419D01*
X144460075Y-84592419D02*
X144093408Y-84973371D01*
X144093408Y-84973371D02*
X144250551Y-84973371D01*
X144250551Y-84973371D02*
X144355313Y-85020990D01*
X144355313Y-85020990D02*
X144407694Y-85068609D01*
X144407694Y-85068609D02*
X144460075Y-85163847D01*
X144460075Y-85163847D02*
X144460075Y-85401942D01*
X144460075Y-85401942D02*
X144407694Y-85497180D01*
X144407694Y-85497180D02*
X144355313Y-85544800D01*
X144355313Y-85544800D02*
X144250551Y-85592419D01*
X144250551Y-85592419D02*
X143936265Y-85592419D01*
X143936265Y-85592419D02*
X143831503Y-85544800D01*
X143831503Y-85544800D02*
X143779122Y-85497180D01*
X145402932Y-84592419D02*
X145193408Y-84592419D01*
X145193408Y-84592419D02*
X145088646Y-84640038D01*
X145088646Y-84640038D02*
X145036265Y-84687657D01*
X145036265Y-84687657D02*
X144931503Y-84830514D01*
X144931503Y-84830514D02*
X144879122Y-85020990D01*
X144879122Y-85020990D02*
X144879122Y-85401942D01*
X144879122Y-85401942D02*
X144931503Y-85497180D01*
X144931503Y-85497180D02*
X144983884Y-85544800D01*
X144983884Y-85544800D02*
X145088646Y-85592419D01*
X145088646Y-85592419D02*
X145298170Y-85592419D01*
X145298170Y-85592419D02*
X145402932Y-85544800D01*
X145402932Y-85544800D02*
X145455313Y-85497180D01*
X145455313Y-85497180D02*
X145507694Y-85401942D01*
X145507694Y-85401942D02*
X145507694Y-85163847D01*
X145507694Y-85163847D02*
X145455313Y-85068609D01*
X145455313Y-85068609D02*
X145402932Y-85020990D01*
X145402932Y-85020990D02*
X145298170Y-84973371D01*
X145298170Y-84973371D02*
X145088646Y-84973371D01*
X145088646Y-84973371D02*
X144983884Y-85020990D01*
X144983884Y-85020990D02*
X144931503Y-85068609D01*
X144931503Y-85068609D02*
X144879122Y-85163847D01*
X140583884Y-87140038D02*
X140479122Y-87092419D01*
X140479122Y-87092419D02*
X140321979Y-87092419D01*
X140321979Y-87092419D02*
X140164836Y-87140038D01*
X140164836Y-87140038D02*
X140060074Y-87235276D01*
X140060074Y-87235276D02*
X140007693Y-87330514D01*
X140007693Y-87330514D02*
X139955312Y-87520990D01*
X139955312Y-87520990D02*
X139955312Y-87663847D01*
X139955312Y-87663847D02*
X140007693Y-87854323D01*
X140007693Y-87854323D02*
X140060074Y-87949561D01*
X140060074Y-87949561D02*
X140164836Y-88044800D01*
X140164836Y-88044800D02*
X140321979Y-88092419D01*
X140321979Y-88092419D02*
X140426741Y-88092419D01*
X140426741Y-88092419D02*
X140583884Y-88044800D01*
X140583884Y-88044800D02*
X140636265Y-87997180D01*
X140636265Y-87997180D02*
X140636265Y-87663847D01*
X140636265Y-87663847D02*
X140426741Y-87663847D01*
X141107693Y-88092419D02*
X141107693Y-87092419D01*
X141107693Y-87092419D02*
X141526741Y-87092419D01*
X141526741Y-87092419D02*
X141631503Y-87140038D01*
X141631503Y-87140038D02*
X141683884Y-87187657D01*
X141683884Y-87187657D02*
X141736265Y-87282895D01*
X141736265Y-87282895D02*
X141736265Y-87425752D01*
X141736265Y-87425752D02*
X141683884Y-87520990D01*
X141683884Y-87520990D02*
X141631503Y-87568609D01*
X141631503Y-87568609D02*
X141526741Y-87616228D01*
X141526741Y-87616228D02*
X141107693Y-87616228D01*
X142207693Y-88092419D02*
X142207693Y-87092419D01*
X142941027Y-87092419D02*
X143150551Y-87092419D01*
X143150551Y-87092419D02*
X143255313Y-87140038D01*
X143255313Y-87140038D02*
X143360075Y-87235276D01*
X143360075Y-87235276D02*
X143412456Y-87425752D01*
X143412456Y-87425752D02*
X143412456Y-87759085D01*
X143412456Y-87759085D02*
X143360075Y-87949561D01*
X143360075Y-87949561D02*
X143255313Y-88044800D01*
X143255313Y-88044800D02*
X143150551Y-88092419D01*
X143150551Y-88092419D02*
X142941027Y-88092419D01*
X142941027Y-88092419D02*
X142836265Y-88044800D01*
X142836265Y-88044800D02*
X142731503Y-87949561D01*
X142731503Y-87949561D02*
X142679122Y-87759085D01*
X142679122Y-87759085D02*
X142679122Y-87425752D01*
X142679122Y-87425752D02*
X142731503Y-87235276D01*
X142731503Y-87235276D02*
X142836265Y-87140038D01*
X142836265Y-87140038D02*
X142941027Y-87092419D01*
X143779122Y-87092419D02*
X144460075Y-87092419D01*
X144460075Y-87092419D02*
X144093408Y-87473371D01*
X144093408Y-87473371D02*
X144250551Y-87473371D01*
X144250551Y-87473371D02*
X144355313Y-87520990D01*
X144355313Y-87520990D02*
X144407694Y-87568609D01*
X144407694Y-87568609D02*
X144460075Y-87663847D01*
X144460075Y-87663847D02*
X144460075Y-87901942D01*
X144460075Y-87901942D02*
X144407694Y-87997180D01*
X144407694Y-87997180D02*
X144355313Y-88044800D01*
X144355313Y-88044800D02*
X144250551Y-88092419D01*
X144250551Y-88092419D02*
X143936265Y-88092419D01*
X143936265Y-88092419D02*
X143831503Y-88044800D01*
X143831503Y-88044800D02*
X143779122Y-87997180D01*
X144983884Y-88092419D02*
X145193408Y-88092419D01*
X145193408Y-88092419D02*
X145298170Y-88044800D01*
X145298170Y-88044800D02*
X145350551Y-87997180D01*
X145350551Y-87997180D02*
X145455313Y-87854323D01*
X145455313Y-87854323D02*
X145507694Y-87663847D01*
X145507694Y-87663847D02*
X145507694Y-87282895D01*
X145507694Y-87282895D02*
X145455313Y-87187657D01*
X145455313Y-87187657D02*
X145402932Y-87140038D01*
X145402932Y-87140038D02*
X145298170Y-87092419D01*
X145298170Y-87092419D02*
X145088646Y-87092419D01*
X145088646Y-87092419D02*
X144983884Y-87140038D01*
X144983884Y-87140038D02*
X144931503Y-87187657D01*
X144931503Y-87187657D02*
X144879122Y-87282895D01*
X144879122Y-87282895D02*
X144879122Y-87520990D01*
X144879122Y-87520990D02*
X144931503Y-87616228D01*
X144931503Y-87616228D02*
X144983884Y-87663847D01*
X144983884Y-87663847D02*
X145088646Y-87711466D01*
X145088646Y-87711466D02*
X145298170Y-87711466D01*
X145298170Y-87711466D02*
X145402932Y-87663847D01*
X145402932Y-87663847D02*
X145455313Y-87616228D01*
X145455313Y-87616228D02*
X145507694Y-87520990D01*
X140583884Y-89640038D02*
X140479122Y-89592419D01*
X140479122Y-89592419D02*
X140321979Y-89592419D01*
X140321979Y-89592419D02*
X140164836Y-89640038D01*
X140164836Y-89640038D02*
X140060074Y-89735276D01*
X140060074Y-89735276D02*
X140007693Y-89830514D01*
X140007693Y-89830514D02*
X139955312Y-90020990D01*
X139955312Y-90020990D02*
X139955312Y-90163847D01*
X139955312Y-90163847D02*
X140007693Y-90354323D01*
X140007693Y-90354323D02*
X140060074Y-90449561D01*
X140060074Y-90449561D02*
X140164836Y-90544800D01*
X140164836Y-90544800D02*
X140321979Y-90592419D01*
X140321979Y-90592419D02*
X140426741Y-90592419D01*
X140426741Y-90592419D02*
X140583884Y-90544800D01*
X140583884Y-90544800D02*
X140636265Y-90497180D01*
X140636265Y-90497180D02*
X140636265Y-90163847D01*
X140636265Y-90163847D02*
X140426741Y-90163847D01*
X141107693Y-90592419D02*
X141107693Y-89592419D01*
X141107693Y-89592419D02*
X141526741Y-89592419D01*
X141526741Y-89592419D02*
X141631503Y-89640038D01*
X141631503Y-89640038D02*
X141683884Y-89687657D01*
X141683884Y-89687657D02*
X141736265Y-89782895D01*
X141736265Y-89782895D02*
X141736265Y-89925752D01*
X141736265Y-89925752D02*
X141683884Y-90020990D01*
X141683884Y-90020990D02*
X141631503Y-90068609D01*
X141631503Y-90068609D02*
X141526741Y-90116228D01*
X141526741Y-90116228D02*
X141107693Y-90116228D01*
X142207693Y-90592419D02*
X142207693Y-89592419D01*
X142941027Y-89592419D02*
X143150551Y-89592419D01*
X143150551Y-89592419D02*
X143255313Y-89640038D01*
X143255313Y-89640038D02*
X143360075Y-89735276D01*
X143360075Y-89735276D02*
X143412456Y-89925752D01*
X143412456Y-89925752D02*
X143412456Y-90259085D01*
X143412456Y-90259085D02*
X143360075Y-90449561D01*
X143360075Y-90449561D02*
X143255313Y-90544800D01*
X143255313Y-90544800D02*
X143150551Y-90592419D01*
X143150551Y-90592419D02*
X142941027Y-90592419D01*
X142941027Y-90592419D02*
X142836265Y-90544800D01*
X142836265Y-90544800D02*
X142731503Y-90449561D01*
X142731503Y-90449561D02*
X142679122Y-90259085D01*
X142679122Y-90259085D02*
X142679122Y-89925752D01*
X142679122Y-89925752D02*
X142731503Y-89735276D01*
X142731503Y-89735276D02*
X142836265Y-89640038D01*
X142836265Y-89640038D02*
X142941027Y-89592419D01*
X143779122Y-89592419D02*
X144460075Y-89592419D01*
X144460075Y-89592419D02*
X144093408Y-89973371D01*
X144093408Y-89973371D02*
X144250551Y-89973371D01*
X144250551Y-89973371D02*
X144355313Y-90020990D01*
X144355313Y-90020990D02*
X144407694Y-90068609D01*
X144407694Y-90068609D02*
X144460075Y-90163847D01*
X144460075Y-90163847D02*
X144460075Y-90401942D01*
X144460075Y-90401942D02*
X144407694Y-90497180D01*
X144407694Y-90497180D02*
X144355313Y-90544800D01*
X144355313Y-90544800D02*
X144250551Y-90592419D01*
X144250551Y-90592419D02*
X143936265Y-90592419D01*
X143936265Y-90592419D02*
X143831503Y-90544800D01*
X143831503Y-90544800D02*
X143779122Y-90497180D01*
X145402932Y-89925752D02*
X145402932Y-90592419D01*
X145141027Y-89544800D02*
X144879122Y-90259085D01*
X144879122Y-90259085D02*
X145560075Y-90259085D01*
X140583884Y-92140038D02*
X140479122Y-92092419D01*
X140479122Y-92092419D02*
X140321979Y-92092419D01*
X140321979Y-92092419D02*
X140164836Y-92140038D01*
X140164836Y-92140038D02*
X140060074Y-92235276D01*
X140060074Y-92235276D02*
X140007693Y-92330514D01*
X140007693Y-92330514D02*
X139955312Y-92520990D01*
X139955312Y-92520990D02*
X139955312Y-92663847D01*
X139955312Y-92663847D02*
X140007693Y-92854323D01*
X140007693Y-92854323D02*
X140060074Y-92949561D01*
X140060074Y-92949561D02*
X140164836Y-93044800D01*
X140164836Y-93044800D02*
X140321979Y-93092419D01*
X140321979Y-93092419D02*
X140426741Y-93092419D01*
X140426741Y-93092419D02*
X140583884Y-93044800D01*
X140583884Y-93044800D02*
X140636265Y-92997180D01*
X140636265Y-92997180D02*
X140636265Y-92663847D01*
X140636265Y-92663847D02*
X140426741Y-92663847D01*
X141107693Y-93092419D02*
X141107693Y-92092419D01*
X141107693Y-92092419D02*
X141526741Y-92092419D01*
X141526741Y-92092419D02*
X141631503Y-92140038D01*
X141631503Y-92140038D02*
X141683884Y-92187657D01*
X141683884Y-92187657D02*
X141736265Y-92282895D01*
X141736265Y-92282895D02*
X141736265Y-92425752D01*
X141736265Y-92425752D02*
X141683884Y-92520990D01*
X141683884Y-92520990D02*
X141631503Y-92568609D01*
X141631503Y-92568609D02*
X141526741Y-92616228D01*
X141526741Y-92616228D02*
X141107693Y-92616228D01*
X142207693Y-93092419D02*
X142207693Y-92092419D01*
X142941027Y-92092419D02*
X143150551Y-92092419D01*
X143150551Y-92092419D02*
X143255313Y-92140038D01*
X143255313Y-92140038D02*
X143360075Y-92235276D01*
X143360075Y-92235276D02*
X143412456Y-92425752D01*
X143412456Y-92425752D02*
X143412456Y-92759085D01*
X143412456Y-92759085D02*
X143360075Y-92949561D01*
X143360075Y-92949561D02*
X143255313Y-93044800D01*
X143255313Y-93044800D02*
X143150551Y-93092419D01*
X143150551Y-93092419D02*
X142941027Y-93092419D01*
X142941027Y-93092419D02*
X142836265Y-93044800D01*
X142836265Y-93044800D02*
X142731503Y-92949561D01*
X142731503Y-92949561D02*
X142679122Y-92759085D01*
X142679122Y-92759085D02*
X142679122Y-92425752D01*
X142679122Y-92425752D02*
X142731503Y-92235276D01*
X142731503Y-92235276D02*
X142836265Y-92140038D01*
X142836265Y-92140038D02*
X142941027Y-92092419D01*
X143779122Y-92092419D02*
X144460075Y-92092419D01*
X144460075Y-92092419D02*
X144093408Y-92473371D01*
X144093408Y-92473371D02*
X144250551Y-92473371D01*
X144250551Y-92473371D02*
X144355313Y-92520990D01*
X144355313Y-92520990D02*
X144407694Y-92568609D01*
X144407694Y-92568609D02*
X144460075Y-92663847D01*
X144460075Y-92663847D02*
X144460075Y-92901942D01*
X144460075Y-92901942D02*
X144407694Y-92997180D01*
X144407694Y-92997180D02*
X144355313Y-93044800D01*
X144355313Y-93044800D02*
X144250551Y-93092419D01*
X144250551Y-93092419D02*
X143936265Y-93092419D01*
X143936265Y-93092419D02*
X143831503Y-93044800D01*
X143831503Y-93044800D02*
X143779122Y-92997180D01*
X145455313Y-92092419D02*
X144931503Y-92092419D01*
X144931503Y-92092419D02*
X144879122Y-92568609D01*
X144879122Y-92568609D02*
X144931503Y-92520990D01*
X144931503Y-92520990D02*
X145036265Y-92473371D01*
X145036265Y-92473371D02*
X145298170Y-92473371D01*
X145298170Y-92473371D02*
X145402932Y-92520990D01*
X145402932Y-92520990D02*
X145455313Y-92568609D01*
X145455313Y-92568609D02*
X145507694Y-92663847D01*
X145507694Y-92663847D02*
X145507694Y-92901942D01*
X145507694Y-92901942D02*
X145455313Y-92997180D01*
X145455313Y-92997180D02*
X145402932Y-93044800D01*
X145402932Y-93044800D02*
X145298170Y-93092419D01*
X145298170Y-93092419D02*
X145036265Y-93092419D01*
X145036265Y-93092419D02*
X144931503Y-93044800D01*
X144931503Y-93044800D02*
X144879122Y-92997180D01*
X140583884Y-94640038D02*
X140479122Y-94592419D01*
X140479122Y-94592419D02*
X140321979Y-94592419D01*
X140321979Y-94592419D02*
X140164836Y-94640038D01*
X140164836Y-94640038D02*
X140060074Y-94735276D01*
X140060074Y-94735276D02*
X140007693Y-94830514D01*
X140007693Y-94830514D02*
X139955312Y-95020990D01*
X139955312Y-95020990D02*
X139955312Y-95163847D01*
X139955312Y-95163847D02*
X140007693Y-95354323D01*
X140007693Y-95354323D02*
X140060074Y-95449561D01*
X140060074Y-95449561D02*
X140164836Y-95544800D01*
X140164836Y-95544800D02*
X140321979Y-95592419D01*
X140321979Y-95592419D02*
X140426741Y-95592419D01*
X140426741Y-95592419D02*
X140583884Y-95544800D01*
X140583884Y-95544800D02*
X140636265Y-95497180D01*
X140636265Y-95497180D02*
X140636265Y-95163847D01*
X140636265Y-95163847D02*
X140426741Y-95163847D01*
X141107693Y-95592419D02*
X141107693Y-94592419D01*
X141107693Y-94592419D02*
X141526741Y-94592419D01*
X141526741Y-94592419D02*
X141631503Y-94640038D01*
X141631503Y-94640038D02*
X141683884Y-94687657D01*
X141683884Y-94687657D02*
X141736265Y-94782895D01*
X141736265Y-94782895D02*
X141736265Y-94925752D01*
X141736265Y-94925752D02*
X141683884Y-95020990D01*
X141683884Y-95020990D02*
X141631503Y-95068609D01*
X141631503Y-95068609D02*
X141526741Y-95116228D01*
X141526741Y-95116228D02*
X141107693Y-95116228D01*
X142207693Y-95592419D02*
X142207693Y-94592419D01*
X142941027Y-94592419D02*
X143150551Y-94592419D01*
X143150551Y-94592419D02*
X143255313Y-94640038D01*
X143255313Y-94640038D02*
X143360075Y-94735276D01*
X143360075Y-94735276D02*
X143412456Y-94925752D01*
X143412456Y-94925752D02*
X143412456Y-95259085D01*
X143412456Y-95259085D02*
X143360075Y-95449561D01*
X143360075Y-95449561D02*
X143255313Y-95544800D01*
X143255313Y-95544800D02*
X143150551Y-95592419D01*
X143150551Y-95592419D02*
X142941027Y-95592419D01*
X142941027Y-95592419D02*
X142836265Y-95544800D01*
X142836265Y-95544800D02*
X142731503Y-95449561D01*
X142731503Y-95449561D02*
X142679122Y-95259085D01*
X142679122Y-95259085D02*
X142679122Y-94925752D01*
X142679122Y-94925752D02*
X142731503Y-94735276D01*
X142731503Y-94735276D02*
X142836265Y-94640038D01*
X142836265Y-94640038D02*
X142941027Y-94592419D01*
X143779122Y-94592419D02*
X144460075Y-94592419D01*
X144460075Y-94592419D02*
X144093408Y-94973371D01*
X144093408Y-94973371D02*
X144250551Y-94973371D01*
X144250551Y-94973371D02*
X144355313Y-95020990D01*
X144355313Y-95020990D02*
X144407694Y-95068609D01*
X144407694Y-95068609D02*
X144460075Y-95163847D01*
X144460075Y-95163847D02*
X144460075Y-95401942D01*
X144460075Y-95401942D02*
X144407694Y-95497180D01*
X144407694Y-95497180D02*
X144355313Y-95544800D01*
X144355313Y-95544800D02*
X144250551Y-95592419D01*
X144250551Y-95592419D02*
X143936265Y-95592419D01*
X143936265Y-95592419D02*
X143831503Y-95544800D01*
X143831503Y-95544800D02*
X143779122Y-95497180D01*
X144879122Y-94687657D02*
X144931503Y-94640038D01*
X144931503Y-94640038D02*
X145036265Y-94592419D01*
X145036265Y-94592419D02*
X145298170Y-94592419D01*
X145298170Y-94592419D02*
X145402932Y-94640038D01*
X145402932Y-94640038D02*
X145455313Y-94687657D01*
X145455313Y-94687657D02*
X145507694Y-94782895D01*
X145507694Y-94782895D02*
X145507694Y-94878133D01*
X145507694Y-94878133D02*
X145455313Y-95020990D01*
X145455313Y-95020990D02*
X144826741Y-95592419D01*
X144826741Y-95592419D02*
X145507694Y-95592419D01*
X140583884Y-97140038D02*
X140479122Y-97092419D01*
X140479122Y-97092419D02*
X140321979Y-97092419D01*
X140321979Y-97092419D02*
X140164836Y-97140038D01*
X140164836Y-97140038D02*
X140060074Y-97235276D01*
X140060074Y-97235276D02*
X140007693Y-97330514D01*
X140007693Y-97330514D02*
X139955312Y-97520990D01*
X139955312Y-97520990D02*
X139955312Y-97663847D01*
X139955312Y-97663847D02*
X140007693Y-97854323D01*
X140007693Y-97854323D02*
X140060074Y-97949561D01*
X140060074Y-97949561D02*
X140164836Y-98044800D01*
X140164836Y-98044800D02*
X140321979Y-98092419D01*
X140321979Y-98092419D02*
X140426741Y-98092419D01*
X140426741Y-98092419D02*
X140583884Y-98044800D01*
X140583884Y-98044800D02*
X140636265Y-97997180D01*
X140636265Y-97997180D02*
X140636265Y-97663847D01*
X140636265Y-97663847D02*
X140426741Y-97663847D01*
X141107693Y-98092419D02*
X141107693Y-97092419D01*
X141107693Y-97092419D02*
X141526741Y-97092419D01*
X141526741Y-97092419D02*
X141631503Y-97140038D01*
X141631503Y-97140038D02*
X141683884Y-97187657D01*
X141683884Y-97187657D02*
X141736265Y-97282895D01*
X141736265Y-97282895D02*
X141736265Y-97425752D01*
X141736265Y-97425752D02*
X141683884Y-97520990D01*
X141683884Y-97520990D02*
X141631503Y-97568609D01*
X141631503Y-97568609D02*
X141526741Y-97616228D01*
X141526741Y-97616228D02*
X141107693Y-97616228D01*
X142207693Y-98092419D02*
X142207693Y-97092419D01*
X142941027Y-97092419D02*
X143150551Y-97092419D01*
X143150551Y-97092419D02*
X143255313Y-97140038D01*
X143255313Y-97140038D02*
X143360075Y-97235276D01*
X143360075Y-97235276D02*
X143412456Y-97425752D01*
X143412456Y-97425752D02*
X143412456Y-97759085D01*
X143412456Y-97759085D02*
X143360075Y-97949561D01*
X143360075Y-97949561D02*
X143255313Y-98044800D01*
X143255313Y-98044800D02*
X143150551Y-98092419D01*
X143150551Y-98092419D02*
X142941027Y-98092419D01*
X142941027Y-98092419D02*
X142836265Y-98044800D01*
X142836265Y-98044800D02*
X142731503Y-97949561D01*
X142731503Y-97949561D02*
X142679122Y-97759085D01*
X142679122Y-97759085D02*
X142679122Y-97425752D01*
X142679122Y-97425752D02*
X142731503Y-97235276D01*
X142731503Y-97235276D02*
X142836265Y-97140038D01*
X142836265Y-97140038D02*
X142941027Y-97092419D01*
X143779122Y-97092419D02*
X144460075Y-97092419D01*
X144460075Y-97092419D02*
X144093408Y-97473371D01*
X144093408Y-97473371D02*
X144250551Y-97473371D01*
X144250551Y-97473371D02*
X144355313Y-97520990D01*
X144355313Y-97520990D02*
X144407694Y-97568609D01*
X144407694Y-97568609D02*
X144460075Y-97663847D01*
X144460075Y-97663847D02*
X144460075Y-97901942D01*
X144460075Y-97901942D02*
X144407694Y-97997180D01*
X144407694Y-97997180D02*
X144355313Y-98044800D01*
X144355313Y-98044800D02*
X144250551Y-98092419D01*
X144250551Y-98092419D02*
X143936265Y-98092419D01*
X143936265Y-98092419D02*
X143831503Y-98044800D01*
X143831503Y-98044800D02*
X143779122Y-97997180D01*
X144826741Y-97092419D02*
X145507694Y-97092419D01*
X145507694Y-97092419D02*
X145141027Y-97473371D01*
X145141027Y-97473371D02*
X145298170Y-97473371D01*
X145298170Y-97473371D02*
X145402932Y-97520990D01*
X145402932Y-97520990D02*
X145455313Y-97568609D01*
X145455313Y-97568609D02*
X145507694Y-97663847D01*
X145507694Y-97663847D02*
X145507694Y-97901942D01*
X145507694Y-97901942D02*
X145455313Y-97997180D01*
X145455313Y-97997180D02*
X145402932Y-98044800D01*
X145402932Y-98044800D02*
X145298170Y-98092419D01*
X145298170Y-98092419D02*
X144983884Y-98092419D01*
X144983884Y-98092419D02*
X144879122Y-98044800D01*
X144879122Y-98044800D02*
X144826741Y-97997180D01*
X140583884Y-99640038D02*
X140479122Y-99592419D01*
X140479122Y-99592419D02*
X140321979Y-99592419D01*
X140321979Y-99592419D02*
X140164836Y-99640038D01*
X140164836Y-99640038D02*
X140060074Y-99735276D01*
X140060074Y-99735276D02*
X140007693Y-99830514D01*
X140007693Y-99830514D02*
X139955312Y-100020990D01*
X139955312Y-100020990D02*
X139955312Y-100163847D01*
X139955312Y-100163847D02*
X140007693Y-100354323D01*
X140007693Y-100354323D02*
X140060074Y-100449561D01*
X140060074Y-100449561D02*
X140164836Y-100544800D01*
X140164836Y-100544800D02*
X140321979Y-100592419D01*
X140321979Y-100592419D02*
X140426741Y-100592419D01*
X140426741Y-100592419D02*
X140583884Y-100544800D01*
X140583884Y-100544800D02*
X140636265Y-100497180D01*
X140636265Y-100497180D02*
X140636265Y-100163847D01*
X140636265Y-100163847D02*
X140426741Y-100163847D01*
X141107693Y-100592419D02*
X141107693Y-99592419D01*
X141107693Y-99592419D02*
X141526741Y-99592419D01*
X141526741Y-99592419D02*
X141631503Y-99640038D01*
X141631503Y-99640038D02*
X141683884Y-99687657D01*
X141683884Y-99687657D02*
X141736265Y-99782895D01*
X141736265Y-99782895D02*
X141736265Y-99925752D01*
X141736265Y-99925752D02*
X141683884Y-100020990D01*
X141683884Y-100020990D02*
X141631503Y-100068609D01*
X141631503Y-100068609D02*
X141526741Y-100116228D01*
X141526741Y-100116228D02*
X141107693Y-100116228D01*
X142207693Y-100592419D02*
X142207693Y-99592419D01*
X142941027Y-99592419D02*
X143150551Y-99592419D01*
X143150551Y-99592419D02*
X143255313Y-99640038D01*
X143255313Y-99640038D02*
X143360075Y-99735276D01*
X143360075Y-99735276D02*
X143412456Y-99925752D01*
X143412456Y-99925752D02*
X143412456Y-100259085D01*
X143412456Y-100259085D02*
X143360075Y-100449561D01*
X143360075Y-100449561D02*
X143255313Y-100544800D01*
X143255313Y-100544800D02*
X143150551Y-100592419D01*
X143150551Y-100592419D02*
X142941027Y-100592419D01*
X142941027Y-100592419D02*
X142836265Y-100544800D01*
X142836265Y-100544800D02*
X142731503Y-100449561D01*
X142731503Y-100449561D02*
X142679122Y-100259085D01*
X142679122Y-100259085D02*
X142679122Y-99925752D01*
X142679122Y-99925752D02*
X142731503Y-99735276D01*
X142731503Y-99735276D02*
X142836265Y-99640038D01*
X142836265Y-99640038D02*
X142941027Y-99592419D01*
X143831503Y-99687657D02*
X143883884Y-99640038D01*
X143883884Y-99640038D02*
X143988646Y-99592419D01*
X143988646Y-99592419D02*
X144250551Y-99592419D01*
X144250551Y-99592419D02*
X144355313Y-99640038D01*
X144355313Y-99640038D02*
X144407694Y-99687657D01*
X144407694Y-99687657D02*
X144460075Y-99782895D01*
X144460075Y-99782895D02*
X144460075Y-99878133D01*
X144460075Y-99878133D02*
X144407694Y-100020990D01*
X144407694Y-100020990D02*
X143779122Y-100592419D01*
X143779122Y-100592419D02*
X144460075Y-100592419D01*
X145455313Y-99592419D02*
X144931503Y-99592419D01*
X144931503Y-99592419D02*
X144879122Y-100068609D01*
X144879122Y-100068609D02*
X144931503Y-100020990D01*
X144931503Y-100020990D02*
X145036265Y-99973371D01*
X145036265Y-99973371D02*
X145298170Y-99973371D01*
X145298170Y-99973371D02*
X145402932Y-100020990D01*
X145402932Y-100020990D02*
X145455313Y-100068609D01*
X145455313Y-100068609D02*
X145507694Y-100163847D01*
X145507694Y-100163847D02*
X145507694Y-100401942D01*
X145507694Y-100401942D02*
X145455313Y-100497180D01*
X145455313Y-100497180D02*
X145402932Y-100544800D01*
X145402932Y-100544800D02*
X145298170Y-100592419D01*
X145298170Y-100592419D02*
X145036265Y-100592419D01*
X145036265Y-100592419D02*
X144931503Y-100544800D01*
X144931503Y-100544800D02*
X144879122Y-100497180D01*
X140583884Y-102140038D02*
X140479122Y-102092419D01*
X140479122Y-102092419D02*
X140321979Y-102092419D01*
X140321979Y-102092419D02*
X140164836Y-102140038D01*
X140164836Y-102140038D02*
X140060074Y-102235276D01*
X140060074Y-102235276D02*
X140007693Y-102330514D01*
X140007693Y-102330514D02*
X139955312Y-102520990D01*
X139955312Y-102520990D02*
X139955312Y-102663847D01*
X139955312Y-102663847D02*
X140007693Y-102854323D01*
X140007693Y-102854323D02*
X140060074Y-102949561D01*
X140060074Y-102949561D02*
X140164836Y-103044800D01*
X140164836Y-103044800D02*
X140321979Y-103092419D01*
X140321979Y-103092419D02*
X140426741Y-103092419D01*
X140426741Y-103092419D02*
X140583884Y-103044800D01*
X140583884Y-103044800D02*
X140636265Y-102997180D01*
X140636265Y-102997180D02*
X140636265Y-102663847D01*
X140636265Y-102663847D02*
X140426741Y-102663847D01*
X141107693Y-103092419D02*
X141107693Y-102092419D01*
X141107693Y-102092419D02*
X141526741Y-102092419D01*
X141526741Y-102092419D02*
X141631503Y-102140038D01*
X141631503Y-102140038D02*
X141683884Y-102187657D01*
X141683884Y-102187657D02*
X141736265Y-102282895D01*
X141736265Y-102282895D02*
X141736265Y-102425752D01*
X141736265Y-102425752D02*
X141683884Y-102520990D01*
X141683884Y-102520990D02*
X141631503Y-102568609D01*
X141631503Y-102568609D02*
X141526741Y-102616228D01*
X141526741Y-102616228D02*
X141107693Y-102616228D01*
X142207693Y-103092419D02*
X142207693Y-102092419D01*
X142941027Y-102092419D02*
X143150551Y-102092419D01*
X143150551Y-102092419D02*
X143255313Y-102140038D01*
X143255313Y-102140038D02*
X143360075Y-102235276D01*
X143360075Y-102235276D02*
X143412456Y-102425752D01*
X143412456Y-102425752D02*
X143412456Y-102759085D01*
X143412456Y-102759085D02*
X143360075Y-102949561D01*
X143360075Y-102949561D02*
X143255313Y-103044800D01*
X143255313Y-103044800D02*
X143150551Y-103092419D01*
X143150551Y-103092419D02*
X142941027Y-103092419D01*
X142941027Y-103092419D02*
X142836265Y-103044800D01*
X142836265Y-103044800D02*
X142731503Y-102949561D01*
X142731503Y-102949561D02*
X142679122Y-102759085D01*
X142679122Y-102759085D02*
X142679122Y-102425752D01*
X142679122Y-102425752D02*
X142731503Y-102235276D01*
X142731503Y-102235276D02*
X142836265Y-102140038D01*
X142836265Y-102140038D02*
X142941027Y-102092419D01*
X143831503Y-102187657D02*
X143883884Y-102140038D01*
X143883884Y-102140038D02*
X143988646Y-102092419D01*
X143988646Y-102092419D02*
X144250551Y-102092419D01*
X144250551Y-102092419D02*
X144355313Y-102140038D01*
X144355313Y-102140038D02*
X144407694Y-102187657D01*
X144407694Y-102187657D02*
X144460075Y-102282895D01*
X144460075Y-102282895D02*
X144460075Y-102378133D01*
X144460075Y-102378133D02*
X144407694Y-102520990D01*
X144407694Y-102520990D02*
X143779122Y-103092419D01*
X143779122Y-103092419D02*
X144460075Y-103092419D01*
X145402932Y-102092419D02*
X145193408Y-102092419D01*
X145193408Y-102092419D02*
X145088646Y-102140038D01*
X145088646Y-102140038D02*
X145036265Y-102187657D01*
X145036265Y-102187657D02*
X144931503Y-102330514D01*
X144931503Y-102330514D02*
X144879122Y-102520990D01*
X144879122Y-102520990D02*
X144879122Y-102901942D01*
X144879122Y-102901942D02*
X144931503Y-102997180D01*
X144931503Y-102997180D02*
X144983884Y-103044800D01*
X144983884Y-103044800D02*
X145088646Y-103092419D01*
X145088646Y-103092419D02*
X145298170Y-103092419D01*
X145298170Y-103092419D02*
X145402932Y-103044800D01*
X145402932Y-103044800D02*
X145455313Y-102997180D01*
X145455313Y-102997180D02*
X145507694Y-102901942D01*
X145507694Y-102901942D02*
X145507694Y-102663847D01*
X145507694Y-102663847D02*
X145455313Y-102568609D01*
X145455313Y-102568609D02*
X145402932Y-102520990D01*
X145402932Y-102520990D02*
X145298170Y-102473371D01*
X145298170Y-102473371D02*
X145088646Y-102473371D01*
X145088646Y-102473371D02*
X144983884Y-102520990D01*
X144983884Y-102520990D02*
X144931503Y-102568609D01*
X144931503Y-102568609D02*
X144879122Y-102663847D01*
X140583884Y-104640038D02*
X140479122Y-104592419D01*
X140479122Y-104592419D02*
X140321979Y-104592419D01*
X140321979Y-104592419D02*
X140164836Y-104640038D01*
X140164836Y-104640038D02*
X140060074Y-104735276D01*
X140060074Y-104735276D02*
X140007693Y-104830514D01*
X140007693Y-104830514D02*
X139955312Y-105020990D01*
X139955312Y-105020990D02*
X139955312Y-105163847D01*
X139955312Y-105163847D02*
X140007693Y-105354323D01*
X140007693Y-105354323D02*
X140060074Y-105449561D01*
X140060074Y-105449561D02*
X140164836Y-105544800D01*
X140164836Y-105544800D02*
X140321979Y-105592419D01*
X140321979Y-105592419D02*
X140426741Y-105592419D01*
X140426741Y-105592419D02*
X140583884Y-105544800D01*
X140583884Y-105544800D02*
X140636265Y-105497180D01*
X140636265Y-105497180D02*
X140636265Y-105163847D01*
X140636265Y-105163847D02*
X140426741Y-105163847D01*
X141107693Y-105592419D02*
X141107693Y-104592419D01*
X141107693Y-104592419D02*
X141526741Y-104592419D01*
X141526741Y-104592419D02*
X141631503Y-104640038D01*
X141631503Y-104640038D02*
X141683884Y-104687657D01*
X141683884Y-104687657D02*
X141736265Y-104782895D01*
X141736265Y-104782895D02*
X141736265Y-104925752D01*
X141736265Y-104925752D02*
X141683884Y-105020990D01*
X141683884Y-105020990D02*
X141631503Y-105068609D01*
X141631503Y-105068609D02*
X141526741Y-105116228D01*
X141526741Y-105116228D02*
X141107693Y-105116228D01*
X142207693Y-105592419D02*
X142207693Y-104592419D01*
X142941027Y-104592419D02*
X143150551Y-104592419D01*
X143150551Y-104592419D02*
X143255313Y-104640038D01*
X143255313Y-104640038D02*
X143360075Y-104735276D01*
X143360075Y-104735276D02*
X143412456Y-104925752D01*
X143412456Y-104925752D02*
X143412456Y-105259085D01*
X143412456Y-105259085D02*
X143360075Y-105449561D01*
X143360075Y-105449561D02*
X143255313Y-105544800D01*
X143255313Y-105544800D02*
X143150551Y-105592419D01*
X143150551Y-105592419D02*
X142941027Y-105592419D01*
X142941027Y-105592419D02*
X142836265Y-105544800D01*
X142836265Y-105544800D02*
X142731503Y-105449561D01*
X142731503Y-105449561D02*
X142679122Y-105259085D01*
X142679122Y-105259085D02*
X142679122Y-104925752D01*
X142679122Y-104925752D02*
X142731503Y-104735276D01*
X142731503Y-104735276D02*
X142836265Y-104640038D01*
X142836265Y-104640038D02*
X142941027Y-104592419D01*
X143831503Y-104687657D02*
X143883884Y-104640038D01*
X143883884Y-104640038D02*
X143988646Y-104592419D01*
X143988646Y-104592419D02*
X144250551Y-104592419D01*
X144250551Y-104592419D02*
X144355313Y-104640038D01*
X144355313Y-104640038D02*
X144407694Y-104687657D01*
X144407694Y-104687657D02*
X144460075Y-104782895D01*
X144460075Y-104782895D02*
X144460075Y-104878133D01*
X144460075Y-104878133D02*
X144407694Y-105020990D01*
X144407694Y-105020990D02*
X143779122Y-105592419D01*
X143779122Y-105592419D02*
X144460075Y-105592419D01*
X144826741Y-104592419D02*
X145560075Y-104592419D01*
X145560075Y-104592419D02*
X145088646Y-105592419D01*
X140583884Y-107140038D02*
X140479122Y-107092419D01*
X140479122Y-107092419D02*
X140321979Y-107092419D01*
X140321979Y-107092419D02*
X140164836Y-107140038D01*
X140164836Y-107140038D02*
X140060074Y-107235276D01*
X140060074Y-107235276D02*
X140007693Y-107330514D01*
X140007693Y-107330514D02*
X139955312Y-107520990D01*
X139955312Y-107520990D02*
X139955312Y-107663847D01*
X139955312Y-107663847D02*
X140007693Y-107854323D01*
X140007693Y-107854323D02*
X140060074Y-107949561D01*
X140060074Y-107949561D02*
X140164836Y-108044800D01*
X140164836Y-108044800D02*
X140321979Y-108092419D01*
X140321979Y-108092419D02*
X140426741Y-108092419D01*
X140426741Y-108092419D02*
X140583884Y-108044800D01*
X140583884Y-108044800D02*
X140636265Y-107997180D01*
X140636265Y-107997180D02*
X140636265Y-107663847D01*
X140636265Y-107663847D02*
X140426741Y-107663847D01*
X141107693Y-108092419D02*
X141107693Y-107092419D01*
X141107693Y-107092419D02*
X141526741Y-107092419D01*
X141526741Y-107092419D02*
X141631503Y-107140038D01*
X141631503Y-107140038D02*
X141683884Y-107187657D01*
X141683884Y-107187657D02*
X141736265Y-107282895D01*
X141736265Y-107282895D02*
X141736265Y-107425752D01*
X141736265Y-107425752D02*
X141683884Y-107520990D01*
X141683884Y-107520990D02*
X141631503Y-107568609D01*
X141631503Y-107568609D02*
X141526741Y-107616228D01*
X141526741Y-107616228D02*
X141107693Y-107616228D01*
X142207693Y-108092419D02*
X142207693Y-107092419D01*
X142941027Y-107092419D02*
X143150551Y-107092419D01*
X143150551Y-107092419D02*
X143255313Y-107140038D01*
X143255313Y-107140038D02*
X143360075Y-107235276D01*
X143360075Y-107235276D02*
X143412456Y-107425752D01*
X143412456Y-107425752D02*
X143412456Y-107759085D01*
X143412456Y-107759085D02*
X143360075Y-107949561D01*
X143360075Y-107949561D02*
X143255313Y-108044800D01*
X143255313Y-108044800D02*
X143150551Y-108092419D01*
X143150551Y-108092419D02*
X142941027Y-108092419D01*
X142941027Y-108092419D02*
X142836265Y-108044800D01*
X142836265Y-108044800D02*
X142731503Y-107949561D01*
X142731503Y-107949561D02*
X142679122Y-107759085D01*
X142679122Y-107759085D02*
X142679122Y-107425752D01*
X142679122Y-107425752D02*
X142731503Y-107235276D01*
X142731503Y-107235276D02*
X142836265Y-107140038D01*
X142836265Y-107140038D02*
X142941027Y-107092419D01*
X144460075Y-108092419D02*
X143831503Y-108092419D01*
X144145789Y-108092419D02*
X144145789Y-107092419D01*
X144145789Y-107092419D02*
X144041027Y-107235276D01*
X144041027Y-107235276D02*
X143936265Y-107330514D01*
X143936265Y-107330514D02*
X143831503Y-107378133D01*
X145402932Y-107425752D02*
X145402932Y-108092419D01*
X145141027Y-107044800D02*
X144879122Y-107759085D01*
X144879122Y-107759085D02*
X145560075Y-107759085D01*
X140583884Y-109640038D02*
X140479122Y-109592419D01*
X140479122Y-109592419D02*
X140321979Y-109592419D01*
X140321979Y-109592419D02*
X140164836Y-109640038D01*
X140164836Y-109640038D02*
X140060074Y-109735276D01*
X140060074Y-109735276D02*
X140007693Y-109830514D01*
X140007693Y-109830514D02*
X139955312Y-110020990D01*
X139955312Y-110020990D02*
X139955312Y-110163847D01*
X139955312Y-110163847D02*
X140007693Y-110354323D01*
X140007693Y-110354323D02*
X140060074Y-110449561D01*
X140060074Y-110449561D02*
X140164836Y-110544800D01*
X140164836Y-110544800D02*
X140321979Y-110592419D01*
X140321979Y-110592419D02*
X140426741Y-110592419D01*
X140426741Y-110592419D02*
X140583884Y-110544800D01*
X140583884Y-110544800D02*
X140636265Y-110497180D01*
X140636265Y-110497180D02*
X140636265Y-110163847D01*
X140636265Y-110163847D02*
X140426741Y-110163847D01*
X141107693Y-110592419D02*
X141107693Y-109592419D01*
X141107693Y-109592419D02*
X141526741Y-109592419D01*
X141526741Y-109592419D02*
X141631503Y-109640038D01*
X141631503Y-109640038D02*
X141683884Y-109687657D01*
X141683884Y-109687657D02*
X141736265Y-109782895D01*
X141736265Y-109782895D02*
X141736265Y-109925752D01*
X141736265Y-109925752D02*
X141683884Y-110020990D01*
X141683884Y-110020990D02*
X141631503Y-110068609D01*
X141631503Y-110068609D02*
X141526741Y-110116228D01*
X141526741Y-110116228D02*
X141107693Y-110116228D01*
X142207693Y-110592419D02*
X142207693Y-109592419D01*
X142941027Y-109592419D02*
X143150551Y-109592419D01*
X143150551Y-109592419D02*
X143255313Y-109640038D01*
X143255313Y-109640038D02*
X143360075Y-109735276D01*
X143360075Y-109735276D02*
X143412456Y-109925752D01*
X143412456Y-109925752D02*
X143412456Y-110259085D01*
X143412456Y-110259085D02*
X143360075Y-110449561D01*
X143360075Y-110449561D02*
X143255313Y-110544800D01*
X143255313Y-110544800D02*
X143150551Y-110592419D01*
X143150551Y-110592419D02*
X142941027Y-110592419D01*
X142941027Y-110592419D02*
X142836265Y-110544800D01*
X142836265Y-110544800D02*
X142731503Y-110449561D01*
X142731503Y-110449561D02*
X142679122Y-110259085D01*
X142679122Y-110259085D02*
X142679122Y-109925752D01*
X142679122Y-109925752D02*
X142731503Y-109735276D01*
X142731503Y-109735276D02*
X142836265Y-109640038D01*
X142836265Y-109640038D02*
X142941027Y-109592419D01*
X144460075Y-110592419D02*
X143831503Y-110592419D01*
X144145789Y-110592419D02*
X144145789Y-109592419D01*
X144145789Y-109592419D02*
X144041027Y-109735276D01*
X144041027Y-109735276D02*
X143936265Y-109830514D01*
X143936265Y-109830514D02*
X143831503Y-109878133D01*
X144879122Y-109687657D02*
X144931503Y-109640038D01*
X144931503Y-109640038D02*
X145036265Y-109592419D01*
X145036265Y-109592419D02*
X145298170Y-109592419D01*
X145298170Y-109592419D02*
X145402932Y-109640038D01*
X145402932Y-109640038D02*
X145455313Y-109687657D01*
X145455313Y-109687657D02*
X145507694Y-109782895D01*
X145507694Y-109782895D02*
X145507694Y-109878133D01*
X145507694Y-109878133D02*
X145455313Y-110020990D01*
X145455313Y-110020990D02*
X144826741Y-110592419D01*
X144826741Y-110592419D02*
X145507694Y-110592419D01*
X140583884Y-112140038D02*
X140479122Y-112092419D01*
X140479122Y-112092419D02*
X140321979Y-112092419D01*
X140321979Y-112092419D02*
X140164836Y-112140038D01*
X140164836Y-112140038D02*
X140060074Y-112235276D01*
X140060074Y-112235276D02*
X140007693Y-112330514D01*
X140007693Y-112330514D02*
X139955312Y-112520990D01*
X139955312Y-112520990D02*
X139955312Y-112663847D01*
X139955312Y-112663847D02*
X140007693Y-112854323D01*
X140007693Y-112854323D02*
X140060074Y-112949561D01*
X140060074Y-112949561D02*
X140164836Y-113044800D01*
X140164836Y-113044800D02*
X140321979Y-113092419D01*
X140321979Y-113092419D02*
X140426741Y-113092419D01*
X140426741Y-113092419D02*
X140583884Y-113044800D01*
X140583884Y-113044800D02*
X140636265Y-112997180D01*
X140636265Y-112997180D02*
X140636265Y-112663847D01*
X140636265Y-112663847D02*
X140426741Y-112663847D01*
X141107693Y-113092419D02*
X141107693Y-112092419D01*
X141107693Y-112092419D02*
X141526741Y-112092419D01*
X141526741Y-112092419D02*
X141631503Y-112140038D01*
X141631503Y-112140038D02*
X141683884Y-112187657D01*
X141683884Y-112187657D02*
X141736265Y-112282895D01*
X141736265Y-112282895D02*
X141736265Y-112425752D01*
X141736265Y-112425752D02*
X141683884Y-112520990D01*
X141683884Y-112520990D02*
X141631503Y-112568609D01*
X141631503Y-112568609D02*
X141526741Y-112616228D01*
X141526741Y-112616228D02*
X141107693Y-112616228D01*
X142207693Y-113092419D02*
X142207693Y-112092419D01*
X142941027Y-112092419D02*
X143150551Y-112092419D01*
X143150551Y-112092419D02*
X143255313Y-112140038D01*
X143255313Y-112140038D02*
X143360075Y-112235276D01*
X143360075Y-112235276D02*
X143412456Y-112425752D01*
X143412456Y-112425752D02*
X143412456Y-112759085D01*
X143412456Y-112759085D02*
X143360075Y-112949561D01*
X143360075Y-112949561D02*
X143255313Y-113044800D01*
X143255313Y-113044800D02*
X143150551Y-113092419D01*
X143150551Y-113092419D02*
X142941027Y-113092419D01*
X142941027Y-113092419D02*
X142836265Y-113044800D01*
X142836265Y-113044800D02*
X142731503Y-112949561D01*
X142731503Y-112949561D02*
X142679122Y-112759085D01*
X142679122Y-112759085D02*
X142679122Y-112425752D01*
X142679122Y-112425752D02*
X142731503Y-112235276D01*
X142731503Y-112235276D02*
X142836265Y-112140038D01*
X142836265Y-112140038D02*
X142941027Y-112092419D01*
X144460075Y-113092419D02*
X143831503Y-113092419D01*
X144145789Y-113092419D02*
X144145789Y-112092419D01*
X144145789Y-112092419D02*
X144041027Y-112235276D01*
X144041027Y-112235276D02*
X143936265Y-112330514D01*
X143936265Y-112330514D02*
X143831503Y-112378133D01*
X144826741Y-112092419D02*
X145507694Y-112092419D01*
X145507694Y-112092419D02*
X145141027Y-112473371D01*
X145141027Y-112473371D02*
X145298170Y-112473371D01*
X145298170Y-112473371D02*
X145402932Y-112520990D01*
X145402932Y-112520990D02*
X145455313Y-112568609D01*
X145455313Y-112568609D02*
X145507694Y-112663847D01*
X145507694Y-112663847D02*
X145507694Y-112901942D01*
X145507694Y-112901942D02*
X145455313Y-112997180D01*
X145455313Y-112997180D02*
X145402932Y-113044800D01*
X145402932Y-113044800D02*
X145298170Y-113092419D01*
X145298170Y-113092419D02*
X144983884Y-113092419D01*
X144983884Y-113092419D02*
X144879122Y-113044800D01*
X144879122Y-113044800D02*
X144826741Y-112997180D01*
X140583884Y-114640038D02*
X140479122Y-114592419D01*
X140479122Y-114592419D02*
X140321979Y-114592419D01*
X140321979Y-114592419D02*
X140164836Y-114640038D01*
X140164836Y-114640038D02*
X140060074Y-114735276D01*
X140060074Y-114735276D02*
X140007693Y-114830514D01*
X140007693Y-114830514D02*
X139955312Y-115020990D01*
X139955312Y-115020990D02*
X139955312Y-115163847D01*
X139955312Y-115163847D02*
X140007693Y-115354323D01*
X140007693Y-115354323D02*
X140060074Y-115449561D01*
X140060074Y-115449561D02*
X140164836Y-115544800D01*
X140164836Y-115544800D02*
X140321979Y-115592419D01*
X140321979Y-115592419D02*
X140426741Y-115592419D01*
X140426741Y-115592419D02*
X140583884Y-115544800D01*
X140583884Y-115544800D02*
X140636265Y-115497180D01*
X140636265Y-115497180D02*
X140636265Y-115163847D01*
X140636265Y-115163847D02*
X140426741Y-115163847D01*
X141107693Y-115592419D02*
X141107693Y-114592419D01*
X141107693Y-114592419D02*
X141736265Y-115592419D01*
X141736265Y-115592419D02*
X141736265Y-114592419D01*
X142260074Y-115592419D02*
X142260074Y-114592419D01*
X142260074Y-114592419D02*
X142521979Y-114592419D01*
X142521979Y-114592419D02*
X142679122Y-114640038D01*
X142679122Y-114640038D02*
X142783884Y-114735276D01*
X142783884Y-114735276D02*
X142836265Y-114830514D01*
X142836265Y-114830514D02*
X142888646Y-115020990D01*
X142888646Y-115020990D02*
X142888646Y-115163847D01*
X142888646Y-115163847D02*
X142836265Y-115354323D01*
X142836265Y-115354323D02*
X142783884Y-115449561D01*
X142783884Y-115449561D02*
X142679122Y-115544800D01*
X142679122Y-115544800D02*
X142521979Y-115592419D01*
X142521979Y-115592419D02*
X142260074Y-115592419D01*
X140350550Y-117092419D02*
X140717217Y-118092419D01*
X140717217Y-118092419D02*
X141083884Y-117092419D01*
X141450550Y-118092419D02*
X141450550Y-117092419D01*
X141974360Y-118092419D02*
X141974360Y-117092419D01*
X141974360Y-117092419D02*
X142602932Y-118092419D01*
X142602932Y-118092419D02*
X142602932Y-117092419D01*
X149293884Y-122605330D02*
X149293884Y-123414853D01*
X149293884Y-123414853D02*
X149341503Y-123510091D01*
X149341503Y-123510091D02*
X149389122Y-123557711D01*
X149389122Y-123557711D02*
X149484360Y-123605330D01*
X149484360Y-123605330D02*
X149674836Y-123605330D01*
X149674836Y-123605330D02*
X149770074Y-123557711D01*
X149770074Y-123557711D02*
X149817693Y-123510091D01*
X149817693Y-123510091D02*
X149865312Y-123414853D01*
X149865312Y-123414853D02*
X149865312Y-122605330D01*
X150293884Y-123557711D02*
X150436741Y-123605330D01*
X150436741Y-123605330D02*
X150674836Y-123605330D01*
X150674836Y-123605330D02*
X150770074Y-123557711D01*
X150770074Y-123557711D02*
X150817693Y-123510091D01*
X150817693Y-123510091D02*
X150865312Y-123414853D01*
X150865312Y-123414853D02*
X150865312Y-123319615D01*
X150865312Y-123319615D02*
X150817693Y-123224377D01*
X150817693Y-123224377D02*
X150770074Y-123176758D01*
X150770074Y-123176758D02*
X150674836Y-123129139D01*
X150674836Y-123129139D02*
X150484360Y-123081520D01*
X150484360Y-123081520D02*
X150389122Y-123033901D01*
X150389122Y-123033901D02*
X150341503Y-122986282D01*
X150341503Y-122986282D02*
X150293884Y-122891044D01*
X150293884Y-122891044D02*
X150293884Y-122795806D01*
X150293884Y-122795806D02*
X150341503Y-122700568D01*
X150341503Y-122700568D02*
X150389122Y-122652949D01*
X150389122Y-122652949D02*
X150484360Y-122605330D01*
X150484360Y-122605330D02*
X150722455Y-122605330D01*
X150722455Y-122605330D02*
X150865312Y-122652949D01*
X151627217Y-123081520D02*
X151770074Y-123129139D01*
X151770074Y-123129139D02*
X151817693Y-123176758D01*
X151817693Y-123176758D02*
X151865312Y-123271996D01*
X151865312Y-123271996D02*
X151865312Y-123414853D01*
X151865312Y-123414853D02*
X151817693Y-123510091D01*
X151817693Y-123510091D02*
X151770074Y-123557711D01*
X151770074Y-123557711D02*
X151674836Y-123605330D01*
X151674836Y-123605330D02*
X151293884Y-123605330D01*
X151293884Y-123605330D02*
X151293884Y-122605330D01*
X151293884Y-122605330D02*
X151627217Y-122605330D01*
X151627217Y-122605330D02*
X151722455Y-122652949D01*
X151722455Y-122652949D02*
X151770074Y-122700568D01*
X151770074Y-122700568D02*
X151817693Y-122795806D01*
X151817693Y-122795806D02*
X151817693Y-122891044D01*
X151817693Y-122891044D02*
X151770074Y-122986282D01*
X151770074Y-122986282D02*
X151722455Y-123033901D01*
X151722455Y-123033901D02*
X151627217Y-123081520D01*
X151627217Y-123081520D02*
X151293884Y-123081520D01*
X158083884Y-81640038D02*
X157979122Y-81592419D01*
X157979122Y-81592419D02*
X157821979Y-81592419D01*
X157821979Y-81592419D02*
X157664836Y-81640038D01*
X157664836Y-81640038D02*
X157560074Y-81735276D01*
X157560074Y-81735276D02*
X157507693Y-81830514D01*
X157507693Y-81830514D02*
X157455312Y-82020990D01*
X157455312Y-82020990D02*
X157455312Y-82163847D01*
X157455312Y-82163847D02*
X157507693Y-82354323D01*
X157507693Y-82354323D02*
X157560074Y-82449561D01*
X157560074Y-82449561D02*
X157664836Y-82544800D01*
X157664836Y-82544800D02*
X157821979Y-82592419D01*
X157821979Y-82592419D02*
X157926741Y-82592419D01*
X157926741Y-82592419D02*
X158083884Y-82544800D01*
X158083884Y-82544800D02*
X158136265Y-82497180D01*
X158136265Y-82497180D02*
X158136265Y-82163847D01*
X158136265Y-82163847D02*
X157926741Y-82163847D01*
X158607693Y-82592419D02*
X158607693Y-81592419D01*
X158607693Y-81592419D02*
X159026741Y-81592419D01*
X159026741Y-81592419D02*
X159131503Y-81640038D01*
X159131503Y-81640038D02*
X159183884Y-81687657D01*
X159183884Y-81687657D02*
X159236265Y-81782895D01*
X159236265Y-81782895D02*
X159236265Y-81925752D01*
X159236265Y-81925752D02*
X159183884Y-82020990D01*
X159183884Y-82020990D02*
X159131503Y-82068609D01*
X159131503Y-82068609D02*
X159026741Y-82116228D01*
X159026741Y-82116228D02*
X158607693Y-82116228D01*
X159707693Y-82592419D02*
X159707693Y-81592419D01*
X160441027Y-81592419D02*
X160650551Y-81592419D01*
X160650551Y-81592419D02*
X160755313Y-81640038D01*
X160755313Y-81640038D02*
X160860075Y-81735276D01*
X160860075Y-81735276D02*
X160912456Y-81925752D01*
X160912456Y-81925752D02*
X160912456Y-82259085D01*
X160912456Y-82259085D02*
X160860075Y-82449561D01*
X160860075Y-82449561D02*
X160755313Y-82544800D01*
X160755313Y-82544800D02*
X160650551Y-82592419D01*
X160650551Y-82592419D02*
X160441027Y-82592419D01*
X160441027Y-82592419D02*
X160336265Y-82544800D01*
X160336265Y-82544800D02*
X160231503Y-82449561D01*
X160231503Y-82449561D02*
X160179122Y-82259085D01*
X160179122Y-82259085D02*
X160179122Y-81925752D01*
X160179122Y-81925752D02*
X160231503Y-81735276D01*
X160231503Y-81735276D02*
X160336265Y-81640038D01*
X160336265Y-81640038D02*
X160441027Y-81592419D01*
X161331503Y-81687657D02*
X161383884Y-81640038D01*
X161383884Y-81640038D02*
X161488646Y-81592419D01*
X161488646Y-81592419D02*
X161750551Y-81592419D01*
X161750551Y-81592419D02*
X161855313Y-81640038D01*
X161855313Y-81640038D02*
X161907694Y-81687657D01*
X161907694Y-81687657D02*
X161960075Y-81782895D01*
X161960075Y-81782895D02*
X161960075Y-81878133D01*
X161960075Y-81878133D02*
X161907694Y-82020990D01*
X161907694Y-82020990D02*
X161279122Y-82592419D01*
X161279122Y-82592419D02*
X161960075Y-82592419D01*
X162326741Y-81592419D02*
X163007694Y-81592419D01*
X163007694Y-81592419D02*
X162641027Y-81973371D01*
X162641027Y-81973371D02*
X162798170Y-81973371D01*
X162798170Y-81973371D02*
X162902932Y-82020990D01*
X162902932Y-82020990D02*
X162955313Y-82068609D01*
X162955313Y-82068609D02*
X163007694Y-82163847D01*
X163007694Y-82163847D02*
X163007694Y-82401942D01*
X163007694Y-82401942D02*
X162955313Y-82497180D01*
X162955313Y-82497180D02*
X162902932Y-82544800D01*
X162902932Y-82544800D02*
X162798170Y-82592419D01*
X162798170Y-82592419D02*
X162483884Y-82592419D01*
X162483884Y-82592419D02*
X162379122Y-82544800D01*
X162379122Y-82544800D02*
X162326741Y-82497180D01*
X158083884Y-84140038D02*
X157979122Y-84092419D01*
X157979122Y-84092419D02*
X157821979Y-84092419D01*
X157821979Y-84092419D02*
X157664836Y-84140038D01*
X157664836Y-84140038D02*
X157560074Y-84235276D01*
X157560074Y-84235276D02*
X157507693Y-84330514D01*
X157507693Y-84330514D02*
X157455312Y-84520990D01*
X157455312Y-84520990D02*
X157455312Y-84663847D01*
X157455312Y-84663847D02*
X157507693Y-84854323D01*
X157507693Y-84854323D02*
X157560074Y-84949561D01*
X157560074Y-84949561D02*
X157664836Y-85044800D01*
X157664836Y-85044800D02*
X157821979Y-85092419D01*
X157821979Y-85092419D02*
X157926741Y-85092419D01*
X157926741Y-85092419D02*
X158083884Y-85044800D01*
X158083884Y-85044800D02*
X158136265Y-84997180D01*
X158136265Y-84997180D02*
X158136265Y-84663847D01*
X158136265Y-84663847D02*
X157926741Y-84663847D01*
X158607693Y-85092419D02*
X158607693Y-84092419D01*
X158607693Y-84092419D02*
X159026741Y-84092419D01*
X159026741Y-84092419D02*
X159131503Y-84140038D01*
X159131503Y-84140038D02*
X159183884Y-84187657D01*
X159183884Y-84187657D02*
X159236265Y-84282895D01*
X159236265Y-84282895D02*
X159236265Y-84425752D01*
X159236265Y-84425752D02*
X159183884Y-84520990D01*
X159183884Y-84520990D02*
X159131503Y-84568609D01*
X159131503Y-84568609D02*
X159026741Y-84616228D01*
X159026741Y-84616228D02*
X158607693Y-84616228D01*
X159707693Y-85092419D02*
X159707693Y-84092419D01*
X160441027Y-84092419D02*
X160650551Y-84092419D01*
X160650551Y-84092419D02*
X160755313Y-84140038D01*
X160755313Y-84140038D02*
X160860075Y-84235276D01*
X160860075Y-84235276D02*
X160912456Y-84425752D01*
X160912456Y-84425752D02*
X160912456Y-84759085D01*
X160912456Y-84759085D02*
X160860075Y-84949561D01*
X160860075Y-84949561D02*
X160755313Y-85044800D01*
X160755313Y-85044800D02*
X160650551Y-85092419D01*
X160650551Y-85092419D02*
X160441027Y-85092419D01*
X160441027Y-85092419D02*
X160336265Y-85044800D01*
X160336265Y-85044800D02*
X160231503Y-84949561D01*
X160231503Y-84949561D02*
X160179122Y-84759085D01*
X160179122Y-84759085D02*
X160179122Y-84425752D01*
X160179122Y-84425752D02*
X160231503Y-84235276D01*
X160231503Y-84235276D02*
X160336265Y-84140038D01*
X160336265Y-84140038D02*
X160441027Y-84092419D01*
X161331503Y-84187657D02*
X161383884Y-84140038D01*
X161383884Y-84140038D02*
X161488646Y-84092419D01*
X161488646Y-84092419D02*
X161750551Y-84092419D01*
X161750551Y-84092419D02*
X161855313Y-84140038D01*
X161855313Y-84140038D02*
X161907694Y-84187657D01*
X161907694Y-84187657D02*
X161960075Y-84282895D01*
X161960075Y-84282895D02*
X161960075Y-84378133D01*
X161960075Y-84378133D02*
X161907694Y-84520990D01*
X161907694Y-84520990D02*
X161279122Y-85092419D01*
X161279122Y-85092419D02*
X161960075Y-85092419D01*
X162379122Y-84187657D02*
X162431503Y-84140038D01*
X162431503Y-84140038D02*
X162536265Y-84092419D01*
X162536265Y-84092419D02*
X162798170Y-84092419D01*
X162798170Y-84092419D02*
X162902932Y-84140038D01*
X162902932Y-84140038D02*
X162955313Y-84187657D01*
X162955313Y-84187657D02*
X163007694Y-84282895D01*
X163007694Y-84282895D02*
X163007694Y-84378133D01*
X163007694Y-84378133D02*
X162955313Y-84520990D01*
X162955313Y-84520990D02*
X162326741Y-85092419D01*
X162326741Y-85092419D02*
X163007694Y-85092419D01*
X158083884Y-92140038D02*
X157979122Y-92092419D01*
X157979122Y-92092419D02*
X157821979Y-92092419D01*
X157821979Y-92092419D02*
X157664836Y-92140038D01*
X157664836Y-92140038D02*
X157560074Y-92235276D01*
X157560074Y-92235276D02*
X157507693Y-92330514D01*
X157507693Y-92330514D02*
X157455312Y-92520990D01*
X157455312Y-92520990D02*
X157455312Y-92663847D01*
X157455312Y-92663847D02*
X157507693Y-92854323D01*
X157507693Y-92854323D02*
X157560074Y-92949561D01*
X157560074Y-92949561D02*
X157664836Y-93044800D01*
X157664836Y-93044800D02*
X157821979Y-93092419D01*
X157821979Y-93092419D02*
X157926741Y-93092419D01*
X157926741Y-93092419D02*
X158083884Y-93044800D01*
X158083884Y-93044800D02*
X158136265Y-92997180D01*
X158136265Y-92997180D02*
X158136265Y-92663847D01*
X158136265Y-92663847D02*
X157926741Y-92663847D01*
X158607693Y-93092419D02*
X158607693Y-92092419D01*
X158607693Y-92092419D02*
X159026741Y-92092419D01*
X159026741Y-92092419D02*
X159131503Y-92140038D01*
X159131503Y-92140038D02*
X159183884Y-92187657D01*
X159183884Y-92187657D02*
X159236265Y-92282895D01*
X159236265Y-92282895D02*
X159236265Y-92425752D01*
X159236265Y-92425752D02*
X159183884Y-92520990D01*
X159183884Y-92520990D02*
X159131503Y-92568609D01*
X159131503Y-92568609D02*
X159026741Y-92616228D01*
X159026741Y-92616228D02*
X158607693Y-92616228D01*
X159707693Y-93092419D02*
X159707693Y-92092419D01*
X160441027Y-92092419D02*
X160650551Y-92092419D01*
X160650551Y-92092419D02*
X160755313Y-92140038D01*
X160755313Y-92140038D02*
X160860075Y-92235276D01*
X160860075Y-92235276D02*
X160912456Y-92425752D01*
X160912456Y-92425752D02*
X160912456Y-92759085D01*
X160912456Y-92759085D02*
X160860075Y-92949561D01*
X160860075Y-92949561D02*
X160755313Y-93044800D01*
X160755313Y-93044800D02*
X160650551Y-93092419D01*
X160650551Y-93092419D02*
X160441027Y-93092419D01*
X160441027Y-93092419D02*
X160336265Y-93044800D01*
X160336265Y-93044800D02*
X160231503Y-92949561D01*
X160231503Y-92949561D02*
X160179122Y-92759085D01*
X160179122Y-92759085D02*
X160179122Y-92425752D01*
X160179122Y-92425752D02*
X160231503Y-92235276D01*
X160231503Y-92235276D02*
X160336265Y-92140038D01*
X160336265Y-92140038D02*
X160441027Y-92092419D01*
X161331503Y-92187657D02*
X161383884Y-92140038D01*
X161383884Y-92140038D02*
X161488646Y-92092419D01*
X161488646Y-92092419D02*
X161750551Y-92092419D01*
X161750551Y-92092419D02*
X161855313Y-92140038D01*
X161855313Y-92140038D02*
X161907694Y-92187657D01*
X161907694Y-92187657D02*
X161960075Y-92282895D01*
X161960075Y-92282895D02*
X161960075Y-92378133D01*
X161960075Y-92378133D02*
X161907694Y-92520990D01*
X161907694Y-92520990D02*
X161279122Y-93092419D01*
X161279122Y-93092419D02*
X161960075Y-93092419D01*
X163007694Y-93092419D02*
X162379122Y-93092419D01*
X162693408Y-93092419D02*
X162693408Y-92092419D01*
X162693408Y-92092419D02*
X162588646Y-92235276D01*
X162588646Y-92235276D02*
X162483884Y-92330514D01*
X162483884Y-92330514D02*
X162379122Y-92378133D01*
X158083884Y-94640038D02*
X157979122Y-94592419D01*
X157979122Y-94592419D02*
X157821979Y-94592419D01*
X157821979Y-94592419D02*
X157664836Y-94640038D01*
X157664836Y-94640038D02*
X157560074Y-94735276D01*
X157560074Y-94735276D02*
X157507693Y-94830514D01*
X157507693Y-94830514D02*
X157455312Y-95020990D01*
X157455312Y-95020990D02*
X157455312Y-95163847D01*
X157455312Y-95163847D02*
X157507693Y-95354323D01*
X157507693Y-95354323D02*
X157560074Y-95449561D01*
X157560074Y-95449561D02*
X157664836Y-95544800D01*
X157664836Y-95544800D02*
X157821979Y-95592419D01*
X157821979Y-95592419D02*
X157926741Y-95592419D01*
X157926741Y-95592419D02*
X158083884Y-95544800D01*
X158083884Y-95544800D02*
X158136265Y-95497180D01*
X158136265Y-95497180D02*
X158136265Y-95163847D01*
X158136265Y-95163847D02*
X157926741Y-95163847D01*
X158607693Y-95592419D02*
X158607693Y-94592419D01*
X158607693Y-94592419D02*
X159026741Y-94592419D01*
X159026741Y-94592419D02*
X159131503Y-94640038D01*
X159131503Y-94640038D02*
X159183884Y-94687657D01*
X159183884Y-94687657D02*
X159236265Y-94782895D01*
X159236265Y-94782895D02*
X159236265Y-94925752D01*
X159236265Y-94925752D02*
X159183884Y-95020990D01*
X159183884Y-95020990D02*
X159131503Y-95068609D01*
X159131503Y-95068609D02*
X159026741Y-95116228D01*
X159026741Y-95116228D02*
X158607693Y-95116228D01*
X159707693Y-95592419D02*
X159707693Y-94592419D01*
X160441027Y-94592419D02*
X160650551Y-94592419D01*
X160650551Y-94592419D02*
X160755313Y-94640038D01*
X160755313Y-94640038D02*
X160860075Y-94735276D01*
X160860075Y-94735276D02*
X160912456Y-94925752D01*
X160912456Y-94925752D02*
X160912456Y-95259085D01*
X160912456Y-95259085D02*
X160860075Y-95449561D01*
X160860075Y-95449561D02*
X160755313Y-95544800D01*
X160755313Y-95544800D02*
X160650551Y-95592419D01*
X160650551Y-95592419D02*
X160441027Y-95592419D01*
X160441027Y-95592419D02*
X160336265Y-95544800D01*
X160336265Y-95544800D02*
X160231503Y-95449561D01*
X160231503Y-95449561D02*
X160179122Y-95259085D01*
X160179122Y-95259085D02*
X160179122Y-94925752D01*
X160179122Y-94925752D02*
X160231503Y-94735276D01*
X160231503Y-94735276D02*
X160336265Y-94640038D01*
X160336265Y-94640038D02*
X160441027Y-94592419D01*
X161960075Y-95592419D02*
X161331503Y-95592419D01*
X161645789Y-95592419D02*
X161645789Y-94592419D01*
X161645789Y-94592419D02*
X161541027Y-94735276D01*
X161541027Y-94735276D02*
X161436265Y-94830514D01*
X161436265Y-94830514D02*
X161331503Y-94878133D01*
X162483884Y-95592419D02*
X162693408Y-95592419D01*
X162693408Y-95592419D02*
X162798170Y-95544800D01*
X162798170Y-95544800D02*
X162850551Y-95497180D01*
X162850551Y-95497180D02*
X162955313Y-95354323D01*
X162955313Y-95354323D02*
X163007694Y-95163847D01*
X163007694Y-95163847D02*
X163007694Y-94782895D01*
X163007694Y-94782895D02*
X162955313Y-94687657D01*
X162955313Y-94687657D02*
X162902932Y-94640038D01*
X162902932Y-94640038D02*
X162798170Y-94592419D01*
X162798170Y-94592419D02*
X162588646Y-94592419D01*
X162588646Y-94592419D02*
X162483884Y-94640038D01*
X162483884Y-94640038D02*
X162431503Y-94687657D01*
X162431503Y-94687657D02*
X162379122Y-94782895D01*
X162379122Y-94782895D02*
X162379122Y-95020990D01*
X162379122Y-95020990D02*
X162431503Y-95116228D01*
X162431503Y-95116228D02*
X162483884Y-95163847D01*
X162483884Y-95163847D02*
X162588646Y-95211466D01*
X162588646Y-95211466D02*
X162798170Y-95211466D01*
X162798170Y-95211466D02*
X162902932Y-95163847D01*
X162902932Y-95163847D02*
X162955313Y-95116228D01*
X162955313Y-95116228D02*
X163007694Y-95020990D01*
X158083884Y-97140038D02*
X157979122Y-97092419D01*
X157979122Y-97092419D02*
X157821979Y-97092419D01*
X157821979Y-97092419D02*
X157664836Y-97140038D01*
X157664836Y-97140038D02*
X157560074Y-97235276D01*
X157560074Y-97235276D02*
X157507693Y-97330514D01*
X157507693Y-97330514D02*
X157455312Y-97520990D01*
X157455312Y-97520990D02*
X157455312Y-97663847D01*
X157455312Y-97663847D02*
X157507693Y-97854323D01*
X157507693Y-97854323D02*
X157560074Y-97949561D01*
X157560074Y-97949561D02*
X157664836Y-98044800D01*
X157664836Y-98044800D02*
X157821979Y-98092419D01*
X157821979Y-98092419D02*
X157926741Y-98092419D01*
X157926741Y-98092419D02*
X158083884Y-98044800D01*
X158083884Y-98044800D02*
X158136265Y-97997180D01*
X158136265Y-97997180D02*
X158136265Y-97663847D01*
X158136265Y-97663847D02*
X157926741Y-97663847D01*
X158607693Y-98092419D02*
X158607693Y-97092419D01*
X158607693Y-97092419D02*
X159026741Y-97092419D01*
X159026741Y-97092419D02*
X159131503Y-97140038D01*
X159131503Y-97140038D02*
X159183884Y-97187657D01*
X159183884Y-97187657D02*
X159236265Y-97282895D01*
X159236265Y-97282895D02*
X159236265Y-97425752D01*
X159236265Y-97425752D02*
X159183884Y-97520990D01*
X159183884Y-97520990D02*
X159131503Y-97568609D01*
X159131503Y-97568609D02*
X159026741Y-97616228D01*
X159026741Y-97616228D02*
X158607693Y-97616228D01*
X159707693Y-98092419D02*
X159707693Y-97092419D01*
X160441027Y-97092419D02*
X160650551Y-97092419D01*
X160650551Y-97092419D02*
X160755313Y-97140038D01*
X160755313Y-97140038D02*
X160860075Y-97235276D01*
X160860075Y-97235276D02*
X160912456Y-97425752D01*
X160912456Y-97425752D02*
X160912456Y-97759085D01*
X160912456Y-97759085D02*
X160860075Y-97949561D01*
X160860075Y-97949561D02*
X160755313Y-98044800D01*
X160755313Y-98044800D02*
X160650551Y-98092419D01*
X160650551Y-98092419D02*
X160441027Y-98092419D01*
X160441027Y-98092419D02*
X160336265Y-98044800D01*
X160336265Y-98044800D02*
X160231503Y-97949561D01*
X160231503Y-97949561D02*
X160179122Y-97759085D01*
X160179122Y-97759085D02*
X160179122Y-97425752D01*
X160179122Y-97425752D02*
X160231503Y-97235276D01*
X160231503Y-97235276D02*
X160336265Y-97140038D01*
X160336265Y-97140038D02*
X160441027Y-97092419D01*
X161960075Y-98092419D02*
X161331503Y-98092419D01*
X161645789Y-98092419D02*
X161645789Y-97092419D01*
X161645789Y-97092419D02*
X161541027Y-97235276D01*
X161541027Y-97235276D02*
X161436265Y-97330514D01*
X161436265Y-97330514D02*
X161331503Y-97378133D01*
X162588646Y-97520990D02*
X162483884Y-97473371D01*
X162483884Y-97473371D02*
X162431503Y-97425752D01*
X162431503Y-97425752D02*
X162379122Y-97330514D01*
X162379122Y-97330514D02*
X162379122Y-97282895D01*
X162379122Y-97282895D02*
X162431503Y-97187657D01*
X162431503Y-97187657D02*
X162483884Y-97140038D01*
X162483884Y-97140038D02*
X162588646Y-97092419D01*
X162588646Y-97092419D02*
X162798170Y-97092419D01*
X162798170Y-97092419D02*
X162902932Y-97140038D01*
X162902932Y-97140038D02*
X162955313Y-97187657D01*
X162955313Y-97187657D02*
X163007694Y-97282895D01*
X163007694Y-97282895D02*
X163007694Y-97330514D01*
X163007694Y-97330514D02*
X162955313Y-97425752D01*
X162955313Y-97425752D02*
X162902932Y-97473371D01*
X162902932Y-97473371D02*
X162798170Y-97520990D01*
X162798170Y-97520990D02*
X162588646Y-97520990D01*
X162588646Y-97520990D02*
X162483884Y-97568609D01*
X162483884Y-97568609D02*
X162431503Y-97616228D01*
X162431503Y-97616228D02*
X162379122Y-97711466D01*
X162379122Y-97711466D02*
X162379122Y-97901942D01*
X162379122Y-97901942D02*
X162431503Y-97997180D01*
X162431503Y-97997180D02*
X162483884Y-98044800D01*
X162483884Y-98044800D02*
X162588646Y-98092419D01*
X162588646Y-98092419D02*
X162798170Y-98092419D01*
X162798170Y-98092419D02*
X162902932Y-98044800D01*
X162902932Y-98044800D02*
X162955313Y-97997180D01*
X162955313Y-97997180D02*
X163007694Y-97901942D01*
X163007694Y-97901942D02*
X163007694Y-97711466D01*
X163007694Y-97711466D02*
X162955313Y-97616228D01*
X162955313Y-97616228D02*
X162902932Y-97568609D01*
X162902932Y-97568609D02*
X162798170Y-97520990D01*
X158083884Y-102140038D02*
X157979122Y-102092419D01*
X157979122Y-102092419D02*
X157821979Y-102092419D01*
X157821979Y-102092419D02*
X157664836Y-102140038D01*
X157664836Y-102140038D02*
X157560074Y-102235276D01*
X157560074Y-102235276D02*
X157507693Y-102330514D01*
X157507693Y-102330514D02*
X157455312Y-102520990D01*
X157455312Y-102520990D02*
X157455312Y-102663847D01*
X157455312Y-102663847D02*
X157507693Y-102854323D01*
X157507693Y-102854323D02*
X157560074Y-102949561D01*
X157560074Y-102949561D02*
X157664836Y-103044800D01*
X157664836Y-103044800D02*
X157821979Y-103092419D01*
X157821979Y-103092419D02*
X157926741Y-103092419D01*
X157926741Y-103092419D02*
X158083884Y-103044800D01*
X158083884Y-103044800D02*
X158136265Y-102997180D01*
X158136265Y-102997180D02*
X158136265Y-102663847D01*
X158136265Y-102663847D02*
X157926741Y-102663847D01*
X158607693Y-103092419D02*
X158607693Y-102092419D01*
X158607693Y-102092419D02*
X159026741Y-102092419D01*
X159026741Y-102092419D02*
X159131503Y-102140038D01*
X159131503Y-102140038D02*
X159183884Y-102187657D01*
X159183884Y-102187657D02*
X159236265Y-102282895D01*
X159236265Y-102282895D02*
X159236265Y-102425752D01*
X159236265Y-102425752D02*
X159183884Y-102520990D01*
X159183884Y-102520990D02*
X159131503Y-102568609D01*
X159131503Y-102568609D02*
X159026741Y-102616228D01*
X159026741Y-102616228D02*
X158607693Y-102616228D01*
X159707693Y-103092419D02*
X159707693Y-102092419D01*
X160441027Y-102092419D02*
X160650551Y-102092419D01*
X160650551Y-102092419D02*
X160755313Y-102140038D01*
X160755313Y-102140038D02*
X160860075Y-102235276D01*
X160860075Y-102235276D02*
X160912456Y-102425752D01*
X160912456Y-102425752D02*
X160912456Y-102759085D01*
X160912456Y-102759085D02*
X160860075Y-102949561D01*
X160860075Y-102949561D02*
X160755313Y-103044800D01*
X160755313Y-103044800D02*
X160650551Y-103092419D01*
X160650551Y-103092419D02*
X160441027Y-103092419D01*
X160441027Y-103092419D02*
X160336265Y-103044800D01*
X160336265Y-103044800D02*
X160231503Y-102949561D01*
X160231503Y-102949561D02*
X160179122Y-102759085D01*
X160179122Y-102759085D02*
X160179122Y-102425752D01*
X160179122Y-102425752D02*
X160231503Y-102235276D01*
X160231503Y-102235276D02*
X160336265Y-102140038D01*
X160336265Y-102140038D02*
X160441027Y-102092419D01*
X161960075Y-103092419D02*
X161331503Y-103092419D01*
X161645789Y-103092419D02*
X161645789Y-102092419D01*
X161645789Y-102092419D02*
X161541027Y-102235276D01*
X161541027Y-102235276D02*
X161436265Y-102330514D01*
X161436265Y-102330514D02*
X161331503Y-102378133D01*
X162326741Y-102092419D02*
X163060075Y-102092419D01*
X163060075Y-102092419D02*
X162588646Y-103092419D01*
X158083884Y-104640038D02*
X157979122Y-104592419D01*
X157979122Y-104592419D02*
X157821979Y-104592419D01*
X157821979Y-104592419D02*
X157664836Y-104640038D01*
X157664836Y-104640038D02*
X157560074Y-104735276D01*
X157560074Y-104735276D02*
X157507693Y-104830514D01*
X157507693Y-104830514D02*
X157455312Y-105020990D01*
X157455312Y-105020990D02*
X157455312Y-105163847D01*
X157455312Y-105163847D02*
X157507693Y-105354323D01*
X157507693Y-105354323D02*
X157560074Y-105449561D01*
X157560074Y-105449561D02*
X157664836Y-105544800D01*
X157664836Y-105544800D02*
X157821979Y-105592419D01*
X157821979Y-105592419D02*
X157926741Y-105592419D01*
X157926741Y-105592419D02*
X158083884Y-105544800D01*
X158083884Y-105544800D02*
X158136265Y-105497180D01*
X158136265Y-105497180D02*
X158136265Y-105163847D01*
X158136265Y-105163847D02*
X157926741Y-105163847D01*
X158607693Y-105592419D02*
X158607693Y-104592419D01*
X158607693Y-104592419D02*
X159026741Y-104592419D01*
X159026741Y-104592419D02*
X159131503Y-104640038D01*
X159131503Y-104640038D02*
X159183884Y-104687657D01*
X159183884Y-104687657D02*
X159236265Y-104782895D01*
X159236265Y-104782895D02*
X159236265Y-104925752D01*
X159236265Y-104925752D02*
X159183884Y-105020990D01*
X159183884Y-105020990D02*
X159131503Y-105068609D01*
X159131503Y-105068609D02*
X159026741Y-105116228D01*
X159026741Y-105116228D02*
X158607693Y-105116228D01*
X159707693Y-105592419D02*
X159707693Y-104592419D01*
X160441027Y-104592419D02*
X160650551Y-104592419D01*
X160650551Y-104592419D02*
X160755313Y-104640038D01*
X160755313Y-104640038D02*
X160860075Y-104735276D01*
X160860075Y-104735276D02*
X160912456Y-104925752D01*
X160912456Y-104925752D02*
X160912456Y-105259085D01*
X160912456Y-105259085D02*
X160860075Y-105449561D01*
X160860075Y-105449561D02*
X160755313Y-105544800D01*
X160755313Y-105544800D02*
X160650551Y-105592419D01*
X160650551Y-105592419D02*
X160441027Y-105592419D01*
X160441027Y-105592419D02*
X160336265Y-105544800D01*
X160336265Y-105544800D02*
X160231503Y-105449561D01*
X160231503Y-105449561D02*
X160179122Y-105259085D01*
X160179122Y-105259085D02*
X160179122Y-104925752D01*
X160179122Y-104925752D02*
X160231503Y-104735276D01*
X160231503Y-104735276D02*
X160336265Y-104640038D01*
X160336265Y-104640038D02*
X160441027Y-104592419D01*
X161960075Y-105592419D02*
X161331503Y-105592419D01*
X161645789Y-105592419D02*
X161645789Y-104592419D01*
X161645789Y-104592419D02*
X161541027Y-104735276D01*
X161541027Y-104735276D02*
X161436265Y-104830514D01*
X161436265Y-104830514D02*
X161331503Y-104878133D01*
X162902932Y-104592419D02*
X162693408Y-104592419D01*
X162693408Y-104592419D02*
X162588646Y-104640038D01*
X162588646Y-104640038D02*
X162536265Y-104687657D01*
X162536265Y-104687657D02*
X162431503Y-104830514D01*
X162431503Y-104830514D02*
X162379122Y-105020990D01*
X162379122Y-105020990D02*
X162379122Y-105401942D01*
X162379122Y-105401942D02*
X162431503Y-105497180D01*
X162431503Y-105497180D02*
X162483884Y-105544800D01*
X162483884Y-105544800D02*
X162588646Y-105592419D01*
X162588646Y-105592419D02*
X162798170Y-105592419D01*
X162798170Y-105592419D02*
X162902932Y-105544800D01*
X162902932Y-105544800D02*
X162955313Y-105497180D01*
X162955313Y-105497180D02*
X163007694Y-105401942D01*
X163007694Y-105401942D02*
X163007694Y-105163847D01*
X163007694Y-105163847D02*
X162955313Y-105068609D01*
X162955313Y-105068609D02*
X162902932Y-105020990D01*
X162902932Y-105020990D02*
X162798170Y-104973371D01*
X162798170Y-104973371D02*
X162588646Y-104973371D01*
X162588646Y-104973371D02*
X162483884Y-105020990D01*
X162483884Y-105020990D02*
X162431503Y-105068609D01*
X162431503Y-105068609D02*
X162379122Y-105163847D01*
X158083884Y-112140038D02*
X157979122Y-112092419D01*
X157979122Y-112092419D02*
X157821979Y-112092419D01*
X157821979Y-112092419D02*
X157664836Y-112140038D01*
X157664836Y-112140038D02*
X157560074Y-112235276D01*
X157560074Y-112235276D02*
X157507693Y-112330514D01*
X157507693Y-112330514D02*
X157455312Y-112520990D01*
X157455312Y-112520990D02*
X157455312Y-112663847D01*
X157455312Y-112663847D02*
X157507693Y-112854323D01*
X157507693Y-112854323D02*
X157560074Y-112949561D01*
X157560074Y-112949561D02*
X157664836Y-113044800D01*
X157664836Y-113044800D02*
X157821979Y-113092419D01*
X157821979Y-113092419D02*
X157926741Y-113092419D01*
X157926741Y-113092419D02*
X158083884Y-113044800D01*
X158083884Y-113044800D02*
X158136265Y-112997180D01*
X158136265Y-112997180D02*
X158136265Y-112663847D01*
X158136265Y-112663847D02*
X157926741Y-112663847D01*
X158607693Y-113092419D02*
X158607693Y-112092419D01*
X158607693Y-112092419D02*
X159026741Y-112092419D01*
X159026741Y-112092419D02*
X159131503Y-112140038D01*
X159131503Y-112140038D02*
X159183884Y-112187657D01*
X159183884Y-112187657D02*
X159236265Y-112282895D01*
X159236265Y-112282895D02*
X159236265Y-112425752D01*
X159236265Y-112425752D02*
X159183884Y-112520990D01*
X159183884Y-112520990D02*
X159131503Y-112568609D01*
X159131503Y-112568609D02*
X159026741Y-112616228D01*
X159026741Y-112616228D02*
X158607693Y-112616228D01*
X159707693Y-113092419D02*
X159707693Y-112092419D01*
X160441027Y-112092419D02*
X160650551Y-112092419D01*
X160650551Y-112092419D02*
X160755313Y-112140038D01*
X160755313Y-112140038D02*
X160860075Y-112235276D01*
X160860075Y-112235276D02*
X160912456Y-112425752D01*
X160912456Y-112425752D02*
X160912456Y-112759085D01*
X160912456Y-112759085D02*
X160860075Y-112949561D01*
X160860075Y-112949561D02*
X160755313Y-113044800D01*
X160755313Y-113044800D02*
X160650551Y-113092419D01*
X160650551Y-113092419D02*
X160441027Y-113092419D01*
X160441027Y-113092419D02*
X160336265Y-113044800D01*
X160336265Y-113044800D02*
X160231503Y-112949561D01*
X160231503Y-112949561D02*
X160179122Y-112759085D01*
X160179122Y-112759085D02*
X160179122Y-112425752D01*
X160179122Y-112425752D02*
X160231503Y-112235276D01*
X160231503Y-112235276D02*
X160336265Y-112140038D01*
X160336265Y-112140038D02*
X160441027Y-112092419D01*
X161960075Y-113092419D02*
X161331503Y-113092419D01*
X161645789Y-113092419D02*
X161645789Y-112092419D01*
X161645789Y-112092419D02*
X161541027Y-112235276D01*
X161541027Y-112235276D02*
X161436265Y-112330514D01*
X161436265Y-112330514D02*
X161331503Y-112378133D01*
X162955313Y-112092419D02*
X162431503Y-112092419D01*
X162431503Y-112092419D02*
X162379122Y-112568609D01*
X162379122Y-112568609D02*
X162431503Y-112520990D01*
X162431503Y-112520990D02*
X162536265Y-112473371D01*
X162536265Y-112473371D02*
X162798170Y-112473371D01*
X162798170Y-112473371D02*
X162902932Y-112520990D01*
X162902932Y-112520990D02*
X162955313Y-112568609D01*
X162955313Y-112568609D02*
X163007694Y-112663847D01*
X163007694Y-112663847D02*
X163007694Y-112901942D01*
X163007694Y-112901942D02*
X162955313Y-112997180D01*
X162955313Y-112997180D02*
X162902932Y-113044800D01*
X162902932Y-113044800D02*
X162798170Y-113092419D01*
X162798170Y-113092419D02*
X162536265Y-113092419D01*
X162536265Y-113092419D02*
X162431503Y-113044800D01*
X162431503Y-113044800D02*
X162379122Y-112997180D01*
X159083884Y-86640038D02*
X158979122Y-86592419D01*
X158979122Y-86592419D02*
X158821979Y-86592419D01*
X158821979Y-86592419D02*
X158664836Y-86640038D01*
X158664836Y-86640038D02*
X158560074Y-86735276D01*
X158560074Y-86735276D02*
X158507693Y-86830514D01*
X158507693Y-86830514D02*
X158455312Y-87020990D01*
X158455312Y-87020990D02*
X158455312Y-87163847D01*
X158455312Y-87163847D02*
X158507693Y-87354323D01*
X158507693Y-87354323D02*
X158560074Y-87449561D01*
X158560074Y-87449561D02*
X158664836Y-87544800D01*
X158664836Y-87544800D02*
X158821979Y-87592419D01*
X158821979Y-87592419D02*
X158926741Y-87592419D01*
X158926741Y-87592419D02*
X159083884Y-87544800D01*
X159083884Y-87544800D02*
X159136265Y-87497180D01*
X159136265Y-87497180D02*
X159136265Y-87163847D01*
X159136265Y-87163847D02*
X158926741Y-87163847D01*
X159607693Y-87592419D02*
X159607693Y-86592419D01*
X159607693Y-86592419D02*
X160026741Y-86592419D01*
X160026741Y-86592419D02*
X160131503Y-86640038D01*
X160131503Y-86640038D02*
X160183884Y-86687657D01*
X160183884Y-86687657D02*
X160236265Y-86782895D01*
X160236265Y-86782895D02*
X160236265Y-86925752D01*
X160236265Y-86925752D02*
X160183884Y-87020990D01*
X160183884Y-87020990D02*
X160131503Y-87068609D01*
X160131503Y-87068609D02*
X160026741Y-87116228D01*
X160026741Y-87116228D02*
X159607693Y-87116228D01*
X160707693Y-87592419D02*
X160707693Y-86592419D01*
X161441027Y-86592419D02*
X161650551Y-86592419D01*
X161650551Y-86592419D02*
X161755313Y-86640038D01*
X161755313Y-86640038D02*
X161860075Y-86735276D01*
X161860075Y-86735276D02*
X161912456Y-86925752D01*
X161912456Y-86925752D02*
X161912456Y-87259085D01*
X161912456Y-87259085D02*
X161860075Y-87449561D01*
X161860075Y-87449561D02*
X161755313Y-87544800D01*
X161755313Y-87544800D02*
X161650551Y-87592419D01*
X161650551Y-87592419D02*
X161441027Y-87592419D01*
X161441027Y-87592419D02*
X161336265Y-87544800D01*
X161336265Y-87544800D02*
X161231503Y-87449561D01*
X161231503Y-87449561D02*
X161179122Y-87259085D01*
X161179122Y-87259085D02*
X161179122Y-86925752D01*
X161179122Y-86925752D02*
X161231503Y-86735276D01*
X161231503Y-86735276D02*
X161336265Y-86640038D01*
X161336265Y-86640038D02*
X161441027Y-86592419D01*
X162960075Y-87592419D02*
X162331503Y-87592419D01*
X162645789Y-87592419D02*
X162645789Y-86592419D01*
X162645789Y-86592419D02*
X162541027Y-86735276D01*
X162541027Y-86735276D02*
X162436265Y-86830514D01*
X162436265Y-86830514D02*
X162331503Y-86878133D01*
X159083884Y-89640038D02*
X158979122Y-89592419D01*
X158979122Y-89592419D02*
X158821979Y-89592419D01*
X158821979Y-89592419D02*
X158664836Y-89640038D01*
X158664836Y-89640038D02*
X158560074Y-89735276D01*
X158560074Y-89735276D02*
X158507693Y-89830514D01*
X158507693Y-89830514D02*
X158455312Y-90020990D01*
X158455312Y-90020990D02*
X158455312Y-90163847D01*
X158455312Y-90163847D02*
X158507693Y-90354323D01*
X158507693Y-90354323D02*
X158560074Y-90449561D01*
X158560074Y-90449561D02*
X158664836Y-90544800D01*
X158664836Y-90544800D02*
X158821979Y-90592419D01*
X158821979Y-90592419D02*
X158926741Y-90592419D01*
X158926741Y-90592419D02*
X159083884Y-90544800D01*
X159083884Y-90544800D02*
X159136265Y-90497180D01*
X159136265Y-90497180D02*
X159136265Y-90163847D01*
X159136265Y-90163847D02*
X158926741Y-90163847D01*
X159607693Y-90592419D02*
X159607693Y-89592419D01*
X159607693Y-89592419D02*
X160026741Y-89592419D01*
X160026741Y-89592419D02*
X160131503Y-89640038D01*
X160131503Y-89640038D02*
X160183884Y-89687657D01*
X160183884Y-89687657D02*
X160236265Y-89782895D01*
X160236265Y-89782895D02*
X160236265Y-89925752D01*
X160236265Y-89925752D02*
X160183884Y-90020990D01*
X160183884Y-90020990D02*
X160131503Y-90068609D01*
X160131503Y-90068609D02*
X160026741Y-90116228D01*
X160026741Y-90116228D02*
X159607693Y-90116228D01*
X160707693Y-90592419D02*
X160707693Y-89592419D01*
X161441027Y-89592419D02*
X161650551Y-89592419D01*
X161650551Y-89592419D02*
X161755313Y-89640038D01*
X161755313Y-89640038D02*
X161860075Y-89735276D01*
X161860075Y-89735276D02*
X161912456Y-89925752D01*
X161912456Y-89925752D02*
X161912456Y-90259085D01*
X161912456Y-90259085D02*
X161860075Y-90449561D01*
X161860075Y-90449561D02*
X161755313Y-90544800D01*
X161755313Y-90544800D02*
X161650551Y-90592419D01*
X161650551Y-90592419D02*
X161441027Y-90592419D01*
X161441027Y-90592419D02*
X161336265Y-90544800D01*
X161336265Y-90544800D02*
X161231503Y-90449561D01*
X161231503Y-90449561D02*
X161179122Y-90259085D01*
X161179122Y-90259085D02*
X161179122Y-89925752D01*
X161179122Y-89925752D02*
X161231503Y-89735276D01*
X161231503Y-89735276D02*
X161336265Y-89640038D01*
X161336265Y-89640038D02*
X161441027Y-89592419D01*
X162279122Y-89592419D02*
X162960075Y-89592419D01*
X162960075Y-89592419D02*
X162593408Y-89973371D01*
X162593408Y-89973371D02*
X162750551Y-89973371D01*
X162750551Y-89973371D02*
X162855313Y-90020990D01*
X162855313Y-90020990D02*
X162907694Y-90068609D01*
X162907694Y-90068609D02*
X162960075Y-90163847D01*
X162960075Y-90163847D02*
X162960075Y-90401942D01*
X162960075Y-90401942D02*
X162907694Y-90497180D01*
X162907694Y-90497180D02*
X162855313Y-90544800D01*
X162855313Y-90544800D02*
X162750551Y-90592419D01*
X162750551Y-90592419D02*
X162436265Y-90592419D01*
X162436265Y-90592419D02*
X162331503Y-90544800D01*
X162331503Y-90544800D02*
X162279122Y-90497180D01*
X159083884Y-99640038D02*
X158979122Y-99592419D01*
X158979122Y-99592419D02*
X158821979Y-99592419D01*
X158821979Y-99592419D02*
X158664836Y-99640038D01*
X158664836Y-99640038D02*
X158560074Y-99735276D01*
X158560074Y-99735276D02*
X158507693Y-99830514D01*
X158507693Y-99830514D02*
X158455312Y-100020990D01*
X158455312Y-100020990D02*
X158455312Y-100163847D01*
X158455312Y-100163847D02*
X158507693Y-100354323D01*
X158507693Y-100354323D02*
X158560074Y-100449561D01*
X158560074Y-100449561D02*
X158664836Y-100544800D01*
X158664836Y-100544800D02*
X158821979Y-100592419D01*
X158821979Y-100592419D02*
X158926741Y-100592419D01*
X158926741Y-100592419D02*
X159083884Y-100544800D01*
X159083884Y-100544800D02*
X159136265Y-100497180D01*
X159136265Y-100497180D02*
X159136265Y-100163847D01*
X159136265Y-100163847D02*
X158926741Y-100163847D01*
X159607693Y-100592419D02*
X159607693Y-99592419D01*
X159607693Y-99592419D02*
X160026741Y-99592419D01*
X160026741Y-99592419D02*
X160131503Y-99640038D01*
X160131503Y-99640038D02*
X160183884Y-99687657D01*
X160183884Y-99687657D02*
X160236265Y-99782895D01*
X160236265Y-99782895D02*
X160236265Y-99925752D01*
X160236265Y-99925752D02*
X160183884Y-100020990D01*
X160183884Y-100020990D02*
X160131503Y-100068609D01*
X160131503Y-100068609D02*
X160026741Y-100116228D01*
X160026741Y-100116228D02*
X159607693Y-100116228D01*
X160707693Y-100592419D02*
X160707693Y-99592419D01*
X161441027Y-99592419D02*
X161650551Y-99592419D01*
X161650551Y-99592419D02*
X161755313Y-99640038D01*
X161755313Y-99640038D02*
X161860075Y-99735276D01*
X161860075Y-99735276D02*
X161912456Y-99925752D01*
X161912456Y-99925752D02*
X161912456Y-100259085D01*
X161912456Y-100259085D02*
X161860075Y-100449561D01*
X161860075Y-100449561D02*
X161755313Y-100544800D01*
X161755313Y-100544800D02*
X161650551Y-100592419D01*
X161650551Y-100592419D02*
X161441027Y-100592419D01*
X161441027Y-100592419D02*
X161336265Y-100544800D01*
X161336265Y-100544800D02*
X161231503Y-100449561D01*
X161231503Y-100449561D02*
X161179122Y-100259085D01*
X161179122Y-100259085D02*
X161179122Y-99925752D01*
X161179122Y-99925752D02*
X161231503Y-99735276D01*
X161231503Y-99735276D02*
X161336265Y-99640038D01*
X161336265Y-99640038D02*
X161441027Y-99592419D01*
X162907694Y-99592419D02*
X162383884Y-99592419D01*
X162383884Y-99592419D02*
X162331503Y-100068609D01*
X162331503Y-100068609D02*
X162383884Y-100020990D01*
X162383884Y-100020990D02*
X162488646Y-99973371D01*
X162488646Y-99973371D02*
X162750551Y-99973371D01*
X162750551Y-99973371D02*
X162855313Y-100020990D01*
X162855313Y-100020990D02*
X162907694Y-100068609D01*
X162907694Y-100068609D02*
X162960075Y-100163847D01*
X162960075Y-100163847D02*
X162960075Y-100401942D01*
X162960075Y-100401942D02*
X162907694Y-100497180D01*
X162907694Y-100497180D02*
X162855313Y-100544800D01*
X162855313Y-100544800D02*
X162750551Y-100592419D01*
X162750551Y-100592419D02*
X162488646Y-100592419D01*
X162488646Y-100592419D02*
X162383884Y-100544800D01*
X162383884Y-100544800D02*
X162331503Y-100497180D01*
X159083884Y-107140038D02*
X158979122Y-107092419D01*
X158979122Y-107092419D02*
X158821979Y-107092419D01*
X158821979Y-107092419D02*
X158664836Y-107140038D01*
X158664836Y-107140038D02*
X158560074Y-107235276D01*
X158560074Y-107235276D02*
X158507693Y-107330514D01*
X158507693Y-107330514D02*
X158455312Y-107520990D01*
X158455312Y-107520990D02*
X158455312Y-107663847D01*
X158455312Y-107663847D02*
X158507693Y-107854323D01*
X158507693Y-107854323D02*
X158560074Y-107949561D01*
X158560074Y-107949561D02*
X158664836Y-108044800D01*
X158664836Y-108044800D02*
X158821979Y-108092419D01*
X158821979Y-108092419D02*
X158926741Y-108092419D01*
X158926741Y-108092419D02*
X159083884Y-108044800D01*
X159083884Y-108044800D02*
X159136265Y-107997180D01*
X159136265Y-107997180D02*
X159136265Y-107663847D01*
X159136265Y-107663847D02*
X158926741Y-107663847D01*
X159607693Y-108092419D02*
X159607693Y-107092419D01*
X159607693Y-107092419D02*
X160026741Y-107092419D01*
X160026741Y-107092419D02*
X160131503Y-107140038D01*
X160131503Y-107140038D02*
X160183884Y-107187657D01*
X160183884Y-107187657D02*
X160236265Y-107282895D01*
X160236265Y-107282895D02*
X160236265Y-107425752D01*
X160236265Y-107425752D02*
X160183884Y-107520990D01*
X160183884Y-107520990D02*
X160131503Y-107568609D01*
X160131503Y-107568609D02*
X160026741Y-107616228D01*
X160026741Y-107616228D02*
X159607693Y-107616228D01*
X160707693Y-108092419D02*
X160707693Y-107092419D01*
X161441027Y-107092419D02*
X161650551Y-107092419D01*
X161650551Y-107092419D02*
X161755313Y-107140038D01*
X161755313Y-107140038D02*
X161860075Y-107235276D01*
X161860075Y-107235276D02*
X161912456Y-107425752D01*
X161912456Y-107425752D02*
X161912456Y-107759085D01*
X161912456Y-107759085D02*
X161860075Y-107949561D01*
X161860075Y-107949561D02*
X161755313Y-108044800D01*
X161755313Y-108044800D02*
X161650551Y-108092419D01*
X161650551Y-108092419D02*
X161441027Y-108092419D01*
X161441027Y-108092419D02*
X161336265Y-108044800D01*
X161336265Y-108044800D02*
X161231503Y-107949561D01*
X161231503Y-107949561D02*
X161179122Y-107759085D01*
X161179122Y-107759085D02*
X161179122Y-107425752D01*
X161179122Y-107425752D02*
X161231503Y-107235276D01*
X161231503Y-107235276D02*
X161336265Y-107140038D01*
X161336265Y-107140038D02*
X161441027Y-107092419D01*
X162855313Y-107425752D02*
X162855313Y-108092419D01*
X162593408Y-107044800D02*
X162331503Y-107759085D01*
X162331503Y-107759085D02*
X163012456Y-107759085D01*
X159083884Y-109640038D02*
X158979122Y-109592419D01*
X158979122Y-109592419D02*
X158821979Y-109592419D01*
X158821979Y-109592419D02*
X158664836Y-109640038D01*
X158664836Y-109640038D02*
X158560074Y-109735276D01*
X158560074Y-109735276D02*
X158507693Y-109830514D01*
X158507693Y-109830514D02*
X158455312Y-110020990D01*
X158455312Y-110020990D02*
X158455312Y-110163847D01*
X158455312Y-110163847D02*
X158507693Y-110354323D01*
X158507693Y-110354323D02*
X158560074Y-110449561D01*
X158560074Y-110449561D02*
X158664836Y-110544800D01*
X158664836Y-110544800D02*
X158821979Y-110592419D01*
X158821979Y-110592419D02*
X158926741Y-110592419D01*
X158926741Y-110592419D02*
X159083884Y-110544800D01*
X159083884Y-110544800D02*
X159136265Y-110497180D01*
X159136265Y-110497180D02*
X159136265Y-110163847D01*
X159136265Y-110163847D02*
X158926741Y-110163847D01*
X159607693Y-110592419D02*
X159607693Y-109592419D01*
X159607693Y-109592419D02*
X160026741Y-109592419D01*
X160026741Y-109592419D02*
X160131503Y-109640038D01*
X160131503Y-109640038D02*
X160183884Y-109687657D01*
X160183884Y-109687657D02*
X160236265Y-109782895D01*
X160236265Y-109782895D02*
X160236265Y-109925752D01*
X160236265Y-109925752D02*
X160183884Y-110020990D01*
X160183884Y-110020990D02*
X160131503Y-110068609D01*
X160131503Y-110068609D02*
X160026741Y-110116228D01*
X160026741Y-110116228D02*
X159607693Y-110116228D01*
X160707693Y-110592419D02*
X160707693Y-109592419D01*
X161441027Y-109592419D02*
X161650551Y-109592419D01*
X161650551Y-109592419D02*
X161755313Y-109640038D01*
X161755313Y-109640038D02*
X161860075Y-109735276D01*
X161860075Y-109735276D02*
X161912456Y-109925752D01*
X161912456Y-109925752D02*
X161912456Y-110259085D01*
X161912456Y-110259085D02*
X161860075Y-110449561D01*
X161860075Y-110449561D02*
X161755313Y-110544800D01*
X161755313Y-110544800D02*
X161650551Y-110592419D01*
X161650551Y-110592419D02*
X161441027Y-110592419D01*
X161441027Y-110592419D02*
X161336265Y-110544800D01*
X161336265Y-110544800D02*
X161231503Y-110449561D01*
X161231503Y-110449561D02*
X161179122Y-110259085D01*
X161179122Y-110259085D02*
X161179122Y-109925752D01*
X161179122Y-109925752D02*
X161231503Y-109735276D01*
X161231503Y-109735276D02*
X161336265Y-109640038D01*
X161336265Y-109640038D02*
X161441027Y-109592419D01*
X162331503Y-109687657D02*
X162383884Y-109640038D01*
X162383884Y-109640038D02*
X162488646Y-109592419D01*
X162488646Y-109592419D02*
X162750551Y-109592419D01*
X162750551Y-109592419D02*
X162855313Y-109640038D01*
X162855313Y-109640038D02*
X162907694Y-109687657D01*
X162907694Y-109687657D02*
X162960075Y-109782895D01*
X162960075Y-109782895D02*
X162960075Y-109878133D01*
X162960075Y-109878133D02*
X162907694Y-110020990D01*
X162907694Y-110020990D02*
X162279122Y-110592419D01*
X162279122Y-110592419D02*
X162960075Y-110592419D01*
X160583884Y-114640038D02*
X160479122Y-114592419D01*
X160479122Y-114592419D02*
X160321979Y-114592419D01*
X160321979Y-114592419D02*
X160164836Y-114640038D01*
X160164836Y-114640038D02*
X160060074Y-114735276D01*
X160060074Y-114735276D02*
X160007693Y-114830514D01*
X160007693Y-114830514D02*
X159955312Y-115020990D01*
X159955312Y-115020990D02*
X159955312Y-115163847D01*
X159955312Y-115163847D02*
X160007693Y-115354323D01*
X160007693Y-115354323D02*
X160060074Y-115449561D01*
X160060074Y-115449561D02*
X160164836Y-115544800D01*
X160164836Y-115544800D02*
X160321979Y-115592419D01*
X160321979Y-115592419D02*
X160426741Y-115592419D01*
X160426741Y-115592419D02*
X160583884Y-115544800D01*
X160583884Y-115544800D02*
X160636265Y-115497180D01*
X160636265Y-115497180D02*
X160636265Y-115163847D01*
X160636265Y-115163847D02*
X160426741Y-115163847D01*
X161107693Y-115592419D02*
X161107693Y-114592419D01*
X161107693Y-114592419D02*
X161736265Y-115592419D01*
X161736265Y-115592419D02*
X161736265Y-114592419D01*
X162260074Y-115592419D02*
X162260074Y-114592419D01*
X162260074Y-114592419D02*
X162521979Y-114592419D01*
X162521979Y-114592419D02*
X162679122Y-114640038D01*
X162679122Y-114640038D02*
X162783884Y-114735276D01*
X162783884Y-114735276D02*
X162836265Y-114830514D01*
X162836265Y-114830514D02*
X162888646Y-115020990D01*
X162888646Y-115020990D02*
X162888646Y-115163847D01*
X162888646Y-115163847D02*
X162836265Y-115354323D01*
X162836265Y-115354323D02*
X162783884Y-115449561D01*
X162783884Y-115449561D02*
X162679122Y-115544800D01*
X162679122Y-115544800D02*
X162521979Y-115592419D01*
X162521979Y-115592419D02*
X162260074Y-115592419D01*
X159902931Y-117092419D02*
X160583884Y-117092419D01*
X160583884Y-117092419D02*
X160217217Y-117473371D01*
X160217217Y-117473371D02*
X160374360Y-117473371D01*
X160374360Y-117473371D02*
X160479122Y-117520990D01*
X160479122Y-117520990D02*
X160531503Y-117568609D01*
X160531503Y-117568609D02*
X160583884Y-117663847D01*
X160583884Y-117663847D02*
X160583884Y-117901942D01*
X160583884Y-117901942D02*
X160531503Y-117997180D01*
X160531503Y-117997180D02*
X160479122Y-118044800D01*
X160479122Y-118044800D02*
X160374360Y-118092419D01*
X160374360Y-118092419D02*
X160060074Y-118092419D01*
X160060074Y-118092419D02*
X159955312Y-118044800D01*
X159955312Y-118044800D02*
X159902931Y-117997180D01*
X161055312Y-117997180D02*
X161107693Y-118044800D01*
X161107693Y-118044800D02*
X161055312Y-118092419D01*
X161055312Y-118092419D02*
X161002931Y-118044800D01*
X161002931Y-118044800D02*
X161055312Y-117997180D01*
X161055312Y-117997180D02*
X161055312Y-118092419D01*
X161474360Y-117092419D02*
X162155313Y-117092419D01*
X162155313Y-117092419D02*
X161788646Y-117473371D01*
X161788646Y-117473371D02*
X161945789Y-117473371D01*
X161945789Y-117473371D02*
X162050551Y-117520990D01*
X162050551Y-117520990D02*
X162102932Y-117568609D01*
X162102932Y-117568609D02*
X162155313Y-117663847D01*
X162155313Y-117663847D02*
X162155313Y-117901942D01*
X162155313Y-117901942D02*
X162102932Y-117997180D01*
X162102932Y-117997180D02*
X162050551Y-118044800D01*
X162050551Y-118044800D02*
X161945789Y-118092419D01*
X161945789Y-118092419D02*
X161631503Y-118092419D01*
X161631503Y-118092419D02*
X161526741Y-118044800D01*
X161526741Y-118044800D02*
X161474360Y-117997180D01*
X162521979Y-117425752D02*
X162783884Y-118092419D01*
X162783884Y-118092419D02*
X163045789Y-117425752D01*
D11*
X128488095Y-86354819D02*
X128488095Y-85354819D01*
X128488095Y-85831009D02*
X129059523Y-85831009D01*
X129059523Y-86354819D02*
X129059523Y-85354819D01*
X130059523Y-86354819D02*
X129488095Y-86354819D01*
X129773809Y-86354819D02*
X129773809Y-85354819D01*
X129773809Y-85354819D02*
X129678571Y-85497676D01*
X129678571Y-85497676D02*
X129583333Y-85592914D01*
X129583333Y-85592914D02*
X129488095Y-85640533D01*
X168916666Y-124074819D02*
X168916666Y-124789104D01*
X168916666Y-124789104D02*
X168869047Y-124931961D01*
X168869047Y-124931961D02*
X168773809Y-125027200D01*
X168773809Y-125027200D02*
X168630952Y-125074819D01*
X168630952Y-125074819D02*
X168535714Y-125074819D01*
X169869047Y-124074819D02*
X169392857Y-124074819D01*
X169392857Y-124074819D02*
X169345238Y-124551009D01*
X169345238Y-124551009D02*
X169392857Y-124503390D01*
X169392857Y-124503390D02*
X169488095Y-124455771D01*
X169488095Y-124455771D02*
X169726190Y-124455771D01*
X169726190Y-124455771D02*
X169821428Y-124503390D01*
X169821428Y-124503390D02*
X169869047Y-124551009D01*
X169869047Y-124551009D02*
X169916666Y-124646247D01*
X169916666Y-124646247D02*
X169916666Y-124884342D01*
X169916666Y-124884342D02*
X169869047Y-124979580D01*
X169869047Y-124979580D02*
X169821428Y-125027200D01*
X169821428Y-125027200D02*
X169726190Y-125074819D01*
X169726190Y-125074819D02*
X169488095Y-125074819D01*
X169488095Y-125074819D02*
X169392857Y-125027200D01*
X169392857Y-125027200D02*
X169345238Y-124979580D01*
X173488095Y-131554819D02*
X173488095Y-130554819D01*
X173488095Y-131031009D02*
X174059523Y-131031009D01*
X174059523Y-131554819D02*
X174059523Y-130554819D01*
X174964285Y-130888152D02*
X174964285Y-131554819D01*
X174726190Y-130507200D02*
X174488095Y-131221485D01*
X174488095Y-131221485D02*
X175107142Y-131221485D01*
X130859580Y-101416666D02*
X130907200Y-101464285D01*
X130907200Y-101464285D02*
X130954819Y-101607142D01*
X130954819Y-101607142D02*
X130954819Y-101702380D01*
X130954819Y-101702380D02*
X130907200Y-101845237D01*
X130907200Y-101845237D02*
X130811961Y-101940475D01*
X130811961Y-101940475D02*
X130716723Y-101988094D01*
X130716723Y-101988094D02*
X130526247Y-102035713D01*
X130526247Y-102035713D02*
X130383390Y-102035713D01*
X130383390Y-102035713D02*
X130192914Y-101988094D01*
X130192914Y-101988094D02*
X130097676Y-101940475D01*
X130097676Y-101940475D02*
X130002438Y-101845237D01*
X130002438Y-101845237D02*
X129954819Y-101702380D01*
X129954819Y-101702380D02*
X129954819Y-101607142D01*
X129954819Y-101607142D02*
X130002438Y-101464285D01*
X130002438Y-101464285D02*
X130050057Y-101416666D01*
X129954819Y-101083332D02*
X129954819Y-100464285D01*
X129954819Y-100464285D02*
X130335771Y-100797618D01*
X130335771Y-100797618D02*
X130335771Y-100654761D01*
X130335771Y-100654761D02*
X130383390Y-100559523D01*
X130383390Y-100559523D02*
X130431009Y-100511904D01*
X130431009Y-100511904D02*
X130526247Y-100464285D01*
X130526247Y-100464285D02*
X130764342Y-100464285D01*
X130764342Y-100464285D02*
X130859580Y-100511904D01*
X130859580Y-100511904D02*
X130907200Y-100559523D01*
X130907200Y-100559523D02*
X130954819Y-100654761D01*
X130954819Y-100654761D02*
X130954819Y-100940475D01*
X130954819Y-100940475D02*
X130907200Y-101035713D01*
X130907200Y-101035713D02*
X130859580Y-101083332D01*
X132954819Y-124083333D02*
X133669104Y-124083333D01*
X133669104Y-124083333D02*
X133811961Y-124130952D01*
X133811961Y-124130952D02*
X133907200Y-124226190D01*
X133907200Y-124226190D02*
X133954819Y-124369047D01*
X133954819Y-124369047D02*
X133954819Y-124464285D01*
X133954819Y-123083333D02*
X133954819Y-123654761D01*
X133954819Y-123369047D02*
X132954819Y-123369047D01*
X132954819Y-123369047D02*
X133097676Y-123464285D01*
X133097676Y-123464285D02*
X133192914Y-123559523D01*
X133192914Y-123559523D02*
X133240533Y-123654761D01*
X132666666Y-84534819D02*
X132666666Y-85249104D01*
X132666666Y-85249104D02*
X132619047Y-85391961D01*
X132619047Y-85391961D02*
X132523809Y-85487200D01*
X132523809Y-85487200D02*
X132380952Y-85534819D01*
X132380952Y-85534819D02*
X132285714Y-85534819D01*
X133047619Y-84534819D02*
X133666666Y-84534819D01*
X133666666Y-84534819D02*
X133333333Y-84915771D01*
X133333333Y-84915771D02*
X133476190Y-84915771D01*
X133476190Y-84915771D02*
X133571428Y-84963390D01*
X133571428Y-84963390D02*
X133619047Y-85011009D01*
X133619047Y-85011009D02*
X133666666Y-85106247D01*
X133666666Y-85106247D02*
X133666666Y-85344342D01*
X133666666Y-85344342D02*
X133619047Y-85439580D01*
X133619047Y-85439580D02*
X133571428Y-85487200D01*
X133571428Y-85487200D02*
X133476190Y-85534819D01*
X133476190Y-85534819D02*
X133190476Y-85534819D01*
X133190476Y-85534819D02*
X133095238Y-85487200D01*
X133095238Y-85487200D02*
X133047619Y-85439580D01*
X169166666Y-84534819D02*
X169166666Y-85249104D01*
X169166666Y-85249104D02*
X169119047Y-85391961D01*
X169119047Y-85391961D02*
X169023809Y-85487200D01*
X169023809Y-85487200D02*
X168880952Y-85534819D01*
X168880952Y-85534819D02*
X168785714Y-85534819D01*
X170071428Y-84868152D02*
X170071428Y-85534819D01*
X169833333Y-84487200D02*
X169595238Y-85201485D01*
X169595238Y-85201485D02*
X170214285Y-85201485D01*
X151036666Y-127634819D02*
X151036666Y-128349104D01*
X151036666Y-128349104D02*
X150989047Y-128491961D01*
X150989047Y-128491961D02*
X150893809Y-128587200D01*
X150893809Y-128587200D02*
X150750952Y-128634819D01*
X150750952Y-128634819D02*
X150655714Y-128634819D01*
X151465238Y-127730057D02*
X151512857Y-127682438D01*
X151512857Y-127682438D02*
X151608095Y-127634819D01*
X151608095Y-127634819D02*
X151846190Y-127634819D01*
X151846190Y-127634819D02*
X151941428Y-127682438D01*
X151941428Y-127682438D02*
X151989047Y-127730057D01*
X151989047Y-127730057D02*
X152036666Y-127825295D01*
X152036666Y-127825295D02*
X152036666Y-127920533D01*
X152036666Y-127920533D02*
X151989047Y-128063390D01*
X151989047Y-128063390D02*
X151417619Y-128634819D01*
X151417619Y-128634819D02*
X152036666Y-128634819D01*
X135947143Y-122934819D02*
X135613810Y-122458628D01*
X135375715Y-122934819D02*
X135375715Y-121934819D01*
X135375715Y-121934819D02*
X135756667Y-121934819D01*
X135756667Y-121934819D02*
X135851905Y-121982438D01*
X135851905Y-121982438D02*
X135899524Y-122030057D01*
X135899524Y-122030057D02*
X135947143Y-122125295D01*
X135947143Y-122125295D02*
X135947143Y-122268152D01*
X135947143Y-122268152D02*
X135899524Y-122363390D01*
X135899524Y-122363390D02*
X135851905Y-122411009D01*
X135851905Y-122411009D02*
X135756667Y-122458628D01*
X135756667Y-122458628D02*
X135375715Y-122458628D01*
X136899524Y-122934819D02*
X136328096Y-122934819D01*
X136613810Y-122934819D02*
X136613810Y-121934819D01*
X136613810Y-121934819D02*
X136518572Y-122077676D01*
X136518572Y-122077676D02*
X136423334Y-122172914D01*
X136423334Y-122172914D02*
X136328096Y-122220533D01*
X129454819Y-101416666D02*
X128978628Y-101749999D01*
X129454819Y-101988094D02*
X128454819Y-101988094D01*
X128454819Y-101988094D02*
X128454819Y-101607142D01*
X128454819Y-101607142D02*
X128502438Y-101511904D01*
X128502438Y-101511904D02*
X128550057Y-101464285D01*
X128550057Y-101464285D02*
X128645295Y-101416666D01*
X128645295Y-101416666D02*
X128788152Y-101416666D01*
X128788152Y-101416666D02*
X128883390Y-101464285D01*
X128883390Y-101464285D02*
X128931009Y-101511904D01*
X128931009Y-101511904D02*
X128978628Y-101607142D01*
X128978628Y-101607142D02*
X128978628Y-101988094D01*
X128454819Y-101083332D02*
X128454819Y-100464285D01*
X128454819Y-100464285D02*
X128835771Y-100797618D01*
X128835771Y-100797618D02*
X128835771Y-100654761D01*
X128835771Y-100654761D02*
X128883390Y-100559523D01*
X128883390Y-100559523D02*
X128931009Y-100511904D01*
X128931009Y-100511904D02*
X129026247Y-100464285D01*
X129026247Y-100464285D02*
X129264342Y-100464285D01*
X129264342Y-100464285D02*
X129359580Y-100511904D01*
X129359580Y-100511904D02*
X129407200Y-100559523D01*
X129407200Y-100559523D02*
X129454819Y-100654761D01*
X129454819Y-100654761D02*
X129454819Y-100940475D01*
X129454819Y-100940475D02*
X129407200Y-101035713D01*
X129407200Y-101035713D02*
X129359580Y-101083332D01*
%TO.C,F1*%
D13*
X134340000Y-119752064D02*
X134340000Y-118547936D01*
X136160000Y-119752064D02*
X136160000Y-118547936D01*
%TO.C,R2*%
X134096359Y-125120000D02*
X134403641Y-125120000D01*
X134096359Y-125880000D02*
X134403641Y-125880000D01*
%TO.C,U3*%
D14*
X137350000Y-80720000D02*
X165650000Y-80720000D01*
X165650000Y-125820000D01*
X137350000Y-125820000D01*
X137350000Y-80720000D01*
D10*
X146680000Y-121092911D02*
X154300000Y-121092911D01*
X154300000Y-125347090D01*
X146680000Y-125347090D01*
X146680000Y-121092911D01*
%TO.C,J5*%
D13*
X167870000Y-125620000D02*
X169250000Y-125620000D01*
X167870000Y-127000000D02*
X167870000Y-125620000D01*
X167870000Y-128270000D02*
X167870000Y-136000000D01*
X167870000Y-128270000D02*
X170630000Y-128270000D01*
X167870000Y-136000000D02*
X170630000Y-136000000D01*
X170630000Y-128270000D02*
X170630000Y-136000000D01*
%TO.C,C3*%
X130140000Y-103162164D02*
X130140000Y-103377836D01*
X130860000Y-103162164D02*
X130860000Y-103377836D01*
%TO.C,J1*%
X127930000Y-128330000D02*
X129850000Y-128330000D01*
X129850000Y-119170000D02*
X127930000Y-119170000D01*
%TO.C,J3*%
X131620000Y-86080000D02*
X133000000Y-86080000D01*
X131620000Y-87460000D02*
X131620000Y-86080000D01*
X131620000Y-88730000D02*
X131620000Y-111700000D01*
X131620000Y-88730000D02*
X134380000Y-88730000D01*
X131620000Y-111700000D02*
X134380000Y-111700000D01*
X134380000Y-88730000D02*
X134380000Y-111700000D01*
%TO.C,J4*%
X168120000Y-86080000D02*
X169500000Y-86080000D01*
X168120000Y-87460000D02*
X168120000Y-86080000D01*
X168120000Y-88730000D02*
X168120000Y-106620000D01*
X168120000Y-88730000D02*
X170880000Y-88730000D01*
X168120000Y-106620000D02*
X170880000Y-106620000D01*
X170880000Y-88730000D02*
X170880000Y-106620000D01*
%TO.C,J2*%
X136010000Y-129180000D02*
X166730000Y-129180000D01*
X136010000Y-132200000D02*
X166730000Y-132200000D01*
X136010000Y-137100000D02*
X166730000Y-137100000D01*
X136010000Y-138600000D02*
X166730000Y-138600000D01*
X136010000Y-139220000D02*
X136010000Y-129180000D01*
X138370000Y-139220000D02*
X136010000Y-139220000D01*
X166730000Y-129180000D02*
X166730000Y-139220000D01*
X166730000Y-139220000D02*
X138970000Y-139220000D01*
%TO.C,R1*%
X134096359Y-122110000D02*
X134403641Y-122110000D01*
X134096359Y-122870000D02*
X134403641Y-122870000D01*
%TO.C,R3*%
X128477500Y-103512742D02*
X128477500Y-103987258D01*
X129522500Y-103512742D02*
X129522500Y-103987258D01*
%TD*%
M02*
