%TF.GenerationSoftware,KiCad,Pcbnew,10.0.5-10.0.5~ubuntu24.04.1*%
%TF.CreationDate,2026-08-19T18:09:31+05:30*%
%TF.ProjectId,ocp,6f63702e-6b69-4636-9164-5f7063625858,rev?*%
%TF.SameCoordinates,Original*%
%TF.FileFunction,Copper,L2,Bot*%
%TF.FilePolarity,Positive*%
%FSLAX46Y46*%
G04 Gerber Fmt 4.6, Leading zero omitted, Abs format (unit mm)*
G04 Created by KiCad (PCBNEW 10.0.5-10.0.5~ubuntu24.04.1) date 2026-08-19 18:09:31*
%MOMM*%
%LPD*%
G01*
G04 APERTURE LIST*
G04 Aperture macros list*
%AMRoundRect*
0 Rectangle with rounded corners*
0 $1 Rounding radius*
0 $2 $3 $4 $5 $6 $7 $8 $9 X,Y pos of 4 corners*
0 Add a 4 corners polygon primitive as box body*
4,1,4,$2,$3,$4,$5,$6,$7,$8,$9,$2,$3,0*
0 Add four circle primitives for the rounded corners*
1,1,$1+$1,$2,$3*
1,1,$1+$1,$4,$5*
1,1,$1+$1,$6,$7*
1,1,$1+$1,$8,$9*
0 Add four rect primitives between the rounded corners*
20,1,$1+$1,$2,$3,$4,$5,0*
20,1,$1+$1,$4,$5,$6,$7,0*
20,1,$1+$1,$6,$7,$8,$9,0*
20,1,$1+$1,$8,$9,$2,$3,0*%
G04 Aperture macros list end*
%TA.AperFunction,ComponentPad*%
%ADD10O,1.900000X1.524000*%
%TD*%
%TA.AperFunction,ComponentPad*%
%ADD11R,1.700000X1.700000*%
%TD*%
%TA.AperFunction,ComponentPad*%
%ADD12C,1.700000*%
%TD*%
%TA.AperFunction,ComponentPad*%
%ADD13O,2.100000X1.000000*%
%TD*%
%TA.AperFunction,ComponentPad*%
%ADD14O,1.800000X1.000000*%
%TD*%
%TA.AperFunction,ComponentPad*%
%ADD15RoundRect,0.250000X-1.050000X-1.050000X1.050000X-1.050000X1.050000X1.050000X-1.050000X1.050000X0*%
%TD*%
%TA.AperFunction,ComponentPad*%
%ADD16C,2.600000*%
%TD*%
%TA.AperFunction,SMDPad,CuDef*%
%ADD17RoundRect,0.150000X-0.150000X0.512500X-0.150000X-0.512500X0.150000X-0.512500X0.150000X0.512500X0*%
%TD*%
%TA.AperFunction,SMDPad,CuDef*%
%ADD18RoundRect,0.225000X0.250000X-0.225000X0.250000X0.225000X-0.250000X0.225000X-0.250000X-0.225000X0*%
%TD*%
%TA.AperFunction,SMDPad,CuDef*%
%ADD19RoundRect,0.150000X0.150000X-0.587500X0.150000X0.587500X-0.150000X0.587500X-0.150000X-0.587500X0*%
%TD*%
%TA.AperFunction,SMDPad,CuDef*%
%ADD20RoundRect,0.200000X-0.275000X0.200000X-0.275000X-0.200000X0.275000X-0.200000X0.275000X0.200000X0*%
%TD*%
%TA.AperFunction,SMDPad,CuDef*%
%ADD21RoundRect,0.140000X-0.140000X-0.170000X0.140000X-0.170000X0.140000X0.170000X-0.140000X0.170000X0*%
%TD*%
%TA.AperFunction,SMDPad,CuDef*%
%ADD22RoundRect,0.100000X-0.100000X0.637500X-0.100000X-0.637500X0.100000X-0.637500X0.100000X0.637500X0*%
%TD*%
%TA.AperFunction,SMDPad,CuDef*%
%ADD23RoundRect,0.200000X0.275000X-0.200000X0.275000X0.200000X-0.275000X0.200000X-0.275000X-0.200000X0*%
%TD*%
%TA.AperFunction,ViaPad*%
%ADD24C,0.600000*%
%TD*%
%TA.AperFunction,Conductor*%
%ADD25C,0.400000*%
%TD*%
%TA.AperFunction,Conductor*%
%ADD26C,0.200000*%
%TD*%
%TA.AperFunction,Conductor*%
%ADD27C,0.300000*%
%TD*%
G04 APERTURE END LIST*
D10*
%TO.P,U3,1,VIN_1*%
%TO.N,+5V*%
X138752460Y-117739813D03*
%TO.P,U3,2,GND_2*%
%TO.N,GND*%
X138752460Y-115199813D03*
%TO.P,U3,3,GPIO13_3*%
%TO.N,unconnected-(U3-GPIO13-Pad3)*%
X138752460Y-112659813D03*
%TO.P,U3,4,GPIO12_4*%
%TO.N,unconnected-(U3-GPIO12-Pad4)*%
X138752460Y-110119813D03*
%TO.P,U3,5,GPIO14_5*%
%TO.N,unconnected-(U3-GPIO14-Pad5)*%
X138752460Y-107579813D03*
%TO.P,U3,6,GPIO27_6*%
%TO.N,unconnected-(U3-GPIO27-Pad6)*%
X138752460Y-105039813D03*
%TO.P,U3,7,GPIO26_7*%
%TO.N,unconnected-(U3-GPIO26-Pad7)*%
X138752460Y-102499813D03*
%TO.P,U3,8,GPIO25_8*%
%TO.N,unconnected-(U3-GPIO25-Pad8)*%
X138752460Y-99959813D03*
%TO.P,U3,9,GPIO33_9*%
%TO.N,unconnected-(U3-GPIO33-Pad9)*%
X138752460Y-97419813D03*
%TO.P,U3,10,GPIO32_10*%
%TO.N,unconnected-(U3-GPIO32-Pad10)*%
X138752460Y-94879813D03*
%TO.P,U3,11,GPIO35_11*%
%TO.N,unconnected-(U3-GPIO35-Pad11)*%
X138752460Y-92339813D03*
%TO.P,U3,12,GPIO34_12*%
%TO.N,unconnected-(U3-GPIO34-Pad12)*%
X138752460Y-89799813D03*
%TO.P,U3,13,GPIO39_13*%
%TO.N,unconnected-(U3-GPIO39-Pad13)*%
X138752460Y-87259813D03*
%TO.P,U3,14,GPIO36_14*%
%TO.N,unconnected-(U3-GPIO36-Pad14)*%
X138752460Y-84719813D03*
%TO.P,U3,15,EN_15*%
%TO.N,unconnected-(U3-EN-Pad15)*%
X138752460Y-82179813D03*
%TO.P,U3,16,3.3v_16*%
%TO.N,+3V3*%
X164152460Y-117739813D03*
%TO.P,U3,17,GND_17*%
%TO.N,GND*%
X164152460Y-115199813D03*
%TO.P,U3,18,GPIO15_18*%
%TO.N,unconnected-(U3-GPIO15-Pad18)*%
X164152460Y-112659813D03*
%TO.P,U3,19,GPIO2_19*%
%TO.N,unconnected-(U3-GPIO2-Pad19)*%
X164152460Y-110119813D03*
%TO.P,U3,20,GPIO4_20*%
%TO.N,/MAX31865_RDY*%
X164152460Y-107579813D03*
%TO.P,U3,21,GPIO16_21*%
%TO.N,unconnected-(U3-GPIO16-Pad21)*%
X164152460Y-105039813D03*
%TO.P,U3,22,GPIO17_22*%
%TO.N,unconnected-(U3-GPIO17-Pad22)*%
X164152460Y-102499813D03*
%TO.P,U3,23,GPIO5_23*%
%TO.N,/MAX31865_CS*%
X164152460Y-99959813D03*
%TO.P,U3,24,GPIO18_24*%
%TO.N,/MAX31865_CLK*%
X164152460Y-97419813D03*
%TO.P,U3,25,GPIO19_25*%
%TO.N,/MAX31865_SDO*%
X164152460Y-94879813D03*
%TO.P,U3,26,GPIO21_26*%
%TO.N,/SDA*%
X164152460Y-92339813D03*
%TO.P,U3,27,GPIO3_27*%
%TO.N,/RX*%
X164152460Y-89799813D03*
%TO.P,U3,28,GPIO1_28*%
%TO.N,/TX*%
X164152460Y-87259813D03*
%TO.P,U3,29,GPIO22_29*%
%TO.N,/SCL*%
X164152460Y-84719813D03*
%TO.P,U3,30,GPIO23_30*%
%TO.N,/MAX31865_SDI*%
X164152460Y-82179813D03*
%TD*%
D11*
%TO.P,J5,1,Pin_1_1*%
%TO.N,+3V3*%
X169250000Y-127000000D03*
D12*
%TO.P,J5,2,Pin_2_2*%
%TO.N,/TX*%
X169250000Y-129540000D03*
%TO.P,J5,3,Pin_3_3*%
%TO.N,/RX*%
X169250000Y-132080000D03*
%TO.P,J5,4,Pin_4_4*%
%TO.N,GND*%
X169250000Y-134620000D03*
%TD*%
D13*
%TO.P,J1,SH,SHIELD_SH*%
%TO.N,GND*%
X131125000Y-119430000D03*
D14*
X126925000Y-119430000D03*
D13*
X131125000Y-128070000D03*
D14*
X126925000Y-128070000D03*
%TD*%
D11*
%TO.P,J3,1,Pin_1_1*%
%TO.N,+3V3*%
X133000000Y-87460000D03*
D12*
%TO.P,J3,2,Pin_2_2*%
%TO.N,GND*%
X133000000Y-90000000D03*
%TO.P,J3,3,Pin_3_3*%
%TO.N,/SCL*%
X133000000Y-92540000D03*
%TO.P,J3,4,Pin_4_4*%
%TO.N,/SDA*%
X133000000Y-95080000D03*
%TO.P,J3,5,Pin_5_5*%
%TO.N,GND*%
X133000000Y-97620000D03*
%TO.P,J3,6,Pin_6_6*%
%TO.N,unconnected-(J3-Pin_6-Pad6)*%
X133000000Y-100160000D03*
%TO.P,J3,7,Pin_7_7*%
%TO.N,Net-(J3-Pin_7)*%
X133000000Y-102700000D03*
%TO.P,J3,8,Pin_8_8*%
%TO.N,unconnected-(J3-Pin_8-Pad8)*%
X133000000Y-105240000D03*
%TO.P,J3,9,Pin_9_9*%
%TO.N,unconnected-(J3-Pin_9-Pad9)*%
X133000000Y-107780000D03*
%TO.P,J3,10,Pin_10_10*%
%TO.N,unconnected-(J3-Pin_10-Pad10)*%
X133000000Y-110320000D03*
%TD*%
D11*
%TO.P,J4,1,Pin_1_1*%
%TO.N,+3V3*%
X169500000Y-87460000D03*
D12*
%TO.P,J4,2,Pin_2_2*%
%TO.N,GND*%
X169500000Y-90000000D03*
%TO.P,J4,3,Pin_3_3*%
%TO.N,unconnected-(J4-Pin_3-Pad3)*%
X169500000Y-92540000D03*
%TO.P,J4,4,Pin_4_4*%
%TO.N,/MAX31865_CLK*%
X169500000Y-95080000D03*
%TO.P,J4,5,Pin_5_5*%
%TO.N,/MAX31865_SDO*%
X169500000Y-97620000D03*
%TO.P,J4,6,Pin_6_6*%
%TO.N,/MAX31865_SDI*%
X169500000Y-100160000D03*
%TO.P,J4,7,Pin_7_7*%
%TO.N,/MAX31865_CS*%
X169500000Y-102700000D03*
%TO.P,J4,8,Pin_8_8*%
%TO.N,/MAX31865_RDY*%
X169500000Y-105240000D03*
%TD*%
D15*
%TO.P,J2,1,Pin_1_1*%
%TO.N,GND*%
X138670000Y-134500000D03*
D16*
%TO.P,J2,2,Pin_2_2*%
%TO.N,/WE*%
X143750000Y-134500000D03*
%TO.P,J2,3,Pin_3_3*%
%TO.N,unconnected-(J2-Pin_3-Pad3)*%
X148830000Y-134500000D03*
%TO.P,J2,4,Pin_4_4*%
%TO.N,unconnected-(J2-Pin_4-Pad4)*%
X153910000Y-134500000D03*
%TO.P,J2,5,Pin_5_5*%
%TO.N,unconnected-(J2-Pin_5-Pad5)*%
X158990000Y-134500000D03*
%TO.P,J2,6,Pin_6_6*%
%TO.N,unconnected-(J2-Pin_6-Pad6)*%
X164070000Y-134500000D03*
%TD*%
D17*
%TO.P,U1,1,OUT_1*%
%TO.N,-3V3*%
X147550000Y-97037500D03*
%TO.P,U1,2,IN_2*%
%TO.N,/VREF*%
X148500000Y-97037500D03*
%TO.P,U1,3,C_{FLY-}_3*%
%TO.N,Net-(U1-C_{FLY-})*%
X149450000Y-97037500D03*
%TO.P,U1,4,GND_4*%
%TO.N,GND*%
X149450000Y-99312500D03*
%TO.P,U1,5,C_{FLY+}_5*%
%TO.N,Net-(U1-C_{FLY+})*%
X147550000Y-99312500D03*
%TD*%
D18*
%TO.P,C2,1*%
%TO.N,-3V3*%
X147500000Y-95200000D03*
%TO.P,C2,2*%
%TO.N,GND*%
X147500000Y-93650000D03*
%TD*%
D19*
%TO.P,U2,1,IN_1*%
%TO.N,+3V3*%
X148700000Y-91112500D03*
%TO.P,U2,2,OUT_2*%
%TO.N,/VREF*%
X146800000Y-91112500D03*
%TO.P,U2,3,GND_3*%
%TO.N,GND*%
X147750000Y-89237500D03*
%TD*%
D20*
%TO.P,R5,1*%
%TO.N,/RE*%
X145000000Y-91600000D03*
%TO.P,R5,2*%
%TO.N,Net-(U4B-+)*%
X145000000Y-93250000D03*
%TD*%
D21*
%TO.P,C1,1*%
%TO.N,Net-(U1-C_{FLY+})*%
X147770000Y-100750000D03*
%TO.P,C1,2*%
%TO.N,Net-(U1-C_{FLY-})*%
X148730000Y-100750000D03*
%TD*%
D22*
%TO.P,U4,1*%
%TO.N,/RE*%
X143025000Y-98562500D03*
%TO.P,U4,2,-_2*%
X143675000Y-98562500D03*
%TO.P,U4,3,+_3*%
%TO.N,/WE*%
X144325000Y-98562500D03*
%TO.P,U4,4,V-_4*%
%TO.N,-3V3*%
X144975000Y-98562500D03*
%TO.P,U4,5,+_5*%
%TO.N,Net-(U4B-+)*%
X144975000Y-104287500D03*
%TO.P,U4,6,-_6*%
%TO.N,/VADC_OUT*%
X144325000Y-104287500D03*
%TO.P,U4,7*%
X143675000Y-104287500D03*
%TO.P,U4,8,V+_8*%
%TO.N,+5V*%
X143025000Y-104287500D03*
%TD*%
D21*
%TO.P,C4,1*%
%TO.N,/VREF*%
X148955000Y-95485000D03*
%TO.P,C4,2*%
%TO.N,GND*%
X149915000Y-95485000D03*
%TD*%
D23*
%TO.P,R4,1*%
%TO.N,/VREF*%
X145000000Y-96500000D03*
%TO.P,R4,2*%
%TO.N,Net-(U4B-+)*%
X145000000Y-94850000D03*
%TD*%
D24*
%TO.N,GND*%
X130500000Y-104750000D03*
%TO.N,+3V3*%
X161549265Y-88799265D03*
X150000000Y-91500000D03*
%TO.N,/MAX31865_CLK*%
X166400000Y-95250000D03*
%TO.N,/TX*%
X159500000Y-93250000D03*
%TO.N,/VADC_OUT*%
X143625000Y-106000000D03*
%TO.N,/VREF*%
X145989897Y-96448889D03*
X148135794Y-96039171D03*
%TO.N,Net-(U4B-+)*%
X143750000Y-97000000D03*
X144500000Y-106000000D03*
%TD*%
%TO.N,+5V*%
D25*
X143025000Y-105475000D02*
X143025000Y-104287500D01*
X142750000Y-115000000D02*
X142750000Y-105750000D01*
X138752460Y-117739813D02*
X140010187Y-117739813D01*
X142750000Y-105750000D02*
X143025000Y-105475000D01*
X140010187Y-117739813D02*
X142750000Y-115000000D01*
%TO.N,+3V3*%
X147250000Y-86000000D02*
X150000000Y-88750000D01*
X135750000Y-86000000D02*
X147250000Y-86000000D01*
X169500000Y-87460000D02*
X166540000Y-87460000D01*
X161848530Y-88500000D02*
X161549265Y-88799265D01*
X166540000Y-87460000D02*
X165500000Y-88500000D01*
X133000000Y-87460000D02*
X134290000Y-87460000D01*
X150000000Y-91500000D02*
X149087500Y-91500000D01*
X149087500Y-91500000D02*
X148700000Y-91112500D01*
X150000000Y-88750000D02*
X150000000Y-91500000D01*
X134290000Y-87460000D02*
X135750000Y-86000000D01*
X165500000Y-88500000D02*
X161848530Y-88500000D01*
%TO.N,/MAX31865_CLK*%
D26*
X166848528Y-94801472D02*
X169221472Y-94801472D01*
X166400000Y-95250000D02*
X166848528Y-94801472D01*
X169221472Y-94801472D02*
X169500000Y-95080000D01*
%TO.N,/MAX31865_SDO*%
X165129813Y-94879813D02*
X165500000Y-95250000D01*
X164152460Y-94879813D02*
X165129813Y-94879813D01*
X165500000Y-96250000D02*
X166870000Y-97620000D01*
X165500000Y-95250000D02*
X165500000Y-96250000D01*
X166870000Y-97620000D02*
X169500000Y-97620000D01*
%TO.N,/RX*%
X167830000Y-132080000D02*
X160500000Y-124750000D01*
X160500000Y-124750000D02*
X160500000Y-91500000D01*
X160500000Y-91500000D02*
X162200187Y-89799813D01*
X162200187Y-89799813D02*
X164152460Y-89799813D01*
X169250000Y-132080000D02*
X167830000Y-132080000D01*
%TO.N,/TX*%
X159500000Y-90000000D02*
X162240187Y-87259813D01*
X162240187Y-87259813D02*
X164152460Y-87259813D01*
X159500000Y-93250000D02*
X159500000Y-90000000D01*
%TO.N,/WE*%
D27*
X144325000Y-99575000D02*
X144750000Y-100000000D01*
X144750000Y-100000000D02*
X145750000Y-100000000D01*
X145750000Y-100000000D02*
X146250000Y-100500000D01*
X144325000Y-98562500D02*
X144325000Y-99575000D01*
X146250000Y-100500000D02*
X146250000Y-132000000D01*
X146250000Y-132000000D02*
X143750000Y-134500000D01*
%TO.N,/VADC_OUT*%
D26*
X143625000Y-106000000D02*
X143625000Y-104337500D01*
X144325000Y-104287500D02*
X143675000Y-104287500D01*
X143625000Y-104337500D02*
X143675000Y-104287500D01*
%TO.N,-3V3*%
X144975000Y-98562500D02*
X144975000Y-98168750D01*
X147500000Y-95200000D02*
X147500000Y-96987500D01*
X147500000Y-96987500D02*
X147550000Y-97037500D01*
X146106250Y-97037500D02*
X147550000Y-97037500D01*
X144975000Y-98168750D02*
X146106250Y-97037500D01*
%TO.N,/VREF*%
X145051111Y-96448889D02*
X145000000Y-96500000D01*
X145989897Y-96448889D02*
X145051111Y-96448889D01*
X148500000Y-95940000D02*
X148500000Y-97037500D01*
X146800000Y-91112500D02*
X145989897Y-91922603D01*
X148955000Y-95485000D02*
X148500000Y-95940000D01*
X148500000Y-96403377D02*
X148135794Y-96039171D01*
X145989897Y-91922603D02*
X145989897Y-96448889D01*
X148500000Y-97037500D02*
X148500000Y-96403377D01*
%TO.N,Net-(U1-C_{FLY-})*%
X149450000Y-97550000D02*
X148730000Y-98270000D01*
X148730000Y-98270000D02*
X148730000Y-100750000D01*
X149450000Y-97037500D02*
X149450000Y-97550000D01*
%TO.N,Net-(U1-C_{FLY+})*%
X147770000Y-100750000D02*
X147770000Y-99532500D01*
X147770000Y-99532500D02*
X147550000Y-99312500D01*
%TO.N,/RE*%
X143025000Y-92475000D02*
X143900000Y-91600000D01*
X143675000Y-98562500D02*
X143025000Y-98562500D01*
X143900000Y-91600000D02*
X145000000Y-91600000D01*
X143025000Y-98562500D02*
X143025000Y-92475000D01*
%TO.N,Net-(U4B-+)*%
X144500000Y-106000000D02*
X144975000Y-105525000D01*
X145000000Y-93250000D02*
X145000000Y-94850000D01*
X143750000Y-94500000D02*
X143750000Y-97000000D01*
X144975000Y-105525000D02*
X144975000Y-104287500D01*
X145000000Y-93250000D02*
X143750000Y-94500000D01*
%TD*%
%TA.AperFunction,Conductor*%
%TO.N,GND*%
G36*
X128277045Y-80769685D02*
G01*
X128322800Y-80822489D01*
X128332744Y-80891647D01*
X128303719Y-80955203D01*
X128282891Y-80974318D01*
X128207350Y-81029201D01*
X128207345Y-81029205D01*
X128029205Y-81207345D01*
X128029201Y-81207350D01*
X127881132Y-81411151D01*
X127766760Y-81635616D01*
X127688910Y-81875214D01*
X127656403Y-82080452D01*
X127649500Y-82124038D01*
X127649500Y-82375962D01*
X127688910Y-82624785D01*
X127766760Y-82864383D01*
X127881132Y-83088848D01*
X128029201Y-83292649D01*
X128029205Y-83292654D01*
X128207345Y-83470794D01*
X128207350Y-83470798D01*
X128316099Y-83549808D01*
X128411155Y-83618870D01*
X128554184Y-83691747D01*
X128635616Y-83733239D01*
X128635618Y-83733239D01*
X128635621Y-83733241D01*
X128875215Y-83811090D01*
X129124038Y-83850500D01*
X129124039Y-83850500D01*
X129375961Y-83850500D01*
X129375962Y-83850500D01*
X129624785Y-83811090D01*
X129864379Y-83733241D01*
X130088845Y-83618870D01*
X130292656Y-83470793D01*
X130470793Y-83292656D01*
X130618870Y-83088845D01*
X130733241Y-82864379D01*
X130811090Y-82624785D01*
X130850500Y-82375962D01*
X130850500Y-82124038D01*
X130811090Y-81875215D01*
X130733241Y-81635621D01*
X130733239Y-81635618D01*
X130733239Y-81635616D01*
X130673370Y-81518118D01*
X130618870Y-81411155D01*
X130477688Y-81216834D01*
X130470798Y-81207350D01*
X130470794Y-81207345D01*
X130292654Y-81029205D01*
X130292649Y-81029201D01*
X130217109Y-80974318D01*
X130174443Y-80918988D01*
X130168464Y-80849375D01*
X130201070Y-80787580D01*
X130261908Y-80753223D01*
X130289994Y-80750000D01*
X138096529Y-80750000D01*
X138163568Y-80769685D01*
X138209323Y-80822489D01*
X138219267Y-80891647D01*
X138190242Y-80955203D01*
X138134847Y-80991931D01*
X138079830Y-81009806D01*
X138079827Y-81009807D01*
X137902765Y-81100026D01*
X137741993Y-81216834D01*
X137601481Y-81357346D01*
X137484673Y-81518118D01*
X137394454Y-81695180D01*
X137394453Y-81695183D01*
X137333047Y-81884175D01*
X137301960Y-82080452D01*
X137301960Y-82279173D01*
X137333047Y-82475450D01*
X137394453Y-82664442D01*
X137394454Y-82664445D01*
X137484673Y-82841507D01*
X137601479Y-83002277D01*
X137741996Y-83142794D01*
X137902766Y-83259600D01*
X137967628Y-83292649D01*
X138059240Y-83339328D01*
X138110036Y-83387303D01*
X138126831Y-83455124D01*
X138104293Y-83521259D01*
X138059240Y-83560298D01*
X137902765Y-83640026D01*
X137741993Y-83756834D01*
X137601481Y-83897346D01*
X137484673Y-84058118D01*
X137394454Y-84235180D01*
X137394453Y-84235183D01*
X137333047Y-84424175D01*
X137301960Y-84620452D01*
X137301960Y-84819173D01*
X137333047Y-85015450D01*
X137372600Y-85137182D01*
X137374595Y-85207023D01*
X137338515Y-85266856D01*
X137275814Y-85297684D01*
X137254669Y-85299500D01*
X135681004Y-85299500D01*
X135545677Y-85326418D01*
X135545667Y-85326421D01*
X135418192Y-85379222D01*
X135303454Y-85455887D01*
X134436887Y-86322454D01*
X134375564Y-86355939D01*
X134305872Y-86350955D01*
X134249940Y-86309084D01*
X134207547Y-86252455D01*
X134207544Y-86252452D01*
X134092335Y-86166206D01*
X134092328Y-86166202D01*
X133957482Y-86115908D01*
X133957483Y-86115908D01*
X133897883Y-86109501D01*
X133897881Y-86109500D01*
X133897873Y-86109500D01*
X133897864Y-86109500D01*
X132102129Y-86109500D01*
X132102123Y-86109501D01*
X132042516Y-86115908D01*
X131907671Y-86166202D01*
X131907664Y-86166206D01*
X131792455Y-86252452D01*
X131792452Y-86252455D01*
X131706206Y-86367664D01*
X131706202Y-86367671D01*
X131655908Y-86502517D01*
X131649501Y-86562116D01*
X131649501Y-86562123D01*
X131649500Y-86562135D01*
X131649500Y-88357870D01*
X131649501Y-88357876D01*
X131655908Y-88417483D01*
X131706202Y-88552328D01*
X131706206Y-88552335D01*
X131792452Y-88667544D01*
X131792455Y-88667547D01*
X131907664Y-88753793D01*
X131907671Y-88753797D01*
X131952618Y-88770561D01*
X132042517Y-88804091D01*
X132102127Y-88810500D01*
X132112685Y-88810499D01*
X132179723Y-88830179D01*
X132200372Y-88846818D01*
X132870591Y-89517037D01*
X132807007Y-89534075D01*
X132692993Y-89599901D01*
X132599901Y-89692993D01*
X132534075Y-89807007D01*
X132517037Y-89870591D01*
X131884728Y-89238282D01*
X131884727Y-89238282D01*
X131845380Y-89292439D01*
X131748904Y-89481782D01*
X131683242Y-89683869D01*
X131683242Y-89683872D01*
X131650000Y-89893753D01*
X131650000Y-90106246D01*
X131683242Y-90316127D01*
X131683242Y-90316130D01*
X131748904Y-90518217D01*
X131845375Y-90707550D01*
X131884728Y-90761716D01*
X132517037Y-90129408D01*
X132534075Y-90192993D01*
X132599901Y-90307007D01*
X132692993Y-90400099D01*
X132807007Y-90465925D01*
X132870590Y-90482962D01*
X132238282Y-91115269D01*
X132238282Y-91115270D01*
X132292452Y-91154626D01*
X132292451Y-91154626D01*
X132301495Y-91159234D01*
X132352292Y-91207208D01*
X132369087Y-91275029D01*
X132346550Y-91341164D01*
X132301499Y-91380202D01*
X132292182Y-91384949D01*
X132120213Y-91509890D01*
X131969890Y-91660213D01*
X131844951Y-91832179D01*
X131748444Y-92021585D01*
X131682753Y-92223760D01*
X131649500Y-92433713D01*
X131649500Y-92646286D01*
X131682149Y-92852427D01*
X131682754Y-92856243D01*
X131734824Y-93016498D01*
X131748444Y-93058414D01*
X131844951Y-93247820D01*
X131969890Y-93419786D01*
X132120213Y-93570109D01*
X132292182Y-93695050D01*
X132300946Y-93699516D01*
X132351742Y-93747491D01*
X132368536Y-93815312D01*
X132345998Y-93881447D01*
X132300946Y-93920484D01*
X132292182Y-93924949D01*
X132120213Y-94049890D01*
X131969890Y-94200213D01*
X131844951Y-94372179D01*
X131748444Y-94561585D01*
X131682753Y-94763760D01*
X131658116Y-94919313D01*
X131649500Y-94973713D01*
X131649500Y-95186287D01*
X131657215Y-95235000D01*
X131677717Y-95364445D01*
X131682754Y-95396243D01*
X131729953Y-95541507D01*
X131748444Y-95598414D01*
X131844951Y-95787820D01*
X131969890Y-95959786D01*
X132120213Y-96110109D01*
X132292179Y-96235048D01*
X132292181Y-96235049D01*
X132292184Y-96235051D01*
X132301493Y-96239794D01*
X132352290Y-96287766D01*
X132369087Y-96355587D01*
X132346552Y-96421722D01*
X132301505Y-96460760D01*
X132292446Y-96465376D01*
X132292440Y-96465380D01*
X132238282Y-96504727D01*
X132238282Y-96504728D01*
X132870591Y-97137037D01*
X132807007Y-97154075D01*
X132692993Y-97219901D01*
X132599901Y-97312993D01*
X132534075Y-97427007D01*
X132517037Y-97490591D01*
X131884728Y-96858282D01*
X131884727Y-96858282D01*
X131845380Y-96912439D01*
X131748904Y-97101782D01*
X131683242Y-97303869D01*
X131683242Y-97303872D01*
X131650000Y-97513753D01*
X131650000Y-97726246D01*
X131683242Y-97936127D01*
X131683242Y-97936130D01*
X131748904Y-98138217D01*
X131845375Y-98327550D01*
X131884728Y-98381716D01*
X132517037Y-97749408D01*
X132534075Y-97812993D01*
X132599901Y-97927007D01*
X132692993Y-98020099D01*
X132807007Y-98085925D01*
X132870590Y-98102962D01*
X132238282Y-98735269D01*
X132238282Y-98735270D01*
X132292452Y-98774626D01*
X132292451Y-98774626D01*
X132301495Y-98779234D01*
X132352292Y-98827208D01*
X132369087Y-98895029D01*
X132346550Y-98961164D01*
X132301499Y-99000202D01*
X132292182Y-99004949D01*
X132120213Y-99129890D01*
X131969890Y-99280213D01*
X131844951Y-99452179D01*
X131748444Y-99641585D01*
X131682753Y-99843760D01*
X131649500Y-100053713D01*
X131649500Y-100266286D01*
X131682097Y-100472100D01*
X131682754Y-100476243D01*
X131731251Y-100625502D01*
X131748444Y-100678414D01*
X131844951Y-100867820D01*
X131969890Y-101039786D01*
X132120213Y-101190109D01*
X132292182Y-101315050D01*
X132300946Y-101319516D01*
X132351742Y-101367491D01*
X132368536Y-101435312D01*
X132345998Y-101501447D01*
X132300946Y-101540484D01*
X132292182Y-101544949D01*
X132120213Y-101669890D01*
X131969890Y-101820213D01*
X131844951Y-101992179D01*
X131748444Y-102181585D01*
X131682753Y-102383760D01*
X131649500Y-102593713D01*
X131649500Y-102806286D01*
X131677717Y-102984445D01*
X131682754Y-103016243D01*
X131729953Y-103161507D01*
X131748444Y-103218414D01*
X131844951Y-103407820D01*
X131969890Y-103579786D01*
X132120213Y-103730109D01*
X132292182Y-103855050D01*
X132300946Y-103859516D01*
X132351742Y-103907491D01*
X132368536Y-103975312D01*
X132345998Y-104041447D01*
X132300946Y-104080484D01*
X132292182Y-104084949D01*
X132120213Y-104209890D01*
X131969890Y-104360213D01*
X131844951Y-104532179D01*
X131748444Y-104721585D01*
X131682753Y-104923760D01*
X131649500Y-105133713D01*
X131649500Y-105346286D01*
X131681079Y-105545672D01*
X131682754Y-105556243D01*
X131729953Y-105701507D01*
X131748444Y-105758414D01*
X131844951Y-105947820D01*
X131969890Y-106119786D01*
X132120213Y-106270109D01*
X132292182Y-106395050D01*
X132300946Y-106399516D01*
X132351742Y-106447491D01*
X132368536Y-106515312D01*
X132345998Y-106581447D01*
X132300946Y-106620484D01*
X132292182Y-106624949D01*
X132120213Y-106749890D01*
X131969890Y-106900213D01*
X131844951Y-107072179D01*
X131748444Y-107261585D01*
X131682753Y-107463760D01*
X131649500Y-107673713D01*
X131649500Y-107886286D01*
X131677717Y-108064445D01*
X131682754Y-108096243D01*
X131729953Y-108241507D01*
X131748444Y-108298414D01*
X131844951Y-108487820D01*
X131969890Y-108659786D01*
X132120213Y-108810109D01*
X132292182Y-108935050D01*
X132300946Y-108939516D01*
X132351742Y-108987491D01*
X132368536Y-109055312D01*
X132345998Y-109121447D01*
X132300946Y-109160484D01*
X132292182Y-109164949D01*
X132120213Y-109289890D01*
X131969890Y-109440213D01*
X131844951Y-109612179D01*
X131748444Y-109801585D01*
X131682753Y-110003760D01*
X131649500Y-110213713D01*
X131649500Y-110426286D01*
X131677717Y-110604445D01*
X131682754Y-110636243D01*
X131729953Y-110781507D01*
X131748444Y-110838414D01*
X131844951Y-111027820D01*
X131969890Y-111199786D01*
X132120213Y-111350109D01*
X132292179Y-111475048D01*
X132292181Y-111475049D01*
X132292184Y-111475051D01*
X132481588Y-111571557D01*
X132683757Y-111637246D01*
X132893713Y-111670500D01*
X132893714Y-111670500D01*
X133106286Y-111670500D01*
X133106287Y-111670500D01*
X133316243Y-111637246D01*
X133518412Y-111571557D01*
X133707816Y-111475051D01*
X133835460Y-111382313D01*
X133879786Y-111350109D01*
X133879788Y-111350106D01*
X133879792Y-111350104D01*
X134030104Y-111199792D01*
X134030106Y-111199788D01*
X134030109Y-111199786D01*
X134155048Y-111027820D01*
X134155047Y-111027820D01*
X134155051Y-111027816D01*
X134251557Y-110838412D01*
X134317246Y-110636243D01*
X134350500Y-110426287D01*
X134350500Y-110213713D01*
X134317246Y-110003757D01*
X134251557Y-109801588D01*
X134155051Y-109612184D01*
X134155049Y-109612181D01*
X134155048Y-109612179D01*
X134030109Y-109440213D01*
X133879786Y-109289890D01*
X133707820Y-109164951D01*
X133707115Y-109164591D01*
X133699054Y-109160485D01*
X133648259Y-109112512D01*
X133631463Y-109044692D01*
X133653999Y-108978556D01*
X133699054Y-108939515D01*
X133707816Y-108935051D01*
X133835460Y-108842313D01*
X133879786Y-108810109D01*
X133879788Y-108810106D01*
X133879792Y-108810104D01*
X134030104Y-108659792D01*
X134030106Y-108659788D01*
X134030109Y-108659786D01*
X134155048Y-108487820D01*
X134155047Y-108487820D01*
X134155051Y-108487816D01*
X134251557Y-108298412D01*
X134317246Y-108096243D01*
X134350500Y-107886287D01*
X134350500Y-107673713D01*
X134317246Y-107463757D01*
X134251557Y-107261588D01*
X134155051Y-107072184D01*
X134155049Y-107072181D01*
X134155048Y-107072179D01*
X134030109Y-106900213D01*
X133879786Y-106749890D01*
X133707820Y-106624951D01*
X133701608Y-106621786D01*
X133699054Y-106620485D01*
X133648259Y-106572512D01*
X133631463Y-106504692D01*
X133653999Y-106438556D01*
X133699054Y-106399515D01*
X133707816Y-106395051D01*
X133835460Y-106302313D01*
X133879786Y-106270109D01*
X133879788Y-106270106D01*
X133879792Y-106270104D01*
X134030104Y-106119792D01*
X134030106Y-106119788D01*
X134030109Y-106119786D01*
X134155048Y-105947820D01*
X134155047Y-105947820D01*
X134155051Y-105947816D01*
X134251557Y-105758412D01*
X134317246Y-105556243D01*
X134350500Y-105346287D01*
X134350500Y-105133713D01*
X134317246Y-104923757D01*
X134251557Y-104721588D01*
X134155051Y-104532184D01*
X134155049Y-104532181D01*
X134155048Y-104532179D01*
X134030109Y-104360213D01*
X133879786Y-104209890D01*
X133707820Y-104084951D01*
X133707115Y-104084591D01*
X133699054Y-104080485D01*
X133648259Y-104032512D01*
X133631463Y-103964692D01*
X133653999Y-103898556D01*
X133699054Y-103859515D01*
X133707816Y-103855051D01*
X133835460Y-103762313D01*
X133879786Y-103730109D01*
X133879788Y-103730106D01*
X133879792Y-103730104D01*
X134030104Y-103579792D01*
X134030106Y-103579788D01*
X134030109Y-103579786D01*
X134155048Y-103407820D01*
X134155047Y-103407820D01*
X134155051Y-103407816D01*
X134251557Y-103218412D01*
X134317246Y-103016243D01*
X134350500Y-102806287D01*
X134350500Y-102593713D01*
X134317246Y-102383757D01*
X134251557Y-102181588D01*
X134155051Y-101992184D01*
X134155049Y-101992181D01*
X134155048Y-101992179D01*
X134030109Y-101820213D01*
X133879786Y-101669890D01*
X133707820Y-101544951D01*
X133707115Y-101544591D01*
X133699054Y-101540485D01*
X133648259Y-101492512D01*
X133631463Y-101424692D01*
X133653999Y-101358556D01*
X133699054Y-101319515D01*
X133707816Y-101315051D01*
X133739099Y-101292323D01*
X133879786Y-101190109D01*
X133879788Y-101190106D01*
X133879792Y-101190104D01*
X134030104Y-101039792D01*
X134030106Y-101039788D01*
X134030109Y-101039786D01*
X134155048Y-100867820D01*
X134155047Y-100867820D01*
X134155051Y-100867816D01*
X134251557Y-100678412D01*
X134317246Y-100476243D01*
X134350500Y-100266287D01*
X134350500Y-100053713D01*
X134317246Y-99843757D01*
X134251557Y-99641588D01*
X134155051Y-99452184D01*
X134155049Y-99452181D01*
X134155048Y-99452179D01*
X134030109Y-99280213D01*
X133879786Y-99129890D01*
X133707817Y-99004949D01*
X133698504Y-99000204D01*
X133647707Y-98952230D01*
X133630912Y-98884409D01*
X133653449Y-98818274D01*
X133698507Y-98779232D01*
X133707555Y-98774622D01*
X133761716Y-98735270D01*
X133761717Y-98735270D01*
X133129408Y-98102962D01*
X133192993Y-98085925D01*
X133307007Y-98020099D01*
X133400099Y-97927007D01*
X133465925Y-97812993D01*
X133482962Y-97749408D01*
X134115270Y-98381717D01*
X134115270Y-98381716D01*
X134154622Y-98327554D01*
X134251095Y-98138217D01*
X134316757Y-97936130D01*
X134316757Y-97936127D01*
X134350000Y-97726246D01*
X134350000Y-97513753D01*
X134316757Y-97303872D01*
X134316757Y-97303869D01*
X134251095Y-97101782D01*
X134154624Y-96912449D01*
X134115270Y-96858282D01*
X134115269Y-96858282D01*
X133482962Y-97490590D01*
X133465925Y-97427007D01*
X133400099Y-97312993D01*
X133307007Y-97219901D01*
X133192993Y-97154075D01*
X133129409Y-97137037D01*
X133761716Y-96504728D01*
X133707547Y-96465373D01*
X133707547Y-96465372D01*
X133698500Y-96460763D01*
X133647706Y-96412788D01*
X133630912Y-96344966D01*
X133653451Y-96278832D01*
X133698508Y-96239793D01*
X133707816Y-96235051D01*
X133835460Y-96142313D01*
X133879786Y-96110109D01*
X133879788Y-96110106D01*
X133879792Y-96110104D01*
X134030104Y-95959792D01*
X134030106Y-95959788D01*
X134030109Y-95959786D01*
X134155048Y-95787820D01*
X134155047Y-95787820D01*
X134155051Y-95787816D01*
X134251557Y-95598412D01*
X134317246Y-95396243D01*
X134350500Y-95186287D01*
X134350500Y-94973713D01*
X134317246Y-94763757D01*
X134251557Y-94561588D01*
X134155051Y-94372184D01*
X134155049Y-94372181D01*
X134155048Y-94372179D01*
X134030109Y-94200213D01*
X133879786Y-94049890D01*
X133707820Y-93924951D01*
X133704597Y-93923309D01*
X133699054Y-93920485D01*
X133648259Y-93872512D01*
X133631463Y-93804692D01*
X133653999Y-93738556D01*
X133699054Y-93699515D01*
X133707816Y-93695051D01*
X133796918Y-93630315D01*
X133879786Y-93570109D01*
X133879788Y-93570106D01*
X133879792Y-93570104D01*
X134030104Y-93419792D01*
X134030106Y-93419788D01*
X134030109Y-93419786D01*
X134155048Y-93247820D01*
X134155047Y-93247820D01*
X134155051Y-93247816D01*
X134251557Y-93058412D01*
X134317246Y-92856243D01*
X134350500Y-92646287D01*
X134350500Y-92433713D01*
X134317246Y-92223757D01*
X134251557Y-92021588D01*
X134155051Y-91832184D01*
X134155049Y-91832181D01*
X134155048Y-91832179D01*
X134030109Y-91660213D01*
X133879786Y-91509890D01*
X133707817Y-91384949D01*
X133698504Y-91380204D01*
X133647707Y-91332230D01*
X133630912Y-91264409D01*
X133653449Y-91198274D01*
X133698507Y-91159232D01*
X133707555Y-91154622D01*
X133761716Y-91115270D01*
X133761717Y-91115270D01*
X133129408Y-90482962D01*
X133192993Y-90465925D01*
X133307007Y-90400099D01*
X133400099Y-90307007D01*
X133465925Y-90192993D01*
X133482962Y-90129408D01*
X134115270Y-90761717D01*
X134115270Y-90761716D01*
X134154622Y-90707554D01*
X134251095Y-90518217D01*
X134316757Y-90316130D01*
X134316757Y-90316127D01*
X134350000Y-90106246D01*
X134350000Y-89893753D01*
X134316757Y-89683872D01*
X134316757Y-89683869D01*
X134251095Y-89481782D01*
X134154624Y-89292449D01*
X134115270Y-89238282D01*
X134115269Y-89238282D01*
X133482962Y-89870590D01*
X133465925Y-89807007D01*
X133400099Y-89692993D01*
X133307007Y-89599901D01*
X133192993Y-89534075D01*
X133129409Y-89517037D01*
X133799627Y-88846818D01*
X133860950Y-88813333D01*
X133887307Y-88810499D01*
X133897872Y-88810499D01*
X133957483Y-88804091D01*
X134092331Y-88753796D01*
X134207546Y-88667546D01*
X134293796Y-88552331D01*
X134344091Y-88417483D01*
X134350500Y-88357873D01*
X134350500Y-88263953D01*
X134370185Y-88196914D01*
X134422989Y-88151159D01*
X134450303Y-88142337D01*
X134494328Y-88133580D01*
X134558069Y-88107177D01*
X134621807Y-88080777D01*
X134621808Y-88080776D01*
X134621811Y-88080775D01*
X134736543Y-88004114D01*
X136003838Y-86736819D01*
X136065161Y-86703334D01*
X136091519Y-86700500D01*
X137248049Y-86700500D01*
X137315088Y-86720185D01*
X137360843Y-86772989D01*
X137370787Y-86842147D01*
X137365980Y-86862818D01*
X137333047Y-86964175D01*
X137301960Y-87160452D01*
X137301960Y-87359173D01*
X137333047Y-87555450D01*
X137394453Y-87744442D01*
X137394454Y-87744445D01*
X137447586Y-87848720D01*
X137484673Y-87921507D01*
X137601479Y-88082277D01*
X137741996Y-88222794D01*
X137902766Y-88339600D01*
X138021292Y-88399992D01*
X138059240Y-88419328D01*
X138110036Y-88467303D01*
X138126831Y-88535124D01*
X138104293Y-88601259D01*
X138059240Y-88640298D01*
X137902765Y-88720026D01*
X137741993Y-88836834D01*
X137601481Y-88977346D01*
X137484673Y-89138118D01*
X137394454Y-89315180D01*
X137394453Y-89315183D01*
X137333047Y-89504175D01*
X137304586Y-89683869D01*
X137301960Y-89700452D01*
X137301960Y-89899174D01*
X137308495Y-89940433D01*
X137333047Y-90095450D01*
X137394453Y-90284442D01*
X137394454Y-90284445D01*
X137464763Y-90422432D01*
X137484673Y-90461507D01*
X137601479Y-90622277D01*
X137741996Y-90762794D01*
X137902766Y-90879600D01*
X137998135Y-90928193D01*
X138059240Y-90959328D01*
X138110036Y-91007303D01*
X138126831Y-91075124D01*
X138104293Y-91141259D01*
X138059240Y-91180298D01*
X137902765Y-91260026D01*
X137741993Y-91376834D01*
X137601481Y-91517346D01*
X137484673Y-91678118D01*
X137394454Y-91855180D01*
X137394453Y-91855183D01*
X137333047Y-92044175D01*
X137301960Y-92240452D01*
X137301960Y-92439173D01*
X137333047Y-92635450D01*
X137394453Y-92824442D01*
X137394454Y-92824445D01*
X137444573Y-92922807D01*
X137484673Y-93001507D01*
X137601479Y-93162277D01*
X137741996Y-93302794D01*
X137902766Y-93419600D01*
X138013266Y-93475903D01*
X138059240Y-93499328D01*
X138110036Y-93547303D01*
X138126831Y-93615124D01*
X138104293Y-93681259D01*
X138059240Y-93720298D01*
X137902765Y-93800026D01*
X137741993Y-93916834D01*
X137601481Y-94057346D01*
X137484673Y-94218118D01*
X137394454Y-94395180D01*
X137394453Y-94395183D01*
X137333047Y-94584175D01*
X137301960Y-94780452D01*
X137301960Y-94979173D01*
X137333047Y-95175450D01*
X137394453Y-95364442D01*
X137394454Y-95364445D01*
X137445851Y-95465315D01*
X137484673Y-95541507D01*
X137601479Y-95702277D01*
X137741996Y-95842794D01*
X137902766Y-95959600D01*
X138005420Y-96011905D01*
X138059240Y-96039328D01*
X138110036Y-96087303D01*
X138126831Y-96155124D01*
X138104293Y-96221259D01*
X138059240Y-96260298D01*
X137902765Y-96340026D01*
X137741993Y-96456834D01*
X137601481Y-96597346D01*
X137484673Y-96758118D01*
X137394454Y-96935180D01*
X137394453Y-96935183D01*
X137333047Y-97124175D01*
X137324215Y-97179940D01*
X137301960Y-97320452D01*
X137301960Y-97519174D01*
X137313310Y-97590834D01*
X137333047Y-97715450D01*
X137394453Y-97904442D01*
X137394454Y-97904445D01*
X137477832Y-98068081D01*
X137484673Y-98081507D01*
X137601479Y-98242277D01*
X137741996Y-98382794D01*
X137902766Y-98499600D01*
X138021292Y-98559992D01*
X138059240Y-98579328D01*
X138110036Y-98627303D01*
X138126831Y-98695124D01*
X138104293Y-98761259D01*
X138059240Y-98800298D01*
X137902765Y-98880026D01*
X137741993Y-98996834D01*
X137601481Y-99137346D01*
X137484673Y-99298118D01*
X137394454Y-99475180D01*
X137394453Y-99475183D01*
X137333047Y-99664175D01*
X137333047Y-99664177D01*
X137301960Y-99860452D01*
X137301960Y-100059174D01*
X137313922Y-100134696D01*
X137333047Y-100255450D01*
X137394453Y-100444442D01*
X137394454Y-100444445D01*
X137461723Y-100576465D01*
X137484673Y-100621507D01*
X137601479Y-100782277D01*
X137741996Y-100922794D01*
X137902766Y-101039600D01*
X138021292Y-101099992D01*
X138059240Y-101119328D01*
X138110036Y-101167303D01*
X138126831Y-101235124D01*
X138104293Y-101301259D01*
X138059240Y-101340298D01*
X137902765Y-101420026D01*
X137741993Y-101536834D01*
X137601481Y-101677346D01*
X137484673Y-101838118D01*
X137394454Y-102015180D01*
X137394453Y-102015183D01*
X137333047Y-102204175D01*
X137301960Y-102400452D01*
X137301960Y-102599173D01*
X137333047Y-102795450D01*
X137394453Y-102984442D01*
X137394454Y-102984445D01*
X137466308Y-103125464D01*
X137484673Y-103161507D01*
X137601479Y-103322277D01*
X137741996Y-103462794D01*
X137902766Y-103579600D01*
X137963695Y-103610645D01*
X138059240Y-103659328D01*
X138110036Y-103707303D01*
X138126831Y-103775124D01*
X138104293Y-103841259D01*
X138059240Y-103880298D01*
X137902765Y-103960026D01*
X137741993Y-104076834D01*
X137601481Y-104217346D01*
X137484673Y-104378118D01*
X137394454Y-104555180D01*
X137394453Y-104555183D01*
X137333047Y-104744175D01*
X137301960Y-104940452D01*
X137301960Y-105139173D01*
X137333047Y-105335450D01*
X137394453Y-105524442D01*
X137394454Y-105524445D01*
X137448891Y-105631282D01*
X137484673Y-105701507D01*
X137601479Y-105862277D01*
X137741996Y-106002794D01*
X137902766Y-106119600D01*
X138021292Y-106179992D01*
X138059240Y-106199328D01*
X138110036Y-106247303D01*
X138126831Y-106315124D01*
X138104293Y-106381259D01*
X138059240Y-106420298D01*
X137902765Y-106500026D01*
X137741993Y-106616834D01*
X137601481Y-106757346D01*
X137484673Y-106918118D01*
X137394454Y-107095180D01*
X137394453Y-107095183D01*
X137333047Y-107284175D01*
X137301960Y-107480452D01*
X137301960Y-107679173D01*
X137333047Y-107875450D01*
X137394453Y-108064442D01*
X137394454Y-108064445D01*
X137484673Y-108241507D01*
X137601479Y-108402277D01*
X137741996Y-108542794D01*
X137902766Y-108659600D01*
X138021292Y-108719992D01*
X138059240Y-108739328D01*
X138110036Y-108787303D01*
X138126831Y-108855124D01*
X138104293Y-108921259D01*
X138059240Y-108960298D01*
X137902765Y-109040026D01*
X137741993Y-109156834D01*
X137601481Y-109297346D01*
X137484673Y-109458118D01*
X137394454Y-109635180D01*
X137394453Y-109635183D01*
X137333047Y-109824175D01*
X137301960Y-110020452D01*
X137301960Y-110219173D01*
X137333047Y-110415450D01*
X137394453Y-110604442D01*
X137394454Y-110604445D01*
X137484673Y-110781507D01*
X137601479Y-110942277D01*
X137741996Y-111082794D01*
X137902766Y-111199600D01*
X138021292Y-111259992D01*
X138059240Y-111279328D01*
X138110036Y-111327303D01*
X138126831Y-111395124D01*
X138104293Y-111461259D01*
X138059240Y-111500298D01*
X137902765Y-111580026D01*
X137741993Y-111696834D01*
X137601481Y-111837346D01*
X137484673Y-111998118D01*
X137394454Y-112175180D01*
X137394453Y-112175183D01*
X137333047Y-112364175D01*
X137301960Y-112560452D01*
X137301960Y-112759173D01*
X137333047Y-112955450D01*
X137394453Y-113144442D01*
X137394454Y-113144445D01*
X137484673Y-113321507D01*
X137601479Y-113482277D01*
X137741996Y-113622794D01*
X137902766Y-113739600D01*
X138059792Y-113819609D01*
X138110587Y-113867582D01*
X138127382Y-113935403D01*
X138104845Y-114001538D01*
X138059792Y-114040577D01*
X137903029Y-114120452D01*
X137742320Y-114237216D01*
X137742319Y-114237216D01*
X137601863Y-114377672D01*
X137601863Y-114377673D01*
X137485101Y-114538380D01*
X137394916Y-114715377D01*
X137333534Y-114904295D01*
X137326325Y-114949812D01*
X137326325Y-114949813D01*
X138436774Y-114949813D01*
X138432380Y-114954207D01*
X138379719Y-115045419D01*
X138352460Y-115147152D01*
X138352460Y-115252474D01*
X138379719Y-115354207D01*
X138432380Y-115445419D01*
X138436774Y-115449813D01*
X137326325Y-115449813D01*
X137333534Y-115495330D01*
X137394916Y-115684248D01*
X137485101Y-115861245D01*
X137601863Y-116021952D01*
X137601863Y-116021953D01*
X137742319Y-116162409D01*
X137903027Y-116279171D01*
X138059791Y-116359047D01*
X138110587Y-116407022D01*
X138127382Y-116474843D01*
X138104844Y-116540978D01*
X138059791Y-116580017D01*
X137902765Y-116660026D01*
X137741993Y-116776834D01*
X137601481Y-116917346D01*
X137484673Y-117078118D01*
X137394454Y-117255180D01*
X137394453Y-117255183D01*
X137333047Y-117444175D01*
X137301960Y-117640452D01*
X137301960Y-117839173D01*
X137333047Y-118035450D01*
X137394453Y-118224442D01*
X137394454Y-118224445D01*
X137484673Y-118401507D01*
X137601479Y-118562277D01*
X137741996Y-118702794D01*
X137902766Y-118819600D01*
X137989609Y-118863848D01*
X138079827Y-118909818D01*
X138079830Y-118909819D01*
X138174326Y-118940522D01*
X138268824Y-118971226D01*
X138465099Y-119002313D01*
X138465100Y-119002313D01*
X139039820Y-119002313D01*
X139039821Y-119002313D01*
X139236096Y-118971226D01*
X139425092Y-118909818D01*
X139602154Y-118819600D01*
X139762924Y-118702794D01*
X139903441Y-118562277D01*
X139954917Y-118491426D01*
X140010246Y-118448762D01*
X140055234Y-118440313D01*
X140079183Y-118440313D01*
X140170227Y-118422202D01*
X140214515Y-118413393D01*
X140278256Y-118386990D01*
X140341994Y-118360590D01*
X140341995Y-118360589D01*
X140341998Y-118360588D01*
X140456730Y-118283927D01*
X143294114Y-115446543D01*
X143370775Y-115331811D01*
X143423580Y-115204328D01*
X143450500Y-115068994D01*
X143450500Y-114931006D01*
X143450500Y-106924500D01*
X143470185Y-106857461D01*
X143522989Y-106811706D01*
X143574500Y-106800500D01*
X143703844Y-106800500D01*
X143703845Y-106800499D01*
X143858497Y-106769737D01*
X143914120Y-106746697D01*
X144009808Y-106707063D01*
X144010266Y-106708170D01*
X144072447Y-106695223D01*
X144114929Y-106707696D01*
X144115192Y-106707063D01*
X144218602Y-106749896D01*
X144266503Y-106769737D01*
X144421153Y-106800499D01*
X144421156Y-106800500D01*
X144421158Y-106800500D01*
X144578844Y-106800500D01*
X144578845Y-106800499D01*
X144733497Y-106769737D01*
X144879179Y-106709394D01*
X145010289Y-106621789D01*
X145121789Y-106510289D01*
X145209394Y-106379179D01*
X145269737Y-106233497D01*
X145300500Y-106078842D01*
X145300500Y-106078840D01*
X145300637Y-106078152D01*
X145333021Y-106016241D01*
X145334574Y-106014661D01*
X145343714Y-106005520D01*
X145343716Y-106005520D01*
X145387820Y-105961416D01*
X145449143Y-105927932D01*
X145518835Y-105932917D01*
X145574768Y-105974789D01*
X145599184Y-106040253D01*
X145599500Y-106049098D01*
X145599500Y-131679191D01*
X145579815Y-131746230D01*
X145563181Y-131766872D01*
X144536128Y-132793924D01*
X144474805Y-132827409D01*
X144405113Y-132822425D01*
X144401009Y-132820810D01*
X144329993Y-132791394D01*
X144102014Y-132730307D01*
X144102013Y-132730306D01*
X144102010Y-132730306D01*
X143868020Y-132699501D01*
X143868017Y-132699500D01*
X143868011Y-132699500D01*
X143631989Y-132699500D01*
X143631983Y-132699500D01*
X143631979Y-132699501D01*
X143397989Y-132730306D01*
X143170006Y-132791394D01*
X142951954Y-132881714D01*
X142951943Y-132881719D01*
X142747545Y-132999730D01*
X142560302Y-133143406D01*
X142560295Y-133143412D01*
X142393412Y-133310295D01*
X142393406Y-133310302D01*
X142249730Y-133497545D01*
X142131719Y-133701943D01*
X142131714Y-133701954D01*
X142041394Y-133920006D01*
X141980306Y-134147989D01*
X141949501Y-134381979D01*
X141949500Y-134381995D01*
X141949500Y-134618004D01*
X141949501Y-134618020D01*
X141980306Y-134852010D01*
X142041394Y-135079993D01*
X142131714Y-135298045D01*
X142131719Y-135298056D01*
X142202677Y-135420957D01*
X142249727Y-135502450D01*
X142249729Y-135502453D01*
X142249730Y-135502454D01*
X142393406Y-135689697D01*
X142393412Y-135689704D01*
X142560295Y-135856587D01*
X142560302Y-135856593D01*
X142664774Y-135936757D01*
X142747550Y-136000273D01*
X142878918Y-136076118D01*
X142951943Y-136118280D01*
X142951948Y-136118282D01*
X142951951Y-136118284D01*
X143170007Y-136208606D01*
X143397986Y-136269693D01*
X143631989Y-136300500D01*
X143631996Y-136300500D01*
X143868004Y-136300500D01*
X143868011Y-136300500D01*
X144102014Y-136269693D01*
X144329993Y-136208606D01*
X144548049Y-136118284D01*
X144752450Y-136000273D01*
X144939699Y-135856592D01*
X145106592Y-135689699D01*
X145250273Y-135502450D01*
X145368284Y-135298049D01*
X145458606Y-135079993D01*
X145519693Y-134852014D01*
X145550500Y-134618011D01*
X145550500Y-134381995D01*
X147029500Y-134381995D01*
X147029500Y-134618004D01*
X147029501Y-134618020D01*
X147060306Y-134852010D01*
X147121394Y-135079993D01*
X147211714Y-135298045D01*
X147211719Y-135298056D01*
X147282677Y-135420957D01*
X147329727Y-135502450D01*
X147329729Y-135502453D01*
X147329730Y-135502454D01*
X147473406Y-135689697D01*
X147473412Y-135689704D01*
X147640295Y-135856587D01*
X147640302Y-135856593D01*
X147744774Y-135936757D01*
X147827550Y-136000273D01*
X147958918Y-136076118D01*
X148031943Y-136118280D01*
X148031948Y-136118282D01*
X148031951Y-136118284D01*
X148250007Y-136208606D01*
X148477986Y-136269693D01*
X148711989Y-136300500D01*
X148711996Y-136300500D01*
X148948004Y-136300500D01*
X148948011Y-136300500D01*
X149182014Y-136269693D01*
X149409993Y-136208606D01*
X149628049Y-136118284D01*
X149832450Y-136000273D01*
X150019699Y-135856592D01*
X150186592Y-135689699D01*
X150330273Y-135502450D01*
X150448284Y-135298049D01*
X150538606Y-135079993D01*
X150599693Y-134852014D01*
X150630500Y-134618011D01*
X150630500Y-134381995D01*
X152109500Y-134381995D01*
X152109500Y-134618004D01*
X152109501Y-134618020D01*
X152140306Y-134852010D01*
X152201394Y-135079993D01*
X152291714Y-135298045D01*
X152291719Y-135298056D01*
X152362677Y-135420957D01*
X152409727Y-135502450D01*
X152409729Y-135502453D01*
X152409730Y-135502454D01*
X152553406Y-135689697D01*
X152553412Y-135689704D01*
X152720295Y-135856587D01*
X152720302Y-135856593D01*
X152824774Y-135936757D01*
X152907550Y-136000273D01*
X153038918Y-136076118D01*
X153111943Y-136118280D01*
X153111948Y-136118282D01*
X153111951Y-136118284D01*
X153330007Y-136208606D01*
X153557986Y-136269693D01*
X153791989Y-136300500D01*
X153791996Y-136300500D01*
X154028004Y-136300500D01*
X154028011Y-136300500D01*
X154262014Y-136269693D01*
X154489993Y-136208606D01*
X154708049Y-136118284D01*
X154912450Y-136000273D01*
X155099699Y-135856592D01*
X155266592Y-135689699D01*
X155410273Y-135502450D01*
X155528284Y-135298049D01*
X155618606Y-135079993D01*
X155679693Y-134852014D01*
X155710500Y-134618011D01*
X155710500Y-134381995D01*
X157189500Y-134381995D01*
X157189500Y-134618004D01*
X157189501Y-134618020D01*
X157220306Y-134852010D01*
X157281394Y-135079993D01*
X157371714Y-135298045D01*
X157371719Y-135298056D01*
X157442677Y-135420957D01*
X157489727Y-135502450D01*
X157489729Y-135502453D01*
X157489730Y-135502454D01*
X157633406Y-135689697D01*
X157633412Y-135689704D01*
X157800295Y-135856587D01*
X157800302Y-135856593D01*
X157904774Y-135936757D01*
X157987550Y-136000273D01*
X158118918Y-136076118D01*
X158191943Y-136118280D01*
X158191948Y-136118282D01*
X158191951Y-136118284D01*
X158410007Y-136208606D01*
X158637986Y-136269693D01*
X158871989Y-136300500D01*
X158871996Y-136300500D01*
X159108004Y-136300500D01*
X159108011Y-136300500D01*
X159342014Y-136269693D01*
X159569993Y-136208606D01*
X159788049Y-136118284D01*
X159992450Y-136000273D01*
X160179699Y-135856592D01*
X160346592Y-135689699D01*
X160490273Y-135502450D01*
X160608284Y-135298049D01*
X160698606Y-135079993D01*
X160759693Y-134852014D01*
X160790500Y-134618011D01*
X160790500Y-134381995D01*
X162269500Y-134381995D01*
X162269500Y-134618004D01*
X162269501Y-134618020D01*
X162300306Y-134852010D01*
X162361394Y-135079993D01*
X162451714Y-135298045D01*
X162451719Y-135298056D01*
X162522677Y-135420957D01*
X162569727Y-135502450D01*
X162569729Y-135502453D01*
X162569730Y-135502454D01*
X162713406Y-135689697D01*
X162713412Y-135689704D01*
X162880295Y-135856587D01*
X162880302Y-135856593D01*
X162984774Y-135936757D01*
X163067550Y-136000273D01*
X163198918Y-136076118D01*
X163271943Y-136118280D01*
X163271948Y-136118282D01*
X163271951Y-136118284D01*
X163490007Y-136208606D01*
X163717986Y-136269693D01*
X163951989Y-136300500D01*
X163951996Y-136300500D01*
X164188004Y-136300500D01*
X164188011Y-136300500D01*
X164422014Y-136269693D01*
X164649993Y-136208606D01*
X164868049Y-136118284D01*
X165072450Y-136000273D01*
X165259699Y-135856592D01*
X165426592Y-135689699D01*
X165570273Y-135502450D01*
X165688284Y-135298049D01*
X165778606Y-135079993D01*
X165839693Y-134852014D01*
X165870500Y-134618011D01*
X165870500Y-134381989D01*
X165839693Y-134147986D01*
X165778606Y-133920007D01*
X165688284Y-133701951D01*
X165688282Y-133701948D01*
X165688280Y-133701943D01*
X165646118Y-133628918D01*
X165570273Y-133497550D01*
X165493307Y-133397246D01*
X165426593Y-133310302D01*
X165426587Y-133310295D01*
X165259704Y-133143412D01*
X165259697Y-133143406D01*
X165072454Y-132999730D01*
X165072453Y-132999729D01*
X165072450Y-132999727D01*
X164990957Y-132952677D01*
X164868056Y-132881719D01*
X164868045Y-132881714D01*
X164649993Y-132791394D01*
X164422010Y-132730306D01*
X164188020Y-132699501D01*
X164188017Y-132699500D01*
X164188011Y-132699500D01*
X163951989Y-132699500D01*
X163951983Y-132699500D01*
X163951979Y-132699501D01*
X163717989Y-132730306D01*
X163490006Y-132791394D01*
X163271954Y-132881714D01*
X163271943Y-132881719D01*
X163067545Y-132999730D01*
X162880302Y-133143406D01*
X162880295Y-133143412D01*
X162713412Y-133310295D01*
X162713406Y-133310302D01*
X162569730Y-133497545D01*
X162451719Y-133701943D01*
X162451714Y-133701954D01*
X162361394Y-133920006D01*
X162300306Y-134147989D01*
X162269501Y-134381979D01*
X162269500Y-134381995D01*
X160790500Y-134381995D01*
X160790500Y-134381989D01*
X160759693Y-134147986D01*
X160698606Y-133920007D01*
X160608284Y-133701951D01*
X160608282Y-133701948D01*
X160608280Y-133701943D01*
X160566118Y-133628918D01*
X160490273Y-133497550D01*
X160413307Y-133397246D01*
X160346593Y-133310302D01*
X160346587Y-133310295D01*
X160179704Y-133143412D01*
X160179697Y-133143406D01*
X159992454Y-132999730D01*
X159992453Y-132999729D01*
X159992450Y-132999727D01*
X159910957Y-132952677D01*
X159788056Y-132881719D01*
X159788045Y-132881714D01*
X159569993Y-132791394D01*
X159342010Y-132730306D01*
X159108020Y-132699501D01*
X159108017Y-132699500D01*
X159108011Y-132699500D01*
X158871989Y-132699500D01*
X158871983Y-132699500D01*
X158871979Y-132699501D01*
X158637989Y-132730306D01*
X158410006Y-132791394D01*
X158191954Y-132881714D01*
X158191943Y-132881719D01*
X157987545Y-132999730D01*
X157800302Y-133143406D01*
X157800295Y-133143412D01*
X157633412Y-133310295D01*
X157633406Y-133310302D01*
X157489730Y-133497545D01*
X157371719Y-133701943D01*
X157371714Y-133701954D01*
X157281394Y-133920006D01*
X157220306Y-134147989D01*
X157189501Y-134381979D01*
X157189500Y-134381995D01*
X155710500Y-134381995D01*
X155710500Y-134381989D01*
X155679693Y-134147986D01*
X155618606Y-133920007D01*
X155528284Y-133701951D01*
X155528282Y-133701948D01*
X155528280Y-133701943D01*
X155486118Y-133628918D01*
X155410273Y-133497550D01*
X155333307Y-133397246D01*
X155266593Y-133310302D01*
X155266587Y-133310295D01*
X155099704Y-133143412D01*
X155099697Y-133143406D01*
X154912454Y-132999730D01*
X154912453Y-132999729D01*
X154912450Y-132999727D01*
X154830957Y-132952677D01*
X154708056Y-132881719D01*
X154708045Y-132881714D01*
X154489993Y-132791394D01*
X154262010Y-132730306D01*
X154028020Y-132699501D01*
X154028017Y-132699500D01*
X154028011Y-132699500D01*
X153791989Y-132699500D01*
X153791983Y-132699500D01*
X153791979Y-132699501D01*
X153557989Y-132730306D01*
X153330006Y-132791394D01*
X153111954Y-132881714D01*
X153111943Y-132881719D01*
X152907545Y-132999730D01*
X152720302Y-133143406D01*
X152720295Y-133143412D01*
X152553412Y-133310295D01*
X152553406Y-133310302D01*
X152409730Y-133497545D01*
X152291719Y-133701943D01*
X152291714Y-133701954D01*
X152201394Y-133920006D01*
X152140306Y-134147989D01*
X152109501Y-134381979D01*
X152109500Y-134381995D01*
X150630500Y-134381995D01*
X150630500Y-134381989D01*
X150599693Y-134147986D01*
X150538606Y-133920007D01*
X150448284Y-133701951D01*
X150448282Y-133701948D01*
X150448280Y-133701943D01*
X150406118Y-133628918D01*
X150330273Y-133497550D01*
X150253307Y-133397246D01*
X150186593Y-133310302D01*
X150186587Y-133310295D01*
X150019704Y-133143412D01*
X150019697Y-133143406D01*
X149832454Y-132999730D01*
X149832453Y-132999729D01*
X149832450Y-132999727D01*
X149750957Y-132952677D01*
X149628056Y-132881719D01*
X149628045Y-132881714D01*
X149409993Y-132791394D01*
X149182010Y-132730306D01*
X148948020Y-132699501D01*
X148948017Y-132699500D01*
X148948011Y-132699500D01*
X148711989Y-132699500D01*
X148711983Y-132699500D01*
X148711979Y-132699501D01*
X148477989Y-132730306D01*
X148250006Y-132791394D01*
X148031954Y-132881714D01*
X148031943Y-132881719D01*
X147827545Y-132999730D01*
X147640302Y-133143406D01*
X147640295Y-133143412D01*
X147473412Y-133310295D01*
X147473406Y-133310302D01*
X147329730Y-133497545D01*
X147211719Y-133701943D01*
X147211714Y-133701954D01*
X147121394Y-133920006D01*
X147060306Y-134147989D01*
X147029501Y-134381979D01*
X147029500Y-134381995D01*
X145550500Y-134381995D01*
X145550500Y-134381989D01*
X145519693Y-134147986D01*
X145458606Y-133920007D01*
X145429194Y-133849003D01*
X145421726Y-133779535D01*
X145453001Y-133717055D01*
X145456075Y-133713870D01*
X146755272Y-132414674D01*
X146755273Y-132414673D01*
X146755273Y-132414672D01*
X146755277Y-132414669D01*
X146826465Y-132308127D01*
X146875501Y-132189744D01*
X146881605Y-132159057D01*
X146900500Y-132064069D01*
X146900500Y-101395035D01*
X146920185Y-101327996D01*
X146972989Y-101282241D01*
X147042147Y-101272297D01*
X147105703Y-101301322D01*
X147114221Y-101310315D01*
X147114366Y-101310171D01*
X147234307Y-101430112D01*
X147234311Y-101430115D01*
X147234313Y-101430117D01*
X147373605Y-101512494D01*
X147414587Y-101524400D01*
X147529002Y-101557642D01*
X147529005Y-101557642D01*
X147529007Y-101557643D01*
X147565310Y-101560500D01*
X147565318Y-101560500D01*
X147974682Y-101560500D01*
X147974690Y-101560500D01*
X148010993Y-101557643D01*
X148010995Y-101557642D01*
X148010997Y-101557642D01*
X148054679Y-101544951D01*
X148166395Y-101512494D01*
X148186879Y-101500379D01*
X148254601Y-101483196D01*
X148313119Y-101500379D01*
X148333605Y-101512494D01*
X148333607Y-101512494D01*
X148333608Y-101512495D01*
X148489002Y-101557642D01*
X148489005Y-101557642D01*
X148489007Y-101557643D01*
X148525310Y-101560500D01*
X148525318Y-101560500D01*
X148934682Y-101560500D01*
X148934690Y-101560500D01*
X148970993Y-101557643D01*
X148970995Y-101557642D01*
X148970997Y-101557642D01*
X149014679Y-101544951D01*
X149126395Y-101512494D01*
X149265687Y-101430117D01*
X149380117Y-101315687D01*
X149462494Y-101176395D01*
X149507643Y-101020993D01*
X149510500Y-100984690D01*
X149510500Y-100599000D01*
X149530185Y-100531961D01*
X149582989Y-100486206D01*
X149634500Y-100475000D01*
X149665634Y-100475000D01*
X149665649Y-100474999D01*
X149702489Y-100472100D01*
X149702495Y-100472099D01*
X149860193Y-100426283D01*
X149860196Y-100426282D01*
X150001552Y-100342685D01*
X150001561Y-100342678D01*
X150117678Y-100226561D01*
X150117685Y-100226552D01*
X150201282Y-100085196D01*
X150201283Y-100085193D01*
X150247099Y-99927495D01*
X150247100Y-99927489D01*
X150249999Y-99890649D01*
X150250000Y-99890634D01*
X150250000Y-99562500D01*
X149574000Y-99562500D01*
X149506961Y-99542815D01*
X149461206Y-99490011D01*
X149450000Y-99438500D01*
X149450000Y-99186500D01*
X149469685Y-99119461D01*
X149522489Y-99073706D01*
X149574000Y-99062500D01*
X150250000Y-99062500D01*
X150250000Y-98734365D01*
X150249999Y-98734350D01*
X150247100Y-98697510D01*
X150247099Y-98697504D01*
X150201283Y-98539806D01*
X150201282Y-98539803D01*
X150117685Y-98398447D01*
X150117678Y-98398438D01*
X150001561Y-98282321D01*
X150001550Y-98282313D01*
X150001055Y-98282020D01*
X150000746Y-98281689D01*
X149995393Y-98277537D01*
X149996062Y-98276673D01*
X149953373Y-98230950D01*
X149940871Y-98162208D01*
X149967518Y-98097619D01*
X149995859Y-98073063D01*
X149995702Y-98072861D01*
X149999435Y-98069965D01*
X150001061Y-98068555D01*
X150001865Y-98068081D01*
X150118081Y-97951865D01*
X150201744Y-97810398D01*
X150247598Y-97652569D01*
X150250500Y-97615694D01*
X150250500Y-96459306D01*
X150247598Y-96422431D01*
X150239933Y-96396048D01*
X150240132Y-96326180D01*
X150278073Y-96267510D01*
X150309764Y-96247651D01*
X150311194Y-96247031D01*
X150450374Y-96164721D01*
X150450383Y-96164714D01*
X150564714Y-96050383D01*
X150564721Y-96050374D01*
X150647031Y-95911195D01*
X150647033Y-95911190D01*
X150692144Y-95755918D01*
X150692145Y-95755912D01*
X150693790Y-95735000D01*
X150039000Y-95735000D01*
X149971961Y-95715315D01*
X149926206Y-95662511D01*
X149915000Y-95611000D01*
X149915000Y-95485000D01*
X149859500Y-95485000D01*
X149792461Y-95465315D01*
X149746706Y-95412511D01*
X149735500Y-95361000D01*
X149735500Y-95250317D01*
X149735499Y-95250302D01*
X149732643Y-95214008D01*
X149732642Y-95214002D01*
X149687495Y-95058608D01*
X149687492Y-95058600D01*
X149682266Y-95049763D01*
X149665000Y-94986645D01*
X149665000Y-94680494D01*
X150165000Y-94680494D01*
X150165000Y-95235000D01*
X150693790Y-95235000D01*
X150692145Y-95214089D01*
X150647031Y-95058804D01*
X150564721Y-94919625D01*
X150564714Y-94919616D01*
X150450383Y-94805285D01*
X150450374Y-94805278D01*
X150311193Y-94722967D01*
X150311190Y-94722965D01*
X150165001Y-94680493D01*
X150165000Y-94680494D01*
X149665000Y-94680494D01*
X149664998Y-94680493D01*
X149518809Y-94722965D01*
X149518806Y-94722967D01*
X149498608Y-94734912D01*
X149430884Y-94752092D01*
X149372370Y-94734910D01*
X149351397Y-94722507D01*
X149351390Y-94722504D01*
X149195997Y-94677357D01*
X149195991Y-94677356D01*
X149159697Y-94674500D01*
X149159690Y-94674500D01*
X148750310Y-94674500D01*
X148750302Y-94674500D01*
X148714008Y-94677356D01*
X148714002Y-94677357D01*
X148554282Y-94723761D01*
X148484413Y-94723562D01*
X148425743Y-94685620D01*
X148414149Y-94669782D01*
X148322970Y-94521959D01*
X148322967Y-94521955D01*
X148313339Y-94512327D01*
X148279854Y-94451004D01*
X148284838Y-94381312D01*
X148313345Y-94336959D01*
X148322573Y-94327731D01*
X148411542Y-94183492D01*
X148411547Y-94183481D01*
X148464855Y-94022606D01*
X148474999Y-93923322D01*
X148475000Y-93923309D01*
X148475000Y-93900000D01*
X147624000Y-93900000D01*
X147556961Y-93880315D01*
X147511206Y-93827511D01*
X147500000Y-93776000D01*
X147500000Y-93650000D01*
X147374000Y-93650000D01*
X147306961Y-93630315D01*
X147261206Y-93577511D01*
X147250000Y-93526000D01*
X147250000Y-93400000D01*
X147750000Y-93400000D01*
X148474999Y-93400000D01*
X148474999Y-93376692D01*
X148474998Y-93376677D01*
X148464855Y-93277392D01*
X148411547Y-93116518D01*
X148411542Y-93116507D01*
X148322575Y-92972271D01*
X148322572Y-92972267D01*
X148202732Y-92852427D01*
X148202728Y-92852424D01*
X148058492Y-92763457D01*
X148058481Y-92763452D01*
X147897606Y-92710144D01*
X147798322Y-92700000D01*
X147750000Y-92700000D01*
X147750000Y-93400000D01*
X147250000Y-93400000D01*
X147250000Y-92700000D01*
X147249999Y-92699999D01*
X147201693Y-92700000D01*
X147201675Y-92700001D01*
X147102392Y-92710144D01*
X146941518Y-92763452D01*
X146941507Y-92763457D01*
X146797271Y-92852424D01*
X146791605Y-92856905D01*
X146789633Y-92854412D01*
X146740755Y-92881102D01*
X146671063Y-92876118D01*
X146615130Y-92834246D01*
X146590713Y-92768782D01*
X146590397Y-92759936D01*
X146590397Y-92474500D01*
X146610082Y-92407461D01*
X146662886Y-92361706D01*
X146714397Y-92350500D01*
X147015686Y-92350500D01*
X147015694Y-92350500D01*
X147052569Y-92347598D01*
X147052571Y-92347597D01*
X147052573Y-92347597D01*
X147094191Y-92335505D01*
X147210398Y-92301744D01*
X147351865Y-92218081D01*
X147468081Y-92101865D01*
X147551744Y-91960398D01*
X147597598Y-91802569D01*
X147600500Y-91765694D01*
X147600500Y-90459306D01*
X147597598Y-90422431D01*
X147596891Y-90419998D01*
X147551745Y-90264606D01*
X147551745Y-90264605D01*
X147551744Y-90264603D01*
X147551744Y-90264602D01*
X147517267Y-90206304D01*
X147500000Y-90143184D01*
X147500000Y-89487500D01*
X146950000Y-89487500D01*
X146950000Y-89750500D01*
X146930315Y-89817539D01*
X146877511Y-89863294D01*
X146826000Y-89874500D01*
X146584298Y-89874500D01*
X146547432Y-89877401D01*
X146547426Y-89877402D01*
X146389606Y-89923254D01*
X146389603Y-89923255D01*
X146248137Y-90006917D01*
X146248129Y-90006923D01*
X146131923Y-90123129D01*
X146131917Y-90123137D01*
X146048255Y-90264603D01*
X146048254Y-90264606D01*
X146002402Y-90422426D01*
X146002401Y-90422432D01*
X145999500Y-90459298D01*
X145999500Y-90834480D01*
X145979815Y-90901519D01*
X145927011Y-90947274D01*
X145857853Y-90957218D01*
X145794297Y-90928193D01*
X145787819Y-90922161D01*
X145710188Y-90844530D01*
X145693563Y-90834480D01*
X145564606Y-90756522D01*
X145402196Y-90705914D01*
X145402194Y-90705913D01*
X145402192Y-90705913D01*
X145352778Y-90701423D01*
X145331616Y-90699500D01*
X144668384Y-90699500D01*
X144649145Y-90701248D01*
X144597807Y-90705913D01*
X144435393Y-90756522D01*
X144289811Y-90844530D01*
X144289810Y-90844531D01*
X144171161Y-90963181D01*
X144109838Y-90996666D01*
X144083480Y-90999500D01*
X143986669Y-90999500D01*
X143986653Y-90999499D01*
X143979057Y-90999499D01*
X143820943Y-90999499D01*
X143706397Y-91030192D01*
X143668214Y-91040423D01*
X143630301Y-91062313D01*
X143630300Y-91062313D01*
X143531287Y-91119477D01*
X143531282Y-91119481D01*
X142544481Y-92106282D01*
X142544479Y-92106285D01*
X142513713Y-92159575D01*
X142513712Y-92159577D01*
X142465423Y-92243214D01*
X142465423Y-92243215D01*
X142424499Y-92395943D01*
X142424499Y-92395945D01*
X142424499Y-92564046D01*
X142424500Y-92564059D01*
X142424500Y-97548742D01*
X142404815Y-97615781D01*
X142401073Y-97621103D01*
X142400465Y-97622156D01*
X142339956Y-97768237D01*
X142339955Y-97768239D01*
X142324501Y-97885629D01*
X142324500Y-97885645D01*
X142324500Y-99239363D01*
X142339953Y-99356753D01*
X142339956Y-99356762D01*
X142397102Y-99494726D01*
X142400464Y-99502841D01*
X142496718Y-99628282D01*
X142622159Y-99724536D01*
X142768238Y-99785044D01*
X142885639Y-99800500D01*
X143164360Y-99800499D01*
X143164361Y-99800499D01*
X143176594Y-99798888D01*
X143281762Y-99785044D01*
X143302545Y-99776434D01*
X143372014Y-99768965D01*
X143397453Y-99776434D01*
X143418238Y-99785044D01*
X143535639Y-99800500D01*
X143631455Y-99800499D01*
X143698493Y-99820183D01*
X143744249Y-99872986D01*
X143746016Y-99877046D01*
X143748535Y-99883127D01*
X143778230Y-99927569D01*
X143819726Y-99989673D01*
X144335325Y-100505272D01*
X144335332Y-100505278D01*
X144423320Y-100564069D01*
X144423321Y-100564069D01*
X144441873Y-100576465D01*
X144560256Y-100625501D01*
X144560260Y-100625501D01*
X144560261Y-100625502D01*
X144685928Y-100650500D01*
X144685931Y-100650500D01*
X145429192Y-100650500D01*
X145496231Y-100670185D01*
X145516873Y-100686819D01*
X145563181Y-100733127D01*
X145596666Y-100794450D01*
X145599500Y-100820808D01*
X145599500Y-103044101D01*
X145579815Y-103111140D01*
X145527011Y-103156895D01*
X145457853Y-103166839D01*
X145400015Y-103142478D01*
X145377841Y-103125464D01*
X145231762Y-103064956D01*
X145231760Y-103064955D01*
X145114361Y-103049500D01*
X144835636Y-103049500D01*
X144718246Y-103064953D01*
X144718234Y-103064957D01*
X144697450Y-103073566D01*
X144627981Y-103081033D01*
X144602550Y-103073566D01*
X144581765Y-103064957D01*
X144581760Y-103064955D01*
X144464361Y-103049500D01*
X144185636Y-103049500D01*
X144068246Y-103064953D01*
X144068234Y-103064957D01*
X144047450Y-103073566D01*
X143977981Y-103081033D01*
X143952550Y-103073566D01*
X143931765Y-103064957D01*
X143931760Y-103064955D01*
X143814361Y-103049500D01*
X143535636Y-103049500D01*
X143418246Y-103064953D01*
X143418234Y-103064957D01*
X143397450Y-103073566D01*
X143327981Y-103081033D01*
X143302550Y-103073566D01*
X143281765Y-103064957D01*
X143281760Y-103064955D01*
X143164361Y-103049500D01*
X142885636Y-103049500D01*
X142768246Y-103064953D01*
X142768237Y-103064956D01*
X142622160Y-103125463D01*
X142496718Y-103221718D01*
X142400463Y-103347160D01*
X142339956Y-103493237D01*
X142339955Y-103493239D01*
X142324501Y-103610629D01*
X142324500Y-103610645D01*
X142324500Y-105133480D01*
X142304815Y-105200519D01*
X142288181Y-105221161D01*
X142205888Y-105303453D01*
X142205887Y-105303454D01*
X142129222Y-105418192D01*
X142076421Y-105545667D01*
X142076420Y-105545671D01*
X142076420Y-105545672D01*
X142059391Y-105631284D01*
X142059391Y-105631285D01*
X142049500Y-105681006D01*
X142049500Y-114658480D01*
X142029815Y-114725519D01*
X142013181Y-114746161D01*
X139960398Y-116798944D01*
X139899075Y-116832429D01*
X139829383Y-116827445D01*
X139785036Y-116798944D01*
X139762926Y-116776834D01*
X139762924Y-116776832D01*
X139602154Y-116660026D01*
X139445127Y-116580016D01*
X139394332Y-116532042D01*
X139377537Y-116464221D01*
X139400074Y-116398086D01*
X139445128Y-116359047D01*
X139601892Y-116279171D01*
X139762599Y-116162409D01*
X139762600Y-116162409D01*
X139903056Y-116021953D01*
X139903056Y-116021952D01*
X140019818Y-115861245D01*
X140110003Y-115684248D01*
X140171385Y-115495330D01*
X140178594Y-115449813D01*
X139068146Y-115449813D01*
X139072540Y-115445419D01*
X139125201Y-115354207D01*
X139152460Y-115252474D01*
X139152460Y-115147152D01*
X139125201Y-115045419D01*
X139072540Y-114954207D01*
X139068146Y-114949813D01*
X140178595Y-114949813D01*
X140178594Y-114949812D01*
X140171385Y-114904295D01*
X140110003Y-114715377D01*
X140019818Y-114538380D01*
X139903056Y-114377673D01*
X139903056Y-114377672D01*
X139762600Y-114237216D01*
X139601892Y-114120454D01*
X139445128Y-114040578D01*
X139394332Y-113992603D01*
X139377537Y-113924782D01*
X139400075Y-113858647D01*
X139445127Y-113819609D01*
X139602154Y-113739600D01*
X139762924Y-113622794D01*
X139903441Y-113482277D01*
X140020247Y-113321507D01*
X140110465Y-113144445D01*
X140171873Y-112955449D01*
X140202960Y-112759174D01*
X140202960Y-112560452D01*
X140171873Y-112364177D01*
X140110465Y-112175181D01*
X140110465Y-112175180D01*
X140020246Y-111998118D01*
X139903441Y-111837349D01*
X139762924Y-111696832D01*
X139602154Y-111580026D01*
X139445678Y-111500297D01*
X139394883Y-111452323D01*
X139378088Y-111384502D01*
X139400625Y-111318367D01*
X139445678Y-111279328D01*
X139602154Y-111199600D01*
X139762924Y-111082794D01*
X139903441Y-110942277D01*
X140020247Y-110781507D01*
X140110465Y-110604445D01*
X140171873Y-110415449D01*
X140202960Y-110219174D01*
X140202960Y-110020452D01*
X140171873Y-109824177D01*
X140110465Y-109635181D01*
X140110465Y-109635180D01*
X140020246Y-109458118D01*
X139903441Y-109297349D01*
X139762924Y-109156832D01*
X139602154Y-109040026D01*
X139445678Y-108960297D01*
X139394883Y-108912323D01*
X139378088Y-108844502D01*
X139400625Y-108778367D01*
X139445678Y-108739328D01*
X139602154Y-108659600D01*
X139762924Y-108542794D01*
X139903441Y-108402277D01*
X140020247Y-108241507D01*
X140110465Y-108064445D01*
X140171873Y-107875449D01*
X140202960Y-107679174D01*
X140202960Y-107480452D01*
X140171873Y-107284177D01*
X140110465Y-107095181D01*
X140110465Y-107095180D01*
X140020246Y-106918118D01*
X139903441Y-106757349D01*
X139762924Y-106616832D01*
X139602154Y-106500026D01*
X139445678Y-106420297D01*
X139394883Y-106372323D01*
X139378088Y-106304502D01*
X139400625Y-106238367D01*
X139445678Y-106199328D01*
X139602154Y-106119600D01*
X139762924Y-106002794D01*
X139903441Y-105862277D01*
X140020247Y-105701507D01*
X140110465Y-105524445D01*
X140171873Y-105335449D01*
X140202960Y-105139174D01*
X140202960Y-104940452D01*
X140171873Y-104744177D01*
X140110465Y-104555181D01*
X140110465Y-104555180D01*
X140020246Y-104378118D01*
X139903441Y-104217349D01*
X139762924Y-104076832D01*
X139602154Y-103960026D01*
X139445678Y-103880297D01*
X139394883Y-103832323D01*
X139378088Y-103764502D01*
X139400625Y-103698367D01*
X139445678Y-103659328D01*
X139602154Y-103579600D01*
X139762924Y-103462794D01*
X139903441Y-103322277D01*
X140020247Y-103161507D01*
X140110465Y-102984445D01*
X140171873Y-102795449D01*
X140202960Y-102599174D01*
X140202960Y-102400452D01*
X140171873Y-102204177D01*
X140110465Y-102015181D01*
X140110465Y-102015180D01*
X140020246Y-101838118D01*
X139903441Y-101677349D01*
X139762924Y-101536832D01*
X139602154Y-101420026D01*
X139445678Y-101340297D01*
X139394883Y-101292323D01*
X139378088Y-101224502D01*
X139400625Y-101158367D01*
X139445678Y-101119328D01*
X139602154Y-101039600D01*
X139762924Y-100922794D01*
X139903441Y-100782277D01*
X140020247Y-100621507D01*
X140110465Y-100444445D01*
X140171873Y-100255449D01*
X140202960Y-100059174D01*
X140202960Y-99860452D01*
X140171873Y-99664177D01*
X140138836Y-99562500D01*
X140110466Y-99475183D01*
X140110465Y-99475180D01*
X140050127Y-99356762D01*
X140020247Y-99298119D01*
X139903441Y-99137349D01*
X139762924Y-98996832D01*
X139602154Y-98880026D01*
X139445678Y-98800297D01*
X139394883Y-98752323D01*
X139378088Y-98684502D01*
X139400625Y-98618367D01*
X139445678Y-98579328D01*
X139602154Y-98499600D01*
X139762924Y-98382794D01*
X139903441Y-98242277D01*
X140020247Y-98081507D01*
X140110465Y-97904445D01*
X140171873Y-97715449D01*
X140202960Y-97519174D01*
X140202960Y-97320452D01*
X140171873Y-97124177D01*
X140110465Y-96935181D01*
X140110465Y-96935180D01*
X140020246Y-96758118D01*
X139903441Y-96597349D01*
X139762924Y-96456832D01*
X139602154Y-96340026D01*
X139445678Y-96260297D01*
X139394883Y-96212323D01*
X139378088Y-96144502D01*
X139400625Y-96078367D01*
X139445678Y-96039328D01*
X139602154Y-95959600D01*
X139762924Y-95842794D01*
X139903441Y-95702277D01*
X140020247Y-95541507D01*
X140110465Y-95364445D01*
X140171873Y-95175449D01*
X140202960Y-94979174D01*
X140202960Y-94780452D01*
X140171873Y-94584177D01*
X140127923Y-94448911D01*
X140110466Y-94395183D01*
X140110465Y-94395180D01*
X140064495Y-94304962D01*
X140020247Y-94218119D01*
X139903441Y-94057349D01*
X139762924Y-93916832D01*
X139602154Y-93800026D01*
X139445678Y-93720297D01*
X139394883Y-93672323D01*
X139378088Y-93604502D01*
X139400625Y-93538367D01*
X139445678Y-93499328D01*
X139602154Y-93419600D01*
X139762924Y-93302794D01*
X139903441Y-93162277D01*
X140020247Y-93001507D01*
X140110465Y-92824445D01*
X140171873Y-92635449D01*
X140202960Y-92439174D01*
X140202960Y-92240452D01*
X140171873Y-92044177D01*
X140141169Y-91949679D01*
X140110466Y-91855183D01*
X140110465Y-91855180D01*
X140056228Y-91748735D01*
X140020247Y-91678119D01*
X139903441Y-91517349D01*
X139762924Y-91376832D01*
X139602154Y-91260026D01*
X139445678Y-91180297D01*
X139394883Y-91132323D01*
X139378088Y-91064502D01*
X139400625Y-90998367D01*
X139445678Y-90959328D01*
X139602154Y-90879600D01*
X139762924Y-90762794D01*
X139903441Y-90622277D01*
X140020247Y-90461507D01*
X140110465Y-90284445D01*
X140171873Y-90095449D01*
X140202960Y-89899174D01*
X140202960Y-89700452D01*
X140171873Y-89504177D01*
X140110465Y-89315181D01*
X140110465Y-89315180D01*
X140020246Y-89138118D01*
X139986390Y-89091519D01*
X139903441Y-88977349D01*
X139762924Y-88836832D01*
X139602154Y-88720026D01*
X139445678Y-88640297D01*
X139394883Y-88592323D01*
X139392909Y-88584350D01*
X146950000Y-88584350D01*
X146950000Y-88987500D01*
X147500000Y-88987500D01*
X147500000Y-88002703D01*
X147497503Y-88002900D01*
X147339806Y-88048716D01*
X147339803Y-88048717D01*
X147198447Y-88132314D01*
X147198438Y-88132321D01*
X147082321Y-88248438D01*
X147082314Y-88248447D01*
X146998717Y-88389803D01*
X146998716Y-88389806D01*
X146952900Y-88547504D01*
X146952899Y-88547510D01*
X146950000Y-88584350D01*
X139392909Y-88584350D01*
X139378088Y-88524502D01*
X139400626Y-88458367D01*
X139445678Y-88419328D01*
X139602154Y-88339600D01*
X139762924Y-88222794D01*
X139903441Y-88082277D01*
X140020247Y-87921507D01*
X140110465Y-87744445D01*
X140171873Y-87555449D01*
X140202960Y-87359174D01*
X140202960Y-87160452D01*
X140171873Y-86964177D01*
X140138940Y-86862818D01*
X140136945Y-86792977D01*
X140173025Y-86733144D01*
X140235726Y-86702316D01*
X140256871Y-86700500D01*
X146908481Y-86700500D01*
X146975520Y-86720185D01*
X146996162Y-86736819D01*
X148046740Y-87787397D01*
X148080225Y-87848720D01*
X148075241Y-87918412D01*
X148039766Y-87965798D01*
X148039846Y-87965884D01*
X148039382Y-87966312D01*
X148033369Y-87974345D01*
X148028875Y-87976020D01*
X148000000Y-88002703D01*
X148000000Y-88987500D01*
X148550000Y-88987500D01*
X148550000Y-88590019D01*
X148569685Y-88522980D01*
X148622489Y-88477225D01*
X148691647Y-88467281D01*
X148755203Y-88496306D01*
X148761681Y-88502338D01*
X149263181Y-89003838D01*
X149296666Y-89065161D01*
X149299500Y-89091519D01*
X149299500Y-89817695D01*
X149279815Y-89884734D01*
X149227011Y-89930489D01*
X149157853Y-89940433D01*
X149117592Y-89926263D01*
X149117554Y-89926353D01*
X149116278Y-89925800D01*
X149112386Y-89924431D01*
X149110401Y-89923257D01*
X149110393Y-89923254D01*
X148952573Y-89877402D01*
X148952567Y-89877401D01*
X148915701Y-89874500D01*
X148915694Y-89874500D01*
X148674000Y-89874500D01*
X148606961Y-89854815D01*
X148561206Y-89802011D01*
X148550000Y-89750500D01*
X148550000Y-89487500D01*
X148000000Y-89487500D01*
X148000000Y-90143184D01*
X147982733Y-90206304D01*
X147948254Y-90264605D01*
X147948254Y-90264606D01*
X147902402Y-90422426D01*
X147902401Y-90422432D01*
X147899500Y-90459298D01*
X147899500Y-91765701D01*
X147902401Y-91802567D01*
X147902402Y-91802573D01*
X147948254Y-91960393D01*
X147948255Y-91960396D01*
X148031917Y-92101862D01*
X148031923Y-92101870D01*
X148148129Y-92218076D01*
X148148133Y-92218079D01*
X148148135Y-92218081D01*
X148289602Y-92301744D01*
X148331224Y-92313836D01*
X148447426Y-92347597D01*
X148447429Y-92347597D01*
X148447431Y-92347598D01*
X148484306Y-92350500D01*
X148484314Y-92350500D01*
X148915686Y-92350500D01*
X148915694Y-92350500D01*
X148952569Y-92347598D01*
X148952571Y-92347597D01*
X148952573Y-92347597D01*
X148994191Y-92335505D01*
X149110398Y-92301744D01*
X149222944Y-92235185D01*
X149252395Y-92217768D01*
X149315516Y-92200500D01*
X149574684Y-92200500D01*
X149622136Y-92209939D01*
X149746957Y-92261641D01*
X149766503Y-92269737D01*
X149921153Y-92300499D01*
X149921156Y-92300500D01*
X149921158Y-92300500D01*
X150078844Y-92300500D01*
X150078845Y-92300499D01*
X150233497Y-92269737D01*
X150379179Y-92209394D01*
X150510289Y-92121789D01*
X150621789Y-92010289D01*
X150709394Y-91879179D01*
X150769737Y-91733497D01*
X150800500Y-91578842D01*
X150800500Y-91421158D01*
X150800500Y-91421155D01*
X150800499Y-91421153D01*
X150769737Y-91266503D01*
X150751616Y-91222754D01*
X150709939Y-91122136D01*
X150700500Y-91074684D01*
X150700500Y-88681004D01*
X150673581Y-88545676D01*
X150673578Y-88545667D01*
X150663905Y-88522316D01*
X150663903Y-88522311D01*
X150651027Y-88491226D01*
X150641181Y-88467454D01*
X150620775Y-88418189D01*
X150572962Y-88346632D01*
X150572962Y-88346631D01*
X150544115Y-88303458D01*
X150544109Y-88303451D01*
X147696545Y-85455887D01*
X147581807Y-85379222D01*
X147454332Y-85326421D01*
X147454322Y-85326418D01*
X147318996Y-85299500D01*
X147318994Y-85299500D01*
X147318993Y-85299500D01*
X140250251Y-85299500D01*
X140183212Y-85279815D01*
X140137457Y-85227011D01*
X140127513Y-85157853D01*
X140132320Y-85137182D01*
X140137972Y-85119783D01*
X140171873Y-85015449D01*
X140202960Y-84819174D01*
X140202960Y-84620452D01*
X140171873Y-84424177D01*
X140110465Y-84235181D01*
X140110465Y-84235180D01*
X140020246Y-84058118D01*
X139903441Y-83897349D01*
X139762924Y-83756832D01*
X139602154Y-83640026D01*
X139445678Y-83560297D01*
X139394883Y-83512323D01*
X139378088Y-83444502D01*
X139400625Y-83378367D01*
X139445678Y-83339328D01*
X139602154Y-83259600D01*
X139762924Y-83142794D01*
X139903441Y-83002277D01*
X140020247Y-82841507D01*
X140110465Y-82664445D01*
X140171873Y-82475449D01*
X140202960Y-82279174D01*
X140202960Y-82080452D01*
X140171873Y-81884177D01*
X140110465Y-81695181D01*
X140110465Y-81695180D01*
X140020246Y-81518118D01*
X139942530Y-81411151D01*
X139903441Y-81357349D01*
X139762924Y-81216832D01*
X139602154Y-81100026D01*
X139425092Y-81009807D01*
X139425089Y-81009806D01*
X139370073Y-80991931D01*
X139312398Y-80952494D01*
X139285199Y-80888135D01*
X139297114Y-80819289D01*
X139344358Y-80767813D01*
X139408391Y-80750000D01*
X163496529Y-80750000D01*
X163563568Y-80769685D01*
X163609323Y-80822489D01*
X163619267Y-80891647D01*
X163590242Y-80955203D01*
X163534847Y-80991931D01*
X163479830Y-81009806D01*
X163479827Y-81009807D01*
X163302765Y-81100026D01*
X163141993Y-81216834D01*
X163001481Y-81357346D01*
X162884673Y-81518118D01*
X162794454Y-81695180D01*
X162794453Y-81695183D01*
X162733047Y-81884175D01*
X162701960Y-82080452D01*
X162701960Y-82279173D01*
X162733047Y-82475450D01*
X162794453Y-82664442D01*
X162794454Y-82664445D01*
X162884673Y-82841507D01*
X163001479Y-83002277D01*
X163141996Y-83142794D01*
X163302766Y-83259600D01*
X163367628Y-83292649D01*
X163459240Y-83339328D01*
X163510036Y-83387303D01*
X163526831Y-83455124D01*
X163504293Y-83521259D01*
X163459240Y-83560298D01*
X163302765Y-83640026D01*
X163141993Y-83756834D01*
X163001481Y-83897346D01*
X162884673Y-84058118D01*
X162794454Y-84235180D01*
X162794453Y-84235183D01*
X162733047Y-84424175D01*
X162701960Y-84620452D01*
X162701960Y-84819173D01*
X162733047Y-85015450D01*
X162794453Y-85204442D01*
X162794454Y-85204445D01*
X162856605Y-85326421D01*
X162884673Y-85381507D01*
X163001479Y-85542277D01*
X163141996Y-85682794D01*
X163302766Y-85799600D01*
X163421292Y-85859992D01*
X163459240Y-85879328D01*
X163510036Y-85927303D01*
X163526831Y-85995124D01*
X163504293Y-86061259D01*
X163459240Y-86100298D01*
X163302765Y-86180026D01*
X163141993Y-86296834D01*
X163001481Y-86437346D01*
X162884670Y-86598122D01*
X162883460Y-86600098D01*
X162882803Y-86600691D01*
X162881809Y-86602061D01*
X162881521Y-86601852D01*
X162831650Y-86646976D01*
X162777730Y-86659313D01*
X162326857Y-86659313D01*
X162326841Y-86659312D01*
X162319245Y-86659312D01*
X162161130Y-86659312D01*
X162084766Y-86679774D01*
X162008401Y-86700236D01*
X162008396Y-86700239D01*
X161871477Y-86779288D01*
X161871469Y-86779294D01*
X159019481Y-89631282D01*
X159019475Y-89631290D01*
X158979546Y-89700451D01*
X158979546Y-89700452D01*
X158940423Y-89768215D01*
X158899499Y-89920943D01*
X158899499Y-89920945D01*
X158899499Y-90089046D01*
X158899500Y-90089059D01*
X158899500Y-92670234D01*
X158879815Y-92737273D01*
X158878602Y-92739125D01*
X158790609Y-92870814D01*
X158790602Y-92870827D01*
X158730264Y-93016498D01*
X158730261Y-93016510D01*
X158699500Y-93171153D01*
X158699500Y-93328846D01*
X158730261Y-93483489D01*
X158730264Y-93483501D01*
X158790602Y-93629172D01*
X158790609Y-93629185D01*
X158878210Y-93760288D01*
X158878213Y-93760292D01*
X158989707Y-93871786D01*
X158989711Y-93871789D01*
X159120814Y-93959390D01*
X159120827Y-93959397D01*
X159266498Y-94019735D01*
X159266503Y-94019737D01*
X159396982Y-94045691D01*
X159421153Y-94050499D01*
X159421156Y-94050500D01*
X159421158Y-94050500D01*
X159578844Y-94050500D01*
X159578845Y-94050499D01*
X159733497Y-94019737D01*
X159733509Y-94019731D01*
X159739324Y-94017969D01*
X159740158Y-94020720D01*
X159797359Y-94014497D01*
X159859878Y-94045691D01*
X159895608Y-94105734D01*
X159899500Y-94136555D01*
X159899500Y-124663330D01*
X159899499Y-124663348D01*
X159899499Y-124829054D01*
X159899498Y-124829054D01*
X159940423Y-124981785D01*
X159969358Y-125031900D01*
X159969359Y-125031904D01*
X159969360Y-125031904D01*
X160019479Y-125118714D01*
X160019481Y-125118717D01*
X160138349Y-125237585D01*
X160138355Y-125237590D01*
X167345139Y-132444374D01*
X167345149Y-132444385D01*
X167349479Y-132448715D01*
X167349480Y-132448716D01*
X167461284Y-132560520D01*
X167461286Y-132560521D01*
X167461290Y-132560524D01*
X167598209Y-132639573D01*
X167598216Y-132639577D01*
X167710019Y-132669534D01*
X167750942Y-132680500D01*
X167750943Y-132680500D01*
X167964281Y-132680500D01*
X168031320Y-132700185D01*
X168074765Y-132748205D01*
X168094947Y-132787814D01*
X168094948Y-132787815D01*
X168219890Y-132959786D01*
X168370213Y-133110109D01*
X168542179Y-133235048D01*
X168542181Y-133235049D01*
X168542184Y-133235051D01*
X168551493Y-133239794D01*
X168602290Y-133287766D01*
X168619087Y-133355587D01*
X168596552Y-133421722D01*
X168551505Y-133460760D01*
X168542446Y-133465376D01*
X168542440Y-133465380D01*
X168488282Y-133504727D01*
X168488282Y-133504728D01*
X169120591Y-134137037D01*
X169057007Y-134154075D01*
X168942993Y-134219901D01*
X168849901Y-134312993D01*
X168784075Y-134427007D01*
X168767037Y-134490591D01*
X168134728Y-133858282D01*
X168134727Y-133858282D01*
X168095380Y-133912439D01*
X167998904Y-134101782D01*
X167933242Y-134303869D01*
X167933242Y-134303872D01*
X167900000Y-134513753D01*
X167900000Y-134726246D01*
X167933242Y-134936127D01*
X167933242Y-134936130D01*
X167998904Y-135138217D01*
X168095375Y-135327550D01*
X168134728Y-135381716D01*
X168767037Y-134749408D01*
X168784075Y-134812993D01*
X168849901Y-134927007D01*
X168942993Y-135020099D01*
X169057007Y-135085925D01*
X169120590Y-135102962D01*
X168488282Y-135735269D01*
X168488282Y-135735270D01*
X168542449Y-135774624D01*
X168731782Y-135871095D01*
X168933870Y-135936757D01*
X169143754Y-135970000D01*
X169356246Y-135970000D01*
X169566127Y-135936757D01*
X169566130Y-135936757D01*
X169768217Y-135871095D01*
X169957554Y-135774622D01*
X170011716Y-135735270D01*
X170011717Y-135735270D01*
X169379408Y-135102962D01*
X169442993Y-135085925D01*
X169557007Y-135020099D01*
X169650099Y-134927007D01*
X169715925Y-134812993D01*
X169732962Y-134749409D01*
X170365270Y-135381717D01*
X170365270Y-135381716D01*
X170404622Y-135327554D01*
X170501095Y-135138217D01*
X170566757Y-134936130D01*
X170566757Y-134936127D01*
X170600000Y-134726246D01*
X170600000Y-134624038D01*
X172649500Y-134624038D01*
X172649500Y-134875961D01*
X172688910Y-135124785D01*
X172766760Y-135364383D01*
X172837112Y-135502454D01*
X172879131Y-135584922D01*
X172881132Y-135588848D01*
X173029201Y-135792649D01*
X173029205Y-135792654D01*
X173207345Y-135970794D01*
X173207350Y-135970798D01*
X173385117Y-136099952D01*
X173411155Y-136118870D01*
X173554184Y-136191747D01*
X173635616Y-136233239D01*
X173635618Y-136233239D01*
X173635621Y-136233241D01*
X173875215Y-136311090D01*
X174124038Y-136350500D01*
X174124039Y-136350500D01*
X174375961Y-136350500D01*
X174375962Y-136350500D01*
X174624785Y-136311090D01*
X174864379Y-136233241D01*
X175088845Y-136118870D01*
X175292656Y-135970793D01*
X175470793Y-135792656D01*
X175618870Y-135588845D01*
X175733241Y-135364379D01*
X175811090Y-135124785D01*
X175850500Y-134875962D01*
X175850500Y-134624038D01*
X175811090Y-134375215D01*
X175733241Y-134135621D01*
X175733239Y-134135618D01*
X175733239Y-134135616D01*
X175661648Y-133995112D01*
X175618870Y-133911155D01*
X175580456Y-133858282D01*
X175470798Y-133707350D01*
X175470794Y-133707345D01*
X175292654Y-133529205D01*
X175292649Y-133529201D01*
X175088848Y-133381132D01*
X175088847Y-133381131D01*
X175088845Y-133381130D01*
X175017869Y-133344966D01*
X174864383Y-133266760D01*
X174624785Y-133188910D01*
X174600016Y-133184987D01*
X174375962Y-133149500D01*
X174124038Y-133149500D01*
X173999626Y-133169205D01*
X173875214Y-133188910D01*
X173635616Y-133266760D01*
X173411151Y-133381132D01*
X173207350Y-133529201D01*
X173207345Y-133529205D01*
X173029205Y-133707345D01*
X173029201Y-133707350D01*
X172881132Y-133911151D01*
X172766760Y-134135616D01*
X172688910Y-134375214D01*
X172649500Y-134624038D01*
X170600000Y-134624038D01*
X170600000Y-134513753D01*
X170566757Y-134303872D01*
X170566757Y-134303869D01*
X170501095Y-134101782D01*
X170404624Y-133912449D01*
X170365270Y-133858282D01*
X170365269Y-133858282D01*
X169732962Y-134490590D01*
X169715925Y-134427007D01*
X169650099Y-134312993D01*
X169557007Y-134219901D01*
X169442993Y-134154075D01*
X169379409Y-134137037D01*
X170011716Y-133504728D01*
X169957547Y-133465373D01*
X169957547Y-133465372D01*
X169948500Y-133460763D01*
X169897706Y-133412788D01*
X169880912Y-133344966D01*
X169903451Y-133278832D01*
X169948508Y-133239793D01*
X169957816Y-133235051D01*
X170075568Y-133149500D01*
X170129786Y-133110109D01*
X170129788Y-133110106D01*
X170129792Y-133110104D01*
X170280104Y-132959792D01*
X170280106Y-132959788D01*
X170280109Y-132959786D01*
X170405048Y-132787820D01*
X170405047Y-132787820D01*
X170405051Y-132787816D01*
X170501557Y-132598412D01*
X170567246Y-132396243D01*
X170600500Y-132186287D01*
X170600500Y-131973713D01*
X170567246Y-131763757D01*
X170501557Y-131561588D01*
X170405051Y-131372184D01*
X170405049Y-131372181D01*
X170405048Y-131372179D01*
X170280109Y-131200213D01*
X170129786Y-131049890D01*
X169957820Y-130924951D01*
X169957115Y-130924591D01*
X169949054Y-130920485D01*
X169898259Y-130872512D01*
X169881463Y-130804692D01*
X169903999Y-130738556D01*
X169949054Y-130699515D01*
X169957816Y-130695051D01*
X169979789Y-130679086D01*
X170129786Y-130570109D01*
X170129788Y-130570106D01*
X170129792Y-130570104D01*
X170280104Y-130419792D01*
X170280106Y-130419788D01*
X170280109Y-130419786D01*
X170405048Y-130247820D01*
X170405047Y-130247820D01*
X170405051Y-130247816D01*
X170501557Y-130058412D01*
X170567246Y-129856243D01*
X170600500Y-129646287D01*
X170600500Y-129433713D01*
X170567246Y-129223757D01*
X170501557Y-129021588D01*
X170405051Y-128832184D01*
X170405049Y-128832181D01*
X170405048Y-128832179D01*
X170280109Y-128660213D01*
X170166569Y-128546673D01*
X170133084Y-128485350D01*
X170138068Y-128415658D01*
X170179940Y-128359725D01*
X170210915Y-128342810D01*
X170342331Y-128293796D01*
X170457546Y-128207546D01*
X170543796Y-128092331D01*
X170594091Y-127957483D01*
X170600500Y-127897873D01*
X170600499Y-126102128D01*
X170594091Y-126042517D01*
X170543796Y-125907669D01*
X170543795Y-125907668D01*
X170543793Y-125907664D01*
X170457547Y-125792455D01*
X170457544Y-125792452D01*
X170342335Y-125706206D01*
X170342328Y-125706202D01*
X170207482Y-125655908D01*
X170207483Y-125655908D01*
X170147883Y-125649501D01*
X170147881Y-125649500D01*
X170147873Y-125649500D01*
X170147864Y-125649500D01*
X168352129Y-125649500D01*
X168352123Y-125649501D01*
X168292516Y-125655908D01*
X168157671Y-125706202D01*
X168157664Y-125706206D01*
X168042455Y-125792452D01*
X168042452Y-125792455D01*
X167956206Y-125907664D01*
X167956202Y-125907671D01*
X167905908Y-126042517D01*
X167899501Y-126102116D01*
X167899501Y-126102123D01*
X167899500Y-126102135D01*
X167899500Y-127897870D01*
X167899501Y-127897876D01*
X167905908Y-127957483D01*
X167956202Y-128092328D01*
X167956206Y-128092335D01*
X168042452Y-128207544D01*
X168042455Y-128207547D01*
X168157664Y-128293793D01*
X168157671Y-128293797D01*
X168289082Y-128342810D01*
X168345016Y-128384681D01*
X168369433Y-128450145D01*
X168354582Y-128518418D01*
X168333431Y-128546673D01*
X168219889Y-128660215D01*
X168094951Y-128832179D01*
X167998444Y-129021585D01*
X167932753Y-129223760D01*
X167899500Y-129433713D01*
X167899500Y-129646286D01*
X167932753Y-129856239D01*
X167998444Y-130058414D01*
X168094951Y-130247820D01*
X168219890Y-130419786D01*
X168370213Y-130570109D01*
X168542182Y-130695050D01*
X168550946Y-130699516D01*
X168601742Y-130747491D01*
X168618536Y-130815312D01*
X168595998Y-130881447D01*
X168550946Y-130920484D01*
X168542182Y-130924949D01*
X168370213Y-131049890D01*
X168219894Y-131200209D01*
X168128303Y-131326274D01*
X168072973Y-131368939D01*
X168003360Y-131374918D01*
X167941565Y-131342312D01*
X167940304Y-131341069D01*
X161136819Y-124537584D01*
X161103334Y-124476261D01*
X161100500Y-124449903D01*
X161100500Y-91800097D01*
X161120185Y-91733058D01*
X161136819Y-91712416D01*
X162412604Y-90436632D01*
X162473927Y-90403147D01*
X162500285Y-90400313D01*
X162777730Y-90400313D01*
X162844769Y-90419998D01*
X162881651Y-90457679D01*
X162881809Y-90457565D01*
X162882587Y-90458636D01*
X162883460Y-90459528D01*
X162884670Y-90461503D01*
X162884673Y-90461507D01*
X163001479Y-90622277D01*
X163141996Y-90762794D01*
X163302766Y-90879600D01*
X163398135Y-90928193D01*
X163459240Y-90959328D01*
X163510036Y-91007303D01*
X163526831Y-91075124D01*
X163504293Y-91141259D01*
X163459240Y-91180298D01*
X163302765Y-91260026D01*
X163141993Y-91376834D01*
X163001481Y-91517346D01*
X162884673Y-91678118D01*
X162794454Y-91855180D01*
X162794453Y-91855183D01*
X162733047Y-92044175D01*
X162701960Y-92240452D01*
X162701960Y-92439173D01*
X162733047Y-92635450D01*
X162794453Y-92824442D01*
X162794454Y-92824445D01*
X162844573Y-92922807D01*
X162884673Y-93001507D01*
X163001479Y-93162277D01*
X163141996Y-93302794D01*
X163302766Y-93419600D01*
X163413266Y-93475903D01*
X163459240Y-93499328D01*
X163510036Y-93547303D01*
X163526831Y-93615124D01*
X163504293Y-93681259D01*
X163459240Y-93720298D01*
X163302765Y-93800026D01*
X163141993Y-93916834D01*
X163001481Y-94057346D01*
X162884673Y-94218118D01*
X162794454Y-94395180D01*
X162794453Y-94395183D01*
X162733047Y-94584175D01*
X162701960Y-94780452D01*
X162701960Y-94979173D01*
X162733047Y-95175450D01*
X162794453Y-95364442D01*
X162794454Y-95364445D01*
X162845851Y-95465315D01*
X162884673Y-95541507D01*
X163001479Y-95702277D01*
X163141996Y-95842794D01*
X163302766Y-95959600D01*
X163405420Y-96011905D01*
X163459240Y-96039328D01*
X163510036Y-96087303D01*
X163526831Y-96155124D01*
X163504293Y-96221259D01*
X163459240Y-96260298D01*
X163302765Y-96340026D01*
X163141993Y-96456834D01*
X163001481Y-96597346D01*
X162884673Y-96758118D01*
X162794454Y-96935180D01*
X162794453Y-96935183D01*
X162733047Y-97124175D01*
X162724215Y-97179940D01*
X162701960Y-97320452D01*
X162701960Y-97519174D01*
X162713310Y-97590834D01*
X162733047Y-97715450D01*
X162794453Y-97904442D01*
X162794454Y-97904445D01*
X162877832Y-98068081D01*
X162884673Y-98081507D01*
X163001479Y-98242277D01*
X163141996Y-98382794D01*
X163302766Y-98499600D01*
X163421292Y-98559992D01*
X163459240Y-98579328D01*
X163510036Y-98627303D01*
X163526831Y-98695124D01*
X163504293Y-98761259D01*
X163459240Y-98800298D01*
X163302765Y-98880026D01*
X163141993Y-98996834D01*
X163001481Y-99137346D01*
X162884673Y-99298118D01*
X162794454Y-99475180D01*
X162794453Y-99475183D01*
X162733047Y-99664175D01*
X162733047Y-99664177D01*
X162701960Y-99860452D01*
X162701960Y-100059174D01*
X162713922Y-100134696D01*
X162733047Y-100255450D01*
X162794453Y-100444442D01*
X162794454Y-100444445D01*
X162861723Y-100576465D01*
X162884673Y-100621507D01*
X163001479Y-100782277D01*
X163141996Y-100922794D01*
X163302766Y-101039600D01*
X163421292Y-101099992D01*
X163459240Y-101119328D01*
X163510036Y-101167303D01*
X163526831Y-101235124D01*
X163504293Y-101301259D01*
X163459240Y-101340298D01*
X163302765Y-101420026D01*
X163141993Y-101536834D01*
X163001481Y-101677346D01*
X162884673Y-101838118D01*
X162794454Y-102015180D01*
X162794453Y-102015183D01*
X162733047Y-102204175D01*
X162701960Y-102400452D01*
X162701960Y-102599173D01*
X162733047Y-102795450D01*
X162794453Y-102984442D01*
X162794454Y-102984445D01*
X162866308Y-103125464D01*
X162884673Y-103161507D01*
X163001479Y-103322277D01*
X163141996Y-103462794D01*
X163302766Y-103579600D01*
X163363695Y-103610645D01*
X163459240Y-103659328D01*
X163510036Y-103707303D01*
X163526831Y-103775124D01*
X163504293Y-103841259D01*
X163459240Y-103880298D01*
X163302765Y-103960026D01*
X163141993Y-104076834D01*
X163001481Y-104217346D01*
X162884673Y-104378118D01*
X162794454Y-104555180D01*
X162794453Y-104555183D01*
X162733047Y-104744175D01*
X162701960Y-104940452D01*
X162701960Y-105139173D01*
X162733047Y-105335450D01*
X162794453Y-105524442D01*
X162794454Y-105524445D01*
X162848891Y-105631282D01*
X162884673Y-105701507D01*
X163001479Y-105862277D01*
X163141996Y-106002794D01*
X163302766Y-106119600D01*
X163421292Y-106179992D01*
X163459240Y-106199328D01*
X163510036Y-106247303D01*
X163526831Y-106315124D01*
X163504293Y-106381259D01*
X163459240Y-106420298D01*
X163302765Y-106500026D01*
X163141993Y-106616834D01*
X163001481Y-106757346D01*
X162884673Y-106918118D01*
X162794454Y-107095180D01*
X162794453Y-107095183D01*
X162733047Y-107284175D01*
X162701960Y-107480452D01*
X162701960Y-107679173D01*
X162733047Y-107875450D01*
X162794453Y-108064442D01*
X162794454Y-108064445D01*
X162884673Y-108241507D01*
X163001479Y-108402277D01*
X163141996Y-108542794D01*
X163302766Y-108659600D01*
X163421292Y-108719992D01*
X163459240Y-108739328D01*
X163510036Y-108787303D01*
X163526831Y-108855124D01*
X163504293Y-108921259D01*
X163459240Y-108960298D01*
X163302765Y-109040026D01*
X163141993Y-109156834D01*
X163001481Y-109297346D01*
X162884673Y-109458118D01*
X162794454Y-109635180D01*
X162794453Y-109635183D01*
X162733047Y-109824175D01*
X162701960Y-110020452D01*
X162701960Y-110219173D01*
X162733047Y-110415450D01*
X162794453Y-110604442D01*
X162794454Y-110604445D01*
X162884673Y-110781507D01*
X163001479Y-110942277D01*
X163141996Y-111082794D01*
X163302766Y-111199600D01*
X163421292Y-111259992D01*
X163459240Y-111279328D01*
X163510036Y-111327303D01*
X163526831Y-111395124D01*
X163504293Y-111461259D01*
X163459240Y-111500298D01*
X163302765Y-111580026D01*
X163141993Y-111696834D01*
X163001481Y-111837346D01*
X162884673Y-111998118D01*
X162794454Y-112175180D01*
X162794453Y-112175183D01*
X162733047Y-112364175D01*
X162701960Y-112560452D01*
X162701960Y-112759173D01*
X162733047Y-112955450D01*
X162794453Y-113144442D01*
X162794454Y-113144445D01*
X162884673Y-113321507D01*
X163001479Y-113482277D01*
X163141996Y-113622794D01*
X163302766Y-113739600D01*
X163459792Y-113819609D01*
X163510587Y-113867582D01*
X163527382Y-113935403D01*
X163504845Y-114001538D01*
X163459792Y-114040577D01*
X163303029Y-114120452D01*
X163142320Y-114237216D01*
X163142319Y-114237216D01*
X163001863Y-114377672D01*
X163001863Y-114377673D01*
X162885101Y-114538380D01*
X162794916Y-114715377D01*
X162733534Y-114904295D01*
X162726325Y-114949812D01*
X162726325Y-114949813D01*
X163836774Y-114949813D01*
X163832380Y-114954207D01*
X163779719Y-115045419D01*
X163752460Y-115147152D01*
X163752460Y-115252474D01*
X163779719Y-115354207D01*
X163832380Y-115445419D01*
X163836774Y-115449813D01*
X162726325Y-115449813D01*
X162733534Y-115495330D01*
X162794916Y-115684248D01*
X162885101Y-115861245D01*
X163001863Y-116021952D01*
X163001863Y-116021953D01*
X163142319Y-116162409D01*
X163303027Y-116279171D01*
X163459791Y-116359047D01*
X163510587Y-116407022D01*
X163527382Y-116474843D01*
X163504844Y-116540978D01*
X163459791Y-116580017D01*
X163302765Y-116660026D01*
X163141993Y-116776834D01*
X163001481Y-116917346D01*
X162884673Y-117078118D01*
X162794454Y-117255180D01*
X162794453Y-117255183D01*
X162733047Y-117444175D01*
X162701960Y-117640452D01*
X162701960Y-117839173D01*
X162733047Y-118035450D01*
X162794453Y-118224442D01*
X162794454Y-118224445D01*
X162884673Y-118401507D01*
X163001479Y-118562277D01*
X163141996Y-118702794D01*
X163302766Y-118819600D01*
X163389609Y-118863848D01*
X163479827Y-118909818D01*
X163479830Y-118909819D01*
X163574326Y-118940522D01*
X163668824Y-118971226D01*
X163865099Y-119002313D01*
X163865100Y-119002313D01*
X164439820Y-119002313D01*
X164439821Y-119002313D01*
X164636096Y-118971226D01*
X164825092Y-118909818D01*
X165002154Y-118819600D01*
X165162924Y-118702794D01*
X165303441Y-118562277D01*
X165420247Y-118401507D01*
X165510465Y-118224445D01*
X165571873Y-118035449D01*
X165602960Y-117839174D01*
X165602960Y-117640452D01*
X165571873Y-117444177D01*
X165510465Y-117255181D01*
X165510465Y-117255180D01*
X165420246Y-117078118D01*
X165303441Y-116917349D01*
X165162924Y-116776832D01*
X165002154Y-116660026D01*
X164845127Y-116580016D01*
X164794332Y-116532042D01*
X164777537Y-116464221D01*
X164800074Y-116398086D01*
X164845128Y-116359047D01*
X165001892Y-116279171D01*
X165162599Y-116162409D01*
X165162600Y-116162409D01*
X165303056Y-116021953D01*
X165303056Y-116021952D01*
X165419818Y-115861245D01*
X165510003Y-115684248D01*
X165571385Y-115495330D01*
X165578594Y-115449813D01*
X164468146Y-115449813D01*
X164472540Y-115445419D01*
X164525201Y-115354207D01*
X164552460Y-115252474D01*
X164552460Y-115147152D01*
X164525201Y-115045419D01*
X164472540Y-114954207D01*
X164468146Y-114949813D01*
X165578595Y-114949813D01*
X165578594Y-114949812D01*
X165571385Y-114904295D01*
X165510003Y-114715377D01*
X165419818Y-114538380D01*
X165303056Y-114377673D01*
X165303056Y-114377672D01*
X165162600Y-114237216D01*
X165001892Y-114120454D01*
X164845128Y-114040578D01*
X164794332Y-113992603D01*
X164777537Y-113924782D01*
X164800075Y-113858647D01*
X164845127Y-113819609D01*
X165002154Y-113739600D01*
X165162924Y-113622794D01*
X165303441Y-113482277D01*
X165420247Y-113321507D01*
X165510465Y-113144445D01*
X165571873Y-112955449D01*
X165602960Y-112759174D01*
X165602960Y-112560452D01*
X165571873Y-112364177D01*
X165510465Y-112175181D01*
X165510465Y-112175180D01*
X165420246Y-111998118D01*
X165303441Y-111837349D01*
X165162924Y-111696832D01*
X165002154Y-111580026D01*
X164845678Y-111500297D01*
X164794883Y-111452323D01*
X164778088Y-111384502D01*
X164800625Y-111318367D01*
X164845678Y-111279328D01*
X165002154Y-111199600D01*
X165162924Y-111082794D01*
X165303441Y-110942277D01*
X165420247Y-110781507D01*
X165510465Y-110604445D01*
X165571873Y-110415449D01*
X165602960Y-110219174D01*
X165602960Y-110020452D01*
X165571873Y-109824177D01*
X165510465Y-109635181D01*
X165510465Y-109635180D01*
X165420246Y-109458118D01*
X165303441Y-109297349D01*
X165162924Y-109156832D01*
X165002154Y-109040026D01*
X164845678Y-108960297D01*
X164794883Y-108912323D01*
X164778088Y-108844502D01*
X164800625Y-108778367D01*
X164845678Y-108739328D01*
X165002154Y-108659600D01*
X165162924Y-108542794D01*
X165303441Y-108402277D01*
X165420247Y-108241507D01*
X165510465Y-108064445D01*
X165571873Y-107875449D01*
X165602960Y-107679174D01*
X165602960Y-107480452D01*
X165571873Y-107284177D01*
X165510465Y-107095181D01*
X165510465Y-107095180D01*
X165420246Y-106918118D01*
X165303441Y-106757349D01*
X165162924Y-106616832D01*
X165002154Y-106500026D01*
X164845678Y-106420297D01*
X164794883Y-106372323D01*
X164778088Y-106304502D01*
X164800625Y-106238367D01*
X164845678Y-106199328D01*
X165002154Y-106119600D01*
X165162924Y-106002794D01*
X165303441Y-105862277D01*
X165420247Y-105701507D01*
X165510465Y-105524445D01*
X165571873Y-105335449D01*
X165602960Y-105139174D01*
X165602960Y-104940452D01*
X165571873Y-104744177D01*
X165510465Y-104555181D01*
X165510465Y-104555180D01*
X165420246Y-104378118D01*
X165303441Y-104217349D01*
X165162924Y-104076832D01*
X165002154Y-103960026D01*
X164845678Y-103880297D01*
X164794883Y-103832323D01*
X164778088Y-103764502D01*
X164800625Y-103698367D01*
X164845678Y-103659328D01*
X165002154Y-103579600D01*
X165162924Y-103462794D01*
X165303441Y-103322277D01*
X165420247Y-103161507D01*
X165510465Y-102984445D01*
X165571873Y-102795449D01*
X165602960Y-102599174D01*
X165602960Y-102400452D01*
X165571873Y-102204177D01*
X165510465Y-102015181D01*
X165510465Y-102015180D01*
X165420246Y-101838118D01*
X165303441Y-101677349D01*
X165162924Y-101536832D01*
X165002154Y-101420026D01*
X164845678Y-101340297D01*
X164794883Y-101292323D01*
X164778088Y-101224502D01*
X164800625Y-101158367D01*
X164845678Y-101119328D01*
X165002154Y-101039600D01*
X165162924Y-100922794D01*
X165303441Y-100782277D01*
X165420247Y-100621507D01*
X165510465Y-100444445D01*
X165571873Y-100255449D01*
X165602960Y-100059174D01*
X165602960Y-99860452D01*
X165571873Y-99664177D01*
X165538836Y-99562500D01*
X165510466Y-99475183D01*
X165510465Y-99475180D01*
X165450127Y-99356762D01*
X165420247Y-99298119D01*
X165303441Y-99137349D01*
X165162924Y-98996832D01*
X165002154Y-98880026D01*
X164845678Y-98800297D01*
X164794883Y-98752323D01*
X164778088Y-98684502D01*
X164800625Y-98618367D01*
X164845678Y-98579328D01*
X165002154Y-98499600D01*
X165162924Y-98382794D01*
X165303441Y-98242277D01*
X165420247Y-98081507D01*
X165510465Y-97904445D01*
X165571873Y-97715449D01*
X165602960Y-97519174D01*
X165602960Y-97501557D01*
X165622645Y-97434518D01*
X165675449Y-97388763D01*
X165744607Y-97378819D01*
X165808163Y-97407844D01*
X165814637Y-97413872D01*
X166501284Y-98100520D01*
X166501286Y-98100521D01*
X166501290Y-98100524D01*
X166630288Y-98175000D01*
X166638216Y-98179577D01*
X166790943Y-98220501D01*
X166790945Y-98220501D01*
X166956654Y-98220501D01*
X166956670Y-98220500D01*
X168214281Y-98220500D01*
X168281320Y-98240185D01*
X168324765Y-98288205D01*
X168344947Y-98327814D01*
X168344948Y-98327815D01*
X168469890Y-98499786D01*
X168620213Y-98650109D01*
X168792182Y-98775050D01*
X168800946Y-98779516D01*
X168851742Y-98827491D01*
X168868536Y-98895312D01*
X168845998Y-98961447D01*
X168800946Y-99000484D01*
X168792182Y-99004949D01*
X168620213Y-99129890D01*
X168469890Y-99280213D01*
X168344951Y-99452179D01*
X168248444Y-99641585D01*
X168182753Y-99843760D01*
X168149500Y-100053713D01*
X168149500Y-100266286D01*
X168182097Y-100472100D01*
X168182754Y-100476243D01*
X168231251Y-100625502D01*
X168248444Y-100678414D01*
X168344951Y-100867820D01*
X168469890Y-101039786D01*
X168620213Y-101190109D01*
X168792182Y-101315050D01*
X168800946Y-101319516D01*
X168851742Y-101367491D01*
X168868536Y-101435312D01*
X168845998Y-101501447D01*
X168800946Y-101540484D01*
X168792182Y-101544949D01*
X168620213Y-101669890D01*
X168469890Y-101820213D01*
X168344951Y-101992179D01*
X168248444Y-102181585D01*
X168182753Y-102383760D01*
X168149500Y-102593713D01*
X168149500Y-102806286D01*
X168177717Y-102984445D01*
X168182754Y-103016243D01*
X168229953Y-103161507D01*
X168248444Y-103218414D01*
X168344951Y-103407820D01*
X168469890Y-103579786D01*
X168620213Y-103730109D01*
X168792182Y-103855050D01*
X168800946Y-103859516D01*
X168851742Y-103907491D01*
X168868536Y-103975312D01*
X168845998Y-104041447D01*
X168800946Y-104080484D01*
X168792182Y-104084949D01*
X168620213Y-104209890D01*
X168469890Y-104360213D01*
X168344951Y-104532179D01*
X168248444Y-104721585D01*
X168182753Y-104923760D01*
X168149500Y-105133713D01*
X168149500Y-105346286D01*
X168181079Y-105545672D01*
X168182754Y-105556243D01*
X168229953Y-105701507D01*
X168248444Y-105758414D01*
X168344951Y-105947820D01*
X168469890Y-106119786D01*
X168620213Y-106270109D01*
X168792179Y-106395048D01*
X168792181Y-106395049D01*
X168792184Y-106395051D01*
X168981588Y-106491557D01*
X169183757Y-106557246D01*
X169393713Y-106590500D01*
X169393714Y-106590500D01*
X169606286Y-106590500D01*
X169606287Y-106590500D01*
X169816243Y-106557246D01*
X170018412Y-106491557D01*
X170207816Y-106395051D01*
X170335460Y-106302313D01*
X170379786Y-106270109D01*
X170379788Y-106270106D01*
X170379792Y-106270104D01*
X170530104Y-106119792D01*
X170530106Y-106119788D01*
X170530109Y-106119786D01*
X170655048Y-105947820D01*
X170655047Y-105947820D01*
X170655051Y-105947816D01*
X170751557Y-105758412D01*
X170817246Y-105556243D01*
X170850500Y-105346287D01*
X170850500Y-105133713D01*
X170817246Y-104923757D01*
X170751557Y-104721588D01*
X170655051Y-104532184D01*
X170655049Y-104532181D01*
X170655048Y-104532179D01*
X170530109Y-104360213D01*
X170379786Y-104209890D01*
X170207820Y-104084951D01*
X170207115Y-104084591D01*
X170199054Y-104080485D01*
X170148259Y-104032512D01*
X170131463Y-103964692D01*
X170153999Y-103898556D01*
X170199054Y-103859515D01*
X170207816Y-103855051D01*
X170335460Y-103762313D01*
X170379786Y-103730109D01*
X170379788Y-103730106D01*
X170379792Y-103730104D01*
X170530104Y-103579792D01*
X170530106Y-103579788D01*
X170530109Y-103579786D01*
X170655048Y-103407820D01*
X170655047Y-103407820D01*
X170655051Y-103407816D01*
X170751557Y-103218412D01*
X170817246Y-103016243D01*
X170850500Y-102806287D01*
X170850500Y-102593713D01*
X170817246Y-102383757D01*
X170751557Y-102181588D01*
X170655051Y-101992184D01*
X170655049Y-101992181D01*
X170655048Y-101992179D01*
X170530109Y-101820213D01*
X170379786Y-101669890D01*
X170207820Y-101544951D01*
X170207115Y-101544591D01*
X170199054Y-101540485D01*
X170148259Y-101492512D01*
X170131463Y-101424692D01*
X170153999Y-101358556D01*
X170199054Y-101319515D01*
X170207816Y-101315051D01*
X170239099Y-101292323D01*
X170379786Y-101190109D01*
X170379788Y-101190106D01*
X170379792Y-101190104D01*
X170530104Y-101039792D01*
X170530106Y-101039788D01*
X170530109Y-101039786D01*
X170655048Y-100867820D01*
X170655047Y-100867820D01*
X170655051Y-100867816D01*
X170751557Y-100678412D01*
X170817246Y-100476243D01*
X170850500Y-100266287D01*
X170850500Y-100053713D01*
X170817246Y-99843757D01*
X170751557Y-99641588D01*
X170655051Y-99452184D01*
X170655049Y-99452181D01*
X170655048Y-99452179D01*
X170530109Y-99280213D01*
X170379786Y-99129890D01*
X170207820Y-99004951D01*
X170207115Y-99004591D01*
X170199054Y-99000485D01*
X170148259Y-98952512D01*
X170131463Y-98884692D01*
X170153999Y-98818556D01*
X170199054Y-98779515D01*
X170207816Y-98775051D01*
X170314543Y-98697510D01*
X170379786Y-98650109D01*
X170379788Y-98650106D01*
X170379792Y-98650104D01*
X170530104Y-98499792D01*
X170530106Y-98499788D01*
X170530109Y-98499786D01*
X170655048Y-98327820D01*
X170655047Y-98327820D01*
X170655051Y-98327816D01*
X170751557Y-98138412D01*
X170817246Y-97936243D01*
X170850500Y-97726287D01*
X170850500Y-97513713D01*
X170817246Y-97303757D01*
X170751557Y-97101588D01*
X170655051Y-96912184D01*
X170655049Y-96912181D01*
X170655048Y-96912179D01*
X170530109Y-96740213D01*
X170379786Y-96589890D01*
X170207820Y-96464951D01*
X170199600Y-96460763D01*
X170199054Y-96460485D01*
X170148259Y-96412512D01*
X170131463Y-96344692D01*
X170153999Y-96278556D01*
X170199054Y-96239515D01*
X170207816Y-96235051D01*
X170229789Y-96219086D01*
X170379786Y-96110109D01*
X170379788Y-96110106D01*
X170379792Y-96110104D01*
X170530104Y-95959792D01*
X170530106Y-95959788D01*
X170530109Y-95959786D01*
X170655048Y-95787820D01*
X170655047Y-95787820D01*
X170655051Y-95787816D01*
X170751557Y-95598412D01*
X170817246Y-95396243D01*
X170850500Y-95186287D01*
X170850500Y-94973713D01*
X170817246Y-94763757D01*
X170751557Y-94561588D01*
X170655051Y-94372184D01*
X170655049Y-94372181D01*
X170655048Y-94372179D01*
X170530109Y-94200213D01*
X170379786Y-94049890D01*
X170207820Y-93924951D01*
X170204597Y-93923309D01*
X170199054Y-93920485D01*
X170148259Y-93872512D01*
X170131463Y-93804692D01*
X170153999Y-93738556D01*
X170199054Y-93699515D01*
X170207816Y-93695051D01*
X170296918Y-93630315D01*
X170379786Y-93570109D01*
X170379788Y-93570106D01*
X170379792Y-93570104D01*
X170530104Y-93419792D01*
X170530106Y-93419788D01*
X170530109Y-93419786D01*
X170655048Y-93247820D01*
X170655047Y-93247820D01*
X170655051Y-93247816D01*
X170751557Y-93058412D01*
X170817246Y-92856243D01*
X170850500Y-92646287D01*
X170850500Y-92433713D01*
X170817246Y-92223757D01*
X170751557Y-92021588D01*
X170655051Y-91832184D01*
X170655049Y-91832181D01*
X170655048Y-91832179D01*
X170530109Y-91660213D01*
X170379786Y-91509890D01*
X170207817Y-91384949D01*
X170198504Y-91380204D01*
X170147707Y-91332230D01*
X170130912Y-91264409D01*
X170153449Y-91198274D01*
X170198507Y-91159232D01*
X170207555Y-91154622D01*
X170261716Y-91115270D01*
X170261717Y-91115270D01*
X169629408Y-90482962D01*
X169692993Y-90465925D01*
X169807007Y-90400099D01*
X169900099Y-90307007D01*
X169965925Y-90192993D01*
X169982962Y-90129409D01*
X170615270Y-90761717D01*
X170615270Y-90761716D01*
X170654622Y-90707554D01*
X170751095Y-90518217D01*
X170816757Y-90316130D01*
X170816757Y-90316127D01*
X170850000Y-90106246D01*
X170850000Y-89893753D01*
X170816757Y-89683872D01*
X170816757Y-89683869D01*
X170751095Y-89481782D01*
X170654624Y-89292449D01*
X170615270Y-89238282D01*
X170615269Y-89238282D01*
X169982962Y-89870590D01*
X169965925Y-89807007D01*
X169900099Y-89692993D01*
X169807007Y-89599901D01*
X169692993Y-89534075D01*
X169629409Y-89517037D01*
X170299627Y-88846818D01*
X170360950Y-88813333D01*
X170387307Y-88810499D01*
X170397872Y-88810499D01*
X170457483Y-88804091D01*
X170592331Y-88753796D01*
X170707546Y-88667546D01*
X170793796Y-88552331D01*
X170844091Y-88417483D01*
X170850500Y-88357873D01*
X170850499Y-86562128D01*
X170844091Y-86502517D01*
X170793796Y-86367669D01*
X170793795Y-86367668D01*
X170793793Y-86367664D01*
X170707547Y-86252455D01*
X170707544Y-86252452D01*
X170592335Y-86166206D01*
X170592328Y-86166202D01*
X170457482Y-86115908D01*
X170457483Y-86115908D01*
X170397883Y-86109501D01*
X170397881Y-86109500D01*
X170397873Y-86109500D01*
X170397864Y-86109500D01*
X168602129Y-86109500D01*
X168602123Y-86109501D01*
X168542516Y-86115908D01*
X168407671Y-86166202D01*
X168407664Y-86166206D01*
X168292455Y-86252452D01*
X168292452Y-86252455D01*
X168206206Y-86367664D01*
X168206202Y-86367671D01*
X168155908Y-86502517D01*
X168149501Y-86562116D01*
X168149501Y-86562123D01*
X168149500Y-86562135D01*
X168149500Y-86635500D01*
X168129815Y-86702539D01*
X168077011Y-86748294D01*
X168025500Y-86759500D01*
X166471004Y-86759500D01*
X166335677Y-86786418D01*
X166335667Y-86786421D01*
X166208192Y-86839222D01*
X166093454Y-86915887D01*
X165808669Y-87200672D01*
X165747346Y-87234157D01*
X165677654Y-87229173D01*
X165621721Y-87187301D01*
X165598515Y-87132389D01*
X165571873Y-86964177D01*
X165531273Y-86839222D01*
X165510466Y-86775183D01*
X165510465Y-86775180D01*
X165451427Y-86659313D01*
X165420247Y-86598119D01*
X165303441Y-86437349D01*
X165162924Y-86296832D01*
X165002154Y-86180026D01*
X164845678Y-86100297D01*
X164794883Y-86052323D01*
X164778088Y-85984502D01*
X164800625Y-85918367D01*
X164845678Y-85879328D01*
X165002154Y-85799600D01*
X165162924Y-85682794D01*
X165303441Y-85542277D01*
X165420247Y-85381507D01*
X165510465Y-85204445D01*
X165571873Y-85015449D01*
X165602960Y-84819174D01*
X165602960Y-84620452D01*
X165571873Y-84424177D01*
X165510465Y-84235181D01*
X165510465Y-84235180D01*
X165420246Y-84058118D01*
X165303441Y-83897349D01*
X165162924Y-83756832D01*
X165002154Y-83640026D01*
X164845678Y-83560297D01*
X164794883Y-83512323D01*
X164778088Y-83444502D01*
X164800625Y-83378367D01*
X164845678Y-83339328D01*
X165002154Y-83259600D01*
X165162924Y-83142794D01*
X165303441Y-83002277D01*
X165420247Y-82841507D01*
X165510465Y-82664445D01*
X165571873Y-82475449D01*
X165602960Y-82279174D01*
X165602960Y-82080452D01*
X165571873Y-81884177D01*
X165510465Y-81695181D01*
X165510465Y-81695180D01*
X165420246Y-81518118D01*
X165342530Y-81411151D01*
X165303441Y-81357349D01*
X165162924Y-81216832D01*
X165002154Y-81100026D01*
X164825092Y-81009807D01*
X164825089Y-81009806D01*
X164770073Y-80991931D01*
X164712398Y-80952494D01*
X164685199Y-80888135D01*
X164697114Y-80819289D01*
X164744358Y-80767813D01*
X164808391Y-80750000D01*
X173210006Y-80750000D01*
X173277045Y-80769685D01*
X173322800Y-80822489D01*
X173332744Y-80891647D01*
X173303719Y-80955203D01*
X173282891Y-80974318D01*
X173207350Y-81029201D01*
X173207345Y-81029205D01*
X173029205Y-81207345D01*
X173029201Y-81207350D01*
X172881132Y-81411151D01*
X172766760Y-81635616D01*
X172688910Y-81875214D01*
X172656403Y-82080452D01*
X172649500Y-82124038D01*
X172649500Y-82375962D01*
X172688910Y-82624785D01*
X172766760Y-82864383D01*
X172881132Y-83088848D01*
X173029201Y-83292649D01*
X173029205Y-83292654D01*
X173207345Y-83470794D01*
X173207350Y-83470798D01*
X173316099Y-83549808D01*
X173411155Y-83618870D01*
X173554184Y-83691747D01*
X173635616Y-83733239D01*
X173635618Y-83733239D01*
X173635621Y-83733241D01*
X173875215Y-83811090D01*
X174124038Y-83850500D01*
X174124039Y-83850500D01*
X174375961Y-83850500D01*
X174375962Y-83850500D01*
X174624785Y-83811090D01*
X174864379Y-83733241D01*
X175088845Y-83618870D01*
X175292656Y-83470793D01*
X175470793Y-83292656D01*
X175618870Y-83088845D01*
X175733241Y-82864379D01*
X175811090Y-82624785D01*
X175850500Y-82375962D01*
X175850500Y-82124038D01*
X175811090Y-81875215D01*
X175733241Y-81635621D01*
X175733239Y-81635618D01*
X175733239Y-81635616D01*
X175673370Y-81518118D01*
X175618870Y-81411155D01*
X175477688Y-81216834D01*
X175470798Y-81207350D01*
X175470794Y-81207345D01*
X175292654Y-81029205D01*
X175292649Y-81029201D01*
X175217109Y-80974318D01*
X175174443Y-80918988D01*
X175168464Y-80849375D01*
X175201070Y-80787580D01*
X175261908Y-80753223D01*
X175289994Y-80750000D01*
X177625500Y-80750000D01*
X177692539Y-80769685D01*
X177738294Y-80822489D01*
X177749500Y-80874000D01*
X177749500Y-136496249D01*
X177749274Y-136503736D01*
X177731728Y-136793794D01*
X177729923Y-136808659D01*
X177678219Y-137090797D01*
X177674635Y-137105335D01*
X177589304Y-137379174D01*
X177583994Y-137393176D01*
X177466277Y-137654730D01*
X177459319Y-137667987D01*
X177310928Y-137913458D01*
X177302422Y-137925782D01*
X177125525Y-138151573D01*
X177115595Y-138162781D01*
X176912781Y-138365595D01*
X176901573Y-138375525D01*
X176675782Y-138552422D01*
X176663458Y-138560928D01*
X176417987Y-138709319D01*
X176404730Y-138716277D01*
X176143176Y-138833994D01*
X176129174Y-138839304D01*
X175855335Y-138924635D01*
X175840797Y-138928219D01*
X175558659Y-138979923D01*
X175543794Y-138981728D01*
X175253736Y-138999274D01*
X175246249Y-138999500D01*
X128253751Y-138999500D01*
X128246264Y-138999274D01*
X127956205Y-138981728D01*
X127941340Y-138979923D01*
X127659202Y-138928219D01*
X127644664Y-138924635D01*
X127370825Y-138839304D01*
X127356827Y-138833995D01*
X127204096Y-138765256D01*
X127095269Y-138716277D01*
X127082012Y-138709319D01*
X126836541Y-138560928D01*
X126824217Y-138552422D01*
X126598426Y-138375525D01*
X126587218Y-138365595D01*
X126384404Y-138162781D01*
X126374474Y-138151573D01*
X126197573Y-137925776D01*
X126189071Y-137913458D01*
X126040680Y-137667987D01*
X126033722Y-137654730D01*
X125916000Y-137393163D01*
X125910698Y-137379182D01*
X125825363Y-137105334D01*
X125821780Y-137090797D01*
X125770076Y-136808659D01*
X125768271Y-136793794D01*
X125750726Y-136503736D01*
X125750500Y-136496249D01*
X125750500Y-134620115D01*
X127607483Y-134620115D01*
X127607483Y-134872039D01*
X127646756Y-135120000D01*
X127646893Y-135120862D01*
X127724743Y-135360460D01*
X127839115Y-135584925D01*
X127987184Y-135788726D01*
X127987188Y-135788731D01*
X128165328Y-135966871D01*
X128165333Y-135966875D01*
X128211302Y-136000273D01*
X128369138Y-136114947D01*
X128512167Y-136187824D01*
X128593599Y-136229316D01*
X128593601Y-136229316D01*
X128593604Y-136229318D01*
X128833198Y-136307167D01*
X129082021Y-136346577D01*
X129082022Y-136346577D01*
X129333944Y-136346577D01*
X129333945Y-136346577D01*
X129582768Y-136307167D01*
X129822362Y-136229318D01*
X130046828Y-136114947D01*
X130250639Y-135966870D01*
X130428776Y-135788733D01*
X130576853Y-135584922D01*
X130691224Y-135360456D01*
X130769073Y-135120862D01*
X130808483Y-134872039D01*
X130808483Y-134620115D01*
X130769073Y-134371292D01*
X130691224Y-134131698D01*
X130691222Y-134131695D01*
X130691222Y-134131693D01*
X130621630Y-133995112D01*
X130576853Y-133907232D01*
X130484076Y-133779535D01*
X130428781Y-133703427D01*
X130428777Y-133703422D01*
X130250637Y-133525282D01*
X130250632Y-133525278D01*
X130211961Y-133497182D01*
X130078218Y-133400013D01*
X136870000Y-133400013D01*
X136870000Y-134250000D01*
X138069999Y-134250000D01*
X138044979Y-134310402D01*
X138020000Y-134435981D01*
X138020000Y-134564019D01*
X138044979Y-134689598D01*
X138069999Y-134750000D01*
X136870001Y-134750000D01*
X136870001Y-135599986D01*
X136880494Y-135702697D01*
X136935641Y-135869119D01*
X136935643Y-135869124D01*
X137027684Y-136018345D01*
X137151654Y-136142315D01*
X137300875Y-136234356D01*
X137300880Y-136234358D01*
X137467302Y-136289505D01*
X137467309Y-136289506D01*
X137570019Y-136299999D01*
X138419999Y-136299999D01*
X138420000Y-136299998D01*
X138420000Y-135100001D01*
X138480402Y-135125021D01*
X138605981Y-135150000D01*
X138734019Y-135150000D01*
X138859598Y-135125021D01*
X138920000Y-135100001D01*
X138920000Y-136299999D01*
X139769972Y-136299999D01*
X139769986Y-136299998D01*
X139872697Y-136289505D01*
X140039119Y-136234358D01*
X140039124Y-136234356D01*
X140188345Y-136142315D01*
X140312315Y-136018345D01*
X140404356Y-135869124D01*
X140404358Y-135869119D01*
X140459505Y-135702697D01*
X140459506Y-135702690D01*
X140469999Y-135599986D01*
X140470000Y-135599973D01*
X140470000Y-134750000D01*
X139270001Y-134750000D01*
X139295021Y-134689598D01*
X139320000Y-134564019D01*
X139320000Y-134435981D01*
X139295021Y-134310402D01*
X139270001Y-134250000D01*
X140469999Y-134250000D01*
X140469999Y-133400028D01*
X140469998Y-133400013D01*
X140459505Y-133297302D01*
X140404358Y-133130880D01*
X140404356Y-133130875D01*
X140312315Y-132981654D01*
X140188345Y-132857684D01*
X140039124Y-132765643D01*
X140039119Y-132765641D01*
X139872697Y-132710494D01*
X139872690Y-132710493D01*
X139769986Y-132700000D01*
X138920000Y-132700000D01*
X138920000Y-133899998D01*
X138859598Y-133874979D01*
X138734019Y-133850000D01*
X138605981Y-133850000D01*
X138480402Y-133874979D01*
X138420000Y-133899998D01*
X138420000Y-132700000D01*
X137570028Y-132700000D01*
X137570012Y-132700001D01*
X137467302Y-132710494D01*
X137300880Y-132765641D01*
X137300875Y-132765643D01*
X137151654Y-132857684D01*
X137027684Y-132981654D01*
X136935643Y-133130875D01*
X136935641Y-133130880D01*
X136880494Y-133297302D01*
X136880493Y-133297309D01*
X136870000Y-133400013D01*
X130078218Y-133400013D01*
X130046831Y-133377209D01*
X130046830Y-133377208D01*
X130046828Y-133377207D01*
X129957235Y-133331557D01*
X129822366Y-133262837D01*
X129582768Y-133184987D01*
X129333945Y-133145577D01*
X129082021Y-133145577D01*
X128957609Y-133165282D01*
X128833197Y-133184987D01*
X128593599Y-133262837D01*
X128369134Y-133377209D01*
X128165333Y-133525278D01*
X128165328Y-133525282D01*
X127987188Y-133703422D01*
X127987184Y-133703427D01*
X127839115Y-133907228D01*
X127724743Y-134131693D01*
X127646893Y-134371291D01*
X127636647Y-134435981D01*
X127607483Y-134620115D01*
X125750500Y-134620115D01*
X125750500Y-128987174D01*
X125770185Y-128920135D01*
X125822989Y-128874380D01*
X125892147Y-128864436D01*
X125943391Y-128884072D01*
X126051315Y-128956185D01*
X126051328Y-128956192D01*
X126233306Y-129031569D01*
X126233318Y-129031572D01*
X126426504Y-129069999D01*
X126426508Y-129070000D01*
X126675000Y-129070000D01*
X126675000Y-128370000D01*
X127175000Y-128370000D01*
X127175000Y-129070000D01*
X127423492Y-129070000D01*
X127423495Y-129069999D01*
X127616681Y-129031572D01*
X127616693Y-129031569D01*
X127798671Y-128956192D01*
X127798684Y-128956185D01*
X127962462Y-128846751D01*
X127962466Y-128846748D01*
X128101748Y-128707466D01*
X128101751Y-128707462D01*
X128211185Y-128543684D01*
X128211192Y-128543671D01*
X128286569Y-128361692D01*
X128286569Y-128361690D01*
X128294862Y-128320000D01*
X127491988Y-128320000D01*
X127509205Y-128310060D01*
X127565060Y-128254205D01*
X127604556Y-128185796D01*
X127625000Y-128109496D01*
X127625000Y-128030504D01*
X127604556Y-127954204D01*
X127565060Y-127885795D01*
X127509205Y-127829940D01*
X127491988Y-127820000D01*
X128294862Y-127820000D01*
X129605138Y-127820000D01*
X130408012Y-127820000D01*
X130390795Y-127829940D01*
X130334940Y-127885795D01*
X130295444Y-127954204D01*
X130275000Y-128030504D01*
X130275000Y-128109496D01*
X130295444Y-128185796D01*
X130334940Y-128254205D01*
X130390795Y-128310060D01*
X130408012Y-128320000D01*
X129605138Y-128320000D01*
X129613430Y-128361690D01*
X129613430Y-128361692D01*
X129688807Y-128543671D01*
X129688814Y-128543684D01*
X129798248Y-128707462D01*
X129798251Y-128707466D01*
X129937533Y-128846748D01*
X129937537Y-128846751D01*
X130101315Y-128956185D01*
X130101328Y-128956192D01*
X130283306Y-129031569D01*
X130283318Y-129031572D01*
X130476504Y-129069999D01*
X130476508Y-129070000D01*
X130875000Y-129070000D01*
X130875000Y-128370000D01*
X131375000Y-128370000D01*
X131375000Y-129070000D01*
X131773492Y-129070000D01*
X131773495Y-129069999D01*
X131966681Y-129031572D01*
X131966693Y-129031569D01*
X132148671Y-128956192D01*
X132148684Y-128956185D01*
X132312462Y-128846751D01*
X132312466Y-128846748D01*
X132451748Y-128707466D01*
X132451751Y-128707462D01*
X132561185Y-128543684D01*
X132561192Y-128543671D01*
X132636569Y-128361692D01*
X132636569Y-128361690D01*
X132644862Y-128320000D01*
X131841988Y-128320000D01*
X131859205Y-128310060D01*
X131915060Y-128254205D01*
X131954556Y-128185796D01*
X131975000Y-128109496D01*
X131975000Y-128030504D01*
X131954556Y-127954204D01*
X131915060Y-127885795D01*
X131859205Y-127829940D01*
X131841988Y-127820000D01*
X132644862Y-127820000D01*
X132636569Y-127778309D01*
X132636569Y-127778307D01*
X132561192Y-127596328D01*
X132561185Y-127596315D01*
X132451751Y-127432537D01*
X132451748Y-127432533D01*
X132312466Y-127293251D01*
X132312462Y-127293248D01*
X132148684Y-127183814D01*
X132148671Y-127183807D01*
X131966693Y-127108430D01*
X131966681Y-127108427D01*
X131773495Y-127070000D01*
X131375000Y-127070000D01*
X131375000Y-127770000D01*
X130875000Y-127770000D01*
X130875000Y-127070000D01*
X130476504Y-127070000D01*
X130283318Y-127108427D01*
X130283306Y-127108430D01*
X130101328Y-127183807D01*
X130101315Y-127183814D01*
X129937537Y-127293248D01*
X129937533Y-127293251D01*
X129798251Y-127432533D01*
X129798248Y-127432537D01*
X129688814Y-127596315D01*
X129688807Y-127596328D01*
X129613430Y-127778307D01*
X129613430Y-127778309D01*
X129605138Y-127820000D01*
X128294862Y-127820000D01*
X128286569Y-127778309D01*
X128286569Y-127778307D01*
X128211192Y-127596328D01*
X128211185Y-127596315D01*
X128101751Y-127432537D01*
X128101748Y-127432533D01*
X127962466Y-127293251D01*
X127962462Y-127293248D01*
X127798684Y-127183814D01*
X127798671Y-127183807D01*
X127616693Y-127108430D01*
X127616681Y-127108427D01*
X127423495Y-127070000D01*
X127175000Y-127070000D01*
X127175000Y-127770000D01*
X126675000Y-127770000D01*
X126675000Y-127070000D01*
X126426504Y-127070000D01*
X126233318Y-127108427D01*
X126233306Y-127108430D01*
X126051328Y-127183807D01*
X126051310Y-127183817D01*
X125943390Y-127255927D01*
X125876713Y-127276805D01*
X125809333Y-127258320D01*
X125762643Y-127206341D01*
X125750500Y-127152825D01*
X125750500Y-120347174D01*
X125770185Y-120280135D01*
X125822989Y-120234380D01*
X125892147Y-120224436D01*
X125943391Y-120244072D01*
X126051315Y-120316185D01*
X126051328Y-120316192D01*
X126233306Y-120391569D01*
X126233318Y-120391572D01*
X126426504Y-120429999D01*
X126426508Y-120430000D01*
X126675000Y-120430000D01*
X126675000Y-119730000D01*
X127175000Y-119730000D01*
X127175000Y-120430000D01*
X127423492Y-120430000D01*
X127423495Y-120429999D01*
X127616681Y-120391572D01*
X127616693Y-120391569D01*
X127798671Y-120316192D01*
X127798684Y-120316185D01*
X127962462Y-120206751D01*
X127962466Y-120206748D01*
X128101748Y-120067466D01*
X128101751Y-120067462D01*
X128211185Y-119903684D01*
X128211192Y-119903671D01*
X128286569Y-119721692D01*
X128286569Y-119721690D01*
X128294862Y-119680000D01*
X127491988Y-119680000D01*
X127509205Y-119670060D01*
X127565060Y-119614205D01*
X127604556Y-119545796D01*
X127625000Y-119469496D01*
X127625000Y-119390504D01*
X127604556Y-119314204D01*
X127565060Y-119245795D01*
X127509205Y-119189940D01*
X127491988Y-119180000D01*
X128294862Y-119180000D01*
X129605138Y-119180000D01*
X130408012Y-119180000D01*
X130390795Y-119189940D01*
X130334940Y-119245795D01*
X130295444Y-119314204D01*
X130275000Y-119390504D01*
X130275000Y-119469496D01*
X130295444Y-119545796D01*
X130334940Y-119614205D01*
X130390795Y-119670060D01*
X130408012Y-119680000D01*
X129605138Y-119680000D01*
X129613430Y-119721690D01*
X129613430Y-119721692D01*
X129688807Y-119903671D01*
X129688814Y-119903684D01*
X129798248Y-120067462D01*
X129798251Y-120067466D01*
X129937533Y-120206748D01*
X129937537Y-120206751D01*
X130101315Y-120316185D01*
X130101328Y-120316192D01*
X130283306Y-120391569D01*
X130283318Y-120391572D01*
X130476504Y-120429999D01*
X130476508Y-120430000D01*
X130875000Y-120430000D01*
X130875000Y-119730000D01*
X131375000Y-119730000D01*
X131375000Y-120430000D01*
X131773492Y-120430000D01*
X131773495Y-120429999D01*
X131966681Y-120391572D01*
X131966693Y-120391569D01*
X132148671Y-120316192D01*
X132148684Y-120316185D01*
X132312462Y-120206751D01*
X132312466Y-120206748D01*
X132451748Y-120067466D01*
X132451751Y-120067462D01*
X132561185Y-119903684D01*
X132561192Y-119903671D01*
X132636569Y-119721692D01*
X132636569Y-119721690D01*
X132644862Y-119680000D01*
X131841988Y-119680000D01*
X131859205Y-119670060D01*
X131915060Y-119614205D01*
X131954556Y-119545796D01*
X131975000Y-119469496D01*
X131975000Y-119390504D01*
X131954556Y-119314204D01*
X131915060Y-119245795D01*
X131859205Y-119189940D01*
X131841988Y-119180000D01*
X132644862Y-119180000D01*
X132636569Y-119138309D01*
X132636569Y-119138307D01*
X132561192Y-118956328D01*
X132561185Y-118956315D01*
X132451751Y-118792537D01*
X132451748Y-118792533D01*
X132312466Y-118653251D01*
X132312462Y-118653248D01*
X132148684Y-118543814D01*
X132148671Y-118543807D01*
X131966693Y-118468430D01*
X131966681Y-118468427D01*
X131773495Y-118430000D01*
X131375000Y-118430000D01*
X131375000Y-119130000D01*
X130875000Y-119130000D01*
X130875000Y-118430000D01*
X130476504Y-118430000D01*
X130283318Y-118468427D01*
X130283306Y-118468430D01*
X130101328Y-118543807D01*
X130101315Y-118543814D01*
X129937537Y-118653248D01*
X129937533Y-118653251D01*
X129798251Y-118792533D01*
X129798248Y-118792537D01*
X129688814Y-118956315D01*
X129688807Y-118956328D01*
X129613430Y-119138307D01*
X129613430Y-119138309D01*
X129605138Y-119180000D01*
X128294862Y-119180000D01*
X128286569Y-119138309D01*
X128286569Y-119138307D01*
X128211192Y-118956328D01*
X128211185Y-118956315D01*
X128101751Y-118792537D01*
X128101748Y-118792533D01*
X127962466Y-118653251D01*
X127962462Y-118653248D01*
X127798684Y-118543814D01*
X127798671Y-118543807D01*
X127616693Y-118468430D01*
X127616681Y-118468427D01*
X127423495Y-118430000D01*
X127175000Y-118430000D01*
X127175000Y-119130000D01*
X126675000Y-119130000D01*
X126675000Y-118430000D01*
X126426504Y-118430000D01*
X126233318Y-118468427D01*
X126233306Y-118468430D01*
X126051328Y-118543807D01*
X126051310Y-118543817D01*
X125943390Y-118615927D01*
X125876713Y-118636805D01*
X125809333Y-118618320D01*
X125762643Y-118566341D01*
X125750500Y-118512825D01*
X125750500Y-80874000D01*
X125770185Y-80806961D01*
X125822989Y-80761206D01*
X125874500Y-80750000D01*
X128210006Y-80750000D01*
X128277045Y-80769685D01*
G37*
%TD.AperFunction*%
%TA.AperFunction,Conductor*%
G36*
X168092540Y-88180185D02*
G01*
X168138295Y-88232989D01*
X168149501Y-88284500D01*
X168149501Y-88357876D01*
X168155908Y-88417483D01*
X168206202Y-88552328D01*
X168206206Y-88552335D01*
X168292452Y-88667544D01*
X168292455Y-88667547D01*
X168407664Y-88753793D01*
X168407671Y-88753797D01*
X168452618Y-88770561D01*
X168542517Y-88804091D01*
X168602127Y-88810500D01*
X168612685Y-88810499D01*
X168679723Y-88830179D01*
X168700372Y-88846818D01*
X169370591Y-89517037D01*
X169307007Y-89534075D01*
X169192993Y-89599901D01*
X169099901Y-89692993D01*
X169034075Y-89807007D01*
X169017037Y-89870591D01*
X168384728Y-89238282D01*
X168384727Y-89238282D01*
X168345380Y-89292439D01*
X168248904Y-89481782D01*
X168183242Y-89683869D01*
X168183242Y-89683872D01*
X168150000Y-89893753D01*
X168150000Y-90106246D01*
X168183242Y-90316127D01*
X168183242Y-90316130D01*
X168248904Y-90518217D01*
X168345375Y-90707550D01*
X168384728Y-90761716D01*
X169017037Y-90129408D01*
X169034075Y-90192993D01*
X169099901Y-90307007D01*
X169192993Y-90400099D01*
X169307007Y-90465925D01*
X169370590Y-90482962D01*
X168738282Y-91115269D01*
X168738282Y-91115270D01*
X168792452Y-91154626D01*
X168792451Y-91154626D01*
X168801495Y-91159234D01*
X168852292Y-91207208D01*
X168869087Y-91275029D01*
X168846550Y-91341164D01*
X168801499Y-91380202D01*
X168792182Y-91384949D01*
X168620213Y-91509890D01*
X168469890Y-91660213D01*
X168344951Y-91832179D01*
X168248444Y-92021585D01*
X168182753Y-92223760D01*
X168149500Y-92433713D01*
X168149500Y-92646286D01*
X168182149Y-92852427D01*
X168182754Y-92856243D01*
X168234824Y-93016498D01*
X168248444Y-93058414D01*
X168344951Y-93247820D01*
X168469890Y-93419786D01*
X168620213Y-93570109D01*
X168792182Y-93695050D01*
X168800946Y-93699516D01*
X168851742Y-93747491D01*
X168868536Y-93815312D01*
X168845998Y-93881447D01*
X168800946Y-93920484D01*
X168792182Y-93924949D01*
X168620215Y-94049889D01*
X168505450Y-94164654D01*
X168444127Y-94198138D01*
X168417769Y-94200972D01*
X166769468Y-94200972D01*
X166728547Y-94211936D01*
X166728547Y-94211937D01*
X166705480Y-94218118D01*
X166616742Y-94241895D01*
X166616737Y-94241898D01*
X166479818Y-94320947D01*
X166479814Y-94320950D01*
X166385337Y-94415427D01*
X166324013Y-94448911D01*
X166321848Y-94449362D01*
X166166508Y-94480261D01*
X166166498Y-94480264D01*
X166020827Y-94540602D01*
X166020814Y-94540609D01*
X165889715Y-94628207D01*
X165887467Y-94630053D01*
X165886058Y-94630651D01*
X165884646Y-94631595D01*
X165884467Y-94631327D01*
X165823158Y-94657368D01*
X165754290Y-94645579D01*
X165721118Y-94621883D01*
X165617403Y-94518168D01*
X165617401Y-94518165D01*
X165539239Y-94440003D01*
X165514137Y-94398928D01*
X165512327Y-94399678D01*
X165510467Y-94395187D01*
X165510465Y-94395181D01*
X165420247Y-94218119D01*
X165303441Y-94057349D01*
X165162924Y-93916832D01*
X165002154Y-93800026D01*
X164845678Y-93720297D01*
X164794883Y-93672323D01*
X164778088Y-93604502D01*
X164800625Y-93538367D01*
X164845678Y-93499328D01*
X165002154Y-93419600D01*
X165162924Y-93302794D01*
X165303441Y-93162277D01*
X165420247Y-93001507D01*
X165510465Y-92824445D01*
X165571873Y-92635449D01*
X165602960Y-92439174D01*
X165602960Y-92240452D01*
X165571873Y-92044177D01*
X165541169Y-91949679D01*
X165510466Y-91855183D01*
X165510465Y-91855180D01*
X165456228Y-91748735D01*
X165420247Y-91678119D01*
X165303441Y-91517349D01*
X165162924Y-91376832D01*
X165002154Y-91260026D01*
X164845678Y-91180297D01*
X164794883Y-91132323D01*
X164778088Y-91064502D01*
X164800625Y-90998367D01*
X164845678Y-90959328D01*
X165002154Y-90879600D01*
X165162924Y-90762794D01*
X165303441Y-90622277D01*
X165420247Y-90461507D01*
X165510465Y-90284445D01*
X165571873Y-90095449D01*
X165602960Y-89899174D01*
X165602960Y-89700452D01*
X165571873Y-89504177D01*
X165522139Y-89351109D01*
X165520144Y-89281268D01*
X165556225Y-89221435D01*
X165615879Y-89191174D01*
X165633075Y-89187753D01*
X165704328Y-89173580D01*
X165789941Y-89138118D01*
X165831807Y-89120777D01*
X165831808Y-89120776D01*
X165831811Y-89120775D01*
X165946543Y-89044114D01*
X166793838Y-88196819D01*
X166855161Y-88163334D01*
X166881519Y-88160500D01*
X168025501Y-88160500D01*
X168092540Y-88180185D01*
G37*
%TD.AperFunction*%
%TD*%
M02*
